<?xml version="1.0" standalone="no"?>
<!DOCTYPE svg PUBLIC "-//W3C//DTD SVG 1.1//EN" "http://www.w3.org/Graphics/SVG/1.1/DTD/svg11.dtd" >
<svg xmlns="http://www.w3.org/2000/svg" xmlns:xlink="http://www.w3.org/1999/xlink" version="1.1">
<metadata>
Created by FontForge 20200427 at Thu Jul 18 08:33:03 2019
 By www
Copyright (c) 2019 by Roman Polishchuk. All rights reserved. |DCNT
</metadata>
<defs>
<font id="TildaScript-Regular" horiz-adv-x="528" >
  <font-face 
    font-family="Tilda Script"
    font-weight="400"
    font-stretch="normal"
    units-per-em="1000"
    panose-1="2 0 0 0 0 0 0 0 0 0"
    ascent="660"
    descent="-340"
    x-height="431"
    cap-height="817"
    bbox="-1605.22 -889.33 1750.06 1075.28"
    underline-thickness="50"
    underline-position="-100"
    unicode-range="U+0020-2122"
  />
<missing-glyph horiz-adv-x="500" 
 />
    <glyph glyph-name="afii10080afii10068" unicode="&#x43e;&#x433;" horiz-adv-x="843" 
d="M415 353q33 -25 38 -83q5 -68 -42 -146q-31 -60 -99 -99q-68 -38 -139 -37q-72 0 -117 48q-19 19 -24 47q-15 59 6.5 131.5t73.5 135.5q42 51 105 74t106 2q25 -10 22 -28q-8 0 -34 -7q-52 -15 -99 -76q-48 -61 -68 -124q-19 -54 -14 -95.5t32 -50.5q49 -16 106 42
q58 61 77 134q14 47 1 63q-6 8 -15 1q-6 -4 -14.5 0.5t-12 16t5.5 28.5q9 14 25 24t37.5 12.5t42.5 -13.5zM578 66q-8 29 -3 64q21 86 141 218q12 16 7 25t-22 8q-43 -1 -99 -57q-7 -7 -16 -17.5t-16 -19t-15 -18t-15 -15t-13.5 -9t-13 -2.5t-12.5 8q-10 7 -9 30.5t13 42.5
q29 44 83 79q56 36 123 36q61 0 92 -40q35 -44 -15 -113q-2 -4 -24 -30q-52 -65 -73 -110q-17 -49 2 -66q13 -16 35 -12.5t43 15.5t40 29q33 30 48 50q23 24 31 24q4 0 9 -3q12 -12 1 -32q-54 -91 -144 -129q-32 -15 -66 -18.5t-66 11.5t-46 51z" />
    <glyph glyph-name="afii10080afii10073" unicode="&#x43e;&#x437;" horiz-adv-x="936" 
d="M415 353q33 -25 38 -83q5 -68 -42 -146q-31 -60 -99 -99q-68 -38 -139 -37q-72 0 -117 48q-19 19 -24 47q-15 59 6.5 131.5t73.5 135.5q42 51 105 74t106 2q25 -10 22 -28q-8 0 -34 -7q-52 -15 -99 -76q-48 -61 -68 -124q-19 -54 -14 -95.5t32 -50.5q49 -16 106 42
q58 61 77 134q14 47 1 63q-6 8 -15 1q-6 -4 -14.5 0.5t-12 16t5.5 28.5q9 14 25 24t37.5 12.5t42.5 -13.5zM620 34q-21 -16 -59 -11q-36 5 -47 26q-16 31 6 54q23 23 58 22q24 0 46 -19q38 15 80 62q42 45 61 89q19 39 14.5 77.5t-31.5 50.5q-15 7 -36 6q-31 -4 -69 -44
q-4 -4 -32 -42q-24 -32 -27 -37q-13 -14 -34.5 -16t-41.5 11q-10 7 -7 23q5 31 16 46q28 51 97 85q69 35 135 27q99 -12 122 -89q19 -73 -30 -157q-50 -84 -128 -121q11 -11 25 -40l126 75q119 72 126 73q6 2 11.5 -4t6 -15t-8.5 -17q-86 -64 -249 -157q12 -51 -3 -112.5
t-51 -113.5q-35 -52 -82 -93q-96 -85 -202 -55q-59 20 -65 94q-8 114 155 203l145 83q-5 20 -27 36zM654 -50q-61 -31 -163 -94q-47 -29 -70.5 -68t-20 -67t26.5 -35q43 -18 99 26t91 113q37 68 37 125z" />
    <glyph glyph-name="afii10080afii10072" unicode="&#x43e;&#x436;" horiz-adv-x="1255" 
d="M415 353q33 -25 38 -83q5 -68 -42 -146q-31 -60 -99 -99q-68 -38 -139 -37q-72 0 -117 48q-19 19 -24 47q-15 59 6.5 131.5t73.5 135.5q42 51 105 74t106 2q25 -10 22 -28q-8 0 -34 -7q-52 -15 -99 -76q-48 -61 -68 -124q-19 -54 -14 -95.5t32 -50.5q49 -16 106 42
q58 61 77 134q14 47 1 63q-6 8 -15 1q-6 -4 -14.5 0.5t-12 16t5.5 28.5q9 14 25 24t37.5 12.5t42.5 -13.5zM1125 201q-6 -16 -11 -39.5t-4.5 -49.5t11.5 -37q13 -16 32.5 -13.5t38 13t38 28.5t32.5 32.5t22 26.5q20 23 34 13q6 -4 6 -14.5t-5 -17.5q-46 -78 -124 -121
q-76 -42 -140 -21q-37 12 -54 48.5t-6 82.5q-41 -46 -81 -81q-38 -32 -57 -40q-10 -4 -22 0q-9 1 -24 16q-16 13 -18.5 41.5t4.5 61.5t20.5 71.5t27.5 68.5t27 54q1 4 0 8.5t-5.5 7t-15.5 -2.5q-13 0 -37 -29q-24 -24 -59 -79l-56 -91q-97 -170 -186 -147q-41 8 -55 49
q59 19 123 115q64 95 62 168q-2 46 -28 44q-24 -2 -37 -32q-12 -24 -5 -49q-9 -20 -38 -18q-33 2 -38 31q-5 25 18 60q27 43 65.5 58.5t69 8.5t53.5 -26q44 -37 28 -119q55 71 95 105q25 22 58 23q35 2 54 -10q22 -10 30 -37.5t-6 -57.5q-12 -22 -28 -61q-21 -51 -29 -83
q-7 -35 0 -41.5t34 18.5q80 76 93 103q40 87 92 133t101 44q6 1 25 -4q21 -11 25 -29q-42 -20 -83 -68.5t-67 -114.5z" />
    <glyph glyph-name="afii10080afii10077" unicode="&#x43e;&#x43b;" horiz-adv-x="996" 
d="M415 353q33 -25 38 -83q5 -68 -42 -146q-31 -60 -99 -99q-68 -38 -139 -37q-72 0 -117 48q-19 19 -24 47q-15 59 6.5 131.5t73.5 135.5q42 51 105 74t106 2q25 -10 22 -28q-8 0 -34 -7q-52 -15 -99 -76q-48 -61 -68 -124q-19 -54 -14 -95.5t32 -50.5q49 -16 106 42
q58 61 77 134q14 47 1 63q-6 8 -15 1q-6 -4 -14.5 0.5t-12 16t5.5 28.5q9 14 25 24t37.5 12.5t42.5 -13.5zM582 181q15 -10 9.5 -26t-20 -31t-21.5 -31.5t5 -27.5q30 -25 94 93q23 43 63 127l28 59q43 84 118 88q50 2 69 -43q21 -45 -3 -99q-18 -42 -41 -102l-7 -18
q-8 -19 -10 -26q-14 -52 2 -62q11 -11 26 -12t31.5 7t31.5 19t30.5 27t25 26.5t18.5 21.5q19 23 33 13q13 -13 1 -32q-54 -91 -143 -129q-57 -28 -104.5 -17t-59.5 59q-8 29 1 60l9 32q2 5 4.5 10.5t2.5 6.5l15 40l25 60q18 46 -7 49q-21 2 -42 -41q-17 -32 -37 -75
q-57 -117 -94 -158q-35 -39 -89 -44q-54 -4 -79 40q-15 28 2 68q20 48 56 65q36 18 57 3z" />
    <glyph glyph-name="afii10080afii10078" unicode="&#x43e;&#x43c;" horiz-adv-x="1223" 
d="M415 353q33 -25 38 -83q5 -68 -42 -146q-31 -60 -99 -99q-68 -38 -139 -37q-72 0 -117 48q-19 19 -24 47q-15 59 6.5 131.5t73.5 135.5q42 51 105 74t106 2q25 -10 22 -28q-8 0 -34 -7q-52 -15 -99 -76q-48 -61 -68 -124q-19 -54 -14 -95.5t32 -50.5q49 -16 106 42
q58 61 77 134q14 47 1 63q-6 8 -15 1q-6 -4 -14.5 0.5t-12 16t5.5 28.5q9 14 25 24t37.5 12.5t42.5 -13.5zM582 185q8 -5 10 -12t0.5 -14t-6.5 -15.5t-10 -14t-10.5 -12t-6.5 -7.5q-24 -33 -6 -51q9 -4 23 -1.5t35 20t36 43.5q32 52 71 173q5 17 8 35q3 19 10 39
q22 67 94 62q37 -2 38 -39t-18 -74q-21 -54 -13.5 -82t38.5 -32q39 -6 88 37q51 44 75 114q16 50 51 60q42 20 64 11q54 -21 1 -113q-35 -59 -57 -130q-23 -71 -8 -93q19 -28 71 -1t99 86q19 24 33 13q16 -11 2 -32q-56 -96 -150 -137q-32 -13 -63.5 -15.5t-59.5 12
t-38 47.5q-7 39 -4 62q5 25 16 54q8 17 14 37l-1 2q-1 -1 -3 -4q-37 -43 -51 -57q-49 -45 -100 -51q-36 -4 -60 11t-28 49q-41 -95 -108 -137t-136 -23q-38 8 -55 43q-21 41 16 91q24 35 53 47.5t46 -1.5z" />
    <glyph glyph-name="afii10080afii10089" unicode="&#x43e;&#x447;" horiz-adv-x="866" 
d="M345 398q-41 10 -115 -71q-71 -80 -91 -158q-29 -107 23 -124q44 -15 96 33q54 50 81 117q19 47 10 81q-5 18 -18 9q-6 -4 -14.5 0.5t-12 16t5.5 28.5q15 23 43.5 33t61.5 -10q26 -23 27 -26q43 -9 80 16q39 26 45 46q-19 12 -27 32q-17 32 0 59q14 26 43 26
q18 2 30.5 -11.5t13.5 -35.5q2 -17 0 -32q11 -14 53 -29q41 -15 60 -13q51 5 67 -25q10 -19 -8 -48q-13 -23 -50 -73q-34 -45 -47 -84q-18 -59 3 -79q26 -21 58.5 -12t60.5 36q15 13 29 28t21 24t15.5 17.5t12.5 8.5t13 -3q13 -10 0 -34q-46 -76 -118 -117q-71 -40 -144 -21
q-57 13 -74 69q-15 39 10 106q10 26 42 72q6 10 26 39q18 23 27 38q-46 9 -78 30q-46 -81 -153 -87q3 -31 -10 -73t-32 -73q-32 -59 -98 -98q-67 -39 -139 -38q-73 0 -118 48q-19 19 -24 47q-15 59 6.5 131.5t73.5 135.5q42 51 105 74t106 2q25 -10 22 -28z" />
    <glyph glyph-name="afii10080afii10087" unicode="&#x43e;&#x445;" horiz-adv-x="939" 
d="M415 353q33 -26 38 -83q5 -68 -42 -146q-31 -60 -99 -99q-68 -38 -139 -37q-72 0 -117 48q-19 19 -24 47q-15 59 6.5 131.5t73.5 135.5q42 51 105 74t106 2q25 -10 22 -28q-8 0 -34 -7q-52 -15 -99 -76q-48 -61 -68 -124q-19 -54 -14 -95.5t32 -50.5q49 -16 106 42
q58 61 77 134q14 47 1 63q-6 8 -15 1q-6 -4 -14.5 0.5t-12 16t5.5 28.5q9 14 25 24t37.5 12.5t42.5 -13.5zM867 19q-41 -18 -74 -18q-55 0 -82 46q-17 34 -35 98l-96 -108q-21 -28 -55 -32q-23 -3 -57 -3q-13 1 -16 9q0 4 1 5l199 221q0 1 -2 12t-3.5 20t-5 23t-7.5 25
t-9 21t-12 15.5t-15 4.5q-19 -3 -39 -23t-29 -37l-4 -5q-12 -15 -27 -8q-14 8 -4 28q33 59 66 89.5t75 31.5q65 2 82 -54l12 -40l5 -21l57 66l12 13q24 25 34 29q4 2 7 2.5t8.5 1t11.5 0.5t20.5 -0.5t30.5 -0.5q7 0 9 -5q0 -3 -1 -5v-2l-162 -183q30 -132 52 -155
q12 -16 31.5 -13t38 13t38 28t32.5 32.5t22 26.5q19 24 33 13q13 -10 2 -32q-54 -92 -144 -129z" />
    <glyph glyph-name="afii10067afii10068" unicode="&#x432;&#x433;" horiz-adv-x="817" 
d="M417 352q17 -33 15 -77q-7 -110 -86 -195q-76 -83 -180 -85q-118 -4 -138 88q-13 59 12.5 146.5t88.5 220.5q77 170 170 260t179 61q51 -16 63 -61q12 -41 -3.5 -86.5t-50.5 -84.5q-47 -53 -158 -116q64 -6 88 -71zM463 713q-25 24 -66 -9q-42 -34 -80 -94
q-39 -62 -68 -119q-30 -58 -40 -89q33 17 134 103q69 60 104 125q36 65 16 83zM302 347q-37 10 -73 -15q-63 -46 -93 -146q-17 -55 -14.5 -91.5t25.5 -43.5q47 -15 98 31t78 116q19 42 14 91q-4 49 -35 58zM740 23q-35 -15 -70.5 -17t-64 9t-42 41t-4.5 75q15 79 141 217
q12 16 6.5 25.5t-21.5 8.5q-43 -4 -99 -57q-7 -7 -16 -17.5t-16 -19t-15 -18t-15 -15t-13.5 -9t-13 -2.5t-12.5 8q-10 6 -9 30t13 43q29 44 83 79q56 36 123 36q60 -1 92 -40q16 -18 12.5 -49.5t-27.5 -63.5l-24 -30q-53 -68 -73 -111q-17 -47 2 -66q13 -16 35 -12.5
t43 15.5t40 29q19 18 40 42.5t29.5 30.5t18.5 -1q12 -12 1 -32q-54 -92 -144 -129z" />
    <glyph glyph-name="afii10067afii10072" unicode="&#x432;&#x436;" horiz-adv-x="1228" 
d="M417 352q17 -33 15 -77q-7 -110 -86 -195q-76 -83 -180 -85q-118 -4 -138 88q-13 59 12.5 146.5t88.5 220.5q77 170 170 260t179 61q51 -16 63 -61q12 -41 -3.5 -86.5t-50.5 -84.5q-47 -53 -158 -116q64 -6 88 -71zM463 713q-25 24 -66 -9q-42 -34 -80 -94
q-39 -62 -68 -119q-30 -58 -40 -89q33 17 134 103q69 60 104 125q36 65 16 83zM302 347q-37 10 -73 -15q-63 -46 -93 -146q-17 -55 -14.5 -91.5t25.5 -43.5q47 -15 98 31t78 116q19 42 14 91q-4 49 -35 58zM1111 201q-6 -16 -11 -39.5t-4.5 -49.5t11.5 -37
q13 -16 32.5 -13.5t38 13t38 28.5t32.5 32.5t22 26.5q20 23 34 13q6 -4 6 -14.5t-5 -17.5q-46 -78 -124 -121q-76 -42 -140 -21q-37 12 -54 48.5t-6 82.5q-41 -46 -81 -81q-38 -32 -57 -40q-10 -4 -22 0q-9 1 -24 16q-16 13 -18.5 41.5t4.5 61.5t20.5 71.5t27.5 68.5t27 54
q1 4 0 8.5t-5.5 7t-15.5 -2.5q-13 0 -37 -29q-24 -24 -59 -79l-56 -91q-97 -170 -186 -147q-41 8 -55 49q59 19 123 115q64 95 62 168q-2 46 -28 44q-24 -2 -37 -32q-12 -24 -5 -49q-9 -20 -38 -18q-33 2 -38 31q-5 25 18 60q27 43 65.5 58.5t69 8.5t53.5 -26
q44 -37 28 -119q55 71 95 105q25 22 58 23q35 2 54 -10q22 -10 30 -37.5t-6 -57.5q-12 -22 -28 -61q-21 -51 -29 -83q-7 -35 0 -41.5t34 18.5q80 76 93 103q40 87 92 133t101 44q6 1 25 -4q21 -11 25 -29q-42 -20 -83 -68.5t-67 -114.5z" />
    <glyph glyph-name="afii10067afii10073" unicode="&#x432;&#x437;" horiz-adv-x="917" 
d="M417 352q17 -33 15 -77q-7 -110 -86 -195q-76 -83 -180 -85q-118 -4 -138 88q-13 59 12.5 146.5t88.5 220.5q77 170 170 260t179 61q51 -16 63 -61q12 -41 -3.5 -86.5t-50.5 -84.5q-47 -53 -158 -116q64 -6 88 -71zM463 713q-25 24 -66 -9q-42 -34 -80 -94
q-39 -62 -68 -119q-30 -58 -40 -89q33 17 134 103q69 60 104 125q36 65 16 83zM302 347q-37 10 -73 -15q-63 -46 -93 -146q-17 -55 -14.5 -91.5t25.5 -43.5q47 -15 98 31t78 116q19 42 14 91q-4 49 -35 58zM609 34q-21 -16 -59 -11q-35 4 -46 26q-16 31 6 54q23 23 58 22
q23 0 46 -19q38 15 80 62q42 45 61 89q19 39 14 77.5t-32 50.5q-15 7 -36 6q-30 -4 -68 -44q-3 -4 -32 -42l-27 -37q-14 -14 -35.5 -16t-41.5 11q-10 7 -7 23q5 31 16 46q29 51 98 85q69 35 134 27q49 -6 81 -29.5t42 -59.5q20 -74 -31 -157q-50 -84 -128 -121
q12 -12 26 -40q12 6 125 75q119 72 126 73q6 2 12 -4t6.5 -15t-8.5 -17q-97 -70 -250 -157q15 -66 -13 -142q-27 -76 -78 -135q-50 -58 -120 -88q-68 -30 -127 -9q-59 20 -65 94q-8 114 155 203l146 83q-5 21 -28 36zM643 -50q-94 -51 -162 -94q-48 -29 -71.5 -68t-19.5 -67
t27 -35q42 -18 98 26t91 113q37 70 37 125z" />
    <glyph glyph-name="afii10067afii10077" unicode="&#x432;&#x43b;" horiz-adv-x="963" 
d="M417 352q17 -33 15 -77q-7 -110 -86 -195q-76 -83 -180 -85q-118 -4 -138 88q-13 59 12.5 146.5t88.5 220.5q77 170 170 260t179 61q51 -16 63 -61q12 -41 -3.5 -86.5t-50.5 -84.5q-47 -53 -158 -116q64 -6 88 -71zM463 713q-25 24 -66 -9q-42 -34 -80 -94
q-39 -62 -68 -119q-30 -58 -40 -89q33 17 134 103q69 60 104 125q36 65 16 83zM302 347q-37 10 -73 -15q-63 -46 -93 -146q-17 -55 -14.5 -91.5t25.5 -43.5q47 -15 98 31t78 116q19 42 14 91q-4 49 -35 58zM554 181q15 -10 9.5 -26.5t-20 -31t-21 -31t5.5 -27.5
q30 -25 94 93q23 43 63 127l28 59q40 83 118 88q49 2 68 -43q21 -45 -3 -99q-10 -24 -41 -102l-7 -18q-8 -19 -10 -26q-14 -52 2 -62q11 -11 26 -12t31 7t32 19.5t31 26.5t25.5 26.5t18.5 21.5q18 22 33 13q13 -10 1 -32q-54 -92 -144 -129q-56 -27 -104 -17q-47 11 -59 59
q-8 29 1 60l9 32q2 5 4.5 10.5t2.5 6.5l15 40l24 60q19 46 -6 49q-21 2 -43 -41q-6 -10 -37 -74q-53 -114 -94 -159q-35 -39 -89 -44q-54 -4 -79 40q-14 32 2 68q20 48 56 65q36 18 57 3z" />
    <glyph glyph-name="afii10067afii10078" unicode="&#x432;&#x43c;" horiz-adv-x="1183" 
d="M417 352q17 -33 15 -77q-7 -110 -86 -195q-76 -83 -180 -85q-118 -4 -138 88q-13 59 12.5 146.5t88.5 220.5q77 170 170 260t179 61q51 -16 63 -61q12 -41 -3.5 -86.5t-50.5 -84.5q-47 -53 -158 -116q64 -6 88 -71zM463 713q-25 24 -66 -9q-42 -34 -80 -94
q-39 -62 -68 -119q-30 -58 -40 -89q33 17 134 103q69 60 104 125q36 65 16 83zM302 347q-37 10 -73 -15q-63 -46 -93 -146q-17 -55 -14.5 -91.5t25.5 -43.5q47 -15 98 31t78 116q19 42 14 91q-4 49 -35 58zM550 185q18 -12 7 -33q-9 -21 -30 -42q-24 -32 -7 -51
q12 -10 42.5 6.5t52.5 55.5q36 61 70 173q2 6 8.5 35t10.5 39q8 29 31 48t62 14q37 -2 38 -39q3 -37 -18 -74q-21 -54 -13.5 -82t38.5 -32q39 -6 89 36q50 44 75 115q15 50 51 60q41 21 63 11q55 -21 2 -113q-33 -54 -58 -129q-23 -72 -8 -94q21 -27 72 -1t98 86
q21 25 33 13q7 -4 7 -14t-5 -18q-57 -98 -149 -137q-32 -13 -63.5 -15.5t-60 12t-38.5 47.5q-14 34 3 90q3 9 9 24t10.5 25.5t4.5 13.5q1 2 0 2l-5 -5q-43 -51 -61 -65q-43 -37 -89 -42q-37 -4 -61 11t-28 49q-41 -96 -107.5 -137.5t-136.5 -22.5q-37 7 -54 43q-21 41 16 91
q24 35 52.5 48t46.5 -2z" />
    <glyph glyph-name="afii10067afii10089" unicode="&#x432;&#x447;" horiz-adv-x="827" 
d="M429 270l-1 -2q-9 -79 -45 -136q-38 -59 -97.5 -97.5t-120.5 -39.5q-118 -4 -138 88q-19 91 48 246q18 52 53 121q107 233 226 303q64 37 123 18q51 -16 63 -61q12 -41 -3.5 -86.5t-50.5 -84.5q-47 -53 -158 -116q37 -3 63.5 -29.5t34.5 -70.5q79 0 114 68q-8 8 -14 17
q-12 10 -16 30.5t4 41.5q15 26 44 26q18 2 30.5 -11.5t13.5 -35.5q2 -17 0 -32q11 -14 53 -29q41 -15 60 -13q51 6 67 -25q14 -27 -23 -71q-57 -70 -78 -122q-26 -66 -1 -91q45 -34 109 16q22 18 46 45q33 38 42 40q6 2 13 -2q13 -10 0 -34q-46 -76 -118 -117
q-70 -40 -144 -21q-57 13 -74 69q-15 39 10 106q10 26 42 72q6 10 26 39q18 23 27 38q-40 9 -79 33q-36 -81 -151 -90zM301 347q-37 10 -73 -15q-63 -46 -93 -146q-17 -55 -14 -91.5t25 -43.5q47 -15 98 31t78 116q19 42 14 91q-4 49 -35 58zM462 713q-26 24 -66 -9
q-42 -34 -80 -94q-39 -62 -68 -119q-30 -58 -40 -89q33 17 134 103q69 60 104 125q36 65 16 83z" />
    <glyph glyph-name="afii10067afii10087" unicode="&#x432;&#x445;" horiz-adv-x="928" 
d="M417 352q17 -33 15 -77q-7 -110 -86 -195q-76 -83 -180 -85q-118 -4 -138 88q-13 59 12.5 146.5t88.5 220.5q77 170 170 260t179 61q51 -16 63 -61q12 -41 -3.5 -86.5t-50.5 -84.5q-47 -53 -158 -116q64 -6 88 -71zM463 713q-25 24 -66 -9q-42 -34 -80 -94
q-39 -62 -68 -119q-30 -58 -40 -89q33 17 134 103q69 60 104 125q36 65 16 83zM302 347q-37 10 -73 -15q-63 -46 -93 -146q-17 -55 -14.5 -91.5t25.5 -43.5q47 -15 98 31t78 116q19 42 14 91q-4 49 -35 58zM856 19q-40 -18 -74 -18q-55 0 -82 46q-17 34 -35 98l-96 -108
q-21 -28 -55 -32q-22 -3 -57 -3q-13 1 -16 9q0 4 1 5l199 221q0 1 -2 12t-3.5 20t-5 23t-7.5 25t-9 21t-12 15.5t-15 4.5q-32 -4 -69 -60l-3 -5q-12 -15 -27 -8q-14 8 -4 28q33 59 66 89.5t75 31.5q65 2 82 -54q8 -26 11 -40l6 -21l57 66l12 13q24 25 34 29q4 2 7 2.5t8.5 1
t11.5 0.5t20.5 -0.5t30.5 -0.5q7 0 9 -5v-5l-1 -2l-162 -183q30 -132 52 -155q12 -16 31.5 -13t38 13t38 28t32.5 32.5t22 26.5q19 24 33 13q13 -10 2 -32q-54 -92 -144 -129z" />
    <glyph glyph-name="afii10096afii10068" unicode="&#x44e;&#x433;" horiz-adv-x="1055" 
d="M631 352q35 -26 38 -89q1 -67 -42 -140q-77 -126 -230 -128q-33 -1 -60.5 6t-51.5 23t-35.5 48.5t-7.5 78.5q-32 -25 -66 -47q-41 -28 -57.5 -56t-7.5 -49q-33 -4 -59.5 13t-36.5 47q-12 34 -1 77t42 104q27 54 39 79q27 64 19 100q41 9 66.5 -8.5t27 -48.5t-10.5 -65
l-16 -34q-46 -103 -55 -127l135 97q24 65 68 116q42 51 105 74t106 2q23 -11 21 -28q0 -1 -24 -5q-56 -15 -106 -77q-49 -60 -70 -129q-17 -56 -11.5 -90.5t30.5 -41.5q46 -14 97 29q54 45 82 115q18 45 2 73q-8 16 -22 8q-10 -7 -20 8q-12 17 4 41q19 28 49.5 35t58.5 -11z
M798 93q-4 19 0 38q20 84 141 217q12 16 6.5 25.5t-22.5 8.5q-43 -4 -99 -57q-7 -7 -15.5 -17t-15.5 -19t-15 -18t-15 -15t-14 -9.5t-13.5 -2.5t-12.5 8q-9 6 -8 29.5t13 43.5q27 43 82 79q56 36 124 36q60 -1 92 -40q16 -18 12 -49.5t-27 -63.5q-1 -1 -9 -11t-18.5 -23.5
t-17.5 -23.5q-34 -42 -52 -83q-19 -44 1 -66q12 -16 34.5 -12t43.5 15.5t41 28.5q19 18 39.5 42.5t29 30.5t18.5 -1q13 -13 1 -32q-54 -91 -143 -129q-25 -11 -53.5 -15.5t-57 -0.5t-48.5 26t-22 60z" />
    <glyph glyph-name="afii10096afii10072" unicode="&#x44e;&#x436;" horiz-adv-x="1463" 
d="M631 352q35 -26 38 -89q1 -67 -42 -140q-77 -126 -230 -128q-33 -1 -60.5 6t-51.5 23t-35.5 48.5t-7.5 78.5q-32 -25 -66 -47q-41 -28 -57.5 -56t-7.5 -49q-33 -4 -59.5 13t-36.5 47q-12 34 -1 77t42 104q27 54 39 79q27 64 19 100q41 9 66.5 -8.5t27 -48.5t-10.5 -65
l-16 -34q-46 -103 -55 -127l135 97q24 65 68 116q42 51 105 74t106 2q23 -11 21 -28q0 -1 -24 -5q-56 -15 -106 -77q-49 -60 -70 -129q-17 -56 -11.5 -90.5t30.5 -41.5q46 -14 97 29q54 45 82 115q18 45 2 73q-8 16 -22 8q-10 -7 -20 8q-12 17 4 41q19 28 49.5 35t58.5 -11z
M1347 201q-7 -15 -12 -39t-4 -50t12 -37q49 -53 162 87q20 23 35 13q13 -10 1 -32q-48 -79 -124 -121q-77 -42 -141 -21q-37 12 -54 48.5t-5 82.5q-41 -46 -81 -81q-40 -32 -58 -40q-22 -7 -46 16q-16 13 -18.5 41.5t4.5 61.5t20.5 71.5t27.5 68.5t27 54q2 3 1 8t-6 7.5
t-16 -2.5q-10 0 -37 -29q-24 -24 -59 -79l-56 -91q-43 -77 -88 -119t-97 -28q-41 7 -55 49q59 19 123 115q64 95 62 168q-2 46 -28 44q-22 -1 -37 -31q-12 -25 -5 -50q-9 -20 -39 -18q-33 2 -38 31q-3 26 19 60q27 43 65.5 58.5t69 8.5t53.5 -26q46 -37 27 -119
q56 71 95 105q25 22 58 23q35 2 54 -10q23 -10 31 -37.5t-7 -57.5q-10 -17 -28 -60q-18 -45 -28 -84q-9 -34 -1 -41t35 18q80 75 93 103q40 87 91.5 133t101.5 44q5 1 24 -4q21 -11 26 -29q-42 -20 -83 -68.5t-67 -114.5z" />
    <glyph glyph-name="afii10096afii10073" unicode="&#x44e;&#x437;" horiz-adv-x="1156" 
d="M849 34q-21 -16 -59 -11q-36 5 -47 26q-17 31 6 54t58 22q24 0 46 -19q38 15 80 62q42 45 61 89q22 45 13 89q-9 42 -51 47q-35 5 -73 -29q-38 -33 -57 -85q-7 -17 -36 -25t-53 9q-10 7 -7 23q5 31 16 46q29 53 97 86t135 26q99 -12 122 -89q13 -45 -7 -106
q-19 -58 -61 -104q-38 -43 -90 -68q11 -11 25 -40l126 75q119 72 126 73q6 2 11.5 -4t6 -14.5t-8.5 -17.5q-117 -82 -249 -157q9 -35 1 -89q-7 -52 -31 -98q-50 -98 -140 -156q-89 -58 -168 -31q-59 20 -65 94q-3 36 15 77q32 68 140 126l145 83q-4 20 -27 36zM883 -50
q-61 -31 -163 -94q-47 -29 -70.5 -68t-20 -67t26.5 -35q43 -18 99 26t91 113q37 68 37 125zM631 352q37 -31 38 -83q3 -31 -10 -73t-32 -73q-77 -126 -230 -128q-33 -1 -60.5 6t-51.5 23t-35.5 48.5t-7.5 78.5q-32 -25 -66 -47q-41 -28 -57.5 -56t-7.5 -49q-33 -4 -59.5 13
t-36.5 47q-12 34 -1 77t42 104q27 54 39 79q27 64 19 100q59 12 86 -28q22 -34 -5 -98l-14 -30q-46 -103 -55 -127l135 97q24 65 68 116q42 51 105 74t106 2q23 -11 21 -28q0 -1 -24 -5q-56 -15 -106 -77q-49 -60 -70 -129q-17 -56 -11.5 -90.5t30.5 -41.5q46 -14 97 29
q54 45 82 115q18 45 2 73q-8 16 -22 8q-10 -7 -20 8q-12 17 4 41q19 28 49.5 35t58.5 -11z" />
    <glyph glyph-name="afii10096afii10077" unicode="&#x44e;&#x43b;" horiz-adv-x="1213" 
d="M631 352q37 -31 38 -83q3 -31 -10 -73t-32 -73q-77 -126 -230 -128q-33 -1 -60.5 6t-51.5 23t-35.5 48.5t-7.5 78.5q-32 -25 -66 -47q-41 -28 -57.5 -56t-7.5 -49q-33 -4 -59.5 13t-36.5 47q-12 34 -1 77t42 104q27 54 39 79q27 64 19 100q59 12 86 -28q22 -34 -5 -98
l-14 -30q-46 -103 -55 -127l135 97q24 65 68 116q42 51 105 74t106 2q23 -11 21 -28q0 -1 -24 -5q-56 -15 -106 -77q-49 -60 -70 -129q-17 -56 -11.5 -90.5t30.5 -41.5q46 -14 97 29q54 45 82 115q18 45 2 73q-8 16 -22 8q-10 -7 -20 8q-12 17 4 41q19 28 49.5 35t58.5 -11z
M804 181q13 -6 11 -19t-8 -21.5t-15.5 -19t-10.5 -13.5q-21 -27 -3 -43q6 -3 15 -3t24 13.5t30 38.5q19 32 116 230q42 84 118 88q50 2 69 -43q20 -46 -4 -99q-10 -24 -41 -102q-1 -2 -6 -15q-8 -18 -14 -39q-9 -38 5 -52q11 -11 26 -12t31 7t32 19.5t31 26.5t25.5 26.5
t18.5 21.5q18 22 33 13q13 -10 1 -32q-54 -92 -144 -129q-71 -31 -115 -8.5t-43 91.5q-2 44 45 155q14 37 -2 48q-9 6 -22 -4t-23 -31l-31 -63q-27 -57 -37 -74q-2 -3 -12 -21t-12 -21q-20 -32 -28 -40q-30 -30 -35 -33q-40 -22 -74 -22q-36 -1 -56 23.5t-18 57.5t24 56
q24 33 47 44q12 6 28 6t24 -6z" />
    <glyph glyph-name="afii10096afii10078" unicode="&#x44e;&#x43c;" horiz-adv-x="1430" 
d="M631 352q35 -26 38 -89q1 -67 -42 -140q-77 -126 -230 -128q-33 -1 -60.5 6t-51.5 23t-35.5 48.5t-7.5 78.5q-32 -25 -66 -47q-41 -28 -57.5 -56t-7.5 -49q-33 -4 -59.5 13t-36.5 47q-12 34 -1 77t42 104q27 54 39 79q27 64 19 100q41 9 66.5 -8.5t27 -48.5t-10.5 -65
l-16 -34q-46 -103 -55 -127l135 97q24 65 68 116q42 51 105 74t106 2q23 -11 21 -28q0 -1 -24 -5q-56 -15 -106 -77q-49 -60 -70 -129q-17 -56 -11.5 -90.5t30.5 -41.5q46 -14 97 29q54 45 82 115q18 45 2 73q-8 16 -22 8q-10 -7 -20 8q-12 17 4 41q19 28 49.5 35t58.5 -11z
M796 185q8 -5 10 -12t0.5 -14t-6.5 -15.5t-10 -14t-10.5 -12t-6.5 -7.5q-24 -33 -6 -51q9 -4 23 -1.5t35 20t36 43.5q32 52 71 173q5 17 8 35q3 19 10 39q22 67 94 62q37 -2 38 -39t-18 -74q-21 -54 -13.5 -82t38.5 -32q39 -6 88 37q51 44 75 114q16 50 51 60q42 20 64 11
q54 -21 1 -113q-35 -59 -57 -130q-23 -71 -8 -93q19 -28 71 -1t99 86q19 24 33 13q16 -11 2 -32q-56 -96 -150 -137q-32 -13 -63.5 -15.5t-59.5 12t-38 47.5q-7 39 -4 62q5 25 16 54q7 18 14 37l-1 2q-1 -1 -3 -4q-37 -43 -51 -57q-49 -45 -100 -51q-36 -4 -60 11t-28 49
q-41 -95 -108 -137t-136 -23q-38 8 -55 43q-21 41 16 91q24 35 53 47.5t46 -1.5z" />
    <glyph glyph-name="afii10096afii10089" unicode="&#x44e;&#x447;" horiz-adv-x="1051" 
d="M750 408q-12 10 -15.5 30.5t4.5 41.5q14 26 44 26q19 1 30.5 -11.5t13.5 -35.5q2 -20 -1 -32q11 -14 53 -29q41 -15 61 -13q50 6 66 -25q10 -19 -13 -57l-39 -55q-36 -51 -48 -81q-26 -58 -1 -91q45 -34 109 16q22 20 45 45q34 38 44 41q6 1 12 -3q14 -11 -1 -34
q-46 -77 -117 -117q-71 -41 -145 -21q-56 14 -74 69q-16 41 10 106q2 6 42 72l27 39l27 38q-46 9 -75 27q-49 -73 -140 -75q3 -38 -9.5 -81.5t-32.5 -74.5q-77 -126 -230 -128q-33 -1 -60.5 6t-51.5 23t-35.5 48.5t-7.5 78.5q-32 -25 -66 -47q-41 -28 -57.5 -56t-7.5 -49
q-33 -4 -59.5 13t-36.5 47q-12 34 -1 77t42 104q27 54 39 79q27 64 19 100q59 12 86 -28q22 -34 -5 -98l-14 -30q-46 -103 -55 -127l135 97q24 65 68 116q42 51 105 74t106 2q23 -11 21 -28q0 -1 -24 -5q-56 -15 -106 -77q-49 -60 -70 -129q-17 -56 -11.5 -90.5t30.5 -41.5
q46 -14 97 29q54 45 82 115q18 45 2 73q-8 16 -22 8q-10 -7 -20 8q-12 17 4 41q19 28 49.5 35t58.5 -11q20 -19 23 -24q34 -1 69 17q36 19 46 42q-15 12 -19 21z" />
    <glyph glyph-name="afii10083afii10097" unicode="&#x441;&#x44f;" horiz-adv-x="935" 
d="M407 129q41 30 45 23q4 -6 3 -19q-2 -18 -2 -22q-1 -19 13.5 -28.5t32.5 -0.5q22 13 37.5 42.5t13.5 55.5q-42 25 -53 70t7.5 87t55.5 66q56 42 161 36q107 -6 184 -61q10 -7 11 -10q4 -14 -10 -28t-22 -7q-2 0 -8 2q-59 43 -130 44q-59 1 -106 -32q-47 -32 -42 -83
q0 -41 47 -53q37 -10 69.5 6.5t44.5 52.5q-22 7 -26 22q-4 13 5 27.5t27 16.5q29 6 56.5 -10.5t37.5 -43.5q6 -16 -22 -80q-28 -63 -28 -91q0 -19 9 -26q28 -30 88 11q28 22 72 75q18 20 34 13q13 -10 2 -32q-54 -90 -144 -129q-50 -25 -96.5 -15t-63.5 52q-15 44 6 102
q-40 -19 -78 -13q-18 -66 -55 -103q-34 -31 -68.5 -38.5t-65.5 12.5q-18 14 -29 53q-140 -94 -259 -83q-58 3 -96 35q-45 37 -47 106q0 70 33 136q34 66 97 119q63 51 135 56q47 3 83.5 -14.5t50.5 -54.5q10 -29 2.5 -59.5t-27.5 -49.5q-23 -27 -52 -27.5t-44 23.5
q14 11 26 34.5t14 41.5q2 20 -7 33.5t-26 13.5q-42 0 -85 -46q-45 -48 -75 -125t-8 -114q13 -24 46 -33q58 -14 120 5q59 17 106 59z" />
    <glyph glyph-name="afii10083afii10095" unicode="&#x441;&#x44d;" horiz-adv-x="898" 
d="M756 244q18 46 7 90q-10 43 -49 52q-32 9 -67 -18t-47 -76q-41 10 -50 39.5t18 57.5q43 47 129 52q85 4 132 -41q61 -64 42 -173q-19 -108 -98 -175q-38 -31 -90.5 -44.5t-103.5 -6.5q-48 6 -83.5 29.5t-46.5 63.5q-66 -54 -145 -82t-155 -21q-49 5 -84 34
q-45 37 -47 106q0 70 33 136q34 66 97 119q63 51 135 56q47 3 83.5 -14.5t50.5 -54.5q8 -22 5 -48.5t-15 -45.5q-23 -38 -58 -42q-36 -5 -53 23q14 11 26 34.5t14 41.5q3 39 -23 47q-40 12 -95 -46q-45 -48 -75 -125t-8 -114q13 -24 46 -33q58 -14 120 5q67 19 134 79
q37 39 55 26q-1 -17 7 -45q8 -26 35 -49q28 -23 68 -16q43 4 80 36t54 82q-13 -1 -102 -1q-24 0 -26 9q-7 39 22 45q15 4 33 4q7 0 27 0.5t38 1t30 2.5z" />
    <glyph glyph-name="afii10083afii10073" unicode="&#x441;&#x437;" horiz-adv-x="947" 
d="M628 34q-21 -16 -59 -11q-35 4 -46 26q-17 31 6 54t58 22q23 0 46 -19q38 15 80 62q42 45 61 89q19 39 14 77.5t-32 50.5q-15 7 -36 6q-30 -4 -68 -44q-4 -4 -32 -42l-27 -37q-14 -14 -35.5 -16t-41.5 11q-10 7 -7 23q5 31 16 46q29 51 98 85q69 35 134 27
q49 -6 81 -29.5t42 -59.5q20 -74 -31 -157q-50 -84 -128 -121q12 -12 26 -40q12 6 125 75q119 72 126 73q6 2 12 -4t6.5 -15t-8.5 -17q-97 -70 -250 -157q15 -66 -13 -142q-27 -76 -78 -135q-50 -58 -120 -88q-68 -30 -127 -9q-59 20 -65 94q-8 114 155 203l146 83
q-5 21 -28 36zM662 -50q-94 -51 -162 -94q-48 -29 -71.5 -68t-19.5 -67t27 -35q42 -18 98 26t91 113q37 70 37 125zM301 70q40 13 74 38l22 15l42 31q16 7 24 -10q0 -3 0.5 -6t1 -5t0.5 -3v-2q-1 -8 -12 -18q-65 -72 -164 -102q-80 -25 -147 -16q-45 6 -77 33
q-44 36 -47 102q-2 67 28 130q30 65 88 117q60 54 125 64q21 4 43 3q91 -1 115 -68q10 -29 2.5 -59.5t-27.5 -49.5q-23 -27 -52 -27.5t-44 23.5q14 11 26 34.5t14 41.5q2 20 -7 33.5t-26 13.5q-42 0 -85 -46q-45 -48 -75 -125t-8 -114q13 -24 46 -33q58 -14 120 5z" />
    <glyph glyph-name="afii10083afii10072" unicode="&#x441;&#x436;" horiz-adv-x="1247" 
d="M1130 201q-6 -16 -11 -39.5t-4.5 -49.5t11.5 -37q13 -16 32.5 -13.5t38 13t38 28.5t32.5 32.5t22 26.5q20 23 34 13q6 -4 6 -14.5t-5 -17.5q-46 -78 -124 -121q-76 -42 -140 -21q-37 12 -54 48.5t-6 82.5q-40 -46 -81 -81q-38 -32 -57 -40q-10 -4 -22 0q-9 1 -24 16
q-16 13 -18.5 41.5t4.5 61.5t20.5 71.5t27.5 68.5t27 54q1 4 0 8.5t-5.5 7t-15.5 -2.5q-13 0 -37 -29q-24 -24 -59 -79l-56 -91q-97 -170 -186 -147q-41 8 -55 49q59 19 123 115q64 95 62 168q-2 46 -28 44q-24 -2 -37 -32q-12 -24 -5 -49q-9 -20 -38 -18q-33 2 -38 31
q-4 25 18 60q27 43 65.5 58.5t69 8.5t53.5 -26q44 -37 28 -119q55 71 95 105q25 22 58 23q35 2 54 -10q22 -10 30 -37.5t-6 -57.5q-12 -22 -28 -61q-21 -51 -29 -83q-7 -35 0 -41.5t34 18.5q80 76 93 103q40 87 92 133t101 44q6 1 25 -4q21 -11 25 -29q-42 -20 -83 -68.5
t-67 -114.5zM301 70q40 13 74 38l22 15l42 31q16 7 24 -10q0 -3 0.5 -6t1 -5t0.5 -3v-2q-1 -8 -12 -18q-65 -72 -164 -102q-80 -25 -147 -16q-45 6 -77 33q-44 36 -47 102q-2 67 28 130q30 65 88 117q60 54 125 64q21 4 43 3q91 -1 115 -68q10 -29 2.5 -59.5t-27.5 -49.5
q-23 -27 -52 -27.5t-44 23.5q14 11 26 34.5t14 41.5q2 20 -7 33.5t-26 13.5q-42 0 -85 -46q-45 -48 -75 -125t-8 -114q13 -24 46 -33q58 -14 120 5z" />
    <glyph glyph-name="afii10083afii10078" unicode="&#x441;&#x43c;" horiz-adv-x="1164" 
d="M527 185q10 -7 10.5 -18t-6.5 -22.5t-13 -19.5t-12 -14q-10 -12 -11.5 -27t6.5 -25q12 -10 42.5 6.5t52.5 55.5q36 61 70 173q2 6 8.5 35t10.5 39q8 29 31 48t62 14q37 -2 38 -39q3 -37 -18 -74q-21 -54 -13.5 -82t38.5 -32q39 -6 89 36q50 44 75 115q15 50 51 60
q40 21 63 11q55 -20 2 -113q-33 -53 -58 -130q-23 -74 -8 -93q21 -27 72 -1t98 86q21 25 33 13q7 -4 7 -14t-5 -18q-57 -98 -149 -137q-32 -13 -63.5 -15.5t-60 12t-38.5 47.5q-14 34 3 90q3 9 9 24t10.5 25.5t4.5 13.5q1 2 0 2l-5 -5q-41 -50 -67 -70q-31 -24 -67 -32
q-41 -10 -71 4t-34 51q-40 -96 -107 -137q-65 -40 -133 -25q-23 4 -41.5 21t-22.5 39q-133 -87 -265 -71q-47 6 -80 33q-45 37 -47 106q0 70 33 136q34 66 97 119q63 51 135 56q47 3 83.5 -14.5t50.5 -54.5q10 -29 2.5 -59.5t-27.5 -49.5q-23 -27 -52 -27.5t-44 23.5
q14 11 26 34.5t14 41.5q3 39 -23 47q-40 12 -95 -46q-45 -48 -75 -125t-8 -114q13 -24 46 -33q58 -14 120 5q76 24 146 88q41 44 80 27z" />
    <glyph glyph-name="afii10083afii10077" unicode="&#x441;&#x43b;" horiz-adv-x="936" 
d="M523 181q17 -11 3 -35q-13 -25 -27 -44q-14 -20 2 -37q15 -13 39 11t56 84q4 8 90 184q40 84 118 88q49 2 68 -43q21 -45 -3 -99l-41 -102q-2 -2 -6 -15q-8 -18 -14 -39q-9 -38 5 -52q11 -11 26 -12t31 7t32 19.5t31 26.5t25.5 26.5t18.5 21.5q18 22 33 13q13 -10 1 -32
q-54 -92 -144 -129q-53 -25 -101 -17t-61 54q-10 30 4 81q7 25 45 120q4 12 6.5 22.5t3 20t-4 14.5t-13.5 3q-16 -4 -44 -58q-20 -36 -63 -121q-36 -70 -59 -93q-35 -39 -89 -44q-54 -4 -79 40l-2 6t-2 5.5t-1 3.5q-119 -77 -241 -69q-62 1 -101 34q-45 37 -47 106
q0 70 33 136q34 66 97 119q63 51 135 56q47 3 83.5 -14.5t50.5 -54.5q8 -22 5 -48.5t-15 -45.5q-23 -38 -58 -42q-36 -5 -53 23q14 11 26 34.5t14 41.5q2 20 -7 33.5t-26 13.5q-42 0 -85 -46q-45 -48 -75 -125t-8 -114q13 -24 46 -33q58 -14 120 5q73 23 152 96q41 35 70 15
z" />
    <glyph glyph-name="afii10083afii10068" unicode="&#x441;&#x433;" horiz-adv-x="827" 
d="M301 70q40 13 74 38l22 15l42 31q16 7 24 -10q0 -3 0.5 -6t1 -5t0.5 -3v-2q-1 -8 -12 -18q-65 -72 -164 -102q-80 -25 -147 -16q-45 6 -77 33q-44 36 -47 102q-2 67 28 130q30 65 88 117q60 54 125 64q21 4 43 3q91 -1 115 -68q10 -29 2.5 -59.5t-27.5 -49.5
q-23 -27 -52 -27.5t-44 23.5q14 11 26 34.5t14 41.5q2 20 -7 33.5t-26 13.5q-42 0 -85 -46q-45 -48 -75 -125t-8 -114q13 -24 46 -33q58 -14 120 5zM750 23q-35 -15 -69.5 -17t-62 9.5t-41.5 41.5t-8 74q19 85 141 217q12 16 6.5 25.5t-21.5 8.5q-43 -4 -99 -57
q-7 -7 -16 -17.5t-16 -19t-15 -18t-15 -15t-13.5 -9t-13 -2.5t-12.5 8q-10 6 -9 30t13 43q29 44 83 79q56 36 123 36q60 -1 92 -40q16 -18 12.5 -49.5t-27.5 -63.5q-3 -4 -14 -17.5t-22 -27.5t-24.5 -33t-23 -36.5t-16.5 -35t-6 -32.5t11 -25q13 -16 35 -12.5t43 15.5t40 29
q19 18 40 42.5t29.5 30.5t18.5 -1q12 -12 1 -32q-54 -92 -144 -129z" />
    <glyph glyph-name="afii10070afii10078" unicode="&#x435;&#x43c;" horiz-adv-x="1164" 
d="M525 185q18 -15 2 -41q-2 -7 -11.5 -19.5t-10.5 -13.5q-25 -37 -4 -52q12 -10 42.5 6.5t52.5 55.5q36 61 70 173q2 6 8.5 35t10.5 39q8 29 31 48t62 14q37 -2 38 -39q3 -37 -18 -74q-21 -54 -13.5 -82t38.5 -32q39 -6 89 36q50 44 75 115q15 50 51 60q40 21 63 11
q55 -20 2 -113q-33 -53 -58 -130q-23 -74 -8 -93q21 -27 72 -1t98 86q21 25 33 13q7 -4 7 -14t-5 -18q-27 -47 -70 -86t-86 -57q-44 -23 -92 -12q-48 10 -63 60q-14 35 3 91q3 10 9 24.5t10.5 25.5t4.5 14q1 2 0 2l-5 -5q-43 -51 -67 -69q-35 -26 -67 -33q-41 -10 -71 4
t-34 51q-34 -82 -97 -130q-61 -44 -117.5 -40.5t-81.5 52.5q-5 12 -5 21q-137 -93 -266 -76q-60 7 -94.5 45.5t-35.5 96.5q-1 62 34 134q34 70 98 120q62 50 133 55q49 3 87.5 -14.5t52.5 -54.5q19 -53 -13 -109q-31 -54 -90 -81q-38 -18 -98 -26q-55 -7 -92 1
q-13 -45 18 -73q23 -27 71 -28q50 -2 78 12q74 20 162 99q17 17 38 21.5t29 -5.5zM139 202q121 0 175 76q34 46 22 86q-6 19 -22 23q-48 12 -99 -48q-26 -31 -48 -73q-24 -45 -28 -64z" />
    <glyph glyph-name="afii10070afii10077" unicode="&#x435;&#x43b;" horiz-adv-x="935" 
d="M520 177q3 -3 4.5 -7.5t1.5 -8.5t-1.5 -10t-3.5 -10t-5.5 -10t-5.5 -8.5t-5.5 -7.5t-3.5 -6q-20 -29 -1 -44q15 -13 38.5 10.5t55.5 83.5q12 21 89 180q0 1 0.5 2.5t1.5 2.5q40 83 118 88q49 2 68 -43q21 -45 -3 -99q-10 -24 -41 -102q0 -1 -7.5 -19t-9.5 -25
q-15 -47 1 -63q13 -15 32.5 -12t38 13.5t38.5 28t33.5 33t22.5 27.5q18 22 33 13q13 -10 1 -32q-56 -94 -145 -131q-53 -25 -101 -17t-61 54q-9 34 5 82q3 14 15 47l9 24q6 12 11 25l10 25q4 12 6.5 22.5t3 20t-4 14.5t-13.5 3q-21 -5 -50 -59q-30 -56 -63 -123
q-32 -66 -53 -90q-33 -40 -88 -45.5t-76 41.5q-3 5 -5 22q-118 -82 -241 -76q-67 2 -108 39t-44 99q-3 64 32 136q35 71 98 122t135 56q49 3 87.5 -14.5t52.5 -54.5q19 -53 -13 -109q-31 -54 -90 -81q-38 -18 -98 -26q-55 -7 -92 1q-13 -45 18 -73q22 -25 71 -26.5t78 10.5
q65 18 130 73q65 62 94 34zM139 202q121 0 175 76q34 46 22 86q-6 19 -22 23q-48 12 -99 -48q-26 -31 -48 -73q-24 -45 -28 -64z" />
    <glyph glyph-name="afii10070afii10097" unicode="&#x435;&#x44f;" horiz-adv-x="942" 
d="M537 8q-37 -16 -75 3q-35 19 -37 67q-44 -41 -121 -68q-72 -25 -146 -19q-67 4 -105 45.5t-36 106.5q3 62 38 131q34 67 97 116q60 48 130 53q49 3 87.5 -14.5t52.5 -54.5q19 -53 -13 -109q-31 -54 -90 -81q-38 -18 -98 -26q-55 -7 -92 1q-13 -39 12 -69q22 -28 73 -31
q53 -2 82 11q66 19 134 75q13 10 24.5 0.5t6.5 -24.5q-5 -22 10 -36.5t35 -2.5q22 13 37.5 42.5t13.5 55.5q-42 25 -53 70t7.5 87t55.5 66q56 42 161 36q107 -6 184 -61q10 -7 11 -10q5 -14 -10 -28q-14 -14 -22 -7q-2 0 -8 2q-59 43 -130 44q-14 0 -18 -1q-55 -3 -94 -36
t-36 -78q0 -41 47 -53q37 -10 69.5 6.5t44.5 52.5q-22 7 -26 22q-4 13 5 27.5t27 16.5q29 6 56.5 -10.5t37.5 -43.5q6 -16 -22 -80q-28 -63 -28 -91q0 -19 9 -26q28 -30 88 11q28 22 72 75q16 21 34 13q13 -10 2 -32q-54 -90 -144 -129q-50 -25 -96.5 -15t-63.5 52
q-15 44 6 102q-40 -19 -78 -13q-12 -48 -40 -90q-27 -43 -68 -51zM139 202q121 0 175 76q34 46 22 86q-6 19 -22 23q-48 12 -99 -48q-26 -31 -48 -73q-24 -45 -28 -64z" />
    <glyph glyph-name="afii10070afii10068" unicode="&#x435;&#x433;" horiz-adv-x="833" 
d="M473 164q17 -14 1 -37q-6 -10 -25 -27q-61 -55 -140 -85q-81 -31 -159 -24q-65 8 -100 48t-33 101q1 64 36 132q36 67 98 117q61 49 131 54q49 3 87.5 -14.5t52.5 -54.5q19 -53 -13 -109q-31 -54 -90 -81q-38 -18 -98 -26q-55 -7 -92 1q-13 -45 18 -73q33 -40 127 -21
q68 13 102 39q35 24 36 25l14 13l25 23q9 9 22 -1zM139 202q121 0 175 76q34 46 22 86q-6 19 -22 23q-48 12 -99 -48q-26 -31 -48 -73q-24 -45 -28 -64zM579 67q-10 30 -2 70q20 82 140 211q12 16 6.5 25.5t-22.5 8.5q-43 -4 -99 -57q-7 -7 -15.5 -17t-15.5 -19t-15 -18
t-15 -15t-14 -9.5t-13.5 -2.5t-12.5 8q-9 6 -8 29.5t13 43.5q27 43 82 79q56 36 124 36q60 -1 92 -40q16 -18 12 -49.5t-27 -63.5q-1 -1 -9 -11t-18.5 -23.5t-17.5 -23.5q-34 -42 -52 -83q-19 -44 1 -66q12 -16 34.5 -12t43.5 15.5t41 28.5q19 18 39.5 42.5t29 30.5t18.5 -1
q13 -13 1 -32q-54 -91 -143 -129q-32 -15 -66 -18.5t-66 11.5t-46 51z" />
    <glyph glyph-name="afii10070afii10072" unicode="&#x435;&#x436;" horiz-adv-x="1248" 
d="M473 164q17 -14 1 -37q-6 -10 -25 -27q-61 -55 -140 -85q-81 -31 -159 -24q-65 8 -100 48t-33 101q1 64 36 132q36 67 98 117q61 49 131 54q49 3 87.5 -14.5t52.5 -54.5q19 -53 -13 -109q-31 -54 -90 -81q-38 -18 -98 -26q-55 -7 -92 1q-13 -45 18 -73q33 -40 127 -21
q68 13 102 39q35 24 36 25l14 13l25 23q9 9 22 -1zM139 202q121 0 175 76q34 46 22 86q-6 19 -22 23q-48 12 -99 -48q-26 -31 -48 -73q-24 -45 -28 -64zM1131 201q-6 -16 -11 -39.5t-4.5 -49.5t11.5 -37q13 -16 32.5 -13.5t38 13t38 28.5t32.5 32.5t22 26.5q20 23 34 13
q6 -4 6 -14.5t-5 -17.5q-46 -78 -124 -121q-76 -42 -140 -21q-37 12 -54 48.5t-6 82.5q-41 -46 -81 -81q-38 -32 -57 -40q-10 -4 -22 0q-9 1 -24 16q-16 13 -18.5 41.5t4.5 61.5t20.5 71.5t27.5 68.5t27 54q1 4 0 8.5t-5.5 7t-15.5 -2.5q-13 0 -37 -29q-24 -24 -59 -79
l-56 -91q-97 -170 -186 -147q-41 8 -55 49q59 19 123 115q64 95 62 168q-2 46 -28 44q-24 -2 -37 -32q-12 -24 -5 -49q-9 -20 -38 -18q-33 2 -38 31q-5 25 18 60q27 43 65.5 58.5t69 8.5t53.5 -26q44 -37 28 -119q55 71 95 105q25 22 58 23q35 2 54 -10q22 -10 30 -37.5
t-6 -57.5q-12 -22 -28 -61q-21 -51 -29 -83q-7 -35 0 -41.5t34 18.5q80 76 93 103q40 87 92 133t101 44q6 1 25 -4q21 -11 25 -29q-42 -20 -83 -68.5t-67 -114.5z" />
    <glyph glyph-name="afii10070afii10073" unicode="&#x435;&#x437;" horiz-adv-x="936" 
d="M473 164q17 -14 1 -37q-6 -10 -25 -27q-61 -55 -140 -85q-81 -31 -159 -24q-65 8 -100 48t-33 101q1 64 36 132q36 67 98 117q61 49 131 54q49 3 87.5 -14.5t52.5 -54.5q19 -53 -13 -109q-31 -54 -90 -81q-38 -18 -98 -26q-55 -7 -92 1q-13 -45 18 -73q33 -40 127 -21
q68 13 102 39q35 24 36 25l14 13l25 23q9 9 22 -1zM139 202q121 0 175 76q34 46 22 86q-6 19 -22 23q-48 12 -99 -48q-26 -31 -48 -73q-24 -45 -28 -64zM628 34q-21 -16 -59 -11q-35 4 -46 26q-17 31 6 54t58 22q23 0 46 -19q38 15 80 62q42 45 61 89q19 39 14 77.5
t-32 50.5q-15 7 -36 6q-30 -4 -68 -44q-4 -4 -32 -42l-27 -37q-14 -14 -35.5 -16t-41.5 11q-10 7 -7 23q5 31 16 46q29 51 98 85q69 35 134 27q49 -6 81 -29.5t42 -59.5q20 -74 -31 -157q-50 -84 -128 -121q12 -12 26 -40q12 6 125 75q119 72 126 73q6 2 12 -4t6.5 -15
t-8.5 -17q-97 -70 -250 -157q15 -66 -13 -142q-27 -76 -78 -135q-50 -58 -120 -88q-68 -30 -127 -9q-59 20 -65 94q-8 114 155 203l146 83q-5 21 -28 36zM662 -50q-94 -51 -162 -94q-48 -29 -71.5 -68t-19.5 -67t27 -35q42 -18 98 26t91 113q37 70 37 125z" />
    <glyph glyph-name="afii10070afii10087" unicode="&#x435;&#x445;" horiz-adv-x="952" 
d="M473 164q17 -14 1 -37q-6 -10 -25 -27q-61 -55 -140 -85q-81 -31 -159 -24q-65 8 -100 48t-33 101q1 64 36 132q36 67 98 117q61 49 131 54q49 3 87.5 -14.5t52.5 -54.5q19 -53 -13 -109q-31 -54 -90 -81q-38 -18 -98 -26q-55 -7 -92 1q-13 -45 18 -73q33 -40 127 -21
q68 13 102 39q35 24 36 25l14 13l25 23q9 9 22 -1zM139 202q121 0 175 76q34 46 22 86q-6 19 -22 23q-48 12 -99 -48q-26 -31 -48 -73q-24 -45 -28 -64zM880 16q-33 -15 -74 -15q-54 0 -81 46q-19 38 -36 98l-95 -108q-21 -27 -56 -32q-21 -3 -57 -3q-13 1 -16 9q0 4 1 5
l199 221q0 25 -15 74.5t-39 46.5q-12 -1 -26 -12t-19.5 -18t-17.5 -23l-9 -12q-12 -16 -26 -8t-4 28q65 120 141 121q64 2 81 -54q8 -26 11 -40l6 -21l58 66q34 39 45 42q4 2 7 2.5t9 1t11.5 0.5t20.5 -0.5t30 -0.5q8 0 10 -5q0 -5 -2 -7l-162 -183q33 -135 53 -155
q12 -16 31.5 -13t38 13t38 28t32.5 32.5t22 26.5q19 23 33 13q13 -13 1 -32q-57 -94 -144 -132z" />
    <glyph glyph-name="afii10070afii10089" unicode="&#x435;&#x447;" horiz-adv-x="838" 
d="M139 202q121 0 175 76q34 46 22 86q-6 19 -22 23q-50 13 -112 -65q-21 -27 -40 -63.5t-23 -56.5zM42 80q-40 81 5 174q35 76 98 130t137 59q49 3 87.5 -14.5t52.5 -54.5q19 -53 -13 -109q-31 -54 -90 -81q-38 -18 -98 -26q-55 -7 -92 1q-13 -45 18 -73q23 -27 71 -28
q50 -2 78 12q114 35 188 148q45 77 64 141q-10 21 -11 49q-12 10 -16 30.5t4 41.5q15 26 44 26q18 2 30.5 -11.5t13.5 -35.5q2 -17 0 -32q11 -14 53 -29q41 -15 60 -13q51 6 67 -25q5 -8 5 -17t-3.5 -17t-11 -19.5t-15.5 -21.5t-20 -26.5t-22 -30.5q-25 -39 -38 -73
q-18 -59 3 -79q26 -21 58.5 -12t60.5 36q15 13 29 28t21 24t15.5 17.5t12.5 8.5t13 -3q13 -10 0 -34q-46 -76 -118 -117q-71 -40 -144 -21q-57 13 -74 69q-15 39 10 106q10 26 42 72q6 10 26 39q18 23 27 38q-48 10 -76 29q-43 -156 -159 -266q-115 -108 -271 -100
q-96 7 -122 90z" />
    <glyph glyph-name="afii10085afii10089" unicode="&#x443;&#x447;" horiz-adv-x="928" 
d="M859 290q-62 -77 -81 -134q-20 -57 3 -80q14 -17 37 -15t43 12.5t39 26.5q25 21 42 44q22 27 31.5 34t18.5 0q15 -11 1 -34q-47 -78 -119 -119q-73 -41 -146 -22q-56 15 -74 69q-16 41 10 106q11 28 42 73l27 38l27 38q-47 11 -75 29q-56 -185 -170 -283
q-56 -49 -145 -88l-28 -80q-47 -123 -76 -168q-48 -75 -122 -113q-32 -17 -73 -20t-65 7q-36 13 -52 40.5t-13.5 57.5t17.5 60q6 12 14 24.5t19 27t14 19.5q4 5 67 55q4 3 43 27l45 25l56 29l59 31l10 31q22 66 34 94q-51 -68 -126 -108q-73 -40 -128 -14q-33 14 -46 51
q-13 35 -2 80q13 47 46 113q39 80 43 90q24 61 18 88q55 13 82 -23q26 -39 1 -91l-67 -149q-10 -23 -15 -42q-10 -46 22 -51q53 -8 121 65q70 73 111 166q11 22 22 65q10 38 5 60q52 10 83 -20q34 -34 4 -103q-51 -128 -89 -231l-12 -33q65 34 98 64q60 50 101 132
q39 79 55 146q-22 13 -30 34q-16 33 -1 59q13 28 44 26q18 2 30 -11t14 -35q2 -21 -1 -33q11 -14 53 -29q42 -13 61 -12q50 5 66 -25q14 -27 -23 -71zM256 -56q-92 -46 -162 -96q-46 -32 -69 -72.5t-19.5 -69t26.5 -34.5q60 -24 114 49q41 55 66 115q33 77 44 108z" />
    <glyph glyph-name="afii10085afii10073" unicode="&#x443;&#x437;" horiz-adv-x="1021" 
d="M404 79l-12 -34q69 39 102 67q50 50 52 51q9 7 23 -1q14 -11 8 -22q-19 -42 -85 -85q-70 -46 -122 -70l-28 -79q-12 -32 -17 -42q-1 -8 -15 -39q-12 -33 -18 -42l-20 -35q-5 -10 -9.5 -18t-10 -15t-9 -10.5l-12 -12l-12.5 -12.5q-26 -30 -75 -56q-32 -17 -73 -20t-65 7
q-36 13 -52 41t-13.5 58t17.5 60q14 26 25 42q7 11 18.5 23t30.5 29l18 16q13 11 47 32l48 28l63 33l67 35q39 114 44 124q-52 -67 -126 -107q-73 -40 -128 -14q-33 14 -46 51q-13 35 -2 80q13 47 46 113q39 80 43 90q24 60 18 87q55 15 82 -23q26 -37 1 -91l-75 -166
q-7 -15 -7 -24q-10 -47 22 -52q52 -7 121 66q70 74 111 165q11 22 22 65q10 38 5 60q52 12 83 -19q34 -34 4 -103q-41 -101 -89 -231zM256 -55q-104 -54 -162 -96q-46 -33 -69 -73.5t-19.5 -68.5t26.5 -34q60 -24 114 49q39 50 66 115q33 77 44 108zM715 34q-21 -16 -59 -11
q-36 5 -47 26q-17 31 6 54t58 22q24 0 46 -19q38 15 80 62q42 45 61 89q19 39 14.5 77.5t-31.5 50.5q-15 7 -36 6q-31 -4 -69 -44q-3 -4 -32 -42q-24 -32 -27 -37q-13 -14 -34.5 -16t-41.5 11q-10 7 -7 23q5 31 16 46q28 51 97 85q69 35 135 27q99 -12 122 -89
q19 -73 -30 -157q-50 -84 -128 -121q11 -11 25 -40l126 75q119 72 126 73q6 2 11.5 -4t6 -15t-8.5 -17q-86 -64 -249 -157q12 -51 -3 -112.5t-51 -113.5q-35 -52 -82 -93q-96 -85 -202 -55q-59 20 -65 94q-8 114 155 203l145 83q-4 20 -27 36zM749 -50q-61 -31 -163 -94
q-47 -29 -70.5 -68t-20 -67t26.5 -35q43 -18 99 26t91 113q37 68 37 125z" />
    <glyph glyph-name="afii10085afii10072" unicode="&#x443;&#x436;" horiz-adv-x="1328" 
d="M404 79l-12 -34q69 39 102 67q50 50 52 51q9 7 23 -1q14 -11 8 -22q-19 -42 -85 -85q-70 -46 -122 -70l-28 -79q-12 -32 -17 -42q-1 -8 -15 -39q-12 -33 -18 -42l-20 -35q-5 -10 -9.5 -18t-10 -15t-9 -10.5l-12 -12l-12.5 -12.5q-26 -30 -75 -56q-32 -17 -73 -20t-65 7
q-36 13 -52 41t-13.5 58t17.5 60q14 26 25 42q7 11 18.5 23t30.5 29l18 16q13 11 47 32l48 28l63 33l67 35q39 114 44 124q-52 -67 -126 -107q-73 -40 -128 -14q-33 14 -46 51q-13 35 -2 80q13 47 46 113q39 80 43 90q24 60 18 87q55 15 82 -23q26 -37 1 -91l-75 -166
q-7 -15 -7 -24q-10 -47 22 -52q52 -7 121 66q70 74 111 165q11 22 22 65q10 38 5 60q52 12 83 -19q34 -34 4 -103q-41 -101 -89 -231zM256 -55q-104 -54 -162 -96q-46 -33 -69 -73.5t-19.5 -68.5t26.5 -34q60 -24 114 49q39 50 66 115q33 77 44 108zM1213 201
q-7 -15 -12 -39t-4 -50t12 -37q49 -53 162 87q20 23 35 13q13 -10 1 -32q-48 -79 -124 -121q-77 -42 -141 -21q-37 12 -54 48.5t-5 82.5q-41 -46 -81 -81q-40 -32 -58 -40q-22 -7 -46 16q-16 13 -18.5 41.5t4.5 61.5t20.5 71.5t27.5 68.5t27 54q2 3 1 8t-6 7.5t-16 -2.5
q-10 0 -37 -29q-24 -24 -59 -79l-56 -91q-43 -77 -88 -119t-97 -28q-41 7 -55 49q69 28 128 119q59 90 57 164q-2 46 -28 44q-22 -1 -37 -31q-12 -25 -5 -50q-9 -20 -39 -18q-33 2 -38 31q-3 26 19 60q27 43 65.5 58.5t69 8.5t53.5 -26q46 -37 27 -119q56 71 95 105
q25 22 58 23q35 2 54 -10q23 -10 31 -37.5t-7 -57.5q-10 -17 -28 -60q-18 -45 -28 -84q-9 -34 -1 -41t35 18q80 75 93 103q40 87 91.5 133t101.5 44q5 1 24 -4q21 -11 26 -29q-42 -20 -83 -68.5t-67 -114.5z" />
    <glyph glyph-name="afii10085afii10087" unicode="&#x443;&#x445;" horiz-adv-x="1016" 
d="M404 79l-12 -34q69 39 102 67q50 50 52 51q9 7 23 -1q14 -11 8 -22q-19 -42 -85 -85q-70 -46 -122 -70l-28 -79q-12 -32 -17 -42q-1 -8 -15 -39q-12 -33 -18 -42l-20 -35q-5 -10 -9.5 -18t-10 -15t-9 -10.5l-12 -12l-12.5 -12.5q-26 -30 -75 -56q-32 -17 -73 -20t-65 7
q-36 13 -52 41t-13.5 58t17.5 60q14 26 25 42q7 11 18.5 23t30.5 29l18 16q13 11 47 32l48 28l63 33l67 35q39 114 44 124q-52 -67 -126 -107q-73 -40 -128 -14q-33 14 -46 51q-13 35 -2 80q13 47 46 113q39 80 43 90q24 60 18 87q55 15 82 -23q26 -37 1 -91l-75 -166
q-7 -15 -7 -24q-10 -47 22 -52q52 -7 121 66q70 74 111 165q11 22 22 65q10 38 5 60q52 12 83 -19q34 -34 4 -103q-41 -101 -89 -231zM256 -55q-104 -54 -162 -96q-46 -33 -69 -73.5t-19.5 -68.5t26.5 -34q60 -24 114 49q39 50 66 115q33 77 44 108zM943 17q-41 -17 -74 -18
q-61 -1 -88 56q-7 15 -29 89l-95 -109q-21 -26 -56 -31q-25 -4 -57 -4q-13 1 -16 9q0 4 1 5l199 221q0 2 -1.5 12t-3.5 20t-5 24t-7 25t-9 21t-12.5 15t-15.5 4q-12 -1 -25 -10.5t-21.5 -20t-16.5 -21.5t-9 -12q-12 -16 -26 -8t-4 28q67 120 141 121q65 1 81 -54
q8 -26 11 -40l6 -21l58 66q33 38 45 42q7 3 20 3q2 0 23 -0.5t35 -0.5q8 0 10 -5q0 -5 -2 -7l-162 -183q35 -136 53 -154q12 -16 31.5 -13t38 13t38 28t32.5 32.5t22 26.5q19 25 34 14q15 -10 0 -33q-56 -93 -144 -130z" />
    <glyph glyph-name="afii10069afii10072" unicode="&#x434;&#x436;" horiz-adv-x="1314" 
d="M399 47q25 11 67 40q43 29 78 74q16 16 31 4q15 -15 2 -32q-46 -60 -108 -99q-26 -16 -52 -29q-28 -14 -37 -20q0 -1 -6 -17t-10 -29q-5 -15 -16 -45q-9 -26 -14 -39q-7 -19 -33 -74q-13 -27 -45 -73q-41 -55 -100 -86q-60 -32 -121 -17q-65 15 -75 84q-6 75 48 131
q45 43 100 78q8 5 84 50q14 8 34 20t33.5 19.5t22.5 13.5l14 45l18 54q-34 -49 -88 -77q-54 -29 -105 -24q-72 7 -95 66q-21 58 3 133q26 77 79 140q48 58 114 84q69 26 115 7q23 -12 22 -28q0 -3 -19 -6q-76 -12 -133 -85q-58 -73 -77 -153q-13 -52 1 -77t42.5 -21.5
t63.5 27.5q40 31 85 94q46 65 53 105l-2 1q-5 0 -13.5 5.5t-10.5 14.5q-7 26 21 45q24 21 55.5 13.5t46.5 -39.5q7 -9 5 -31q-1 -34 -18 -82q-8 -24 -18 -49q-17 -41 -42 -116zM233 -147l30 88l-66 -40q-68 -42 -95 -61q-45 -30 -68 -68t-20.5 -65t24.5 -34q59 -22 109 34
q45 48 72 110zM1198 201q-7 -15 -12 -39t-4 -50t12 -37q49 -53 162 87q20 23 35 13q13 -10 1 -32q-48 -79 -124 -121t-141 -21q-37 12 -54 48.5t-5 82.5q-40 -46 -81 -81q-40 -32 -58 -40q-22 -7 -46 16q-16 13 -18.5 41.5t4.5 61.5t20.5 71.5t27.5 68.5t27 54q2 3 1 8
t-6 7.5t-16 -2.5q-10 0 -37 -29q-24 -24 -59 -79l-56 -91q-43 -77 -88 -119t-97 -28q-41 7 -55 49q69 28 128 119q59 90 57 164q-2 46 -28 44q-22 -1 -37 -31q-12 -25 -5 -50q-9 -20 -39 -18q-33 2 -38 31q-3 26 19 60q27 43 65.5 58.5t69 8.5t53.5 -26q46 -37 27 -119
q56 71 95 105q25 22 58 23q35 2 54 -10q23 -10 31 -37.5t-7 -57.5q-10 -17 -28 -60q-18 -45 -28 -84q-9 -34 -1 -41t35 18q80 75 93 103q40 87 91.5 133t101.5 44q5 1 24 -4q21 -11 26 -29q-42 -20 -83 -68.5t-67 -114.5z" />
    <glyph glyph-name="afii10069afii10089" unicode="&#x434;&#x447;" horiz-adv-x="916" 
d="M848 289q-61 -76 -81 -134q-19 -57 3 -79q50 -38 119 24q24 20 41 43q22 26 31.5 32.5t18.5 -0.5q14 -11 -1 -34q-47 -77 -117 -117q-71 -41 -145 -21q-56 14 -74 69q-16 41 10 106q2 6 42 72l27 39l27 38q-50 11 -77 29q-25 -102 -78 -185t-128 -134q-23 -17 -86 -52
q0 -1 -6 -17t-10 -29q-5 -15 -16 -45q-9 -26 -14 -39q-7 -19 -33 -74q-13 -27 -45 -73q-41 -55 -100 -86q-60 -32 -121 -17q-65 15 -75 84q-6 75 48 131q45 43 100 78q8 5 84 50q14 8 34 20t33.5 19.5t22.5 13.5l14 45l18 54q-34 -49 -88 -77q-54 -29 -105 -24q-72 7 -95 66
q-21 58 3 133q26 77 79 140q48 58 114 84q69 26 115 7q23 -12 22 -28q0 -3 -19 -6q-76 -12 -133 -85q-58 -73 -77 -153q-14 -56 4.5 -80.5t52.5 -16t67 38.5q40 39 77 95q36 54 44 91l-2 1q-5 0 -13.5 5.5t-10.5 14.5q-7 26 21 45q24 21 55.5 13.5t46.5 -39.5q7 -9 5 -31
q-1 -34 -18 -82q-8 -24 -18 -49q-17 -41 -42 -116q88 48 143 126q59 87 85 186q-7 13 -12 49q-12 10 -15.5 30.5t4.5 41.5q14 26 44 26q19 1 30.5 -11.5t13.5 -35.5q2 -20 -1 -32q11 -14 53 -29q41 -15 61 -13q50 5 66 -25q15 -25 -23 -71zM233 -147l30 88l-66 -40
q-68 -42 -95 -61q-45 -30 -68 -68t-20.5 -65t24.5 -34q59 -22 109 34q45 48 72 110z" />
    <glyph glyph-name="afii10069afii10073" unicode="&#x434;&#x437;" horiz-adv-x="998" 
d="M401 51q18 8 58 40q42 34 77 78q14 17 30 4q17 -17 2 -32q-12 -17 -52 -59q-15 -15 -51 -42q-24 -17 -46 -30q-9 -6 -20 -12q-16 -10 -17 -10l-14 -41l-14 -41q-6 -18 -13 -35q-7 -19 -14 -36q-16 -42 -31 -65q-19 -35 -40 -62q-41 -55 -100 -86q-60 -32 -121 -17
q-65 15 -75 84q-6 75 48 131q45 43 100 78q8 5 84 50q14 8 34 20t33.5 19.5t22.5 13.5l14 45l18 54q-34 -49 -88 -77q-54 -29 -105 -24q-72 7 -95 66q-21 58 3 133q26 77 79 140q48 58 114 84q69 26 115 7q23 -12 22 -28q0 -3 -19 -6q-76 -12 -133 -85q-58 -73 -77 -153
q-14 -56 4.5 -80.5t52.5 -16t67 38.5q40 39 77 95q36 54 44 91l-2 1q-5 0 -13.5 5.5t-10.5 14.5q-7 26 21 45q24 21 55.5 13.5t46.5 -39.5q15 -33 -12 -112l-18 -48q-29 -76 -41 -114zM233 -147l30 88l-66 -40q-68 -42 -95 -61q-45 -30 -68 -68t-20.5 -65t24.5 -34
q59 -22 109 34q45 48 72 110zM691 34q-21 -16 -59 -11q-36 5 -47 26q-17 31 6 54t58 22q24 0 46 -19q38 15 80 62q42 45 61 89q19 39 14.5 77.5t-31.5 50.5q-15 7 -36 6q-31 -4 -69 -44q-4 -4 -32 -42q-24 -32 -27 -37q-13 -14 -34.5 -16t-41.5 11q-10 7 -7 23q5 31 16 46
q28 51 97 85q69 35 135 27q99 -12 122 -89q19 -73 -30 -157q-50 -84 -128 -121q12 -11 25 -40l126 75q119 72 126 73q6 2 11.5 -4t6 -15t-8.5 -17q-86 -64 -249 -157q12 -51 -3 -112.5t-51 -113.5q-35 -52 -82 -93q-96 -85 -202 -55q-59 20 -65 94q-8 114 155 203l145 83
q-4 20 -27 36zM725 -50q-61 -31 -163 -94q-47 -29 -70.5 -68t-20 -67t26.5 -35q43 -18 99 26t91 113q37 68 37 125z" />
    <glyph glyph-name="afii10069afii10087" unicode="&#x434;&#x445;" horiz-adv-x="1011" 
d="M401 50q17 6 62 44q43 36 75 78q14 17 30 4q17 -17 2 -32q-27 -37 -47 -55q-35 -33 -47 -42l-20 -15t-23 -16q-22 -13 -38 -22l-15 -9q0 -1 -6 -17t-10 -29q-5 -15 -16 -45q-9 -26 -14 -39q-7 -19 -33 -74q-13 -27 -45 -73q-41 -55 -100 -86q-60 -32 -121 -17
q-65 15 -75 84q-6 75 48 131q45 43 100 78q8 5 84 50q14 8 34 20t33.5 19.5t22.5 13.5l14 45l18 54q-34 -49 -88 -77q-54 -29 -105 -24q-72 7 -95 66q-21 58 3 133q26 77 79 140q48 58 114 84q69 26 115 7q23 -12 22 -28q0 -3 -19 -6q-76 -12 -133 -85q-58 -73 -77 -153
q-14 -56 4.5 -80.5t52.5 -16t67 38.5q40 39 77 95q36 54 44 91l-2 1q-5 0 -13.5 5.5t-10.5 14.5q-7 26 21 45q24 21 55.5 13.5t46.5 -39.5q15 -33 -12 -112l-18 -48q-28 -72 -41 -115zM233 -147l30 88l-66 -40q-68 -42 -95 -61q-45 -30 -68 -68t-20.5 -65t24.5 -34
q59 -22 109 34q45 48 72 110zM939 19q-39 -18 -74 -18q-54 0 -81 46q-19 38 -36 98l-95 -108q-21 -27 -56 -32q-21 -3 -57 -3q-13 1 -16 9q0 4 1 5l199 221q0 25 -15 74.5t-39 46.5q-12 -1 -26 -12t-19.5 -18t-17.5 -23l-9 -12q-12 -16 -26 -8t-4 28q65 120 141 121
q65 2 81 -54l12 -40l5 -21l58 66q35 39 45 42q4 2 7 2.5t9 1t11.5 0.5t20.5 -0.5t30 -0.5q8 0 10 -5q0 -5 -2 -7l-162 -183q33 -135 53 -155q12 -16 31.5 -13t38 13t38 28t32.5 32.5t22 26.5q19 23 33 13q13 -13 1 -32q-54 -92 -144 -129z" />
    <glyph glyph-name="afii10073afii10089" unicode="&#x437;&#x447;" horiz-adv-x="869" 
d="M184 34q-21 -16 -59 -11q-36 5 -47 26q-16 31 6 54q23 23 58 22q24 0 46 -19q38 15 80 62q42 45 61 89q22 44 13 88q-9 43 -51 48q-35 3 -73 -30t-57 -84q-3 -5 -13 -11q-13 -14 -34.5 -16t-41.5 11q-10 7 -7 23q5 31 16 46q28 51 97 85q69 35 135 27q99 -12 122 -89
q19 -73 -30 -157q-50 -84 -128 -121q11 -11 25 -40q48 22 108 68q59 46 99 106q47 77 70 148q-10 21 -11 49q-12 10 -16 30.5t4 41.5q15 26 44 26q18 2 30.5 -11.5t13.5 -35.5q2 -17 0 -32q11 -14 53 -29q41 -15 60 -13q51 5 67 -25q10 -19 -8 -48q-13 -23 -50 -73
q-34 -45 -47 -84q-18 -59 3 -79q26 -21 58.5 -12t60.5 36q15 13 29 28t21 24t15.5 17.5t12.5 8.5t13 -3q13 -10 0 -34q-46 -76 -118 -117q-70 -40 -144 -21q-57 13 -74 69q-15 39 10 106q10 26 42 72q6 10 26 39q18 23 27 38q-48 10 -76 29q-28 -95 -79 -173
q-76 -115 -232 -191q12 -51 -3 -112.5t-51 -113.5q-35 -52 -82 -93q-96 -85 -202 -55q-59 20 -65 94q-8 114 155 203l145 83q-5 20 -27 36zM218 -50q-61 -31 -163 -94q-47 -29 -70.5 -68t-20 -67t26.5 -35q43 -18 99 26t91 113q37 68 37 125z" />
    <glyph glyph-name="afii10073afii10072" unicode="&#x437;&#x436;" horiz-adv-x="1272" 
d="M184 34q-21 -16 -59 -11q-36 5 -47 26q-16 31 6 54q23 23 58 22q24 0 46 -19q38 15 80 62q42 45 61 89q19 39 14.5 77.5t-31.5 50.5q-15 7 -36 6q-31 -4 -69 -44q-3 -4 -32 -42q-24 -32 -27 -37q-13 -14 -34.5 -16t-41.5 11q-10 7 -7 23q5 31 16 46q28 48 87 79
q60 33 121 33q57 1 96.5 -24t49.5 -65q19 -73 -30 -157q-50 -84 -128 -121q11 -11 25 -40l107 63q100 61 109 62q6 2 11.5 -4t6 -15t-8.5 -17q-68 -51 -213 -134q12 -51 -3 -112.5t-51 -113.5q-35 -52 -82 -93q-96 -85 -202 -55q-59 20 -65 94q-8 114 155 203l145 83
q-5 20 -27 36zM218 -50q-61 -31 -163 -94q-47 -29 -70.5 -68t-20 -67t26.5 -35q43 -18 99 26t91 113q37 68 37 125zM1155 201q-6 -16 -11 -39.5t-4.5 -49.5t11.5 -37q13 -16 32.5 -13.5t38 13t38 28.5t32.5 32.5t22 26.5q20 23 34 13q6 -4 6 -14.5t-5 -17.5
q-46 -78 -124 -121q-76 -42 -140 -21q-37 12 -54 48.5t-6 82.5q-41 -46 -81 -81q-38 -32 -57 -40q-10 -4 -22 0q-9 1 -24 16q-16 13 -18.5 41.5t4.5 61.5t20.5 71.5t27.5 68.5t27 54q1 4 0 8.5t-5.5 7t-15.5 -2.5q-13 0 -37 -29q-24 -24 -59 -79l-56 -91q-97 -170 -186 -147
q-41 8 -55 49q69 28 128 119q59 90 57 164q-2 46 -28 44q-24 -2 -37 -32q-12 -24 -5 -49q-9 -20 -38 -18q-33 2 -38 31q-5 25 18 60q27 43 65.5 58.5t69 8.5t53.5 -26q44 -37 28 -119q55 71 95 105q25 22 58 23q35 2 54 -10q22 -10 30 -37.5t-6 -57.5q-12 -22 -28 -61
q-21 -51 -29 -83q-7 -35 0 -41.5t34 18.5q80 76 93 103q40 87 92 133t101 44q6 1 25 -4q21 -11 25 -29q-42 -20 -83 -68.5t-67 -114.5z" />
    <glyph glyph-name="afii10073afii10087" unicode="&#x437;&#x445;" horiz-adv-x="949" 
d="M184 34q-21 -16 -59 -11q-36 5 -47 26q-16 31 6 54q23 23 58 22q24 0 46 -19q38 15 80 62q42 45 61 89q22 45 13 89q-9 42 -51 47q-31 3 -65 -23t-56 -70q-7 -15 -22 -32q-13 -14 -34.5 -16t-41.5 11q-10 7 -7 23q5 31 16 46q28 51 97 85q69 35 135 27q99 -12 122 -89
q19 -73 -30 -157q-50 -84 -128 -121q11 -11 25 -40l89 52q83 50 92 51q6 2 11.5 -4t6 -15t-8.5 -17q-56 -42 -178 -112q12 -51 -3 -112.5t-51 -113.5q-35 -52 -82 -93q-96 -85 -202 -55q-59 20 -65 94q-8 114 155 203l145 83q-5 20 -27 36zM218 -50q-61 -31 -163 -94
q-47 -29 -70.5 -68t-20 -67t26.5 -35q43 -18 99 26t91 113q37 68 37 125zM877 19q-39 -18 -74 -18q-54 0 -81 46q-19 38 -36 98l-95 -108q-21 -27 -56 -32q-21 -3 -57 -3q-13 1 -16 9q0 4 1 5l199 221q0 25 -15 74.5t-39 46.5q-12 -1 -26 -12t-19.5 -18t-17.5 -23l-9 -12
q-12 -16 -26 -8t-4 28q65 120 141 121q65 2 81 -54l12 -40l5 -21l58 66q35 39 45 42q4 2 7 2.5t9 1t11.5 0.5t20.5 -0.5t30 -0.5q8 0 10 -5q0 -5 -2 -7l-162 -183q33 -135 53 -155q12 -16 31.5 -13t38 13t38 28t32.5 32.5t22 26.5q19 23 33 13q13 -13 1 -32
q-54 -92 -144 -129z" />
    <glyph glyph-name="afii10094afii10089" unicode="&#x44c;&#x447;" horiz-adv-x="713" 
d="M645 289q-61 -76 -81 -134q-19 -57 3 -79q50 -38 119 24q24 20 41 43q22 26 31.5 32.5t18.5 -0.5q14 -11 -1 -34q-46 -77 -117 -117q-71 -41 -145 -21q-56 14 -74 69q-16 41 10 106q2 6 42 72l27 39l27 38q-50 11 -77 29q-11 -50 -49.5 -94.5t-87.5 -68.5
q12 -50 -19 -97.5t-89.5 -74.5t-121.5 -23q-69 6 -88 61q-17 50 17 125l28 55q67 128 53 183q57 7 84 -29q26 -35 0 -95q-52 -120 -72 -153q-8 -18 -5 -42.5t16 -30.5q39 -20 85 29q36 37 34 64q0 9 -7 12q-18 -2 -33 11t-4 40q4 18 20 27t31 6q32 -5 51 -28q101 53 120 154
q-21 12 -30 33q-16 34 -1 60q14 26 44 26q19 1 30.5 -11.5t13.5 -35.5q2 -20 -1 -32q11 -14 53 -29q41 -15 61 -13q50 5 66 -25q15 -25 -23 -71z" />
    <glyph glyph-name="afii10035afii10078" unicode="&#x421;&#x43c;" horiz-adv-x="1203" 
d="M559 190q30 -20 -13 -76q-10 -13 -12 -29t6 -26q12 -10 42.5 6.5t52.5 55.5q36 61 70 173q2 6 8.5 35t10.5 39q8 29 31 48t62 14q37 -2 38 -39q3 -37 -18 -74q-23 -57 -13 -85.5t47 -28.5q38 -1 85 41q48 43 70 110q25 82 79 77q99 -7 37 -119q-33 -54 -58 -129
q-23 -72 -8 -94q21 -27 72 -1t98 86q21 25 33 13q7 -4 7 -14t-5 -18q-27 -47 -70 -86t-86 -57q-44 -23 -92 -12q-48 10 -63 60q-14 35 3 91q3 10 9 24.5t10.5 25.5t4.5 14q1 5 -6 -3q-38 -48 -65 -70q-46 -37 -95 -39q-32 -1 -53 15t-25 47q-34 -82 -97 -130
q-61 -45 -119 -40q-56 4 -82 53q-6 9 -7 22q-179 -109 -322 -47q-51 25 -75 81q-43 103 2 254q44 150 155 285q54 66 127 107q72 41 143 36q47 -4 78 -27.5t42.5 -58.5t10.5 -73.5t-14 -76.5q-26 -68 -79.5 -86t-82.5 31q55 46 73 124q19 79 -24 100q-50 23 -115 -37
q-65 -57 -117 -148q-51 -89 -75 -166q-19 -63 -25 -106q-7 -47 1 -100q9 -50 40 -72q50 -30 132 -7q80 23 164 83q47 39 72 24z" />
    <glyph glyph-name="afii10035afii10077" unicode="&#x421;&#x43b;" horiz-adv-x="956" 
d="M547 181q13 -6 11 -19t-8 -21.5t-15.5 -19t-10.5 -13.5q-21 -27 -3 -43q6 -3 15 -3t24 13.5t30 38.5q19 32 116 230q42 84 118 88q50 2 69 -43q20 -46 -4 -99q-10 -24 -41 -102q-2 -2 -6 -15q-8 -18 -14 -39q-9 -38 5 -52q11 -11 26 -12t31 7t32 19.5t31 26.5t25.5 26.5
t18.5 21.5q18 22 33 13q13 -10 1 -32q-54 -92 -144 -129q-71 -31 -115 -8.5t-43 91.5q-2 44 45 155q14 37 -2 48q-9 6 -22 -4t-23 -31l-31 -63q-27 -57 -37 -74q-2 -3 -12 -21t-12 -21q-20 -32 -28 -40q-30 -30 -35 -33q-40 -22 -74 -22q-30 0 -49.5 16t-23.5 43
q-177 -98 -299 -36q-51 25 -75 81q-43 103 2 254q44 150 155 285q54 66 127 107q72 41 143 36q47 -4 78.5 -27.5t42.5 -58.5t10 -73.5t-14 -76.5q-10 -24 -27 -34q-29 -47 -70 -55q-40 -7 -65 34q55 46 73 124q19 79 -24 100q-37 17 -84.5 -12t-92.5 -91q-90 -124 -130 -248
q-19 -63 -25 -106q-7 -47 1 -100q9 -50 40 -72q47 -28 118.5 -9t150.5 71q22 22 35 29q12 6 28 6t24 -6z" />
    <glyph glyph-name="or" unicode="or" horiz-adv-x="856" 
d="M345 403l-13 -2q-12 -2 -17 -4q-53 -15 -101 -75q-47 -59 -70 -126q-19 -54 -14 -95.5t32 -50.5q49 -16 106 42q58 61 77 134q14 47 1 63q-6 8 -15 1q-6 -4 -14.5 0.5t-12 16t5.5 28.5q15 23 43.5 33t61.5 -10q26 -23 27 -26q48 -14 84.5 -3t57.5 41q3 9 3 18
q-21 13 -31 34q-16 31 -1 59q14 28 45 26q18 2 30 -11t14 -35q2 -21 -1 -33q11 -14 53 -29q42 -13 61 -12q50 5 66 -25q14 -27 -23 -71q-128 -167 -78 -214q25 -21 57.5 -12t61.5 36q27 22 52 55q16 20 24 26t18 -1q13 -11 0 -36q-48 -79 -120 -120t-146 -21q-56 14 -74 69
q-15 45 10 106q10 26 42 72l27 39l27 38q-44 9 -74 27q-13 -28 -45.5 -51t-69.5 -29q-34 -4 -59 0q3 -31 -10 -73t-32 -73q-32 -59 -98 -98q-67 -39 -139 -38q-73 0 -118 48q-19 19 -24 47q-15 59 6.5 131.5t73.5 135.5q44 52 105 74q63 23 106 2q25 -10 22 -28z" />
    <glyph glyph-name="os" unicode="os" horiz-adv-x="852" 
d="M345 403l-13 -2q-12 -2 -17 -4q-53 -15 -101 -75q-47 -59 -70 -126q-19 -54 -14 -95.5t32 -50.5q44 -15 96 33q54 49 81 117q19 47 10 81q-5 18 -18 9q-6 -4 -14.5 0.5t-12 16t5.5 28.5q15 23 43.5 33t61.5 -10q26 -23 27 -26q43 -19 104 2q60 21 98 56q15 26 24 38
q32 40 71 25q11 -5 30 -9q21 -4 27 -9t1 -17l-3 -8q-4 -7 -9 -18.5t-10.5 -25t-10 -29t-5.5 -26.5q-1 -21 9 -91q12 -71 -1 -108q-13 -57 -69 -90q-56 -32 -114 -31q-50 1 -81 24.5t-36 62.5q-3 17 5 41q9 18 24 14t16 -31q5 -24 20 -38q33 -23 69 -12.5t54 46.5
q21 44 8 120q-2 8 -5 40q-5 53 8 94q-26 -29 -67 -51t-78 -27q-36 -5 -68 1q3 -31 -10 -73t-32 -73q-32 -59 -98 -98q-67 -39 -139 -38q-73 0 -118 48q-19 19 -24 47q-15 59 6.5 131.5t73.5 135.5q42 51 105 74t106 2q25 -10 22 -28z" />
    <glyph glyph-name="oz" unicode="oz" horiz-adv-x="917" 
d="M657 361q-1 0 -4 1l-3 2q-27 -47 -87 -73q-59 -24 -110 -16q3 -31 -10 -73t-32 -73q-32 -59 -98 -98q-67 -39 -139 -38q-73 0 -118 48q-19 19 -24 47q-15 59 6.5 131.5t73.5 135.5q42 51 105 74t106 2q25 -10 22 -28l-13 -2q-12 -2 -17 -4q-53 -15 -101 -75
q-47 -59 -70 -126q-19 -54 -14 -95.5t32 -50.5q49 -16 106 42q58 61 77 134q14 47 1 63q-6 8 -15 1q-6 -4 -14.5 0.5t-12 16t5.5 28.5q15 23 43.5 33t61.5 -10q26 -23 27 -26q42 -19 95 2q54 21 77 55q-24 22 -31 43q-11 20 1 42q9 22 36 27q28 5 42 -18q11 -23 8 -50
q11 -20 62 -33q52 -12 96 -6q33 4 52.5 -8t18.5 -37q0 -12 -32 -56q-31 -42 -81 -102q-50 -63 -69 -91q55 -29 120 -20q35 6 64.5 25.5t43.5 41.5q34 48 51 34q16 -13 -2 -38q-64 -94 -125 -117t-156 -11q-13 1 -30 5q-17 5 -24 3q-41 -25 -71 -19.5t-40 37.5q-7 31 16 57
q24 25 52 19q76 89 160 222q-60 -10 -119 22z" />
    <glyph glyph-name="ox" unicode="ox" horiz-adv-x="960" 
d="M895 16q-49 -22 -90 -18q-50 5 -75 59l-13 36q-2 6 -5 18t-5.5 21t-3.5 11l-103 -118q-21 -26 -105 -26q-13 1 -16 9q0 4 1 5l199 221q0 25 -15 74.5t-39 46.5q-10 1 -24 -12.5t-29.5 -34.5t-16.5 -22q-44 -47 -105 -53q-8 -53 -39 -104q-31 -60 -98 -99
q-68 -38 -139 -37q-73 0 -118 48q-19 19 -24 47q-15 59 6.5 131.5t73.5 135.5q42 51 105 74t106 2q25 -10 22 -28l-26 -5q-55 -13 -104 -74q-48 -60 -71 -128q-19 -54 -14 -95.5t32 -50.5q44 -15 96 33q54 49 81 117q19 47 10 81q-5 18 -18 9q-6 -4 -14.5 0.5t-12 16
t5.5 28.5q15 23 43.5 33t61.5 -10q30 -25 37 -76q23 5 43 20q30 21 64 69q42 58 105 61q64 2 81 -54q8 -26 11 -40l6 -21l58 66l12 13q26 26 34 29q4 2 9 2.5t10.5 0.5t22.5 -0.5t36 -0.5q7 0 9 -5q0 -3 -1 -4v-3l-163 -183q36 -135 53 -155q13 -16 32 -13t37.5 13t38 28.5
t32.5 33t22 26.5q20 26 35 16q16 -10 0 -35q-56 -93 -144 -130z" />
    <glyph glyph-name="pr" unicode="pr" horiz-adv-x="907" 
d="M851 291l-7 -9q-19 -26 -27 -37q-18 -26 -31 -49q-49 -89 -14 -119q26 -21 58.5 -12t60.5 36q21 19 44 46q23 29 30.5 34.5t20.5 -0.5q15 -11 -1 -36q-48 -79 -120 -120q-71 -41 -145 -21q-57 13 -74 69q-15 43 10 106q12 31 42 73l27 38l26 38q-48 10 -76 29
q-10 -26 -11 -32q-26 -68 -87 -139q-34 -40 -85.5 -69t-107.5 -38q-40 -43 -86 -60q-50 -18 -86 -12t-55.5 24.5t-15.5 38.5q3 22 15 8q19 -22 68 -4q80 35 134 152q15 34 20.5 61.5t1.5 44.5t-15 26.5t-28.5 9t-38.5 -10.5q-45 -23 -93 -77q-50 -54 -66 -106l-143 -379
q-33 -93 -14 -145q6 -17 16 -30l4 -5q-23 -18 -59 -8q-45 14 -58 47q-29 72 36 239q107 268 163 421q24 68 18 114q44 20 78 -12q35 -32 17 -80q41 44 104 76q65 32 113 22q74 -14 74 -112q0 -93 -58 -185q72 26 125 95q53 68 83 149q3 4 0.5 8.5t-10.5 10.5t-11 10
q-33 41 -11 71q26 32 57 10q33 -22 31 -63q11 -14 53 -29q42 -13 60 -12q51 5 67 -25q13 -27 -23 -71z" />
    <glyph glyph-name="ps" unicode="ps" horiz-adv-x="849" 
d="M197 336q41 44 104 76q65 32 113 22q72 -13 74 -107q46 -12 99 9t89 54q23 41 45 57.5t51 5.5q10 -5 30 -9q21 -4 27 -9t1 -17l-7 -14q-29 -55 -31 -93q-1 -22 9 -91q11 -71 -2 -108q-14 -58 -68 -90q-56 -32 -114 -31q-48 1 -79.5 24t-36.5 59q-5 20 3 45q10 18 24.5 14
t16.5 -31q4 -15 13 -19q24 -41 66 -33t63 48q23 44 9 120q-2 3 -6 40q-4 49 9 94q-29 -32 -70 -54t-77 -25q-41 -3 -68 2q-13 -82 -67 -157q-53 -74 -119 -99q-50 -18 -86 -12t-55.5 24.5t-15.5 38.5q3 22 15 8q19 -22 68 -4q77 33 134 152q15 34 20.5 61.5t1.5 44.5
t-15 26.5t-28.5 9t-38.5 -10.5q-47 -24 -96 -83q-50 -60 -71 -119l-135 -360q-33 -93 -14 -145q6 -17 16 -30l4 -5q-23 -18 -59 -8q-45 14 -58 47q-29 72 36 239q107 268 163 421q24 68 18 114q44 20 78 -12q35 -32 17 -80z" />
    <glyph glyph-name="pz" unicode="pz" horiz-adv-x="935" 
d="M197 336q41 44 104 76q65 32 113 22q72 -13 74 -110q41 -5 82 16q43 22 62 49q-24 22 -31 43q-10 19 2 43q13 25 35.5 27t38.5 -20q14 -20 11 -49q11 -20 62 -33q52 -12 96 -6q33 4 52.5 -8t18.5 -37q0 -12 -32 -56q-31 -42 -81 -102q-50 -63 -69 -91q59 -31 131 -17
q48 9 88 54q9 9 18.5 20t13.5 16t9.5 9t9.5 3.5t9 -4.5q16 -13 -2 -38q-64 -94 -125 -117t-156 -11q-13 1 -30 5q-17 5 -24 3q-41 -25 -71 -19.5t-40 37.5q-7 31 16 57q24 25 52 19q69 82 160 222q-59 -9 -126 25q-25 -45 -80 -70q-54 -24 -105 -21q-13 -81 -67 -156
q-52 -72 -118 -98q-50 -18 -86 -12t-55.5 24.5t-15.5 38.5q3 22 15 8q19 -22 68 -4q77 33 134 152q15 34 20.5 61.5t1.5 44.5t-15 26.5t-28.5 9t-38.5 -10.5q-45 -23 -93 -77q-50 -54 -66 -106l-143 -379q-33 -93 -14 -145q6 -17 16 -30l4 -5q-23 -18 -59 -8q-45 14 -58 47
q-29 72 36 239q107 268 163 421q24 68 18 114q44 20 78 -12q35 -32 17 -80z" />
    <glyph glyph-name="br" unicode="br" horiz-adv-x="866" 
d="M55 275q11 36 36 102q88 220 114 292q25 70 16 105q66 10 88 -27t-6 -108l-109 -276q23 29 54 47.5t57 21.5q49 8 93 -27q44 -33 49 -92q4 -84 -38 -163q115 57 181 235q2 6 -0.5 9t-10 7.5t-11.5 8.5q-12 13 -15.5 32.5t4.5 38.5q13 28 44 26q19 2 31 -11t13 -35
q1 -17 0 -33q11 -14 53 -29q42 -13 60 -12q51 5 67 -25q13 -27 -23 -71l-16 -20q-39 -56 -50 -77q-44 -86 -13 -117q26 -21 58.5 -12t60.5 36q21 19 44 46q23 29 30.5 34.5t20.5 -0.5q15 -11 -1 -36q-48 -79 -120 -120q-71 -41 -145 -21q-57 13 -74 69q-15 43 10 106
q12 31 42 73l27 38l26 38q-48 10 -76 29q-5 -20 -11 -31q-20 -53 -56 -102q-78 -108 -203 -146q-78 -78 -187 -79q-53 -2 -92 22t-48 71q-16 67 26 183zM309 356q-50 17 -99 -38q-49 -54 -72 -122q-37 -115 6 -134q46 -19 102 29t83 116q18 44 14 90q-5 49 -34 59z" />
    <glyph glyph-name="bz" unicode="bz" horiz-adv-x="889" 
d="M55 275q11 36 36 102q88 220 114 292q25 70 16 105q66 10 88 -27t-6 -108l-109 -276q46 59 111 69q47 6 90 -25q44 -32 51 -86q40 -1 80 19q41 23 60 49q-24 23 -31 43q-9 25 1 44q11 26 34.5 28t40.5 -22q13 -19 12 -49q11 -20 62 -33q53 -12 96 -6q33 4 52 -8t18 -37
q0 -12 -32 -56q-24 -32 -80 -102q-50 -63 -69 -91q57 -31 130 -17q42 9 79 44q12 12 23 24.5t16 18.5t10.5 10.5t9.5 4.5t10 -4q16 -13 -2 -38q-65 -95 -124 -117q-61 -23 -156 -11q-14 1 -31 5q-17 5 -24 3q-41 -26 -71 -20.5t-40 38.5q-6 33 17 57q22 25 52 19
q73 87 159 222q-58 -9 -125 25q-24 -42 -74.5 -67.5t-102.5 -23.5q-9 -114 -89 -194q-80 -79 -188 -80q-54 -1 -92.5 22.5t-47.5 70.5q-16 67 26 183zM309 356q-50 17 -99 -38q-49 -54 -72 -122q-37 -115 6 -134q46 -19 102 29t83 116q18 44 14 90q-5 49 -34 59z" />
    <glyph glyph-name="wx" unicode="wx" horiz-adv-x="1217" 
d="M739 370q16 -22 2 -62q27 2 63 47q28 41 53.5 58.5t62.5 18.5q65 2 82 -54l12 -40l5 -21l58 66q33 37 45 42q7 3 20 3q2 0 23 -0.5t35 -0.5q8 0 10 -5q0 -5 -2 -7l-162 -183q32 -131 53 -155q13 -16 32 -13t37.5 13t38 28.5t32.5 33t22 26.5q20 26 35 16q13 -10 0 -35
q-42 -71 -108 -113q-67 -41 -127 -35q-50 5 -74 59l-14 36q-2 7 -5 19t-5.5 21t-2.5 10l-104 -118q-10 -13 -32 -19q-21 -6 -33 -6q-7 -1 -39 -1q-13 1 -16 9q0 4 1 5l199 221q0 14 -10 54q-7 30 -19.5 51.5t-29.5 13.5q-17 -3 -39 -34q-24 -32 -55 -50.5t-58 -17.5
q-26 -65 -73 -124q-50 -61 -109 -91q-82 -44 -145 -31.5t-78 77.5q-94 -91 -193 -81q-39 4 -63 31.5t-31 73.5q-5 38 4 83q11 50 17 65l31 77q24 67 18 100q35 11 61 -3t33 -48q-2 -15 0 -17q3 -1 -2 -17q-4 -12 -4 -17q0 -1 -6 -18l-8 -18l-9 -20l-9 -21q-29 -72 -34 -130
q-4 -51 23 -57q20 -7 56 13q37 20 62 54q70 85 107 238q8 27 27 40.5t41 10.5q23 -3 34 -30q5 -32 -1 -49l-9 -28q-2 -7 -24 -59q-37 -87 -43 -133q-7 -51 19 -57q20 -7 58 13q37 19 64 54q38 47 65 109l15 34l14 35l11 28q-26 28 -19 63q2 13 11.5 22t23.5 9q22 0 38 -12
q22 -14 41 -50z" />
    <glyph glyph-name="wr" unicode="wr" horiz-adv-x="1198" 
d="M745 338q38 -15 74 3q37 19 48 48q-19 11 -30 33q-16 31 -1 59q14 28 45 26q18 2 30 -11t14 -35q2 -21 -1 -33q11 -14 53 -29q42 -13 61 -12q50 5 66 -25q14 -27 -23 -71q-128 -167 -78 -214q25 -21 57.5 -12t61.5 36q27 22 52 55q16 20 24 26t18 -1q14 -11 0 -36
q-48 -79 -120 -120t-146 -21q-56 14 -74 69q-15 45 10 106q10 26 42 72l27 39l27 38q-49 13 -73 27q-23 -41 -74 -62t-103 -5q-12 -69 -66 -143q-53 -73 -123 -109q-82 -44 -145 -31.5t-78 77.5q-92 -92 -190 -81q-83 8 -97 105q-5 38 4 83q11 50 17 65l31 77q24 67 18 100
q35 11 61.5 -3.5t32.5 -47.5q4 -32 -17 -79l-15 -37q-36 -86 -40 -135q-6 -56 23 -64q20 -7 56 13q37 20 62 54q70 85 107 238q8 27 27 40.5t41 10.5q29 -4 37 -39q4 -26 -24 -96l-15 -35q-41 -97 -41 -142q-3 -30 10 -40q19 -17 59 4q43 23 72 59q38 47 65 109l15 34l14 35
l11 28q-20 25 -19 52q-1 18 8.5 30.5t26.5 11.5q43 4 68 -24t17 -70z" />
    <glyph glyph-name="wz" unicode="wz" horiz-adv-x="1169" 
d="M660 432q43 4 68 -24t17 -70q33 -10 69 7q36 19 52 45q-22 16 -32 39q-10 24 1 45q15 25 37.5 28.5t40.5 -19.5q14 -17 9 -50q11 -20 62 -33q52 -12 96 -6q33 4 52.5 -8t18.5 -37q0 -12 -32 -56q-31 -42 -81 -102q-50 -63 -69 -91q55 -29 120 -20q35 6 64.5 25.5
t43.5 41.5q34 48 51 34q16 -13 -2 -38q-64 -94 -125 -117t-156 -11q-13 1 -30 5q-17 5 -24 3q-41 -25 -71 -19.5t-40 37.5q-7 31 16 57q24 25 52 19q76 89 160 222q-51 -7 -120 24q-22 -42 -76 -64q-52 -22 -100 -11q-12 -69 -66 -143q-53 -73 -123 -109q-82 -44 -145 -31.5
t-78 77.5q-92 -92 -190 -81q-83 8 -97 105q-5 38 4 83q11 50 17 65l31 77q24 67 18 100q35 11 61.5 -3.5t32.5 -47.5q4 -32 -17 -79l-15 -37q-36 -86 -40 -135q-7 -61 31 -63q21 -5 53.5 14.5t56.5 51.5q70 85 107 238q8 27 27 40.5t41 10.5q29 -4 37 -39q4 -27 -24 -96
l-15 -35q-41 -97 -41 -142q-3 -30 10 -40q19 -17 59 4q43 23 72 59q38 47 65 109l15 34l14 35l11 28q-20 25 -19 52q-1 18 8.5 30.5t26.5 11.5z" />
    <glyph glyph-name="ws" unicode="ws" horiz-adv-x="1073" 
d="M744 325q41 -8 82 9t72 54l32 42q6 8 17 17q10 9 21 9.5t28 -3.5q10 -5 30 -9q21 -4 27 -9t1 -17l-7 -14q-29 -55 -31 -93q-1 -22 9 -91q11 -71 -2 -108q-14 -58 -68 -90q-56 -32 -114 -31q-48 1 -79.5 24t-36.5 59q-5 20 3 45q10 18 24.5 14t16.5 -31q6 -43 41 -48
q29 -12 57.5 1.5t43.5 42.5q23 44 9 120q-2 3 -6 40q-4 48 9 93q-27 -38 -69 -60.5t-83 -21.5q-25 0 -42 4q-20 -69 -70 -136q-50 -66 -116 -101q-82 -44 -145 -31.5t-78 77.5q-92 -92 -190 -81q-83 8 -97 105q-5 38 4 83q11 50 17 65l31 77q24 67 18 100q35 11 61 -3
t33 -48q4 -32 -17 -79l-12 -28l-18 -43q-21 -53 -25 -101q-6 -56 23 -64q20 -7 56 13q37 20 62 54q70 85 107 238q8 27 26 40.5t42 10.5q29 -4 37 -39q4 -26 -24 -96l-15 -35q-41 -97 -41 -142q-5 -39 19 -44q20 -7 58 13q37 19 64 54q38 47 65 109l15 34l14 35l11 28
q-20 25 -19 52q-1 18 8.5 30.5t26.5 11.5q45 4 69 -30q25 -34 15 -77z" />
    <glyph glyph-name="wt" unicode="wt" horiz-adv-x="1094" 
d="M660 432q44 8 69 -21q34 -56 1 -142q-55 -162 -187 -233q-82 -44 -145 -31.5t-78 77.5q-98 -95 -200 -79q-75 12 -87 103q-5 38 4 83q11 50 17 65l31 77q24 67 18 100q38 12 66 -5.5t29 -54.5q0 -25 -11 -55q-6 -14 -16 -36l-16 -38q-30 -76 -29 -128q-1 -32 13 -45
q18 -17 58 4t69 59q70 85 107 238q8 27 27 40.5t41 10.5q29 -4 37 -39q5 -27 -11 -65q-2 -7 -17 -40q-13 -31 -13 -32q-39 -97 -40 -131q-3 -33 11 -45q15 -15 49 0t62 43q19 20 32 37q32 43 49 81q10 19 17 39l15 39l12 30q-20 25 -19 52q-1 18 8.5 30.5t26.5 11.5z
M1059 40q-75 -51 -156 -48q-54 1 -97 37q-42 36 -35 108q1 17 27 88q7 16 62 154q-93 20 -63 71l87 -6q12 33 36 92l39 97q13 33 22 74t3 64q65 11 88.5 -24.5t-3.5 -105.5l-77 -200q29 0 62 3q17 2 36 3.5t26 2.5h6q-7 -48 -29 -69t-68 -24q-11 -1 -65 4q-2 -5 -5.5 -13
t-8.5 -20.5t-9 -23.5l-26 -64q-28 -74 -34 -110q-9 -47 26 -62q55 -25 134 21q79 48 120 108q21 32 38 21q25 -14 -27 -78t-109 -100z" />
    <glyph glyph-name="vx" unicode="vx" horiz-adv-x="939" 
d="M462 397q23 -33 3 -98q32 17 61 56q26 40 52.5 58t63.5 19q65 2 82 -54l12 -40l5 -21l58 66q33 37 45 42q7 3 20 3q2 0 23 -0.5t35 -0.5q8 0 10 -5q0 -5 -2 -7l-162 -183q32 -131 53 -155q13 -16 32 -13t37.5 13t38 28.5t32.5 33t22 26.5q20 26 35 16q13 -10 0 -35
q-42 -71 -108 -113q-67 -41 -127 -35q-50 5 -74 59l-14 36q-2 7 -5 19t-5.5 21t-2.5 10l-104 -118q-10 -13 -32 -19q-21 -6 -33 -6q-7 -1 -39 -1q-13 1 -16 9q0 4 1 5l199 221q0 10 -11 54q-6 30 -18.5 50t-29.5 15q-17 -3 -45 -40q-51 -66 -110 -71q-49 -108 -144 -182
q-93 -73 -178 -59q-80 12 -93 106q-2 11 -2 46q8 53 13 69q3 7 6.5 19.5t8.5 24.5l8 21l9 23l9 21q24 65 18 100q35 11 62 -3.5t32 -47.5q3 -33 -12 -68q0 -2 -19 -43q-39 -87 -40 -149q-3 -28 5 -42t28 -13q25 -1 55 17.5t56 50.5q56 71 107 209q-23 28 -17 59q1 24 26 27
q17 8 35 2q31 -8 45 -33z" />
    <glyph glyph-name="vr" unicode="vr" horiz-adv-x="853" 
d="M473 331q-1 -1 -1 -3t-1 -2q38 -6 69.5 13t41.5 50q-20 12 -29 33q-16 33 -1 59q13 28 44 26q19 2 31 -11t13 -35q2 -17 0 -33q11 -14 53 -29q42 -13 60 -12q51 5 67 -25q13 -27 -23 -71l-16 -20q-39 -56 -50 -77q-44 -86 -13 -117q26 -21 58.5 -12t60.5 36q21 19 44 46
q23 29 30.5 34.5t20.5 -0.5q15 -11 -1 -36q-48 -79 -120 -120q-71 -41 -145 -21q-57 13 -74 69q-15 43 10 106q12 31 42 73l27 38l26 38q-49 13 -73 27q-24 -45 -71.5 -69t-98.5 -13q-73 -175 -184 -235q-85 -46 -146 -37q-81 11 -95 106q-2 11 -2 46q8 53 13 69
q3 7 6.5 19.5t8.5 24.5l8 21l9 23l9 21q24 65 18 100q35 11 61.5 -3.5t32.5 -47.5q5 -22 -10.5 -60t-36 -91t-24.5 -102q-6 -57 25 -63q24 -5 58 15t61 54q62 85 107 209q-19 23 -16 48q-1 20 13 33t36 12q39 -3 57 -38q18 -34 10 -66z" />
    <glyph glyph-name="vz" unicode="vz" horiz-adv-x="893" 
d="M463 393q17 -23 8 -59q35 -6 68.5 11t50.5 45q-20 17 -29 36q-15 32 1 57q12 23 36.5 23t38.5 -21q12 -19 10 -52q11 -20 62 -33q53 -12 96 -6q33 4 52 -8t18 -37q0 -12 -32 -56q-24 -32 -80 -102q-50 -63 -69 -91q53 -29 119 -20q35 6 65 25.5t44 41.5q33 47 50 34
q16 -13 -2 -38q-65 -95 -124 -117q-61 -23 -156 -11q-14 1 -31 5q-17 5 -24 3q-41 -26 -71 -20.5t-40 38.5q-6 33 17 57q22 25 52 19q71 83 159 222q-50 -7 -120 24q-39 -81 -175 -79q-68 -182 -187 -246q-85 -46 -146 -37q-81 11 -95 106q-2 11 -2 46q8 53 13 69
q3 7 6.5 19.5t8.5 24.5l8 21l9 23l9 21q24 65 18 100q35 11 61.5 -3.5t32.5 -47.5q5 -22 -10.5 -60t-36 -91t-24.5 -102q-6 -57 25 -63q24 -5 58 15t61 54q62 85 107 209q-19 23 -16 48q-1 20 13 33t36 12q38 -3 57 -42z" />
    <glyph glyph-name="vs" unicode="vs" horiz-adv-x="797" 
d="M469 356q3 -19 2 -31q11 -4 37 -2q67 10 113 65q4 4 15 20.5t14 20.5q6 7 18 18q11 10 22.5 10t28.5 -4q11 -5 30 -9q21 -4 27 -9t1 -17l-3 -8q-4 -7 -9 -18.5t-10.5 -25t-10 -29t-5.5 -26.5q-1 -21 9 -91q12 -71 -1 -108q-13 -57 -69 -90q-56 -32 -114 -31
q-50 1 -81 24.5t-36 62.5q-3 17 5 41q9 18 24 14t16 -31q5 -24 20 -38q33 -23 69 -12.5t54 46.5q21 41 10 107q-6 31 -9 72q-3 38 10 74q-26 -38 -67 -60.5t-81 -23.5q-30 0 -45 3q-70 -172 -183 -232q-92 -51 -156 -35q-73 16 -85 104q-2 11 -2 46q8 53 13 69q3 7 6.5 19.5
t8.5 24.5l8 21l9 23l9 21q24 65 18 100q35 11 61.5 -3.5t32.5 -47.5q5 -22 -10.5 -60t-36 -91t-24.5 -102q-6 -57 25 -63q34 -7 71.5 20.5t68.5 79.5q57 97 86 178q-19 23 -16 48q-1 20 13 33t36 12q33 -2 50.5 -25t12.5 -54z" />
    <glyph glyph-name="vt" unicode="vt" horiz-adv-x="823" 
d="M467 304q-35 -105 -99 -183q-50 -63 -121 -95q-74 -32 -123 -25q-81 11 -95 106q-2 11 -2 46q8 53 13 69q3 7 6.5 19.5t8.5 24.5l8 21l9 23l9 21q24 65 18 100q35 11 61.5 -3.5t32.5 -47.5q4 -30 -16 -79l-16 -36q-35 -83 -39 -138q-8 -62 33 -62q70 -4 137 105
q48 80 81 172q-19 23 -16 48q-1 20 13 33t36 12q24 -2 42 -17t23 -39q9 -34 -4 -75zM788 40q-75 -51 -156 -48q-54 1 -97 37q-42 36 -35 108q1 17 27 88q7 16 62 154q-93 20 -63 71l87 -6q12 33 36 92l39 97q13 33 22 74t3 64q65 11 88.5 -24.5t-3.5 -105.5l-77 -200
q29 0 62 3q17 2 36 3.5t25 2.5h7q-7 -48 -29 -69t-68 -24q-11 -1 -65 4q-2 -5 -5.5 -13t-8.5 -20.5t-9 -23.5l-26 -64q-28 -74 -34 -110q-9 -47 26 -62q55 -25 134 21q80 48 120 108q21 32 38 21q26 -14 -27 -78q-52 -64 -109 -100z" />
    <glyph glyph-name="sr" unicode="sr" horiz-adv-x="761" 
d="M47 93q12 -31 27 -38q39 -16 68 -4t47 47q21 44 8 124l-5 33q-7 54 12 97q-23 -16 -72 -112q-50 -99 -85 -147zM145 359q24 38 50 62t39 31q13 10 40 1q10 -5 30 -9q21 -4 27 -9t1 -17l-4 -8q-3 -7 -8.5 -18.5t-11 -25t-9.5 -29t-5 -26.5q-2 -27 8 -85q11 -64 1 -107
q42 14 83 64q75 91 110 203q2 5 -1 8t-10.5 7t-12.5 9q-30 30 -12 71q14 28 45 26q18 2 30 -11t14 -35q2 -21 -1 -33q11 -14 53 -29q42 -13 61 -12q50 5 66 -25q11 -23 -13 -57l-14 -18q-38 -55 -46 -67q-67 -104 -28 -143q14 -17 36.5 -15.5t43.5 12t39 27.5q21 18 43 45
q23 28 32.5 35.5t18.5 -0.5q14 -11 0 -36q-48 -79 -120 -120t-146 -21q-56 14 -74 69q-15 45 10 106q10 26 42 72l27 39l27 38q-50 11 -77 29q-16 -62 -67 -141q-82 -135 -177 -144q-24 -38 -70.5 -60t-95.5 -21q-56 1 -88 33.5t-34 85.5q36 39 85 134q49 92 63 115z" />
    <glyph glyph-name="ot" unicode="ot" horiz-adv-x="823" 
d="M415 358q35 -27 38 -84q4 -70 -42 -145q-32 -59 -98 -98q-67 -39 -139 -38q-73 0 -118 48q-19 19 -24 47q-15 59 6.5 131.5t73.5 135.5q42 51 105 74t106 2q25 -10 22 -28q-8 0 -34 -7q-52 -15 -99 -76q-48 -61 -68 -124q-19 -54 -14 -95.5t32 -50.5q49 -16 106 42
q58 61 77 134q14 47 1 63q-6 8 -15 1q-6 -4 -14.5 0.5t-12 16t5.5 28.5q15 23 43.5 33t61.5 -10zM788 40q-75 -51 -156 -48q-54 1 -97 37q-42 36 -35 108q1 17 27 88q7 16 62 154q-93 20 -63 71l87 -6q12 33 36 92l39 97q13 33 22 74t3 64q65 11 88.5 -24.5t-3.5 -105.5
l-77 -200q29 0 62 3q17 2 36 3.5t25 2.5h7q-7 -48 -29 -69t-68 -24q-11 -1 -65 4q-2 -5 -5.5 -13t-8.5 -20.5t-9 -23.5l-26 -64q-28 -74 -34 -110q-9 -47 26 -62q55 -25 134 21q80 48 120 108q21 32 38 21q26 -14 -27 -78q-52 -64 -109 -100z" />
    <glyph glyph-name="Cr" unicode="Cr" horiz-adv-x="939" 
d="M482 719q-50 23 -115 -37q-65 -57 -117 -148q-51 -89 -75 -166q-19 -63 -25 -106q-7 -47 1 -100q9 -50 40 -72q56 -41 167 4q112 47 198 133q19 19 63 76q39 52 50 85q-35 23 -39 58q-4 36 19 50q25 22 54 3t25 -56q7 -16 55 -36q18 -12 66 -20q47 -8 57 -25
q14 -27 -23 -71l-10 -13l-17 -23q-17 -22 -38 -61q-49 -85 -13 -117q15 -18 39 -15t45 14.5t41 29.5q24 22 40 43q21 26 30 32t18 0q14 -11 0 -36q-48 -79 -120 -120t-146 -21q-56 14 -74 69q-15 45 10 106q10 26 42 72l27 39l27 38q-50 11 -77 29q-22 -48 -74 -117
q-61 -82 -148 -144q-86 -62 -183 -88q-95 -26 -176 15q-51 25 -75 81q-43 103 2 254q44 150 155 285q54 66 127 107q72 41 143 36q47 -4 78 -27.5t42.5 -58.5t10.5 -73.5t-14 -76.5q-26 -68 -79.5 -86t-82.5 31q55 46 73 124q19 79 -24 100z" />
    <glyph glyph-name="Cs" unicode="Cs" horiz-adv-x="847" 
d="M482 719q-37 17 -84.5 -12t-92.5 -91q-92 -130 -130 -248q-19 -63 -25 -106q-7 -47 1 -100q9 -50 40 -72q58 -43 167 4q107 47 194 137q30 33 91 127q38 61 67 84t60 11q10 -5 30 -9q21 -4 27 -9t1 -17l-7 -14q-29 -55 -31 -93q-1 -22 9 -91q11 -71 -2 -108
q-14 -58 -68 -90q-56 -32 -114 -31q-52 1 -85 30.5t-41 81.5q-63 -45 -122 -70q-145 -62 -241 -10q-51 25 -75 81q-43 103 2 254q44 150 155 285q54 66 127 107q72 41 143 36q47 -4 78 -27.5t42.5 -58.5t10.5 -73.5t-14 -76.5q-26 -68 -79.5 -86t-82.5 31q55 46 73 124
q19 79 -24 100zM552 157q-6 -15 -1 -50t21 -48q35 -21 64.5 -9.5t48.5 48.5q21 44 8 124l-5 33q-7 54 12 97l-44 -64q-73 -107 -104 -131z" />
    <glyph glyph-name="Er" unicode="Er" horiz-adv-x="956" 
d="M900 291l-7 -9q-19 -26 -27 -37q-18 -26 -31 -49q-49 -89 -14 -119q45 -34 109 16q26 19 48 48q34 40 44 42q6 2 13 -2q15 -11 -1 -36q-48 -79 -120 -120q-71 -41 -145 -21q-57 13 -74 69q-15 43 10 106q12 31 42 73l27 38l26 38q-48 10 -76 29q-32 -119 -107 -211
t-189 -126q-120 -36 -242 -4q-60 16 -94 67t-26 124q8 89 78 153q69 63 179 80q-48 32 -65 82t1 97q25 83 106 129q79 46 169 43q96 -5 139 -56q45 -51 28 -119q-10 -40 -53 -63q-40 -22 -74 2q13 6 24.5 33t8.5 55q-4 35 -29 56t-61 22q-55 1 -98 -31t-61 -80
q-7 -28 -8 -55.5t16.5 -54t52.5 -40.5q15 -8 40 -9q29 -1 40.5 -6.5t10.5 -22.5q-1 -22 -80 -22q-106 0 -178 -63t-70 -144q2 -71 64 -105t148 -19q146 26 232 179q50 89 53 148q-27 22 -31 53.5t17 46.5q25 22 54 3q29 -18 26 -56q8 -17 55 -36q18 -12 66 -20q47 -8 57 -25
q14 -27 -23 -71z" />
    <glyph glyph-name="Es" unicode="Es" horiz-adv-x="898" 
d="M534 791q96 -5 139 -56q45 -51 28 -119q-10 -40 -53 -63q-40 -22 -74 2q13 6 24.5 33t8.5 55q-4 35 -29 56t-61 22q-55 1 -98 -31t-61 -80q-7 -28 -8 -55.5t16.5 -54t52.5 -40.5q15 -8 40 -9q29 -1 40.5 -6.5t10.5 -22.5q-1 -22 -80 -22q-106 0 -178 -63t-70 -144
q2 -71 64 -105t148 -19q126 21 213 142q12 18 55 98q92 170 158 144q10 -5 30 -9q21 -4 27 -9t1 -17l-4 -8q-3 -7 -8 -18.5t-10.5 -25t-10 -29t-5.5 -26.5q-1 -21 9 -91q12 -71 -1 -108q-14 -57 -69 -90q-56 -32 -114 -31q-46 1 -76.5 24t-42.5 63q-56 -40 -118 -58
q-120 -36 -242 -4q-60 16 -94 67t-26 124q8 89 78 153q69 63 179 80q-48 32 -65 82t1 97q25 83 106 129q79 46 169 43zM597 125q-6 -13 2 -38q8 -23 21 -32q39 -16 68.5 -4t47.5 47q21 43 7 127q-3 21 -4 27q-7 56 11 100q-31 -38 -82 -120q-48 -79 -71 -107z" />
    <glyph glyph-name="Jr" unicode="Jr" horiz-adv-x="1017" 
d="M961 291l-7 -9q-19 -26 -27 -37q-18 -26 -31 -49q-49 -89 -14 -119q45 -34 109 16q25 19 48 48q34 40 44 42q6 2 13 -2q15 -11 -1 -36q-48 -79 -120 -120q-71 -41 -145 -21q-57 13 -74 69q-15 43 10 106q12 31 42 73l27 38l26 38q-48 10 -76 29q-58 -192 -193 -254
q-34 -18 -88 -28l-40 -5l-32 -4q-11 -28 -26 -58q-10 -23 -36 -61q-25 -39 -51 -62q-67 -63 -158 -70q-96 -7 -140 67q-20 44 -13 86t34 73q48 54 120.5 73t181.5 16l191 494q21 56 49 97q-80 -7 -155 -50q-73 -42 -110 -111q-29 -53 -23 -100.5t44 -65.5q-67 -31 -118 -3
q-51 29 -39 103q9 57 58 115q49 60 140 108q88 48 195 59q72 8 93 -19q17 -23 -11 -95l-203 -534q98 4 158 40q41 30 76 83q12 19 25 50l18 43q1 2 3.5 9t6 15.5t6.5 17.5q2 7 0.5 9t-9.5 6.5t-12 8.5q-19 18 -20 44t19 42q26 22 54 3q29 -18 26 -56q6 -16 52 -38
q20 -11 67 -18q49 -8 59 -25q13 -27 -23 -71zM320 69q-82 -1 -131.5 -17t-76.5 -60q-21 -33 -21 -64t21 -49q31 -26 83 2q54 27 90 101q19 44 35 87z" />
    <glyph glyph-name="Jz" unicode="Jz" horiz-adv-x="1046" 
d="M748 382q-1 9 -3.5 13t-8.5 7.5t-10 7.5q-24 26 -11 60q9 26 36 31q27 4 37 -17q14 -30 12 -51q11 -20 62 -33q52 -12 96 -6q33 4 52 -8t18 -37q0 -12 -32 -56q-24 -32 -80 -102q-50 -63 -69 -91q53 -29 119 -20q38 6 67.5 27t42.5 41t25.5 31t23.5 2q16 -13 -2 -38
q-65 -95 -124 -117q-61 -23 -156 -11q-14 1 -31 5q-17 5 -24 3q-41 -26 -71 -20.5t-40 38.5q-6 33 17 57q22 25 52 19q68 79 159 222q-60 -10 -119 22q-44 -147 -126 -217t-228 -78q-11 -28 -26 -58q-10 -23 -36 -61q-25 -39 -51 -62q-67 -63 -158 -70q-96 -7 -140 67
q-20 44 -13 86t34 73q48 54 120.5 73t181.5 16l191 494q21 56 49 97q-80 -7 -155 -50q-73 -42 -110 -111q-29 -53 -23 -100.5t44 -65.5q-67 -31 -118 -3q-51 29 -39 103q9 57 58 115q49 60 140 108q88 48 195 59q72 8 93 -19q17 -23 -11 -95l-203 -534q113 5 181.5 66
t111.5 188zM320 69q-82 -1 -131.5 -17t-76.5 -60q-21 -33 -21 -64t21 -49q31 -26 83 2q54 27 90 101q19 44 35 87z" />
    <glyph glyph-name="Or" unicode="Or" horiz-adv-x="1037" 
d="M800 357l-17 -13q-89 -104 -225 -120q-67 -115 -168 -181q-100 -64 -209 -33q-49 14 -82.5 53.5t-46 90t-9.5 107t22 105.5q24 59 71 105q46 47 84 33q5 77 41 146q38 71 103 115q67 44 140 40q79 -5 117 -62.5t37 -154.5q0 -77 -22 -161q-21 -83 -48 -145q97 13 179 100
q-25 23 -32 45q-14 32 0.5 57t44.5 23q19 2 31 -11t13 -35q2 -17 0 -33q11 -14 53 -29q42 -13 60 -12q51 5 67 -25q13 -27 -23 -71l-16 -20q-39 -56 -50 -77q-44 -86 -13 -117q26 -21 58.5 -12t60.5 36q21 19 44 46q23 29 30.5 34.5t20.5 -0.5q15 -11 -1 -36
q-48 -79 -120 -120q-71 -41 -145 -21q-57 13 -74 69q-15 43 10 106q12 31 42 73l27 38l26 38q-48 9 -81 29zM504 737q-70 10 -128 -72q-57 -81 -59 -179q1 -76 43 -128.5t112 -70.5q37 69 70 173q32 103 28 171q-6 99 -66 106zM442 233q-85 15 -147 74q-61 61 -71 143
q-72 -101 -86 -220t45 -152q15 -8 36.5 -9t49.5 7.5t56.5 26.5t59.5 51.5t57 78.5z" />
    <glyph glyph-name="Oz" unicode="Oz" horiz-adv-x="1063" 
d="M588 282q117 20 176 101q-25 20 -34 47q-10 22 -1 42q13 24 35.5 29t41.5 -17q13 -17 11 -51q11 -20 62 -33q53 -12 96 -6q33 4 52 -8t18 -37q0 -12 -32 -56q-24 -32 -80 -102q-50 -63 -69 -91q57 -31 130 -17q49 9 89 54l31 35q11 11 14.5 12.5t13.5 -3.5q16 -13 -2 -38
q-65 -95 -124 -117q-61 -23 -156 -11q-14 1 -31 5q-17 5 -24 3q-41 -26 -71 -20.5t-40 38.5q-6 33 17 57q22 25 52 19q71 83 159 222q-62 -9 -124 22q-43 -68 -127 -106q-54 -23 -113 -31q-67 -115 -168 -181q-100 -64 -209 -33q-49 14 -82.5 53.5t-46 90t-9.5 107t22 105.5
q24 59 71 105q46 47 84 33q5 77 41 146q38 71 103 115q67 44 140 40q79 -5 117 -62.5t37 -154.5q0 -77 -22 -161q-21 -83 -48 -145zM504 737q-70 10 -128 -72q-57 -81 -59 -179q1 -76 43 -128.5t112 -70.5q37 69 70 173q32 103 28 171q-6 99 -66 106zM442 233
q-85 15 -147 74q-61 61 -71 143q-72 -101 -86 -220t45 -152q15 -8 36.5 -9t49.5 7.5t56.5 26.5t59.5 51.5t57 78.5z" />
    <glyph glyph-name="Ox" unicode="Ox" horiz-adv-x="1130" 
d="M588 282q74 12 144 92q49 57 102 58q63 2 81 -54q8 -26 11 -40l6 -21l58 66l12 13q26 26 34 29q4 2 9 2.5t10.5 0.5t22.5 -0.5t36 -0.5q7 0 9 -5q0 -3 -1 -4v-3l-163 -183q36 -135 53 -155q13 -16 32 -13t37.5 13t38 28.5t32.5 33t22 26.5q20 26 35 16q16 -10 0 -35
q-39 -65 -98.5 -105.5t-117.5 -42.5q-56 -2 -84 46q-12 22 -36 99l-103 -118q-21 -26 -105 -26q-13 1 -16 9q0 4 1 5l199 221q0 2 -1.5 9t-2.5 14.5t-3.5 19t-5 20.5t-6 20t-7.5 18t-9.5 13.5t-11.5 7t-13 -1.5q-16 -9 -36 -31q-81 -85 -195 -99q-67 -115 -168 -181
q-100 -64 -209 -33q-49 14 -82.5 53.5t-46 90t-9.5 107t22 105.5q24 59 71 105q46 47 84 33q5 77 41 146q38 71 103 115q67 44 140 40q79 -5 117 -62.5t37 -154.5q0 -77 -22 -161q-21 -83 -48 -145zM504 737q-70 10 -128 -72q-57 -81 -59 -179q1 -76 43 -128.5t112 -70.5
q37 69 70 173q32 103 28 171q-6 99 -66 106zM442 233q-85 15 -147 74q-61 61 -71 143q-72 -101 -86 -220t45 -152q15 -8 36.5 -9t49.5 7.5t56.5 26.5t59.5 51.5t57 78.5z" />
    <glyph glyph-name="Th" unicode="Th" horiz-adv-x="1087" 
d="M471 656q59 -2 72.5 -26.5t-9.5 -98.5q-34 -93 -116 -297q-20 -46 -39 -125q-21 -82 6 -109q-86 -11 -103 50t36 195q100 259 153 411zM962 134q-12 -40 5 -55q49 -53 163 87q18 25 34 15q11 -13 1 -35q-51 -79 -119 -112q-24 -13 -51.5 -21t-56 -5t-43.5 22
q-31 14 -35 52q-8 62 32 151q18 44 16 69q3 15 -15 7q-21 -10 -52 -36q-30 -29 -69 -78q-96 -115 -96 -196v-1q-78 -1 -100 63q-11 32 1 82q10 46 27 79l143 367q24 60 30 77q-15 0 -20 1q-35 2 -107 15q-89 17 -128 23q-58 9 -121 5q-66 -5 -108 -29q-63 -37 -84.5 -84.5
t-15.5 -80.5l2 -11q-45 3 -67 40t-3 86q56 144 271 155q36 2 150 -10q115 -12 214 -7q95 4 140 43q32 -32 4 -104l-201 -517q9 15 41 56q45 57 105 109q57 51 107 70q45 16 68 -5q26 -24 31.5 -41.5t-4.5 -45.5l-3 -8q-4 -8 -14.5 -30.5t-20.5 -43.5q-36 -76 -51 -118z" />
    <glyph glyph-name="Xy" unicode="Xy" horiz-adv-x="1146" 
d="M654 -158q-48 6 -91 67q-79 112 -107 292q-75 -99 -165 -154q-91 -56 -178 -46q-74 9 -109 69q-33 61 -16 132t71 111q13 9 28 12q32 16 62.5 2t43.5 -52q-35 -10 -68 -36t-48 -58q-31 -61 8 -102q17 -14 43.5 -15t68.5 21.5t85 64.5q59 57 157 192q-5 93 3 263
q2 42 1 73t-13 47.5t-38 14.5q-57 -5 -187 -165q-15 -18 -34.5 -20t-25.5 11t9 40q43 61 101 119q57 57 117 83q85 37 126 -16t32 -164q-7 -69 -7 -166q8 10 32 46l30 44q13 20 33 47.5t51 64t63 66.5t68 55t66 29.5t58 -9.5q17 -12 24.5 -32t0.5 -40q-48 -9 -90.5 -39
t-103.5 -92q-98 -101 -220 -288q14 -134 61 -244q48 -111 130 -156q1 -32 -19.5 -54t-52.5 -18zM1097 79l-62 -173q-47 -120 -72 -162q-49 -80 -126 -120q-72 -35 -138 -13q-37 12 -47 45q-12 18 -2 46q10 27 49 38q-8 -38 15 -58t59 -10q73 23 122 134q25 54 42 102
q19 54 39 118q24 76 36 106q-52 -67 -126 -107q-73 -40 -128 -14q-33 14 -46 51q-13 35 -2 80q13 47 46 113q39 80 43 90q24 60 18 87q62 17 84 -35q20 -35 -1 -79l-75 -166q-12 -42 -5 -59t31 -14q54 1 117 71q63 69 104 157q11 22 22 65q10 38 5 60q50 11 83 -19
q34 -34 4 -103q-57 -142 -89 -231z" />
    <glyph glyph-name="cs" unicode="cs" horiz-adv-x="790" 
d="M588 272q-4 -5 -19 -34q-8 -17 -25 -46q-30 -53 -62 -88q7 -40 41 -55q34 -13 62 4q72 37 51 169l-5 33q-7 54 12 97q-20 -17 -55 -80zM135 98q13 -26 48 -36q55 -16 123 0q106 25 186 134q22 37 45 80q15 27 47 83q24 38 50 62t39 31q13 10 40 1q11 -5 30 -9
q21 -4 27 -9t1 -17l-5 -8q-4 -9 -11 -24t-12 -29q-9 -28 -10 -46q-1 -22 9 -91q11 -71 -2 -108q-14 -58 -68 -90q-56 -32 -114 -31q-93 3 -116 80q-128 -100 -283 -83q-54 4 -94 37q-46 37 -47 107q0 70 33 136q34 66 97 119q63 51 135 56q47 3 83.5 -14.5t50.5 -55.5
q8 -21 5 -47.5t-15 -45.5q-22 -37 -58 -43q-35 -6 -53 23q14 12 26 35t14 41q3 39 -23 47q-40 15 -95 -46q-45 -48 -75 -124q-30 -75 -8 -115z" />
    <glyph glyph-name="fs" unicode="fs" horiz-adv-x="774" 
d="M573 272l-22 -40l-26 -48q-27 -48 -61 -77q12 -40 33 -52q39 -16 68 -4t47 47q22 42 8 124l-5 33q-7 54 12 97q-18 -13 -54 -80zM186 310q72 32 156 141t105 183q8 27 4.5 48t-16.5 25q-48 16 -117 -107q-33 -57 -70 -142q-8 -17 -28 -65q-31 -73 -34 -83zM102 76
q-69 -179 -76 -294q-3 -51 11.5 -85.5t41.5 -34.5q32 0 61.5 43t44.5 124q12 66 -5 138t-78 109zM568 359q24 38 50 62t39 31q13 10 40 1q11 -5 30 -9q21 -4 27 -9t1 -17l-5 -8q-4 -9 -11 -24t-12 -29q-9 -28 -10 -46q-1 -22 9 -91q11 -71 -2 -108q-14 -58 -68 -90
q-56 -32 -114 -31q-99 3 -118 88q-55 -32 -123 -37q-65 -4 -115 19q36 -21 59 -70t25 -108q5 -60 -10.5 -117t-58 -103t-105.5 -58q-54 -12 -101 17q-48 29 -58 97q-16 94 23 247q36 147 80 256l48 123q51 124 108 227q129 238 270 197q54 -12 67 -69.5t-19 -137
t-101 -150.5q-48 -52 -121 -105q-71 -51 -130 -66q-13 -31 -38 -103q38 -23 87.5 -35.5t86.5 -10.5q113 6 181 102l41 78q30 60 48 87z" />
    <glyph glyph-name="Ti" unicode="Ti" horiz-adv-x="772" 
d="M457 658q49 0 68 -18q24 -19 -2 -91l-121 -315q-20 -46 -39 -125q-21 -82 6 -109q-86 -11 -103 50t36 195q109 281 155 413zM757 690q-35 2 -107 15q-89 17 -128 23q-58 9 -121 5q-66 -5 -108 -29q-63 -37 -84.5 -84.5t-15.5 -80.5l2 -11q-45 3 -67 40t-3 86
q56 144 271 155q36 2 150 -10q115 -12 214 -7q95 4 140 43q13 -10 16 -36t-5 -51q-10 -29 -51.5 -45.5t-102.5 -12.5zM675 559q-2 24 15 42.5t43 19.5q23 3 41.5 -13.5t19.5 -41.5t-15 -43t-42 -21q-24 -1 -42.5 16t-19.5 41zM695 258l-17 -35q-82 -160 9 -152q8 0 16 2
q35 7 89 62l28 32q17 25 34 14q12 -12 1 -33q-54 -91 -141 -131q-30 -16 -66.5 -19.5t-70.5 12.5t-47 52q-15 26 6 101q9 26 14 39q12 29 15 34q1 2 3 6.5t6 13t7 14.5q5 14 18 41l17 36q24 61 17 86q35 10 64 -11q28 -19 28 -51q1 -25 -7 -53q-9 -31 -23 -60z" />
    <glyph glyph-name="Fi" unicode="Fi" horiz-adv-x="1036" 
d="M740 699q-40 9 -93 16q-47 6 -106 3q-56 -1 -93 -19q-40 -19 -68 -48t-37 -57q-18 -56 -11 -88l3 -15q-62 9 -85 54q-22 45 1 97q22 55 73 91q48 34 98.5 48t117.5 17q49 1 160 -12q115 -14 164 -14q123 4 177 51q14 -8 21.5 -26.5t4 -41t-16 -43t-44 -33.5t-76.5 -12
q-56 2 -190 32zM508 398l99 256q60 1 73 -25t-12 -100l-52 -137q132 -14 177 -13q-9 -28 -32 -51q-40 -39 -154 -25l-23 4q-42 -114 -47 -126q-18 -44 -49 -82q-32 -42 -84.5 -71t-109.5 -31q-42 -2 -78 16.5t-55 50.5q-25 38 -18.5 95.5t44.5 107.5q51 67 144 99
q96 33 177 32zM472 297l9 23q-44 2 -75 -2q-38 -3 -91 -28q-54 -24 -82 -70q-38 -67 -22 -115q17 -49 66 -50q86 -5 140 110q12 26 31 70q16 37 24 62zM937 545q-2 24 15 42.5t43 19.5q23 3 41.5 -13.5t19.5 -41.5t-15 -43t-42 -21q-24 -1 -42.5 16t-19.5 41zM957 258
l-17 -35q-82 -160 9 -152q8 0 16 2q35 7 89 62l28 32q17 25 34 14q12 -12 1 -33q-54 -91 -141 -131q-30 -16 -66.5 -19.5t-70.5 12.5t-47 52q-15 26 6 101q9 26 14 39q12 29 15 34q1 2 3 6.5t6 13t7 14.5q5 14 18 42l17 35q24 61 17 86q35 10 64 -11q28 -19 28 -51
q1 -25 -7 -53q-9 -31 -23 -60z" />
    <glyph glyph-name="Fl" unicode="Fl" horiz-adv-x="1212" 
d="M873 667q-42 0 -104 13l-111 24q-50 13 -110 14q-63 3 -100 -19q-40 -19 -68 -48t-37 -57q-18 -56 -11 -88l3 -15q-62 9 -85 54q-22 45 1 97q22 55 73 91q48 34 98.5 48t117.5 17q48 1 130 -12q86 -14 137 -14q123 4 177 51q14 -8 21.5 -26t4 -40t-16 -42.5t-44 -34
t-76.5 -13.5zM508 398l99 256q60 1 73 -25t-12 -100l-52 -137q132 -14 177 -13q-9 -28 -32 -51q-40 -39 -154 -25l-23 4q-42 -114 -47 -126q-18 -44 -49 -82q-32 -42 -84.5 -71t-109.5 -31q-42 -2 -78 16.5t-55 50.5q-25 38 -18.5 95.5t44.5 107.5q51 67 144 99
q96 33 177 32zM472 297l9 23q-44 2 -75 -2q-38 -3 -91 -28q-54 -24 -82 -70q-38 -67 -22 -115q17 -49 66 -50q86 -5 140 110q12 26 31 70q16 37 24 62zM1192 689q-68 -71 -110 -159q-22 -46 -34 -76q-6 -13 -37 -93q77 9 159 105q81 96 95 187q10 51 -14 62t-59 -26z
M1278 204q15 26 34 14q22 -10 -10 -59q-30 -45 -70 -78q-126 -104 -257 -91q-66 6 -103.5 38.5t-36.5 95.5q0 31 13 90q16 64 42 129q27 69 69 158q51 103 105 170q102 128 212 105q55 -14 68 -69q15 -55 -14 -130q-40 -108 -140 -187q-97 -78 -199 -93q-43 -97 -45 -159
q-6 -55 34 -74q63 -30 161 18q100 50 137 122z" />
    <glyph glyph-name="afii10020afii10077" unicode="&#x413;&#x43b;" horiz-adv-x="991" 
d="M582 181q13 -6 11 -19t-8 -21.5t-15.5 -19t-10.5 -13.5q-21 -27 -3 -43q6 -3 15 -3t24 13.5t30 38.5q19 32 116 230q42 84 118 88q50 2 69 -43q20 -46 -4 -99q-10 -24 -41 -102q-1 -2 -6 -15q-8 -18 -14 -39q-9 -38 5 -52q11 -11 26 -12t31 7t32 19.5t31 26.5t25.5 26.5
t18.5 21.5q18 22 33 13q13 -10 1 -32q-54 -92 -144 -129q-71 -31 -115 -8.5t-43 91.5q-2 44 45 155q14 37 -2 48q-9 6 -22 -4t-23 -31l-31 -63q-27 -57 -37 -74q-2 -3 -12 -21t-12 -21q-20 -32 -28 -40q-30 -30 -35 -33q-40 -22 -74 -22q-61 0 -72 56q-110 -63 -203 -56
q-115 7 -132 116q-13 89 62 192q35 46 82 93q57 59 184 163l12.5 10l12.5 10q23 19 31 43t1 43.5t-25.5 35t-48 18t-65.5 -7.5q-75 -25 -149 -89q-73 -63 -111 -123q-59 50 1 130q44 63 131 109q87 47 163 51q78 5 132 -35q57 -41 58.5 -102.5t-62.5 -141.5q-22 -24 -59 -56
q-61 -52 -81 -71q-42 -39 -78 -80q-40 -46 -58 -86q-38 -85 -1 -126q22 -28 67 -22q86 13 164 75l17 15q15 13 24 17q12 6 28 6t24 -6z" />
    <glyph glyph-name="afii10022afii10077" unicode="&#x415;&#x43b;" horiz-adv-x="1047" 
d="M638 181q15 -10 9.5 -26.5t-20 -31t-21 -31t5.5 -27.5q30 -25 94 93q23 43 63 127l28 59q40 83 118 88q49 2 68 -43q21 -45 -3 -99q-10 -24 -41 -102l-7 -18q-8 -19 -10 -26q-14 -52 2 -62q11 -11 26 -12t31 7t32 19.5t31 26.5t25.5 26.5t18.5 21.5q18 22 33 13
q13 -10 1 -32q-63 -104 -164 -136q-110 -38 -140 37q-14 36 2 88q10 33 45 120q4 12 6.5 22.5t3 20t-4 14.5t-13.5 3q-19 -5 -39 -47l-25 -51l-24 -48l-27 -52q-21 -44 -51 -74q-35 -39 -89 -44q-54 -4 -79 40l-2 6t-2 5.5t-1 3.5q-39 -23 -90 -40q-120 -36 -242 -4
q-60 16 -94 67t-26 124q8 89 78 153q69 63 179 80q-48 32 -65 82t1 97q25 83 106 129q79 46 169 43q96 -5 139 -56q45 -51 28 -119q-10 -40 -53 -63q-40 -22 -74 2q13 6 24.5 33t8.5 55q-4 35 -29 56t-61 22q-55 1 -98 -31t-61 -80q-7 -28 -8 -55.5t16.5 -54t52.5 -40.5
q15 -8 40 -9q29 -1 40.5 -6.5t10.5 -22.5q-1 -22 -80 -22q-106 0 -178 -63t-70 -144q2 -71 64 -105t148 -19q78 12 146 69q24 32 52 44t46 -1z" />
    <glyph glyph-name="afii10022afii10078" unicode="&#x415;&#x43c;" horiz-adv-x="1274" 
d="M640 185q8 -5 10 -12t0.5 -14t-6.5 -15.5t-10 -14t-10.5 -12t-6.5 -7.5q-24 -33 -6 -51q9 -4 23 -1.5t35 20t36 43.5q32 52 71 173q5 17 8 35q3 19 10 39q22 67 94 62q37 -2 38 -39t-18 -74q-21 -54 -13.5 -82t38.5 -32q39 -6 88 37q51 44 75 114q16 50 51 60
q41 21 64 11q52 -21 1 -113q-35 -59 -57 -130q-23 -71 -8 -93q19 -28 71 -1t99 86q19 24 33 13q16 -11 2 -32q-27 -46 -70 -85t-87 -58q-44 -23 -92 -12q-47 11 -62 60q-7 39 -4 62q5 27 16 55q7 18 14 38l-1 2q-1 -1 -3 -4q-44 -51 -47 -54q-58 -55 -114 -56q-32 -1 -53 15
t-25 47q-35 -83 -98 -130q-61 -45 -119 -40q-56 4 -82 53q-1 2 -5 13q-46 -27 -92 -41q-120 -36 -242 -4q-60 16 -94 67t-26 124q8 89 78 153q69 63 179 80q-48 32 -65 82t1 97q25 83 106 129q79 46 169 43q96 -5 139 -56q45 -51 28 -119q-10 -40 -53 -63q-40 -22 -74 2
q13 6 24.5 33t8.5 55q-4 35 -29 56t-61 22q-55 1 -98 -31t-61 -80q-7 -28 -8 -55.5t16.5 -54t52.5 -40.5q15 -8 40 -9q29 -1 40.5 -6.5t10.5 -22.5q-1 -22 -80 -22q-106 0 -178 -63t-70 -144q2 -71 64 -105t148 -19q83 14 149 72q24 33 51.5 45t45.5 -1z" />
    <glyph glyph-name="afii10037afii10077" unicode="&#x423;&#x43b;" horiz-adv-x="1250" 
d="M841 181q15 -10 9.5 -26.5t-20 -31t-21 -31t5.5 -27.5q30 -25 94 93q23 43 63 127l28 59q40 83 118 88q49 2 68 -43q21 -45 -3 -99q-10 -24 -41 -102l-8 -18q-7 -19 -9 -26q-14 -52 2 -62q11 -11 26 -12t31 7t32 19.5t31 26.5t25.5 26.5t18.5 21.5q18 22 33 13
q13 -10 1 -32q-65 -107 -169 -137q-106 -36 -135 38q-13 35 1 83q5 19 16 48l9 25l21 52q4 12 6.5 22.5t3 20t-4 14.5t-13.5 3q-19 -4 -39 -47l-22 -46l-27 -54q-1 -2 -23 -44q-27 -49 -55 -81q-35 -39 -89 -44q-54 -4 -79 40q-3 5 -5 14q-68 -44 -127 -50q-27 -77 -84 -155
q-42 -57 -103 -84t-114 -15t-66 67t17 99q38 58 101 83q21 9 54 20q19 6 54 13l39 9q4 10 22 64q16 48 26 73q-35 -34 -86 -56.5t-101 -22.5q-43 0 -75.5 28.5t-42.5 76.5q-7 13 -2 49q4 32 9 56t18 59q15 42 22 58l22 52l17 42l57 146q15 45 17 53q-115 -5 -180 -80
q-50 -59 -38 -112q8 -35 40 -50q-77 -32 -122 12q-45 45 -15 112q26 57 86 98q109 74 252 76q14 0 22 -2h-1q51 -4 59.5 -40.5t-22.5 -112.5l-121 -318q-40 -106 3 -134q34 -23 87 6t97 78q42 46 59 85q25 63 69 177q15 40 34.5 90t23.5 62q28 73 21 105l30 2q68 -5 64 -78
q-2 -33 -19 -79l-96 -249q-75 -196 -114 -303q58 7 120 56q23 42 56 56q34 15 51 0zM473 -13l-28 -6q-17 -3 -34 -8q-65 -19 -91 -47q-51 -46 -27 -93q14 -19 37.5 -14t47 22.5t39.5 39.5q33 44 56 106z" />
    <glyph glyph-name="afii10037afii10078" unicode="&#x423;&#x43c;" horiz-adv-x="1479" 
d="M845 185q8 -5 10 -12t0.5 -14t-6.5 -15.5t-10 -14t-10.5 -12t-6.5 -7.5q-24 -33 -6 -51q9 -4 23 -1.5t35 20t36 43.5q32 52 71 173q5 17 8 35q3 19 10 39q22 67 94 62q37 -2 38 -39t-18 -74q-22 -57 -12 -85.5t45 -28.5q38 -1 85 41q48 45 70 110q28 81 80 77
q101 -8 36 -119q-35 -59 -57 -130q-23 -71 -8 -93q19 -28 71 -1t99 86q19 24 33 13q16 -11 2 -32q-31 -54 -83 -97q-52 -41 -99 -53q-39 -16 -78 -1t-51 56q-7 39 -4 62q5 27 16 55q7 18 14 38v2q-2 -1 -4 -4q-44 -51 -47 -54q-58 -55 -114 -56q-32 -1 -53 15t-25 47
q-35 -83 -98 -130q-61 -45 -119 -40q-56 4 -82 53q-3 5 -5 13q-70 -46 -131 -52q-27 -77 -84 -155q-42 -57 -103 -84t-114 -15t-66 67t17 99q38 58 101 83q21 9 54 20q19 6 54 13l39 9q4 10 22 64q16 48 26 73q-35 -34 -86 -56.5t-101 -22.5q-43 0 -75.5 28.5t-42.5 76.5
q-7 13 -2 49q4 32 9 56t18 59q15 42 22 58l22 52l17 42l57 146q15 45 17 53q-115 -5 -180 -80q-50 -59 -38 -112q8 -35 40 -50q-77 -32 -122 12q-45 45 -15 112q26 57 86 98q109 74 252 76q14 0 22 -2h-1q51 -4 59.5 -40.5t-22.5 -112.5l-121 -318q-40 -106 3 -134
q34 -23 87 6t97 78q42 46 59 85q25 63 69 177q15 40 34.5 90t23.5 62q28 73 21 105l30 2q68 -5 64 -78q-2 -33 -19 -79l-96 -249q-75 -196 -114 -303q27 4 62.5 21t62.5 39q27 40 55.5 54.5t50.5 1.5zM473 -13l-28 -6q-17 -3 -34 -8q-65 -19 -91 -47q-51 -46 -27 -93
q14 -19 37.5 -14t47 22.5t39.5 39.5q33 44 56 106z" />
    <glyph glyph-name="uni0401afii10077" unicode="&#x401;&#x43b;" horiz-adv-x="1043" 
d="M634 181q15 -10 9.5 -26.5t-20 -31t-21 -31t5.5 -27.5q30 -25 94 93q23 43 63 127l28 59q40 83 118 88q49 2 68 -43q21 -45 -3 -99q-10 -24 -41 -102l-7 -18q-8 -19 -10 -26q-14 -52 2 -62q11 -11 26 -12t31 7t32 19.5t31 26.5t25.5 26.5t18.5 21.5q18 22 33 13
q13 -10 1 -32q-54 -92 -144 -129q-53 -25 -101 -17t-61 54q-10 33 4 81q10 33 45 120q4 12 6.5 22.5t3 20t-4 14.5t-13.5 3q-19 -5 -39 -47l-25 -51l-24 -48l-27 -52q-21 -44 -51 -74q-35 -39 -89 -44q-54 -4 -79 40q-1 2 -5 13q-38 -24 -86 -38q-120 -36 -242 -4
q-60 16 -94 67t-26 124q8 89 78 153q69 63 179 80q-48 32 -65 82t1 97q25 83 106 129q79 46 169 43q96 -5 139 -56q45 -51 28 -119q-10 -40 -53 -63q-40 -22 -74 2q13 6 24.5 33t8.5 55q-4 35 -29 56t-61 22q-55 1 -98 -31t-61 -80q-7 -28 -8 -55.5t16.5 -54t52.5 -40.5
q15 -8 40 -9q29 -1 40.5 -6.5t10.5 -22.5q-1 -22 -80 -22q-105 0 -178 -64q-72 -63 -70 -143q2 -66 55 -100t133 -26q85 6 161 64l4 6q25 34 53 46t46 -2zM635 927q-1 25 17.5 43.5t43.5 19.5q24 1 40.5 -15t16.5 -40q0 -25 -17 -43t-43 -19q-23 -1 -40 15t-18 39zM454 927
q-1 25 17 43.5t43 19.5q24 1 41 -15t17 -40q0 -25 -17 -43t-44 -19q-23 -1 -39.5 14.5t-17.5 39.5z" />
    <glyph glyph-name="afii10036afii10067" unicode="&#x422;&#x432;" horiz-adv-x="1047" 
d="M451 656q59 -2 72.5 -26.5t-9.5 -98.5q-34 -93 -116 -297q-20 -46 -39 -125q-21 -82 6 -109q-86 -11 -103 50t36 195q100 259 153 411zM653 667q-36 3 -92 15l-93 21q-36 10 -86 5t-89 -27q-63 -37 -84.5 -84.5t-15.5 -80.5l2 -11q-45 3 -67 40t-3 86q56 144 271 155
q54 2 137 -8q88 -12 155 -5.5t108 39.5q13 -10 16 -36t-5 -51q-10 -29 -51.5 -45.5t-102.5 -12.5zM1002 270l-1 -2q-9 -79 -45 -136q-38 -59 -97.5 -97.5t-120.5 -39.5q-118 -4 -138 88q-20 91 48 246q18 52 53 121q107 233 226 303q65 37 123 18q51 -16 63 -61
q12 -41 -3.5 -86.5t-50.5 -84.5q-47 -53 -158 -116q37 -3 63.5 -29.5t34.5 -70.5q43 -14 91 -1q49 13 77 32q11 9 22 1q10 -3 9 -17.5t-15 -26.5q-11 -9 -46 -24t-66 -18q-39 -5 -69 1zM1035 713q-25 24 -66 -9q-42 -34 -80 -94q-39 -62 -68 -119q-30 -58 -40 -89
q33 17 134 103q69 60 104 125q36 65 16 83zM874 347q-37 10 -73 -15q-63 -46 -93 -146q-17 -55 -14 -91.5t25 -43.5q47 -15 98 31t78 116q19 42 14 91q-4 49 -35 58z" />
    <glyph glyph-name=".notdef" horiz-adv-x="500" 
 />
    <glyph glyph-name=".null" horiz-adv-x="0" 
 />
    <glyph glyph-name="nonmarkingreturn" horiz-adv-x="333" 
 />
    <glyph glyph-name="space" unicode=" " horiz-adv-x="250" 
 />
    <glyph glyph-name="exclam" unicode="!" horiz-adv-x="408" 
d="M171 93q25 0 40 -18q14 -14 14 -41q0 -25 -17 -44q-18 -19 -46 -19q-24 0 -38 17q-15 15 -15 38q0 27 18 47t44 20zM284 696q33 17 64 13q34 -5 48 -35q15 -32 -16 -103q-148 -340 -149 -356q-3 -22 -3 -31v-8q-6 -6 -18 -6q-15 0 -25 10.5t-10 27.5q0 11 109 413
q14 49 0 75z" />
    <glyph glyph-name="quotedbl" unicode="&#x22;" horiz-adv-x="385" 
d="M127 701q25 0 40.5 -18.5t16.5 -45.5q2 -41 -31 -96t-69 -64q-6 -3 -15 1q-17 5 -20 17q50 46 61 101q-16 0 -28 12.5t-12 32.5q0 26 16.5 43t40.5 17zM289 701q24 0 40 -18.5t17 -45.5q2 -41 -32 -95q-33 -56 -68 -65q-6 -3 -15 1q-17 5 -20 17q50 46 61 101
q-16 0 -28 13t-12 32q0 26 16.5 43t40.5 17z" />
    <glyph glyph-name="numbersign" unicode="#" horiz-adv-x="552" 
d="M278 204h-92l-66 -147q-11 -26 -37 -40q-16 -8 -30.5 -10t-21.5 -0.5t-9 4.5l82 192h-131q-8 0 8 22q32 40 70 40h77l42 106l-133 1q-9 0 9 24q29 40 64 40h85l64 156q26 63 82 64q23 2 23 -5l-87 -215h92l65 155q21 52 77 60q24 3 25 -3l-85 -211h112q5 0 -2 -16.5
t-26 -32.5t-44 -16h-65l-41 -106l114 -1q5 0 -3.5 -15.5t-27.5 -30.5t-39 -15h-69l-62 -148q-21 -50 -80 -52q-18 0 -20 3zM344 371l-92 1l-42 -106l93 1z" />
    <glyph glyph-name="dollar" unicode="$" horiz-adv-x="809" 
d="M601 633q35 -26 47 -75q13 -47 -4 -89q-16 -40 -56 -55q-40 -14 -67 8q19 17 32.5 46t15.5 55q3 42 -20 65l-86 -203q2 -4 6 -11t10.5 -18t11.5 -20q28 -49 31 -56q29 -50 22.5 -124.5t-51.5 -115.5q-61 -54 -156 -58q-23 -2 -45 3l-14 -33l-40 20l11 26q-50 22 -75.5 66
t-16.5 103q7 55 51 81q43 25 78 -4q-27 -42 -35 -70q-19 -79 25 -112l111 261q-14 26 -31 60q-33 83 -15 147q18 65 72 101q55 37 119 28l31 72l40 -19l-27 -65q22 -12 25 -14zM452 182q-7 34 -38 91l-97 -231q17 -5 40 0q43 4 75 48q31 43 20 92zM508 605h-4
q-39 -2 -61 -31q-39 -53 -8 -138z" />
    <glyph glyph-name="percent" unicode="%" horiz-adv-x="913" 
d="M357 403q-48 7 -70 39.5t-6 72.5q16 39 57.5 60.5t86.5 15.5q46 -5 68.5 -37t8.5 -74q-17 -38 -59 -60q-43 -23 -86 -17zM348 505q-9 -17 -2 -31t27 -17q21 -4 39 7.5t27 30.5q11 24 -18 36q-32 13 -58 -6q-11 -7 -15 -20zM759 557q0 -5 -195 -221l-232 -257
q-42 -46 -121 -24l429 476q20 23 50 31t50 4.5t19 -9.5zM538 12q-48 5 -70 38t-6 73q14 36 57 59t86 17q48 -6 70 -37.5t7 -72.5q-16 -39 -58 -61q-41 -22 -86 -16zM526 111q-7 -15 1 -28.5t27 -16.5q21 -3 38.5 7t24.5 28q8 15 0 28.5t-28 16.5q-20 2 -37.5 -7.5
t-25.5 -27.5z" />
    <glyph glyph-name="ampersand" unicode="&#x26;" horiz-adv-x="725" 
d="M345 641q27 64 84 95q59 32 120 26q51 -6 82.5 -35t32.5 -76q1 -63 -69 -136q-69 -72 -169 -116l5 -15q29 -98 91 -190l12 -16q42 47 70 157q65 -14 66 -58q1 -34 -32 -81q-31 -45 -63 -73q0 -1 1.5 -2.5t3 -3.5t2.5 -3q40 -51 67 -74q-11 -12 -42 -21q-25 -6 -42.5 2.5
t-40.5 34.5l-11 13l-15 -8q-111 -50 -186 -43q-87 4 -134.5 39t-53.5 94q-20 176 191 273l20 9q-15 51 -10 123q3 43 20 85zM357 351l-9 6q-108 -64 -118 -170q-4 -53 22.5 -84.5t74.5 -34.5q37 -3 79 12t67 40l-10 16q-75 117 -106 215zM412 476l5 -8l17 9q55 31 100 93
q45 61 39 104q-3 21 -26 30l-7 3q-40 3 -73 -38q-34 -41 -47 -96q-14 -55 -8 -97z" />
    <glyph glyph-name="quotesingle" unicode="'" horiz-adv-x="260" 
d="M242 702q26 0 41.5 -18.5t16.5 -45.5q1 -40 -32 -96q-33 -55 -69 -64q-7 -3 -14 1q-18 5 -20 17q51 51 60 101q-16 0 -28 12.5t-12 32.5q0 26 16.5 43t40.5 17z" />
    <glyph glyph-name="parenleft" unicode="(" horiz-adv-x="465" 
d="M148 -146q-48 87 -53 207q-4 112 28 243q36 129 104 235q73 110 145 140q39 -44 -22 -116q-25 -29 -55 -75q-54 -83 -84 -196q-23 -82 -29 -153q-6 -72 1 -134q5 -37 9 -53q16 -36 6.5 -60t-50.5 -38z" />
    <glyph glyph-name="parenright" unicode=")" horiz-adv-x="441" 
d="M78 -142q-46 46 25 118q37 44 59 86q49 84 76 189q29 113 27 221q0 48 -12 104q-4 28 -1.5 49.5t10 32t16 18.5t15 7.5t7.5 -0.5q48 -91 52 -207q4 -112 -27 -243q-34 -130 -103 -235q-74 -112 -144 -140z" />
    <glyph glyph-name="asterisk" unicode="*" horiz-adv-x="320" 
d="M219 543l46 -36l12 -9q-23 -29 -43 -17l-38 30l-2 -15q-6 -29 -8 -62q-22 4 -28 17.5t-3 45.5q0 1 0.5 6t0.5 7l-58 -32q-9 20 -3 33q5 17 41 34l11 5l-60 47q15 18 28 18t42 -22q1 -1 2 -1l8 -6l2 14l7 58q25 -7 30.5 -13.5t4.5 -19.5q0 -3 -1.5 -12.5t-2.5 -17.5
t-1 -12l46 25l13 7q9 -29 7.5 -35t-11.5 -14q-1 0 -1 -1z" />
    <glyph glyph-name="plus" unicode="+" horiz-adv-x="688" 
d="M394 325h130q2 -2 2 -6q0 -23 -21.5 -43.5t-56.5 -20.5h-73l-30 -116q-9 -34 -63 -35q-17 -2 -19 1l38 150h-140q1 7 8 23t25.5 31t40.5 15q8 0 36.5 0.5t37.5 0.5h11l30 110q9 40 49 41q27 0 34 -9z" />
    <glyph glyph-name="comma" unicode="," horiz-adv-x="317" 
d="M159 101q24 1 40.5 -18t16.5 -46q2 -41 -32 -95q-33 -56 -68 -65q-6 -3 -15 1q-17 5 -20 17q51 51 61 101q-16 0 -28 13t-12 33q0 26 16.5 42.5t40.5 16.5z" />
    <glyph glyph-name="hyphen" unicode="-" horiz-adv-x="656" 
d="M418 221l-217 -2q-14 0 -24 -2q-3 0 -8 -1l-5 -1l-4 -2q-4 3 -6 18q-6 27 21 55q28 28 61 28l222 3q18 0 23 1q6 0 14 2l3 3q7 -6 7 -17q0 -34 -21.5 -59t-65.5 -26z" />
    <glyph glyph-name="period" unicode="." horiz-adv-x="348" 
d="M128 46q0 27 18 45q15 19 42 19q24 0 37 -16q15 -17 15 -40t-17 -43q-17 -17 -45 -17q-24 0 -36 15q-14 14 -14 37z" />
    <glyph glyph-name="slash" unicode="/" horiz-adv-x="485" 
d="M65 -1q45 103 85 188q24 52 116 244q83 175 95 202q14 34 44 50t53 15t24 -10q-1 -10 -52 -119q-55 -119 -141 -296l-104 -215q-17 -37 -47 -52t-51.5 -13t-21.5 6z" />
    <glyph glyph-name="zero" unicode="0" horiz-adv-x="536" 
d="M335 549q-31 -1 -66 -46q-52 -66 -90 -178q-4 -11 -13 -46q-17 -72 -21 -115q-4 -105 47 -105q30 -1 61.5 35t55.5 93q38 92 59 176q14 57 15 108q2 36 -10 57t-38 21zM345 608q85 0 117 -59q26 -48 25 -115q0 -110 -58 -238q-54 -102 -110.5 -150.5t-136.5 -46.5
q-58 2 -94 30.5t-46 71.5q-9 42 -5 94q8 87 42 174q40 104 108 172t158 67z" />
    <glyph glyph-name="one" unicode="1" horiz-adv-x="318" 
d="M88 495q1 4 7 8.5t15.5 9t12.5 6.5q75 47 111 83q4 4 9 4q54 0 48 -52q-1 -15 -13 -54q-13 -42 -31 -94l-32 -97l-8 -25l-20 -56q-9 -26 -22 -66q-43 -128 -33 -143q-4 -24 -48 -21q-33 1 -44.5 23.5t-0.5 61.5q0 1 2 6t2 7l61 187l63 196q1 1 -6 -3q-36 -20 -50 -22
q-17 -1 -22.5 11t-0.5 30z" />
    <glyph glyph-name="two" unicode="2" horiz-adv-x="527" 
d="M25 55q4 23 26 52t51 53q67 56 82 68q41 33 89 75q77 74 101.5 120.5t9.5 93.5q-5 27 -32 26q-30 15 -61.5 -4.5t-45.5 -57.5t0 -70q-19 -23 -41.5 -27.5t-40.5 11.5q-27 19 -18 62q14 74 74 114q63 41 138 40q72 -2 111 -44t28 -112q-5 -35 -26 -75q-8 -18 -23 -34
q-38 -44 -58 -60q-18 -14 -33 -26q-28 -20 -37 -26l-35 -23l-38 -23q-31 -18 -35 -21q-34 -22 -76 -57l-19 -16q47 13 132 7q76 -5 147 18q15 -49 -21 -84q-34 -34 -98 -34q-31 0 -76 7q-53 8 -74 7q-16 -1 -36 -6q-33 -7 -46 -3q-25 12 -19 49z" />
    <glyph glyph-name="three" unicode="3" horiz-adv-x="519" 
d="M178 -3q-62 0 -105 36q-43 37 -39 90q2 25 18 40.5t33 6.5q-4 -18 4 -33q4 -34 37 -49q44 -20 96 1t72 66q28 57 2 104q-9 17 -24.5 23t-28.5 5t-24 4t-13 20q-8 14 0 29q55 -2 101.5 24t67.5 73q17 29 9 63q-6 34 -41 45q-71 10 -106 -50q-37 -59 -11 -88
q-13 -22 -42 -27t-50 12.5t-14 51.5q12 74 81 118q70 44 145 44q48 0 82.5 -20t48.5 -50.5t13 -66t-18 -67.5q-34 -60 -108 -95q44 -25 49 -89q5 -63 -26 -108q-32 -55 -88 -84t-121 -29z" />
    <glyph glyph-name="four" unicode="4" horiz-adv-x="546" 
d="M35 240q19 34 108 128l79 83q72 75 79 82l54 54q23 24 70 24q32 -1 46.5 -15.5t12.5 -42.5q0 -12 -10 -42q-72 -227 -86 -273h94q-6 -36 -28.5 -56t-55.5 -20h-35q-7 -18 -24 -69q-17 -57 -12 -80q-25 -13 -56 -13q-71 0 -35 97l21 65h-148q-74 0 -78 49q-1 19 4 29z
M281 238l74 238l-221 -238h43h60h44z" />
    <glyph glyph-name="five" unicode="5" horiz-adv-x="542" 
d="M98 309l81 255q5 20 22 31.5t38 9.5q152 -18 196 -18q49 0 75 15q14 -29 6 -54.5t-31 -41.5q-43 -32 -126 -15q-22 3 -126 33q-3 -9 -29 -90q-20 -66 -22 -71q35 13 78 14q82 1 124 -46q38 -44 29 -117q-22 -154 -159 -202q-35 -12 -72.5 -13.5t-72 8.5t-57.5 39.5
t-25 75.5q0 25 16 41q17 17 33 5q-10 -32 15 -60q25 -27 66 -29q27 0 45 18q40 9 67 44t32 81q7 68 -40 84q-51 18 -120 -40q-20 -17 -35 1q-14 20 -8 42z" />
    <glyph glyph-name="six" unicode="6" horiz-adv-x="515" 
d="M258 306q-52 -3 -97 -56q-13 -36 -21 -89q-6 -102 47 -102q44 2 80 55q36 54 42 114q4 36 -8 57.5t-43 20.5zM348 547q-33 0 -70 -43q-58 -68 -89 -164q59 37 114 37q65 0 97 -41q21 -26 23.5 -65t-6.5 -73t-24 -63q-34 -63 -92.5 -99t-126.5 -36q-80 0 -115 60
q-35 62 -23 144q20 146 105 269q43 62 101 98.5t122 36.5q59 0 91.5 -31t25.5 -86q-7 -50 -52 -70q-44 -20 -79 19q14 8 25 34t5.5 49.5t-32.5 23.5z" />
    <glyph glyph-name="seven" unicode="7" horiz-adv-x="473" 
d="M423 522q-101 -100 -182 -249q-79 -145 -79 -259q-44 -17 -82 -9q-16 4 -23 16q-19 57 33 175q92 183 241 314q-187 2 -190 1q-37 -2 -59 -18q-13 27 -5.5 53t31.5 44q34 24 82 21q5 0 11 -0.5t10 -1t7 -0.5l30 -4q22 -2 26 -3q67 -9 133 -23q19 -4 25 -22q5 -21 -9 -35z
" />
    <glyph glyph-name="eight" unicode="8" horiz-adv-x="532" 
d="M245 270q-48 -15 -81.5 -49t-36.5 -72q-5 -40 18 -64.5t60 -24.5q35 0 62 22t34 57q5 30 -5 55q-8 25 -17.5 38t-33.5 38zM400 524q-21 21 -50 22t-56.5 -21t-31.5 -56q-9 -59 49 -108q39 17 76 70q39 54 13 93zM359 607q29 0 55 -7t49 -22.5t33.5 -43.5t4.5 -66
q-18 -97 -145 -158q65 -68 55 -142q-7 -76 -75 -123q-67 -46 -147 -46q-67 0 -114 42q-46 43 -37 110q9 59 57 103q50 45 102 67q-35 39 -39.5 87.5t23.5 101.5q29 46 77 71.5t101 25.5z" />
    <glyph glyph-name="nine" unicode="9" horiz-adv-x="508" 
d="M246 304q54 1 97 55q16 51 17 86q10 101 -45 102q-37 0 -69 -34.5t-48 -88.5q-8 -30 -9.5 -56.5t13.5 -45t44 -18.5zM158 169q-10 -11 -18 -27t-12 -35.5t7 -31.5q9 -12 31 -12q32 0 67 44q45 56 82 158q-58 -34 -115 -34q-64 0 -96 41t-22 112q15 108 89 167t160 57
q77 -1 110.5 -61.5t24.5 -141.5q-30 -179 -107 -280q-101 -125 -209 -125q-99 0 -119 71q-8 44 12 82q20 39 59 43q42 5 56 -27z" />
    <glyph glyph-name="colon" unicode=":" horiz-adv-x="289" 
d="M58 48q0 25 17 45q18 19 43 19q24 0 37 -16q14 -15 14 -40t-16 -42q-16 -19 -44 -19q-24 0 -37 15q-14 17 -14 38zM141 350q0 25 17 45q19 19 43 19q22 0 38 -16q15 -17 14.5 -40t-17.5 -43q-17 -17 -44 -17q-25 0 -37 15q-14 17 -14 37z" />
    <glyph glyph-name="semicolon" unicode=";" horiz-adv-x="428" 
d="M230 347q0 26 17.5 45.5t43.5 19.5q23 0 37.5 -15.5t14.5 -39.5q0 -26 -17 -43.5t-44 -17.5q-21 0 -36.5 15t-15.5 36zM189 97h2q23 0 37.5 -15.5t16.5 -41.5q1 -38 -33 -102q-35 -65 -80 -69q-20 0 -25 11q51 51 63 103l3 14q-11 0 -21 6q-15 13 -15 34v7q0 15 13 34
l5 5q14 14 34 14z" />
    <glyph glyph-name="less" unicode="&#x3c;" horiz-adv-x="404" 
d="M147 295l102 -170q-62 -47 -104 24l-69 115q-28 45 14 81l120 101q13 11 25 17.5t20.5 9.5t17 2t13 -2.5t10 -7t7.5 -8t6 -8.5l4 -6z" />
    <glyph glyph-name="equal" unicode="=" horiz-adv-x="557" 
d="M393 333l-280 -1q-2 23 21 46q24 24 51 24l280 1q3 -26 -16 -47.5t-56 -22.5zM393 188l-280 -1q-2 24 21 47q24 24 51 24l280 1q3 -27 -16 -48.5t-56 -22.5z" />
    <glyph glyph-name="greater" unicode="&#x3e;" horiz-adv-x="404" 
d="M248 285l-101 170q12 11 25 15q17 7 39.5 -2t39.5 -37l69 -115q29 -48 -14 -82l-120 -100q-13 -11 -25 -17.5t-20.5 -9.5t-17 -2t-13.5 2.5t-10.5 7t-7.5 8t-6 8.5l-4 6z" />
    <glyph glyph-name="question" unicode="?" horiz-adv-x="652" 
d="M232 219q10 91 110 174q1 0 3 2t6.5 6t9.5 8l24 21q36 32 47 44q29 29 39 48q16 30 17 47q2 37 -16.5 61t-55.5 30q-65 9 -110 -41q-44 -50 -33 -118q-15 -16 -43 -15q-27 1 -39 20q-33 47 10 120q33 55 89 84t124 29q106 0 157 -73q28 -41 32 -85t-14 -76
q-16 -32 -50 -66q-52 -53 -134 -98q-83 -47 -110 -117q-12 -45 -11 -49q-10 -5 -29 -4q-29 5 -23 48zM156 68q4 25 25 44q20 15 44 11q24 -1 36 -21q12 -18 9 -43q-3 -22 -22 -40q-21 -14 -47 -10q-24 3 -36 20q-11 17 -9 39z" />
    <glyph glyph-name="at" unicode="@" horiz-adv-x="829" 
d="M459 535q130 0 203 -62q72 -61 75 -161q-1 -50 -11 -90q-21 -76 -88 -139q-67 -62 -144 -55q-59 5 -62 59q0 2 2 32l-22 -24q-54 -51 -112 -48q-19 2 -36 17.5t-22 38.5q-6 34 9 85t51 101q37 49 85 67q20 8 45 5q26 -2 32 -16l-2 -1q-2 -1 -5 -2l-6 -2q-36 -13 -71 -62
q-32 -46 -49 -93q-5 -14 -3 -22q-8 -44 22 -47q10 -1 27 5q20 7 56 49q33 39 41 69q1 11 -5 16q-17 0 -18 9q-5 21 20 31q26 12 41 9q33 -8 34 -51q0 -19 -17 -58q-17 -37 -21 -54q-1 -2 -1 -8q-1 -7 0 -21q3 -15 15 -21q9 -4 25 0q48 11 75 73q28 63 30 132q0 84 -57 128
q-55 44 -138 42q-108 0 -205 -94q-47 -46 -73.5 -115.5t-21.5 -146.5q6 -84 60 -133t138 -45q49 1 92 19q2 -5 2.5 -13t-4 -21t-14.5 -24.5t-35 -20.5t-60 -11q-110 -6 -184 61q-74 68 -81 183q-12 178 103 303q115 127 285 127z" />
    <glyph glyph-name="A" unicode="A" horiz-adv-x="777" 
d="M521 444l-39 -80q123 0 149 1q101 297 103 304q6 23 -0.5 37t-22.5 14q-19 1 -38 -14q-17 -13 -28 -30l-31 -54l-8 -14q-23 -41 -85 -164zM262 154l87 157q-78 -1 -131 -24t-87 -80q-32 -52 -28 -101t41 -56q53 -12 118 104zM736 364q73 0 84 1q2 -11 -2 -19.5t-9 -12.5
t-15 -10q-8 -3 -40 -7h-33q-41 -131 -79 -256l-2 -7q-7 -29 -18.5 -38.5t-50.5 -13.5q-53 0 -54 25q15 49 28 87l37 108q3 9 32 91q-42 0 -80 -1h-78q-62 -130 -94 -178q-91 -132 -209 -137q-95 -2 -129 69q-35 72 23 178q54 90 168 112q92 17 161 13l150 275q35 62 71 94
q37 32 66 40q25 7 66 5q46 -1 75 -44q30 -40 16 -91q-43 -156 -84 -283z" />
    <glyph glyph-name="B" unicode="B" horiz-adv-x="828" 
d="M579 657q-36 -25 -112 -249q74 -20 153 7q69 23 104 72t29 110q-6 54 -52 91.5t-124 39.5q-84 1 -169 -42q-84 -43 -127 -113q-30 -50 -35 -98t3.5 -73t21.5 -42l8 -10q-69 -29 -109 4q-37 25 -35 93t44 139q55 90 160 149q105 61 244 59q77 -1 138 -28.5t91 -68.5
t40.5 -90.5t-12.5 -94.5q-20 -44 -53 -75.5t-56.5 -42t-46.5 -16.5l-12 -3q51 -9 92 -63q40 -54 18 -126q-51 -163 -265 -191q-67 -8 -126 5t-91 32l-29 17q-37 -36 -98 -41q-60 -6 -70 27q-3 11 0 25q7 28 40 42t61 14l28 -1q15 14 42 76q26 60 69 176l64 166q27 66 70 106
q43 41 102 18zM465 342l-20 -3l-48 -117q-13 -32 -36 -75q-22 -41 -44 -66q127 -52 221 -18q76 29 111 90q35 62 20 112q-9 29 -35.5 47.5t-57 23.5t-62 7.5t-49.5 -1.5z" />
    <glyph glyph-name="C" unicode="C" horiz-adv-x="514" 
d="M482 719q-37 17 -84.5 -12t-92.5 -91q-90 -124 -130 -248q-19 -63 -25 -106q-7 -47 1 -100q9 -50 40 -72q54 -32 136 -4q83 29 167 90q83 60 130 124q15 22 27 12q14 -13 -11 -58l-7 -11q-52 -78 -140 -142q-87 -63 -187 -91q-98 -26 -180 13q-51 25 -75 81
q-43 103 2 254q44 150 155 285q54 66 127 107q72 41 143 36q47 -4 78.5 -27.5t42.5 -58.5t10 -73.5t-14 -76.5q-10 -24 -27 -34q-29 -47 -70 -55q-40 -7 -65 34q55 46 73 124q19 79 -24 100z" />
    <glyph glyph-name="D" unicode="D" horiz-adv-x="889" 
d="M592 648q-26 -16 -72 -144q-10 -32 -36 -99q-22 -61 -39 -106l-36 -89q-38 -95 -76 -139q63 -24 137 -12q75 12 125 46q89 60 143 162.5t57 202.5q3 106 -50 175.5t-162 73.5q-84 5 -168 -39q-83 -44 -126 -116q-30 -51 -35.5 -99t3 -73.5t21.5 -41.5l7 -9
q-86 -38 -125 19q-24 39 -16 98t45 123q48 85 153 148q105 65 255 57q81 -4 143 -32t98.5 -72t54.5 -101t16 -120.5t-22 -129.5q-41 -133 -138 -225q-98 -92 -226 -108q-133 -18 -246 36q-42 -34 -90 -39q-37 -3 -57.5 11t-14.5 42q4 20 18.5 33.5t32.5 18.5t36.5 6.5t30 1
t12.5 -1.5q14 12 39 73q33 81 70 179q54 140 64 165q68 162 174 125z" />
    <glyph glyph-name="E" unicode="E" horiz-adv-x="575" 
d="M534 791q96 -5 139 -56q45 -51 28 -119q-10 -40 -53 -63q-40 -22 -74 2q13 6 24.5 33t8.5 55q-4 35 -29 56t-61 22q-55 1 -98 -31t-61 -80q-7 -28 -8 -55.5t16.5 -54t52.5 -40.5q15 -8 40 -9q29 -1 40.5 -6.5t10.5 -22.5q-1 -22 -80 -22q-105 1 -178 -63
q-72 -64 -70 -144q2 -71 64 -105t148 -19q66 11 125.5 54t101.5 109q18 32 22 41q33 64 48 72q13 7 17 -11q4 -13 -4 -34q-88 -221 -276 -280q-120 -36 -242 -4q-60 16 -94 67t-26 124q8 89 78 153q69 63 179 80q-48 32 -65 82t1 97q25 83 106 129q79 46 169 43z" />
    <glyph glyph-name="F" unicode="F" horiz-adv-x="756" 
d="M740 699q-40 9 -93 16q-47 6 -106 3q-56 -1 -93 -19q-40 -19 -68 -48t-37 -57q-18 -56 -11 -88l3 -15q-62 9 -85 54q-22 45 1 97q22 55 73 91q48 34 98.5 48t117.5 17q49 1 160 -12q115 -14 164 -14q123 4 177 51q14 -8 21.5 -26.5t4 -41t-16 -43t-44 -33.5t-76.5 -12
q-56 2 -190 32zM508 398l99 256q60 1 73 -25t-12 -100l-52 -137q132 -14 177 -13q-9 -28 -32 -51q-40 -39 -154 -25l-23 4q-42 -114 -47 -126q-18 -44 -49 -82q-32 -42 -84.5 -71t-109.5 -31q-42 -2 -78 16.5t-55 50.5q-25 38 -18.5 95.5t44.5 107.5q51 67 144 99
q96 33 177 32zM472 297l9 23q-44 2 -75 -2q-38 -3 -91 -28q-54 -24 -82 -70q-38 -67 -22 -115q17 -49 66 -50q86 -5 140 110q12 26 31 70q16 37 24 62z" />
    <glyph glyph-name="G" unicode="G" horiz-adv-x="792" 
d="M529 -19l43 125l-22 -17l-21 -17q-41 -33 -86.5 -52.5t-89 -22t-79 21t-52.5 73.5q-45 157 48 359q61 135 172 234q110 97 238 89q51 -4 85.5 -28t47 -59t11.5 -74t-16 -76q-7 -16 -21 -28q-31 -48 -79 -56q-47 -6 -70 33q42 38 65 103q24 66 -5 102q-19 21 -53 18
q-44 -1 -93.5 -39t-92.5 -100q-84 -125 -120 -232q-18 -54 -28 -139q-4 -46 8.5 -80t40.5 -46q47 -20 114 22q69 43 130 109l24 64q25 51 70 70q48 20 72 13l-89 -248l-26 -73q40 19 73 39q35 21 72 57t57 74q6 7 16 7t17 -9.5t1 -20.5q-40 -73 -101.5 -121t-154.5 -90
q-41 -126 -100 -204q-42 -57 -102.5 -84t-113.5 -15q-54 12 -67 67q-14 56 18 99q22 37 69 66q43 26 109 52q65 25 81 34zM510 -80q-8 -4 -52 -23q-45 -19 -64 -28q-27 -14 -51 -37t-30 -49q-12 -43 20 -55q30 -11 60.5 4t52.5 50q45 70 64 138z" />
    <glyph glyph-name="H" unicode="H" horiz-adv-x="955" 
d="M548 315l-44 -111q-32 -86 -75.5 -132t-104.5 -60q-71 -19 -130 8q-59 29 -72 101q-13 58 25 125q79 134 313 127l137 349q-112 0 -180 -77q-50 -59 -41 -117q8 -41 45 -59q-84 -32 -128 17q-44 50 -13 117q26 58 85 98q111 76 252 74q37 0 54 -9.5t21 -38.5
q4 -22 -10 -65l-114 -294q66 0 212 2l116 299q27 70 19 102q2 2 15.5 2.5t32 -3t32 -19.5t15 -48t-19.5 -88l-95 -246q87 0 95 1q3 1 4 -2t-1 -9q-8 -30 -74 -39q-26 -2 -44 -2l-22 -52l-24 -58q-45 -108 -15 -131q20 -15 52 -10.5t58 23.5q27 20 51 48q36 41 44 45
q7 2 13 -3q14 -13 1 -33q-95 -156 -251 -149q-33 2 -57.5 22.5t-31.5 53.5q-5 26 1 59q8 35 15 57l27 68l24 60zM437 316q-65 2 -122 -33q-55 -33 -84 -86q-25 -41 -22 -85q5 -43 42 -50q30 -7 66 21.5t65 93.5q27 63 55 139z" />
    <glyph glyph-name="I" unicode="I" horiz-adv-x="696" 
d="M772 666l-190 -489q-31 -79 -92 -124.5t-144 -51.5q-76 -6 -119 43q-43 50 -42 120q3 70 48 123q31 37 87 45q56 9 87 -21q-44 -20 -80 -65t-42 -95q-4 -35 9 -61.5t39 -30.5q59 -10 103 57q28 45 51 101l52 133q22 55 41 108l43 113q22 51 38 85q24 50 40 71
q-87 4 -153.5 -32t-91.5 -99q-16 -33 -6.5 -69.5t40.5 -51.5q-41 -16 -76 -10t-52 27.5t-22.5 51.5t11.5 63q26 57 86 98q110 75 253 75q82 1 97 -22q14 -21 -15 -92z" />
    <glyph glyph-name="J" unicode="J" horiz-adv-x="604" 
d="M576 776q72 8 93 -19q17 -23 -11 -95l-203 -534q110 6 163 38q31 15 43 31q15 11 24 3.5t3 -19.5q-3 -9 -27 -30q-20 -19 -37 -30q-45 -32 -105 -44l-50 -7q-35 -3 -37 -4q-11 -28 -26 -58q-10 -23 -36 -61q-25 -39 -51 -62q-67 -63 -158 -70q-96 -7 -140 67
q-20 44 -13 86t34 73q48 54 120.5 73t181.5 16l191 494q21 56 49 97q-77 -6 -148 -44q-70 -37 -109 -102q-35 -58 -32 -110q4 -51 45 -71q-67 -31 -118 -3q-51 29 -39 103q9 57 58 115q49 60 140 108q88 48 195 59zM320 69q-82 -1 -131.5 -17t-76.5 -60q-21 -33 -21 -64
t21 -49q31 -26 83 2q54 27 90 101q19 44 35 87z" />
    <glyph glyph-name="K" unicode="K" horiz-adv-x="794" 
d="M871 145q-92 -149 -201 -149q-46 0 -79.5 34t-47.5 87t-17.5 118.5t10.5 128.5q-27 -7 -46 -7q-54 -133 -73 -185q-34 -87 -95 -133t-146 -41q-67 1 -105 52q-38 50 -33 116q5 68 47 118q31 37 88 46q57 10 90 -20q-45 -23 -79.5 -61t-45.5 -87q-12 -57 18 -89t82 2
q32 21 52 62l11 24l11 28l10 26l200 510q-112 -1 -180 -78q-53 -59 -42 -116q6 -38 41 -55q-83 -30 -126 15q-43 46 -12 113q25 58 87 99q106 72 252 74q61 2 74.5 -21.5t-9.5 -91.5l-90 -237q49 7 120 66q69 57 127 138q58 80 70 145q2 1 12.5 1t25.5 -3t26.5 -14t15 -31.5
t-8.5 -54.5q-30 -80 -106 -156q-76 -78 -161 -121q-25 -115 -7 -212q20 -96 71 -109q47 -13 118 67q31 36 41 37q5 2 10 -2q13 -12 0 -33z" />
    <glyph glyph-name="L" unicode="L" horiz-adv-x="695" 
d="M337 34q-27 -27 -82 -35q-57 -6 -62 27q-1 5 1 16q8 37 42 50q35 15 65 12q12 -2 29.5 19t36.5 61q8 16 32 70q21 47 31 72q5 12 9.5 23.5t6.5 16.5l1 4q-103 0 -155 48q-45 40 -39 94q8 56 58 72q2 -67 51 -101q50 -35 114 -32l81 207q32 79 105 113.5t136 -15.5
q41 -33 30 -110q-10 -76 -66 -141q-79 -92 -201 -124q-1 -2 -5 -12t-10 -26t-13 -34q-14 -36 -37 -90q-13 -29 -41 -72q-26 -41 -53 -59q59 2 148 -50q29 -17 79 -29q51 -11 90 -6q6 1 -7 -22q-10 -16 -23 -29q-15 -16 -43 -31q-22 -15 -67 -3.5t-91 47.5l-22 18
q-15 12 -39 27q-14 11 -39 18q-19 6 -51 6zM655 634l-66 -172q31 6 72 33q42 30 67 66q15 20 26 47t13 54t-14 40q-18 17 -51 -4q-32 -22 -47 -64z" />
    <glyph glyph-name="M" unicode="M" horiz-adv-x="1117" 
d="M468 480l-153 -396q-21 -61 -13 -83q-66 -7 -88 32.5t7 105.5l231 583q-123 -4 -187 -85q-47 -60 -34 -116q7 -33 37 -49q-84 -32 -125 14q-43 47 -11 115q38 83 138 128q99 44 201 46q61 0 76 -24q17 -27 -27 -132q38 44 61 66q23 23 66 50q43 26 81 29q33 3 61 -12
t42 -44q12 -30 2 -85l33 38q52 59 115 93q63 33 121 3q88 -45 25 -205l-125 -324l-7 -18q-9 -22 -18 -47q-21 -64 0 -85q20 -16 52.5 -11.5t58.5 24.5t49 47q28 33 39 42t20 1q14 -13 1 -33q-93 -155 -253 -149q-44 1 -68.5 29t-22.5 70q0 40 21 100l21 54l17 42l123 314
q8 17 3 41q-4 25 -25 32q-25 9 -60 -12q-33 -21 -59 -50q-28 -31 -70 -82q-16 -22 -30 -37l-66 -168q-51 -126 -75 -191l-21 -55q-23 -62 -14 -84q-51 -7 -74.5 11t-23 50t18.5 79l179 460q12 34 4.5 56.5t-31.5 23.5q-36 2 -86 -44.5t-137 -157.5z" />
    <glyph glyph-name="N" unicode="N" horiz-adv-x="866" 
d="M569 681l-29 -77q46 50 57 61q23 23 57 51q65 56 132 56q59 0 90 -34q49 -55 -1 -185l-129 -330q-1 -1 -7 -18l-17 -45q-7 -21 -9 -46q-1 -24 11 -36q19 -15 53 -10.5t59 23.5q27 21 50 48q27 33 38 42t20 1q14 -13 1 -33q-96 -160 -254 -149q-41 2 -65 28t-26 66
q-1 47 38 146l21 54l120 306q20 56 -13 77q-43 22 -98 -22q-54 -43 -150 -153q-29 -33 -33 -38l-145 -380q-22 -58 -13 -82q-67 -7 -89 32.5t7 105.5l163 410l68 173q-123 -4 -187 -85q-47 -60 -34 -116q7 -33 37 -49q-84 -32 -125 14q-43 47 -11 115q26 57 86 98
q112 76 253 76q57 0 75 -21t-1 -74z" />
    <glyph glyph-name="O" unicode="O" horiz-adv-x="658" 
d="M635 282q89 13 153 74q22 20 32 25t20 -1q4 -2 4 -8t-4.5 -16t-12.5 -19q-85 -96 -222 -113q-67 -115 -168 -181q-100 -64 -209 -33q-49 14 -82.5 53.5t-46 90t-9.5 107t22 105.5q24 59 71 105q47 47 84 33q5 77 41 146q38 71 103 115q67 44 140 40q79 -5 117 -62.5
t37 -154.5q0 -77 -22 -161q-21 -83 -48 -145zM551 737q-70 10 -128 -72q-57 -81 -59 -179q1 -76 43 -128.5t112 -70.5q37 69 70 173q32 103 28 171q-6 99 -66 106zM489 233q-85 15 -147 74q-60 61 -71 143q-72 -101 -86 -220t45 -152q15 -8 36.5 -9t49.5 7.5t56.5 26.5
t59.5 51.5t57 78.5z" />
    <glyph glyph-name="P" unicode="P" horiz-adv-x="743" 
d="M414 282l-75 -197q-21 -61 -13 -83q-73 -11 -94.5 28t10.5 106l83 209l71 183q7 18 13.5 31t16 29.5t19 28t23 22.5t28 15.5t33 4.5t38.5 -7q-9 -6 -23 -38q-9 -21 -42 -102q-25 -61 -66 -170q77 -20 153 12.5t119.5 99t32.5 137.5q-6 58 -49 93.5t-123 37.5
q-84 2 -168 -41q-85 -42 -129 -116q-22 -36 -31.5 -70.5t-6 -59.5t9.5 -41t14 -26l7 -8q-40 -16 -70 -13.5t-47 25t-22 54t6 73t37 82.5q55 90 160 149q107 60 244 59q93 -2 161 -40q59 -34 87 -92t21 -120q-7 -61 -39.5 -118t-82.5 -92q-129 -91 -306 -45z" />
    <glyph glyph-name="Q" unicode="Q" horiz-adv-x="705" 
d="M378 49q-30 0 -48 12.5t-18.5 27.5t8.5 29q9 24 44 29q30 4 49 -18q56 31 117 122q59 89 91 193q20 64 21 145q2 48 -18 79.5t-59 36.5q-79 9 -173 -85q-92 -92 -148 -231q-59 -158 -39 -260q8 -38 33.5 -66.5t60.5 -37.5q-25 -27 -64 -27t-56 16q-68 46 -85 138
q-30 171 81 352q59 96 152 180q51 45 112.5 70t121.5 23q71 -3 116.5 -43t57.5 -105q23 -123 -23 -268q-35 -101 -108 -185q-73 -83 -160 -114q40 -40 85 -63q111 -58 204 -10q11 -51 -22 -84t-88 -31q-143 5 -245 175z" />
    <glyph glyph-name="R" unicode="R" horiz-adv-x="768" 
d="M260 139l81 204q7 17 22 61t30.5 83t31.5 69q66 124 156 94q-8 -5 -17 -23q-10 -21 -26 -62q-11 -29 -23 -56l-56 -143q134 -17 220 49q88 66 76 175q-7 56 -51.5 91t-121.5 36q-83 2 -165 -40q-81 -40 -124 -113q-71 -119 -19 -200l6 -8q-62 -26 -99 0q-38 27 -38 90
q2 63 43 133q53 90 158 149q107 62 244 60q131 -1 200 -70q69 -68 69 -155q0 -101 -73 -177q-72 -77 -191 -86q16 -84 40 -144q22 -54 79 -114q-9 -52 -78 -41q-35 6 -61 36.5t-39 77.5q-23 89 -24 181q-50 3 -74 9l-80 -211q-24 -68 -11 -92q-66 -8 -89.5 31.5t4.5 105.5z
" />
    <glyph glyph-name="S" unicode="S" horiz-adv-x="637" 
d="M701 553q-19 -45 -60 -62q-38 -15 -73 11q42 48 50 105q6 49 -19 75t-64 23q-58 -6 -79 -68q-19 -61 9 -124q10 -23 50 -89q37 -59 51 -95q46 -117 -15 -220q-61 -102 -199 -109q-90 -3 -155 54q-64 57 -49 157q9 62 57 91t85 -5q-30 -38 -41 -82q-18 -70 17 -111t92 -40
q51 -3 95 45q45 49 31 118q-10 46 -55 128q-48 88 -53 101q-40 99 -12 181t99 115q44 21 88.5 20t77.5 -20t57 -49.5t27 -69.5t-12 -80z" />
    <glyph glyph-name="T" unicode="T" horiz-adv-x="541" 
d="M471 656q59 -2 72.5 -26.5t-9.5 -98.5q-34 -93 -116 -297q-20 -46 -39 -125q-21 -82 6 -109q-86 -11 -103 50t36 195q100 259 153 411zM756 662q-35 2 -107 15q-89 17 -128 23q-58 9 -121 5q-66 -5 -108 -29q-106 -62 -99 -160l2 -11q-45 3 -67 40t-3 86q56 144 271 155
q36 2 150 -10q115 -12 214 -7q95 4 140 43q13 -10 16 -36t-5 -51q-10 -30 -53 -48.5t-102 -14.5z" />
    <glyph glyph-name="U" unicode="U" horiz-adv-x="893" 
d="M577 624l-165 -424q-41 -108 19 -126q50 -18 109.5 31t108.5 131t89 183l100 257q26 68 18 105q2 2 15.5 2.5t32 -3.5t32.5 -20.5t15 -48t-19 -86.5l-118 -302l-21 -51q-14 -31 -24 -59q-45 -112 -16 -133q20 -16 53 -11.5t58 24.5q28 22 51 47q27 32 38.5 41t20.5 3
q14 -13 1 -33q-45 -75 -110.5 -114t-142.5 -35q-43 2 -70 34t-22 77q-66 -90 -172 -110q-62 -12 -104.5 13t-56.5 87q-7 31 3 81q10 51 21 81q6 19 37 93l26 63l99 253q13 38 18 54q-55 -3 -102 -24t-73.5 -52t-38.5 -64.5t-2 -64.5t40 -49q-38 -16 -72.5 -10t-53 27.5
t-25 52t10.5 63.5q39 85 142 131q101 46 210 44q99 0 40 -158z" />
    <glyph glyph-name="V" unicode="V" horiz-adv-x="791" 
d="M790 765q0 3 22.5 4.5t47 -13.5t27.5 -52q6 -98 -92 -315q-26 -57 -53 -108q-24 -46 -57 -95q-68 -101 -169 -153q-64 -34 -127 -34q-65 -1 -95 59t-21 154t50 193l99 256l18 56q-121 -4 -185 -83q-46 -58 -33 -115q7 -33 38 -50q-67 -28 -111 4q-43 31 -32 90
q5 49 42.5 90.5t92.5 66.5q110 49 210 49q29 0 43 -5.5t25 -20.5q25 -34 -12 -130l-84 -218q-28 -74 -56 -180q-17 -65 -9.5 -108t40.5 -45q61 -4 136 90q73 92 130 218q52 115 89 239q35 116 26 156z" />
    <glyph glyph-name="W" unicode="W" horiz-adv-x="1163" 
d="M699 406l20 52l79 204q26 73 20 103q-1 1 15 3t33.5 -0.5t34 -17.5t15.5 -47.5t-21 -90.5l-42 -103l-48 -124q-17 -44 -36 -106q-18 -59 -26 -110q-16 -103 33 -107q62 -3 135 91q75 94 129 218q56 127 90 239q35 117 26 155q0 2 9.5 3.5t23.5 0t28.5 -7t24.5 -20
t11 -36.5q6 -91 -79 -284q-25 -57 -53 -113q-25 -50 -66 -111q-42 -63 -82 -101q-43 -43 -100.5 -69.5t-116.5 -26.5q-43 0 -72.5 30.5t-36.5 78.5q-99 -109 -222 -109q-65 -1 -94.5 59.5t-20.5 153.5t49 194l98 255q1 4 6.5 16.5t9 23t4.5 16.5q-116 -5 -183 -82
q-50 -59 -37 -114q7 -36 44 -53q-70 -30 -115 3q-44 33 -33 92q5 49 42 90.5t93 66.5q110 49 209 49q65 0 77.5 -39t-21.5 -118l-83 -218q-29 -77 -56 -179q-17 -65 -10 -108t39 -45q46 -4 95 39q35 32 77 108q19 36 32 68l28 65z" />
    <glyph glyph-name="X" unicode="X" horiz-adv-x="720" 
d="M691 -158q-48 6 -92 68q-79 113 -107 291q-74 -99 -164 -154q-91 -56 -178 -46q-74 9 -109 69q-35 62 -18 132t72 111q14 9 28 12q32 16 62.5 2t43.5 -52q-34 -10 -67 -36t-48 -58q-32 -61 8 -102q17 -14 43.5 -15t68.5 21.5t85 64.5q53 51 156 192q-3 106 3 263
q2 42 1.5 73t-13 47.5t-38.5 14.5q-56 -4 -186 -165q-15 -18 -35 -20t-26 11t9 40q41 58 102 119q57 57 117 83q84 37 125 -16t32 -164q-6 -84 -6 -166l30 45l31 45q26 37 60 79q27 35 85 96q56 58 106 79t88 -1q18 -12 25 -32t1 -40q-47 -9 -90 -39t-105 -92
q-95 -98 -219 -288q14 -134 61 -244q48 -111 129 -156q1 -32 -19.5 -54t-51.5 -18z" />
    <glyph glyph-name="Y" unicode="Y" horiz-adv-x="912" 
d="M630 37l39 9l21 62q16 50 27 75q-30 -32 -80.5 -54.5t-100.5 -24.5q-46 -2 -80 26t-45 79q-7 15 -2 49q13 74 28 115q15 42 22 58l22 52l17 42l57 146q12 34 17 53q-115 -5 -180 -80q-49 -58 -39 -112q8 -35 40 -50q-77 -32 -122 12q-45 45 -15 112q26 57 86 98
q109 74 252 76q14 0 22 -2q50 -4 58.5 -40.5t-21.5 -112.5l-122 -318q-8 -21 -9 -34q-23 -77 12 -100q34 -22 88 6q52 29 97 77q41 45 59 86l126 329q28 73 21 105l30 2q68 -5 64 -78q-2 -33 -19 -79l-209 -552q56 7 109 48t83 96q10 11 26.5 3t7.5 -26q-38 -68 -106 -121
t-140 -60q-31 -83 -85 -155q-42 -57 -104 -84q-61 -27 -112 -15q-54 12 -67 67q-13 56 18 99q38 58 101 83q21 9 54 20q19 6 54 13zM649 -13l-28 -6q-17 -3 -33 -8q-65 -19 -91 -47q-52 -47 -28 -93q14 -20 38 -14.5t47.5 23t39.5 39.5q37 51 55 106z" />
    <glyph glyph-name="Z" unicode="Z" horiz-adv-x="713" 
d="M808 645l-237 -442q-31 -57 -59 -89q62 -96 152 -134t176 -7q9 -45 -24 -77q-32 -32 -87 -31q-100 1 -175 71q-61 57 -93 122q-60 -51 -131 -55q-50 -5 -93.5 11.5t-64.5 47.5q-29 53 -12 97q17 45 62 71q47 27 98 23q79 -7 132 -61q40 69 127 237q74 144 124 231
q-5 1 -12.5 3.5t-21 7.5t-23.5 8q-44 15 -63 20q-24 7 -56 12q-61 11 -100 -26q-27 -25 -28 -58t12.5 -55t28.5 -27q-35 -46 -85 -26q-44 18 -59 71q-17 66 29 131q23 34 64.5 53.5t87.5 20.5q41 0 85 -12q40 -11 100 -35q51 -21 79 -30q56 56 129 65q36 4 62.5 -9.5
t27.5 -41.5q2 -18 -12 -35q-52 -58 -140 -52zM412 126q-38 53 -95 54q-29 1 -50 -12.5t-26 -36.5q-8 -27 18 -47t62 -15q28 3 55 20.5t36 36.5z" />
    <glyph glyph-name="bracketleft" unicode="[" horiz-adv-x="492" 
d="M267 -164h-198q-37 0 -49 16.5t0 57.5l224 722q10 33 23 44t43 11h168q3 -20 -23 -52q-25 -31 -68 -31h-45l-216 -688h58q70 -1 85 -50q6 -22 -2 -30z" />
    <glyph glyph-name="backslash" unicode="\" horiz-adv-x="603" 
d="M525 24q3 -9 -6 -16q-3 -5 -11.5 -9t-21.5 -4.5t-27 4t-29.5 20.5t-28.5 43q-50 99 -120 253q-71 155 -169 341q-2 2 5 8.5t20 10t29.5 1t37.5 -22t40 -55.5q34 -64 127 -260q129 -277 154 -314z" />
    <glyph glyph-name="bracketright" unicode="]" horiz-adv-x="491" 
d="M233 684h198q37 0 49 -16.5t0 -57.5l-224 -722q-10 -33 -23 -44t-43 -11h-168q-3 20 23 52q25 31 68 31h45l216 688h-58q-70 0 -85 49q-6 23 2 31z" />
    <glyph glyph-name="asciicircum" unicode="^" horiz-adv-x="500" 
d="M341 644l99 -195q0 -2 -7 -7t-18.5 -9t-25.5 -3.5t-30 15.5t-29 43l-41 85l-102 -107q-52 -55 -103 -31q-17 11 -17 17l184 193q21 21 48 20q31 -1 42 -21z" />
    <glyph glyph-name="underscore" unicode="_" horiz-adv-x="483" 
d="M54 -81l-5 -6q-5 43 32 83q28 30 75 33.5t96 -21.5q83 -42 131 -9q21 14 23 21l1 2q27 -29 3 -70q-27 -46 -90 -52q-49 -3 -101 22q-67 33 -112 23q-37 -7 -53 -26z" />
    <glyph glyph-name="grave" unicode="`" horiz-adv-x="249" 
d="M143 633q4 -5 22 -37q48 -77 48 -79q-67 -20 -107 31l-13 17l-56 79q-1 0 4 5q30 17 65 9q23 -4 37 -25z" />
    <glyph glyph-name="a" unicode="a" horiz-adv-x="519" 
d="M473 26q-58 -34 -113 -22q-25 5 -40.5 25.5t-13.5 46.5q-78 -84 -189 -75q-32 3 -58 24t-34 55q-14 61 8.5 132.5t78.5 136.5q46 55 115 78q70 23 114 1q23 -11 20 -28q-2 -4 -24 -5q-76 -14 -134 -88q-50 -65 -69 -143q-18 -79 20 -99q34 -15 80 14q46 30 82 82
q25 36 40 71q18 38 16 49q-27 1 -36 17q-9 11 -0.5 28t28.5 25q33 14 59.5 4.5t38.5 -39.5q17 -42 -23 -121q-12 -22 -17 -35q-6 -15 -13 -44q-5 -26 7 -36q24 -26 80 18q30 23 66 68q19 25 33 13q14 -11 1 -32q-47 -78 -123 -121z" />
    <glyph glyph-name="b" unicode="b" horiz-adv-x="462" 
d="M26 165q7 71 46 164l22 55q72 176 111 285q25 70 16 105q66 10 88 -27t-6 -108l-109 -276q46 59 111 69q49 8 93 -27q44 -33 49 -92q7 -124 -76 -218q-84 -95 -202 -96q-54 -1 -92.5 22.5t-47.5 70.5q-7 34 -3 73zM309 356q-50 17 -99 -38q-49 -54 -72 -122
q-37 -115 6 -134q46 -19 102 29t83 116q18 44 14 90q-5 49 -34 59z" />
    <glyph glyph-name="c" unicode="c" horiz-adv-x="431" 
d="M135 98q13 -26 48 -36q55 -16 123 0q121 31 205 156q10 12 25 4q16 -10 3 -32q-59 -104 -157 -159q-97 -55 -223 -43q-55 4 -94 37q-46 37 -47 107q0 70 33 136q34 66 97 119q63 51 135 56q47 3 83.5 -14.5t50.5 -55.5q10 -28 2.5 -59t-27.5 -50q-23 -27 -52 -27.5
t-44 23.5q14 12 26 35t14 41q3 39 -23 47q-40 13 -95 -46q-45 -48 -75 -124q-30 -75 -8 -115z" />
    <glyph glyph-name="d" unicode="d" horiz-adv-x="540" 
d="M507 721q4 19 -4 42q66 7 91 -29t0 -104l-83 -233l-89 -246q-11 -35 -11 -50q0 -16 7 -24q21 -26 70 -1q49 29 92 87q23 29 38 18q14 -12 -2 -37q-47 -77 -112.5 -116t-139.5 -28q-28 4 -43.5 25.5t-12.5 50.5q-49 -54 -128 -72q-79 -17 -120 13q-76 49 -28 206
q26 91 99 159q81 76 179 52q62 -13 79 -70l38 102l39 105q7 18 26 80q13 43 15 70zM316 374q-54 7 -106 -54q-51 -60 -74 -129q-32 -92 5 -124q35 -27 91 10q62 39 93 123l13 32q1 4 11 31q5 13 6 30q11 72 -39 81z" />
    <glyph glyph-name="e" unicode="e" horiz-adv-x="433" 
d="M17 136q-1 62 34 133q36 70 98 120t133 55q50 3 88.5 -14.5t52.5 -54.5q19 -51 -13 -108q-31 -53 -91 -81q-39 -19 -98 -27q-55 -7 -92 1q-11 -34 7 -65q13 -23 46 -34q50 -15 119 1q123 30 209 156q10 14 26 4q18 -10 4 -35q-43 -67 -74 -95q-134 -121 -307 -104
q-57 8 -94 37q-48 37 -48 111zM139 203q120 0 175 76q34 46 22 86q-6 20 -22 24q-46 12 -99 -48q-29 -36 -49 -73q-22 -42 -27 -65z" />
    <glyph glyph-name="f" unicode="f" horiz-adv-x="417" 
d="M186 310q72 32 156 141t105 183q8 27 4.5 48t-16.5 25q-48 16 -117 -107q-33 -57 -70 -142q-8 -17 -28 -65q-31 -73 -34 -83zM102 76q-69 -179 -76 -294q-3 -51 11.5 -85.5t41.5 -34.5q32 0 61.5 43t44.5 124q12 66 -5 138t-78 109zM413 412q-48 -52 -121 -105
q-71 -51 -130 -66q-13 -31 -38 -103q35 -21 82.5 -34.5t84.5 -12.5q129 3 199 121q2 4 10.5 -1t15.5 -13.5t5 -13.5q-24 -50 -66 -84t-89 -47t-94.5 -11t-85.5 19q36 -21 59 -70t25 -108q5 -60 -10.5 -117t-58 -103t-105.5 -58q-54 -12 -101 17q-48 29 -58 97q-16 94 23 247
q36 147 80 256l48 123q51 124 108 227q129 238 270 197q54 -12 67 -69.5t-19 -137t-101 -150.5z" />
    <glyph glyph-name="g" unicode="g" horiz-adv-x="501" 
d="M336 396q-50 -7 -98 -49q-86 -78 -113 -189q-14 -56 4.5 -80.5t52.5 -16t67 38.5q39 40 77 95q38 57 44 91l-6 2q-15 2 -19 18q-8 26 20 46q24 20 55.5 13t46.5 -39q18 -41 -16 -123q-2 -3 -29 -78q-25 -68 -27 -77q121 61 175 156q4 13 23 4q19 -10 11 -27
q-42 -75 -99 -117q-24 -18 -47 -33q-12 -8 -49 -27l-34 -18l-25 -75q-53 -143 -98 -202q-41 -56 -101 -87q-61 -32 -120 -17q-65 15 -75 84q-3 40 13 79q10 28 38 57q27 27 45 40l52 34l173 103l15 46q4 11 7.5 23t6 19t3.5 10q-32 -49 -87 -77q-54 -28 -106 -23
q-55 6 -81 42t-22.5 86t27.5 106.5t64 104.5q45 57 114 83t115 7q23 -14 22 -27q0 -2 -19 -6zM222 -165l37 106q-3 -2 -35 -21t-68 -41t-59 -38q-45 -31 -67.5 -69t-20 -65t23.5 -34q64 -23 118 43q51 58 71 119z" />
    <glyph glyph-name="h" unicode="h" 
d="M403 134q-12 -40 5 -55q49 -53 163 87q18 25 34 15q11 -13 1 -35q-51 -79 -119 -112q-24 -13 -51.5 -21t-56 -5t-43.5 22q-31 14 -35 52q-8 62 32 151q18 44 16 69q3 15 -15 7q-21 -10 -52 -36q-30 -29 -69 -78q-96 -115 -96 -196v-1q-78 -1 -100 63q-11 32 1 82
q10 46 27 79l143 367l12 32q10 23 22 58q20 60 13 94q62 10 85 -27.5t-4 -107.5l-172 -447q9 15 41 56q45 57 105 109q57 51 107 70q45 16 68 -5q26 -24 31.5 -41.5t-4.5 -45.5l-4 -8q-3 -8 -13.5 -30.5t-20.5 -43.5q-36 -76 -51 -118z" />
    <glyph glyph-name="i" unicode="i" horiz-adv-x="257" 
d="M158 569q-2 24 15 42.5t43 19.5q23 3 41.5 -13.5t19.5 -41.5t-15 -43t-42 -21q-24 -1 -42.5 16t-19.5 41zM178 258l-17 -35q-82 -160 9 -152q8 0 16 2q34 7 89 62l28 32q17 25 34 14q12 -12 1 -33q-54 -91 -141 -131q-30 -16 -66.5 -19.5t-70.5 12.5t-47 52q-15 26 6 101
q9 26 14 39q12 29 15 34l16 34l19 41q16 35 16 36q24 61 17 86q35 10 64 -11q28 -19 28 -51q1 -25 -7 -53q-9 -31 -23 -60z" />
    <glyph glyph-name="j" unicode="j" horiz-adv-x="243" 
d="M171 567q-1 25 15.5 43.5t41.5 19.5q24 2 42 -14t20 -41q1 -25 -16 -44t-41 -20t-42 15.5t-20 40.5zM200 317q-38 -99 -64 -171q-34 -95 -47 -127q55 24 117 69q63 46 103 111q6 6 16 5.5t17 -9.5t1 -19q-54 -84 -118 -133q-63 -48 -158 -86l-20 -55q-139 -354 -321 -292
q-28 9 -43.5 27t-19 40.5t1 46t15.5 45.5q13 28 37 55q22 24 41 39q2 2 53 37q71 48 156 86l125 334q29 77 21 110q62 14 88 -36q19 -31 -1 -77zM-70 -124l18 45q-96 -51 -136 -81q-46 -33 -68 -70t-18.5 -62t25.5 -32q47 -22 99 47q36 44 63 114z" />
    <glyph glyph-name="k" unicode="k" horiz-adv-x="501" 
d="M6 61q-10 26 -4 59q1 13 8 34q2 8 26 69q39 92 143 367l12 32q16 39 23 58q6 18 13 50q4 7 2 23t-2 21q63 11 86 -25.5t-4 -106.5l-50 -128q-91 -235 -110 -281l-3 -9l-1 -1q38 50 97 108q56 55 101 81q37 26 84 21q48 -5 67 -47q22 -48 -4 -106t-76 -96
q-50 -39 -100 -44q-6 -70 44 -79q44 -8 99 28q58 38 85 76q16 21 32 12q6 -4 7 -15t-4 -19q-39 -59 -104 -101q-66 -42 -134 -44q-71 0 -104 61q-32 62 1 133q68 3 111 37q31 22 46 54q17 32 3 46q-16 18 -44 5q-21 -9 -54 -32q-33 -24 -72 -64q-161 -174 -126 -239
q-72 -2 -94 62z" />
    <glyph glyph-name="l" unicode="l" horiz-adv-x="401" 
d="M381 689q-68 -71 -110 -159q-22 -46 -34 -76q-6 -13 -37 -93q76 9 159 105q81 96 95 187q10 51 -14 62t-59 -26zM467 204q15 26 34 14q22 -10 -10 -59q-30 -45 -70 -78q-126 -104 -257 -91q-66 6 -103.5 38.5t-36.5 95.5q0 31 13 90q17 64 42 129q13 35 30 73
q19 44 39 85q29 56 49 90q60 99 121 146q75 57 147 39q55 -14 68 -69q15 -55 -14 -130q-40 -108 -140 -187q-97 -78 -199 -93q-44 -97 -45 -159q-6 -55 34 -74q63 -30 161 18q100 50 137 122z" />
    <glyph glyph-name="m" unicode="m" horiz-adv-x="795" 
d="M675 79q24 -27 77 5q30 19 55 47q42 47 54 51q7 3 13 -1q12 -12 1 -33q-61 -100 -161 -135q-55 -20 -93.5 -9t-52.5 50q-28 72 67 252q7 16 -6 16q-10 -2 -20 -7q-52 -24 -134 -129q-83 -105 -84 -169q-1 -16 -26 -15q-28 0 -50 23t-22 60q-1 75 71 218q12 26 -5 24
q-12 -1 -33 -15q-9 -5 -14 -10q-32 -26 -73 -69q-44 -47 -84 -112q-41 -67 -41 -112v-8q-77 -2 -99 61q-19 55 39 175l19 38l25 52q24 61 15 98q58 14 83 -19q28 -38 -3 -102l-17 -33q-30 -58 -30 -75q16 33 108 123q92 91 140 108q46 15 69 -5q25 -22 30 -40t-6 -44
q-13 -30 -49 -100q-7 -17 -4.5 -19t14.5 14q49 64 112 121q62 56 109 73q54 20 81 -19q27 -38 12 -74l-40 -85q-41 -91 -49 -113q-13 -42 2 -57z" />
    <glyph glyph-name="n" unicode="n" horiz-adv-x="521" 
d="M398 136q-12 -42 3 -56q20 -25 71 0q47 28 93 87q19 24 35 14q12 -12 1 -33q-39 -64 -95 -103t-116 -44q-78 -7 -99 59q-10 30 0 73q18 80 69 175q4 8 1.5 11.5t-10.5 2.5q-18 0 -44 -20q-39 -30 -80 -74t-78 -108t-37 -120q-78 -1 -100 63q-20 59 37 174l13 25
q23 43 31 61q10 20 13 34q12 51 5 67q59 14 84 -21q21 -28 0 -83q-14 -32 -22 -48q-34 -64 -29 -72l17 26q47 68 116 126q70 58 115 74q43 16 69 -5q26 -24 31.5 -42t-5.5 -45q-7 -17 -42 -91q-29 -60 -47 -107z" />
    <glyph glyph-name="o" unicode="o" horiz-adv-x="498" 
d="M345 403l-13 -2q-12 -2 -17 -4q-53 -15 -101 -75q-47 -59 -70 -126q-19 -54 -14 -95.5t32 -50.5q49 -16 106 42q58 61 77 134q14 47 1 63q-6 8 -15 1q-6 -4 -14.5 0.5t-12 16t5.5 28.5q15 23 43.5 33t61.5 -10q26 -23 27 -26q31 -14 69 -8q64 10 106 36q13 9 26 -3
q15 -15 -9 -38q-19 -17 -78 -35t-103 -9q3 -31 -10 -73t-32 -73q-32 -59 -98 -98q-67 -39 -139 -38q-73 0 -118 48q-19 19 -24 47q-15 59 6.5 131.5t73.5 135.5q42 51 105 74t106 2q25 -10 22 -28z" />
    <glyph glyph-name="p" unicode="p" horiz-adv-x="511" 
d="M197 336q41 44 104 76q65 32 113 22q74 -14 74 -112q0 -92 -57 -183q-55 -89 -133 -120q-50 -18 -86 -12t-55.5 24.5t-15.5 38.5q3 22 15 8q19 -22 68 -4q80 35 134 152q15 34 20.5 61.5t1.5 44.5t-15 26.5t-28.5 9t-38.5 -10.5q-44 -22 -94 -78q-48 -54 -66 -108
l-142 -376q-33 -93 -14 -145q6 -17 16 -30l4 -5q-23 -18 -59 -8q-45 14 -58 47q-29 72 36 239q107 268 163 421q24 68 18 114q44 20 78 -12q35 -32 17 -80z" />
    <glyph glyph-name="q" unicode="q" horiz-adv-x="526" 
d="M366 401q-17 0 -34 -5q-67 -21 -119 -87q-51 -63 -71 -138q-17 -62 0.5 -86t58.5 -5q47 4 108 78q63 75 70 127h-3q-23 0 -26 17q-9 32 25 51q31 19 60 11.5t43 -38.5q22 -46 -11 -126l-72 -167l-69 -163q42 63 107 129q99 100 170 219q15 12 29.5 5t7.5 -25
q-1 -1 -3 -4.5t-5.5 -9t-7.5 -11.5q-9 -14 -20 -30q-53 -79 -157 -198q-107 -124 -123 -151l-31 -53q-11 -21 -20 -44q-18 -50 6 -87q-2 -9 -23.5 -11t-46.5 12t-35 44q-10 27 -4 70q2 13 9 38q6 22 25 72q40 103 116 265q-37 -50 -90 -78t-103 -22q-71 8 -92.5 66t2.5 133
t78 140q47 57 114 83q68 26 115 8q23 -14 22 -29z" />
    <glyph glyph-name="r" unicode="r" horiz-adv-x="417" 
d="M361 291q-128 -167 -79 -214q24 -20 53 -13t56 29q25 19 48 48q34 40 44 42q6 2 13 -2q15 -11 -1 -36q-48 -79 -120 -120q-71 -41 -145 -21q-57 13 -74 69q-15 43 10 106q12 31 42 73l27 38l26 38q-48 10 -76 29q-13 -48 -50 -117q-39 -72 -70 -112q-10 -13 -24 -1
q-18 16 0 38q70 91 106 223q-20 14 -28 29q-12 15 -10.5 41t17.5 38q21 19 49 9q29 -11 29 -44q2 -17 0 -33q11 -14 53 -29q42 -13 60 -12q51 5 67 -25q13 -27 -23 -71z" />
    <glyph glyph-name="s" unicode="s" horiz-adv-x="351" 
d="M47 93q12 -31 27 -38q39 -16 68 -4t47 47q21 44 8 124l-5 33q-7 54 12 97q-23 -16 -72 -112q-50 -99 -85 -147zM145 359q24 38 50 62t39 31q13 10 40 1q10 -5 30 -9q21 -4 27 -9t1 -17l-4 -8q-5 -9 -12 -24t-12 -29q-9 -28 -10 -46q-1 -22 9 -91q11 -71 -2 -108
q-14 -58 -68 -90q-56 -32 -114 -31q-56 1 -88 33.5t-34 85.5q36 39 85 134q49 92 63 115z" />
    <glyph glyph-name="t" unicode="t" horiz-adv-x="347" 
d="M313 40q-77 -51 -157 -48q-53 1 -96 37q-42 36 -36 108q2 28 28 88q7 16 62 154q-95 17 -64 71l88 -6q12 33 36 92l39 97q13 33 22 74t3 64q64 11 87.5 -24.5t-3.5 -105.5l-77 -200q29 0 62 3q12 1 24.5 2t19 2t14 1.5t8.5 0.5h3q-7 -48 -29 -69t-68 -24q-13 -1 -65 4
l-23 -56q-21 -49 -27 -67q-12 -32 -19 -53q-8 -25 -14 -55q-9 -48 26 -62q55 -25 133 21q80 48 120 108q23 32 38 21q27 -13 -26 -78q-52 -64 -109 -100z" />
    <glyph glyph-name="u" unicode="u" 
d="M406 134q-12 -39 5 -54q11 -12 26 -13.5t31 7t31 19t30.5 26.5t24.5 26.5t18 21.5q19 25 34 14q14 -13 1 -33q-55 -92 -144 -130q-25 -11 -52.5 -15t-55.5 0t-46 27t-18 63q-38 -48 -88.5 -73.5t-100.5 -21.5q-68 5 -89 64q-13 57 12 124q13 39 27 66q41 80 46 95
q24 60 18 86q54 13 81 -24q26 -37 2 -89q-65 -143 -79 -182q-18 -70 29 -72q115 -8 237 282q23 56 15 86q56 14 82 -29q26 -41 2 -94q-71 -153 -79 -177z" />
    <glyph glyph-name="v" unicode="v" horiz-adv-x="496" 
d="M185 395q18 -34 -8 -94l-26 -58q-32 -83 -28 -132q0 -33 15 -43q22 -14 60 6q38 21 68 59q58 73 107 209q-19 23 -16 48q-1 20 13 33t36 12q39 -3 57 -38q19 -34 10 -66q59 -29 142 31q11 9 25 -3q19 -15 -8 -39q-38 -32 -83 -44.5t-93 2.5q-75 -181 -186 -240
q-85 -46 -146 -37q-81 11 -95 106q-2 11 -2 46q8 53 13 69q3 7 6.5 19.5t8.5 24.5l8 21l9 23l9 21q24 65 18 100q30 9 53 -1t33 -35z" />
    <glyph glyph-name="w" unicode="w" horiz-adv-x="767" 
d="M475 358q0 -18 -13 -52l-12 -30l-11 -25q-39 -94 -42 -137q-3 -33 11 -45q19 -17 59 4q43 23 72 59q38 47 65 109l15 34l14 35l11 28q-20 25 -19 52q-1 18 8.5 30t26.5 12q46 5 69 -29q25 -34 16 -74q59 -25 141 33q11 9 25 -3q19 -15 -8 -39q-21 -18 -49 -32t-62 -19.5
t-62 7.5q-19 -70 -70 -137q-49 -67 -117 -103q-82 -44 -145 -31.5t-78 77.5q-101 -95 -200 -79q-75 12 -87 103q-5 38 4 83q11 50 17 65l31 77q24 67 18 100q38 12 66 -5t29 -55q0 -25 -11 -55q-6 -14 -16 -36l-16 -38q-30 -76 -29 -128q-1 -32 13 -45q18 -17 58 4t69 59
q70 85 107 238q8 27 27 40.5t41 10.5q19 -3 29 -20t5 -43z" />
    <glyph glyph-name="x" unicode="x" horiz-adv-x="517" 
d="M452 16q-40 -18 -75 -18q-54 0 -81 46q-20 40 -36 99l-95 -109q-21 -27 -56 -32q-21 -3 -57 -3q-13 1 -16 9q0 4 1 5l199 221q0 2 -1.5 12t-3.5 20t-5 24t-7 25t-9 21t-12.5 15t-15.5 4q-12 -1 -25 -10.5t-21.5 -20t-16.5 -21.5t-9 -12q-12 -16 -26 -8t-4 28
q67 120 141 121q65 2 81 -54l12 -40l5 -21l58 66l12 13q26 26 34 29q4 2 9 2.5t10.5 0.5t22.5 -0.5t36 -0.5q7 0 9 -5v-4l-1 -3l-163 -183q36 -135 53 -155q13 -16 32 -13t37.5 13t38 28.5t32.5 33t22 26.5q20 26 35 16q16 -10 0 -35q-56 -93 -144 -130z" />
    <glyph glyph-name="y" unicode="y" horiz-adv-x="496" 
d="M489 310l-90 -231l-12 -34l56 33q21 14 60 50q38 35 61 76q4 13 23 4q19 -10 11 -27q-50 -86 -123 -136q-45 -29 -109 -60l-28 -79q-48 -125 -74 -165q-48 -77 -124 -117q-73 -36 -139 -13q-36 13 -51.5 41t-13 58t17.5 60q14 29 47 71q5 6 66 55l43 27l45 25
q38 19 56 29q53 27 59 31l19 55q19 54 25 69q-50 -66 -125 -107q-74 -40 -129 -14q-32 15 -45 51q-9 16 -6 42q6 49 25 94q16 38 22 50q19 35 46 97q24 61 17 87q56 15 82 -23q25 -35 2 -91l-76 -166q-6 -14 -7 -24q-10 -47 22 -52q53 -8 121 66q69 74 111 165q11 22 22 64
q11 41 6 61q52 12 83 -19q34 -34 4 -103zM228 -114l24 59q-98 -49 -162 -96q-46 -33 -69 -73.5t-19.5 -68.5t25.5 -34q60 -24 114 49q42 54 67 115z" />
    <glyph glyph-name="z" unicode="z" horiz-adv-x="446" 
d="M108 286q19 42 38 102q-22 16 -31 36q-10 21 -4.5 46t23.5 32q17 17 42 7q26 -11 25 -43q0 -25 -1 -33q11 -20 62 -33q52 -12 96 -6q51 6 67 -27q10 -18 -24 -70q-40 -59 -89 -116q-56 -67 -65 -81q56 -32 127 -18q42 8 82 45q12 12 23 24.5t16 18.5t10.5 10.5t9.5 4.5
t10 -4q16 -13 -2 -38q-65 -95 -124 -117q-61 -23 -156 -11q-14 1 -31 5q-17 5 -24 3q-41 -26 -71 -20.5t-40 38.5q-6 33 17 57q22 25 52 19q70 83 159 222q-60 -10 -119 22q-13 -44 -37 -92q-42 -85 -85 -141q-10 -13 -24 -1q-18 15 0 38q33 44 68 121z" />
    <glyph glyph-name="braceleft" unicode="{" horiz-adv-x="476" 
d="M238 121q-10 -28 -39 -134q-12 -49 -8 -85t22 -48q-90 -14 -108 34q-16 42 0 112q1 5 32 114q14 51 24 80q5 18 -8 30.5t-38 14.5q-13 1 -14.5 18t7 33.5t19.5 16.5q61 1 78 36q15 32 33 103q26 100 38 124q20 46 60.5 65t78.5 15q-18 -13 -35 -54q-14 -38 -30 -108
q-14 -58 -29 -112q-10 -42 -41 -77q-30 -35 -75 -36q36 -11 43 -54q9 -42 -10 -88z" />
    <glyph glyph-name="bar" unicode="|" horiz-adv-x="477" 
d="M392 673l-200 -856q-14 -55 -51 -77q-38 -23 -66 -7l208 880q13 59 66 69q31 7 42 -5q3 -3 1 -4z" />
    <glyph glyph-name="braceright" unicode="}" horiz-adv-x="503" 
d="M253 385q7 23 39 135q11 49 6.5 84.5t-20.5 47.5q57 10 87 -10q29 -20 29 -55q0 -34 -8 -80l-12 -47l-20 -67q-11 -43 -24 -81q-6 -19 6.5 -31t38.5 -14q14 -1 15.5 -18t-7 -33.5t-19.5 -16.5q-62 -1 -78 -36q-14 -24 -33 -103q-28 -98 -38 -124q-20 -44 -58.5 -64
t-80.5 -16q21 14 35 54l13 43q9 29 17 67q21 88 35 126q17 48 41.5 70.5t67.5 26.5q-34 10 -42 53q-8 44 10 89z" />
    <glyph glyph-name="asciitilde" unicode="~" horiz-adv-x="521" 
d="M330 237h19q-22 0 -29 1q-15 1 -60 22q-40 21 -50 21q-35 0 -57 -34q-6 -7 -17 -1q-13 6 -22 18.5t-5 21.5q12 31 39.5 53.5t61.5 23.5q19 0 63 -22q45 -22 57 -22q33 0 57 34q4 6 16 -3q12 -8 12 -16q13 -16 9 -29q-15 -30 -40 -49t-54 -19z" />
    <glyph glyph-name="exclamdown" unicode="&#xa1;" horiz-adv-x="408" 
d="M331 578q-25 0 -40 18q-14 14 -14 41q0 25 17 44q18 19 46 19q24 0 38 -17q15 -15 15 -38q0 -27 -18 -47t-44 -20zM218 -25q-33 -17 -65 -13q-33 5 -47 35q-15 32 16 103q148 340 149 356q3 22 3 31v8q6 6 18 6q15 0 25 -10.5t10 -27.5q0 -11 -109 -413q-14 -50 0 -75z
" />
    <glyph glyph-name="cent" unicode="&#xa2;" horiz-adv-x="562" 
d="M463 538l-38 -103q47 -16 68 -54.5t11 -95.5q-13 -37 -47 -44q-33 -7 -53 22q17 33 15 60t-21 42l-117 -313q104 0 159 61q46 49 63 39q21 -15 4 -35q-54 -65 -110.5 -97t-138.5 -34q-14 -53 -42 -75t-55 -7l31 85q-53 8 -86 36q-45 37 -47 105q0 68 33 133q34 66 97 118
q65 53 134 62q34 2 37 2l13 33q13 59 58 70q25 4 31 -6q2 -2 1 -4zM219 63l117 315q-44 -9 -78 -46q-44 -46 -72 -117q-28 -69 -12 -109q12 -32 45 -43z" />
    <glyph glyph-name="sterling" unicode="&#xa3;" horiz-adv-x="729" 
d="M465 320q-8 0 -32 -0.5t-30 -0.5q-78 -190 -136 -229q61 -7 143 -52q32 -19 82 -31q48 -12 86 -7q2 0 -0.5 -7.5t-11 -19t-19.5 -21.5q-17 -20 -42.5 -30t-67.5 -1t-88 45l-30 24q-22 17 -28 20q-42 31 -90 27q-27 -27 -81 -32q-56 -5 -57 30l1 10q5 25 29 40.5t57 18.5
q57 8 139 215h-63q-20 0 -37 -5l-4 -2q-5 5 -5 22q0 44 42 51q29 7 80 7h14q88 228 104 266q22 55 72.5 90t103.5 38q49 3 82 -21.5t42.5 -79t-23.5 -142.5l-34 15q-16 12 -21 29q-3 19 1 43q4 23 4 28q0 44 -33 50q-25 3 -50.5 -14t-37.5 -50l-96 -251q6 0 31 -0.5t33 -0.5
q39 0 58 9q15 -33 -8.5 -56.5t-78.5 -24.5z" />
    <glyph glyph-name="currency" unicode="&#xa4;" horiz-adv-x="648" 
d="M355 438q-62 2 -110 -52q-47 -52 -45 -129q2 -34 20.5 -53.5t47.5 -19.5q62 -2 107 51q45 54 45 130q-2 34 -19 53.5t-46 19.5zM269 489l8 -5q42 18 87 18q42 0 74 -18l10 -6l22 23q29 29 56 22q22 -5 35 -24l-28 -30l-4 -3l-39 -39l3 -9q8 -27 8 -49q0 -95 -66 -166
l-7 -7l6 -10q23 -33 46 -75q0 -3 -19 -12q-49 -24 -95 51l-9 -6q-43 -23 -97 -23q-27 0 -54 8l-9 4q-23 -31 -54 -42.5t-47 1.5q-9 4 -16 11l63 70q-28 43 -19 102q1 42 21.5 85.5t53.5 73.5l8 7l-5 9q-10 21 -25 46l-7 14q4 4 7 5q26 17 52 12q8 0 14.5 -4.5t10.5 -10
t8.5 -13.5t6.5 -10z" />
    <glyph glyph-name="yen" unicode="&#xa5;" horiz-adv-x="557" 
d="M136 292q14 15 33 15h6h41l-7 27q-41 148 -74 309q90 13 96 -57l10 -55q22 -105 44 -180l18 24q48 67 144 230q29 35 63 27q14 0 35 -12l-11 -19q-97 -161 -181 -268l-21 -27h81q-3 -51 -31 -51h-35q-15 1 -41 1l-5 -18l-5 -22l-5 -22h95q-3 -46 -31 -50h-75l-13 -56
q-3 -9 -3 -13l-5 -25q-3 -19 -8 -33q-4 -18 -29 -21q-9 0 -11 1q-18 -3 -34 4q-12 4 -10 12v1q0 4 7 36q9 40 15 64l7 31h-27q-2 0 -26.5 0.5t-37.5 0.5q2 31 18 40.5t57 7.5h25l9 41l4 21q-24 0 -45 1t-50 1q0 18 13 34z" />
    <glyph glyph-name="brokenbar" unicode="&#xa6;" horiz-adv-x="627" 
d="M63 -192l135 353q11 30 29.5 47t37 20t32 2t21.5 -5l5 -2l-132 -343q-39 -102 -128 -72zM283 353l136 353q10 29 26.5 46t33 20.5t31.5 3t24 -3.5l10 -4l-132 -343q-40 -101 -129 -72z" />
    <glyph glyph-name="section" unicode="&#xa7;" horiz-adv-x="638" 
d="M325 317l-11 14l-3 4q-40 0 -49 -47q-4 -30 12 -61l12 -23q3 -7 19 -29l20 -32l14 -25q7 -11 9 -20q11 7 18 14q48 39 18 103q-19 47 -59 102zM477 390q4 47 -13.5 73t-49.5 32q-38 5 -55 -23t-13 -52q9 -49 76 -122q26 -29 39.5 -67.5t5.5 -77.5q-6 -35 -32 -63.5
t-61 -41.5l-13 -4l2 -20q5 -50 -36 -95l-8 -9q-23 -21 -66 -30q-42 -8 -74 -1q-55 14 -86 58q-32 45 -13 94q19 45 60 43q5 0 10 -1.5t7.5 -3t2.5 -2.5q-19 -35 -10 -67q8 -37 46 -50q29 -11 62 11t27 78q-5 35 -37 81l-17 22l-25 37q-24 45 -24 83q0 47 28 75.5t74 31.5
q-16 26 -17 55q-3 66 47 102q52 36 115 29q5 0 6 -1q17 -3 38 -14q24 -11 44 -41t21 -67q1 -45 -38 -54q-15 -3 -23 2z" />
    <glyph glyph-name="dieresis" unicode="&#xa8;" horiz-adv-x="380" 
d="M332 580q-4 -24 -23.5 -40t-43.5 -16q-27 0 -42 15.5t-11 41.5q4 24 22.5 39.5t44.5 16.5t41.5 -15.5t11.5 -41.5zM106 637q26 1 41.5 -15.5t11.5 -41.5q-4 -24 -23 -40t-43 -16q-27 0 -42.5 15.5t-11.5 41.5q4 24 23 39.5t44 16.5z" />
    <glyph glyph-name="copyright" unicode="&#xa9;" horiz-adv-x="873" 
d="M359 116q18 -32 74 -18q56 13 76 51q14 -19 10 -44t-25 -43q-19 -15 -52 -24.5t-63 -6.5q-40 4 -67 28q-33 28 -34 80q0 53 24 103q24 51 69 90q47 39 97 42q34 3 60.5 -10t35.5 -42q12 -38 -7 -71q-15 -26 -37.5 -27t-31.5 16q18 15 19.5 43t-25.5 38q-34 6 -75 -41
q-29 -33 -48 -81q-20 -48 0 -83zM346 -77q135 -7 226 68q90 74 119 205q25 118 -21 196q-46 77 -156 88q-128 11 -218 -68q-90 -77 -122 -208q-29 -116 22 -195q52 -78 150 -86zM341 -146q-152 11 -227 111q-74 101 -39 252q36 155 158 247q123 92 279 84q153 -7 231 -110
q78 -101 44 -255q-31 -143 -143 -238q-118 -103 -303 -91z" />
    <glyph glyph-name="guillemotleft" unicode="&#xab;" horiz-adv-x="649" 
d="M174 238l101 -170q-9 -11 -24.5 -16.5t-38 3t-41.5 37.5l-69 115q-28 46 14 81l120 100q13 11 25 18t20.5 9.5t17 1.5t13.5 -2.5t10.5 -6.5t8 -8t5.5 -8t4 -6zM391 238l101 -170q-9 -11 -24.5 -16.5t-38 3t-41.5 37.5l-69 115q-28 46 14 81l120 100q67 60 101 2l2 -4z
" />
    <glyph glyph-name="logicalnot" unicode="&#xac;" 
d="M436 432l-36 -128q-1 -2 -9 -3.5t-18 -0.5t-19.5 7t-12.5 18.5t4 34.5l13 43h-186q-22 0 -37 7.5t-21 18.5t-8 21.5t-1 18t3 7.5h298q18 0 27 -13t3 -31z" />
    <glyph glyph-name="registered" unicode="&#xae;" horiz-adv-x="873" 
d="M466 319q-16 -3 -28 -22l-5 -10q-1 -2 -5 -12t-4 -11l-9 -24l34 4q20 2 33 18q19 21 14.5 41.5t-30.5 15.5zM287 91q-5 26 39 121l16 42l18 46q1 4 3.5 8.5t6 12t6.5 13.5q11 21 21 29q25 23 60 23q36 3 62 -14.5t36 -51.5q14 -50 -17 -88q-32 -39 -81 -45q5 -38 25 -85
q23 -48 38 -54q3 -22 -24 -36q-26 -13 -52 7q-36 31 -49 171q-3 -9 -18 -44q-29 -61 -20 -85q-4 -6 -18.5 -7t-32 9.5t-19.5 27.5zM346 -77q135 -7 226 68q90 74 119 205q25 118 -21 196q-46 77 -156 88q-128 11 -218 -68q-90 -77 -122 -208q-29 -116 22 -195
q52 -78 150 -86zM341 -146q-152 11 -227 111q-74 101 -39 252q36 155 158 247q123 92 279 84q153 -7 231 -110q78 -101 44 -255q-31 -143 -143 -238q-118 -103 -303 -91z" />
    <glyph glyph-name="degree" unicode="&#xb0;" horiz-adv-x="437" 
d="M232 607q-29 1 -53 -15.5t-32 -44.5q-10 -30 3.5 -52t44.5 -25q34 -2 59 19.5t29 53.5q5 25 -9.5 44t-41.5 20zM244 671q66 -5 98 -47q33 -42 20 -97q-12 -53 -65 -91q-53 -36 -113 -32q-63 5 -97 45q-35 41 -20 102q13 58 65 91t112 29z" />
    <glyph glyph-name="uni00B1" unicode="&#xb1;" horiz-adv-x="328" 
d="M134 619q1 4 5 4q7 7 12 7q47 30 57 40q2 2 4 2q33 0 30 -27q0 -9 -5 -19l-33 -99l-35 -98v-2q-7 -24 -6 -31q-1 -10 -27 -10q-10 0 -18 3q-19 9 -7 44l14 42q3 8 6.5 17.5t6 16.5t3.5 11l30 87q0 1 -4.5 -1t-10 -4.5t-8.5 -2.5q-19 0 -14 20z" />
    <glyph glyph-name="uni00B2" unicode="&#xb2;" horiz-adv-x="330" 
d="M55 419q3 13 23 36q10 11 55 47q30 23 38 31q39 37 44 51q18 28 5 47q-24 21 -46 -4q-21 -24 -11 -49q-19 -22 -41 -12q-17 9 -12 32q6 34 35.5 53t67.5 18q36 -1 54.5 -19.5t13.5 -50.5q-6 -46 -60 -86q-16 -13 -59 -36q-42 -23 -58 -38q24 6 59 6q41 0 68 8
q10 -33 -16 -49q-13 -10 -41 -10q-8 0 -34.5 4t-35.5 3q-4 0 -19.5 -3t-20.5 -1q-11 5 -9 22z" />
    <glyph glyph-name="uni00B3" unicode="&#xb3;" horiz-adv-x="336" 
d="M127 392q-33 0 -52 18q-18 20 -17 38q2 13 9.5 20t16.5 3v-3q-2 -22 21 -33q19 -5 39 3t28 25q14 23 6 45q-3 8 -13 11q-12 0 -24 5q-5 6 -3 14q0 3 2 9h4q25 0 51 20q17 13 21.5 33.5t-11.5 33.5q-15 5 -29 -1.5t-21 -21.5q-10 -28 -1 -36q-15 -16 -37 -12q-23 5 -18 30
q6 34 39 53q35 20 68 20q36 0 54 -18q29 -35 5 -74q-16 -27 -51 -43q21 -11 24 -39.5t-13 -48.5q-5 -11 -24 -27q-32 -24 -74 -24z" />
    <glyph glyph-name="acute" unicode="&#xb4;" horiz-adv-x="250" 
d="M55 547l52 85q25 40 86 22q11 -4 16 -6.5t4 -4.5q-5 -6 -31 -45q-21 -30 -38 -51q-41 -52 -106 -32q-1 1 17 32z" />
    <glyph glyph-name="paragraph" unicode="&#xb6;" horiz-adv-x="840" 
d="M754 710h-63q0 -2 -1.5 -6.5l-4 -12l-4.5 -13.5l-21 -55l-172 -442q-66 -168 -232 -180q-78 -6 -123 44q-44 51 -42 122q3 73 49 126q34 39 93 49q60 12 92 -20q-42 -14 -81 -59q-41 -45 -48 -103q-5 -36 7.5 -64t37.5 -33q46 -10 86 37q41 48 69 121q21 52 97 249
q62 161 95 240h-149l-78 -190q-23 -54 -51 -48q-12 3 -18 13q-22 11 -35 30q-41 60 -2 145q49 127 119 135q24 3 67 3q81 2 206 0q84 -1 179 -1q0 -5 -7 -23q-8 -21 -25 -42q-18 -22 -40 -22z" />
    <glyph glyph-name="middot" unicode="&#xb7;" horiz-adv-x="348" 
d="M127 229q0 27 18 45q15 19 42 19q24 0 37 -16q15 -17 15 -40t-17 -43q-17 -17 -45 -17q-24 0 -36 15q-14 14 -14 37z" />
    <glyph glyph-name="cedilla" unicode="&#xb8;" horiz-adv-x="284" 
d="M196 7l-26 -52q42 -6 60 -37q18 -40 2 -71q-17 -33 -56 -47q-39 -16 -78 -5q-27 7 -39.5 26.5t-4.5 40.5q22 -28 67 -18q25 5 37.5 24t0.5 37q-5 8 -30 11t-28 10q-3 8 13 43q19 39 32 56q11 14 36 13t19 -20q-3 -8 -5 -11z" />
    <glyph glyph-name="guillemotright" unicode="&#xbb;" horiz-adv-x="652" 
d="M490 228l-101 170q12 11 25 15q17 7 39.5 -2t39.5 -37l69 -115q28 -45 -14 -81l-120 -101q-13 -11 -25 -17.5t-20.5 -9.5t-17 -2t-13.5 2.5t-10.5 7t-7.5 8t-6 8.5l-4 6zM272 228l-102 170q12 11 25 15q17 7 39.5 -2t39.5 -37l69 -115q28 -45 -14 -81l-120 -101
q-69 -56 -101 0q-2 2 -2 3z" />
    <glyph glyph-name="questiondown" unicode="&#xbf;" horiz-adv-x="570" 
d="M405 191q-10 -91 -110 -174q-3 -1 -20 -17l-23 -20q-36 -32 -48 -44q-30 -32 -38 -48q-16 -30 -17 -47q-2 -37 16.5 -61t55.5 -30q65 -9 109 41q45 49 34 118q15 17 42 15q28 -1 40 -20q33 -47 -10 -120q-33 -55 -89 -84t-124 -29q-106 0 -157 73q-28 41 -32 85t14 76
q15 31 49 66q53 53 135 98q83 47 110 117q12 45 11 49q10 5 29 4q29 -5 23 -48zM481 342q-4 -25 -25 -44q-20 -15 -44 -11q-24 1 -36 21q-12 18 -9 43q3 22 22 40q21 14 47 10q24 -3 36 -20q10 -17 9 -39z" />
    <glyph glyph-name="Agrave" unicode="&#xc0;" horiz-adv-x="777" 
d="M482 364q123 0 149 1q101 297 103 304q6 23 -0.5 37t-22.5 14q-25 1 -46 -20q-19 -19 -59 -92q-23 -41 -85 -164zM349 311q-78 -1 -131 -24t-87 -80q-32 -52 -28 -101t41 -56q53 -12 118 104zM736 364q73 0 84 1q3 -21 -9.5 -31.5t-36.5 -15.5q-34 -2 -39 -2h-14
q-41 -131 -79 -256l-8 -25q-1 -3 -9 -16q-10 -18 -54 -18q-53 0 -54 25q20 68 65 195q3 9 32 91q-42 0 -80 -1h-78l-9 -19l-20 -43l-21 -41q-12 -26 -25 -46l-27 -40q-22 -32 -32 -41q-54 -51 -75 -61q-52 -23 -94 -24q-95 -2 -129 69q-35 72 23 178q54 90 168 112
q92 17 161 13l150 275q32 57 69.5 92t67.5 42q25 7 66 5q46 -1 75 -44q30 -40 16 -91q-43 -156 -84 -283zM750 984q4 -5 22 -37q48 -77 48 -79q-67 -20 -107 31l-13 17l-56 79q0 1 4 5q30 17 65 9q23 -4 37 -25z" />
    <glyph glyph-name="Aacute" unicode="&#xc1;" horiz-adv-x="776" 
d="M521 444l-39 -80q123 0 149 1q101 297 103 304q6 23 -0.5 37t-22.5 14q-19 1 -38 -14q-17 -13 -28 -30l-31 -54l-8 -14q-23 -41 -85 -164zM262 154l87 157q-78 -1 -131 -24t-87 -80q-32 -52 -28 -101t41 -56q53 -12 118 104zM736 364q73 0 84 1q2 -11 -2 -19.5t-9 -12.5
t-15 -10q-8 -3 -40 -7h-33q-41 -131 -79 -256l-2 -7q-7 -29 -18.5 -38.5t-50.5 -13.5q-53 0 -54 25q15 49 28 87l37 108q3 9 32 91q-42 0 -80 -1h-78q-62 -130 -94 -178q-91 -132 -209 -137q-95 -2 -129 69q-35 72 23 178q54 90 168 112q92 17 161 13l150 275q35 62 71 94
q37 32 66 40q25 7 66 5q46 -1 75 -44q30 -40 16 -91q-43 -156 -84 -283zM733 896l52 85q25 40 86 22q11 -4 16 -6.5t4 -4.5q-5 -6 -31 -45q-21 -30 -38 -51q-41 -52 -106 -32q-1 1 17 32z" />
    <glyph glyph-name="Acircumflex" unicode="&#xc2;" horiz-adv-x="776" 
d="M482 364q123 0 149 1q101 297 103 304q6 23 -0.5 37t-22.5 14q-25 1 -46 -20q-19 -19 -59 -92q-23 -41 -85 -164zM349 311q-78 -1 -131 -24t-87 -80q-32 -52 -28 -101t41 -56q53 -12 118 104zM736 364q73 0 84 1q3 -21 -9.5 -31.5t-36.5 -15.5q-34 -2 -39 -2h-14
q-41 -131 -79 -256l-8 -25q-1 -3 -9 -16q-10 -18 -54 -18q-53 0 -54 25q20 68 65 195q3 9 32 91q-42 0 -80 -1h-78l-9 -19l-20 -43l-21 -41q-12 -26 -25 -46l-27 -40q-22 -32 -32 -41q-54 -51 -75 -61q-52 -23 -94 -24q-95 -2 -129 69q-35 72 23 178q54 90 168 112
q92 17 161 13l150 275q32 57 69.5 92t67.5 42q25 7 66 5q46 -1 75 -44q30 -40 16 -91q-43 -156 -84 -283zM814 880q-11 11 -20 22l-19 23l-53 -40q-20 -15 -40.5 -20.5t-34.5 -2.5t-25 8.5t-17 11t-5 5.5l92 67q18 13 41 26q71 41 123 -25l57 -72q1 -1 -7 -7q-38 -26 -73 -9
q-13 5 -19 13z" />
    <glyph glyph-name="Atilde" unicode="&#xc3;" horiz-adv-x="776" 
d="M521 444l-39 -80q123 0 149 1q101 297 103 304q6 23 -0.5 37t-22.5 14q-19 1 -38 -14q-17 -13 -28 -30l-31 -54l-8 -14q-23 -41 -85 -164zM262 154l87 157q-78 -1 -131 -24t-87 -80q-32 -52 -28 -101t41 -56q53 -12 118 104zM736 364q73 0 84 1q2 -11 -2 -19.5t-9 -12.5
t-15 -10q-8 -3 -40 -7h-33q-41 -131 -79 -256l-2 -7q-7 -29 -18.5 -38.5t-50.5 -13.5q-53 0 -54 25q15 49 28 87l37 108q3 9 32 91q-42 0 -80 -1h-78q-62 -130 -94 -178q-91 -132 -209 -137q-95 -2 -129 69q-35 72 23 178q54 90 168 112q92 17 161 13l150 275q35 62 71 94
q37 32 66 40q25 7 66 5q46 -1 75 -44q30 -40 16 -91q-43 -156 -84 -283zM648 967q68 33 159 -12q34 -17 71.5 -15.5t59.5 21.5q10 5 17 12q17 -26 1 -58t-50 -44.5t-68.5 -8.5t-64.5 19q-111 55 -172 2q-5 -5 -7.5 -4t-1.5 8q2 29 28 58q13 15 28 22z" />
    <glyph glyph-name="Adieresis" unicode="&#xc4;" horiz-adv-x="776" 
d="M482 364q123 0 149 1q101 297 103 304q6 23 -0.5 37t-22.5 14q-25 1 -46 -20q-19 -19 -59 -92q-23 -41 -85 -164zM349 311q-78 -1 -131 -24t-87 -80q-32 -52 -28 -101t41 -56q53 -12 118 104zM736 364q73 0 84 1q3 -21 -9.5 -31.5t-36.5 -15.5q-34 -2 -39 -2h-14
q-41 -131 -79 -256l-8 -25q-1 -3 -9 -16q-10 -18 -54 -18q-53 0 -54 25q20 68 65 195q3 9 32 91q-42 0 -80 -1h-78l-9 -19l-20 -43l-21 -41q-12 -26 -25 -46l-27 -40q-22 -32 -32 -41q-54 -51 -75 -61q-52 -23 -94 -24q-95 -2 -129 69q-35 72 23 178q54 90 168 112
q92 17 161 13l150 275q32 57 69.5 92t67.5 42q25 7 66 5q46 -1 75 -44q30 -40 16 -91q-43 -156 -84 -283zM929 929q-4 -24 -23.5 -40t-43.5 -16q-27 0 -42 15.5t-11 41.5q4 24 22.5 39.5t44.5 16.5t41.5 -15.5t11.5 -41.5zM703 986q26 1 41.5 -15.5t11.5 -41.5
q-4 -24 -23 -40t-43 -16q-27 0 -42.5 15.5t-11.5 41.5q4 24 23 39.5t44 16.5z" />
    <glyph glyph-name="Aring" unicode="&#xc5;" horiz-adv-x="776" 
d="M521 444l-39 -80q123 0 149 1q101 297 103 304q6 23 -0.5 37t-22.5 14q-19 1 -38 -14q-17 -13 -28 -30l-31 -54l-8 -14q-23 -41 -85 -164zM262 154l87 157q-78 -1 -131 -24t-87 -80q-32 -52 -28 -101t41 -56q53 -12 118 104zM736 364q73 0 84 1q2 -11 -2 -19.5t-9 -12.5
t-15 -10q-8 -3 -40 -7h-33q-41 -131 -79 -256l-2 -7q-7 -29 -18.5 -38.5t-50.5 -13.5q-53 0 -54 25q15 49 28 87l37 108q3 9 32 91q-42 0 -80 -1h-78q-62 -130 -94 -178q-91 -132 -209 -137q-95 -2 -129 69q-35 72 23 178q54 90 168 112q92 17 161 13l150 275q35 62 71 94
q37 32 66 40q25 7 66 5q46 -1 75 -44q30 -40 16 -91q-43 -156 -84 -283zM795 966q-37 0 -45 -38q-3 -14 7 -25.5t25 -11.5q39 0 45 37q6 38 -32 38zM798 1015q43 -1 68 -24.5t18 -63.5q-4 -39 -33.5 -61.5t-71.5 -22.5q-43 0 -68 24.5t-19 64.5q5 37 35 60t71 23z" />
    <glyph glyph-name="AE" unicode="&#xc6;" horiz-adv-x="1152" 
d="M1111 791q96 -5 139 -56q45 -51 28 -119q-10 -40 -53 -63q-40 -22 -74 2q13 6 24.5 33t8.5 55q-4 35 -29 56t-61 22q-55 1 -98 -31t-61 -80q-7 -28 -8 -55.5t16.5 -54t52.5 -40.5q15 -8 40 -9q29 -1 40.5 -6.5t10.5 -22.5q-1 -22 -80 -22q-105 1 -178 -63
q-72 -64 -70 -144q2 -71 64 -105t148 -19q66 11 125.5 54t101.5 109q18 32 22 41q33 64 48 72q13 7 17 -11q4 -13 -4 -34q-88 -221 -276 -280q-58 -18 -130 -20q-67 -2 -132 24q-63 27 -87 83l-14 -47l-2 -7q-7 -29 -18.5 -38.5t-50.5 -13.5q-53 0 -54 25q15 49 28 87
l37 108q3 9 32 91q-42 0 -80 -1h-78q-62 -130 -94 -178q-91 -132 -209 -137q-95 -2 -129 69q-35 72 23 178q54 90 168 112q92 17 161 13l150 275q35 62 71 94q37 32 66 40q25 7 66 5q46 -1 75 -44q30 -40 16 -91q-41 -151 -81 -272q69 51 161 65q-48 32 -65 82t1 97
q25 83 106 129q79 46 169 43zM521 444l-39 -80q123 0 149 1q101 297 103 304q6 23 -0.5 37t-22.5 14q-19 1 -38 -14q-17 -13 -28 -30l-31 -54l-8 -14q-23 -41 -85 -164zM262 154l87 157q-78 -1 -131 -24t-87 -80q-32 -52 -28 -101t41 -56q53 -12 118 104z" />
    <glyph glyph-name="Ccedilla" unicode="&#xc7;" horiz-adv-x="514" 
d="M482 719q-50 23 -115 -37q-65 -57 -117 -148q-51 -89 -75 -166q-19 -63 -25 -106q-7 -47 1 -100q9 -50 40 -72q54 -32 135 -4q85 29 168 89q84 60 130 125q15 22 27 12q14 -13 -11 -58l-7 -11q-67 -99 -193 -176q-126 -75 -236 -66l-23 -46q53 -8 65 -54q17 -51 -33 -86
q-50 -36 -104 -20q-27 7 -39.5 26.5t-4.5 40.5q19 -25 59 -19q25 1 42 22q17 20 4 40q-5 8 -30 11t-28 10q-6 17 37 87q-47 16 -75.5 51.5t-37 83.5t-4 100.5t20.5 109.5q44 150 155 285q54 66 127 107q72 41 143 36q47 -4 78 -27.5t42.5 -58.5t10.5 -73.5t-14 -76.5
q-26 -68 -79.5 -86t-82.5 31q55 46 73 124q19 79 -24 100z" />
    <glyph glyph-name="Egrave" unicode="&#xc8;" horiz-adv-x="575" 
d="M534 791q96 -5 139 -56q45 -51 28 -119q-10 -40 -53 -63q-40 -22 -74 2q13 6 24.5 33t8.5 55q-4 35 -29 56t-61 22q-55 1 -98 -31t-61 -80q-7 -28 -8 -55.5t16.5 -54t52.5 -40.5q15 -8 40 -9q29 -1 40.5 -6.5t10.5 -22.5q-1 -22 -80 -22q-105 1 -178 -63
q-72 -64 -70 -144q2 -71 64 -105t148 -19q66 11 125.5 54t101.5 109q18 32 22 41q33 64 48 72q13 7 17 -11q4 -13 -4 -34q-88 -221 -276 -280q-120 -36 -242 -4q-60 16 -94 67t-26 124q8 89 78 153q69 63 179 80q-48 32 -65 82t1 97q25 83 106 129q79 46 169 43zM571 984
q4 -5 22 -37q48 -77 48 -79q-67 -20 -107 31l-13 17l-56 79q-1 1 4 5q30 17 65 9q23 -4 37 -25z" />
    <glyph glyph-name="Eacute" unicode="&#xc9;" horiz-adv-x="575" 
d="M534 791q96 -5 139 -56q45 -51 28 -119q-10 -40 -53 -63q-40 -22 -74 2q13 6 24.5 33t8.5 55q-4 35 -29 56t-61 22q-55 1 -98 -31t-61 -80q-7 -28 -8 -55.5t16.5 -54t52.5 -40.5q15 -8 40 -9q29 -1 40.5 -6.5t10.5 -22.5q-1 -22 -80 -22q-105 1 -178 -63
q-72 -64 -70 -144q2 -71 64 -105t148 -19q66 11 125.5 54t101.5 109q18 32 22 41q33 64 48 72q13 7 17 -11q4 -13 -4 -34q-88 -221 -276 -280q-120 -36 -242 -4q-60 16 -94 67t-26 124q8 89 78 153q69 63 179 80q-48 32 -65 82t1 97q25 83 106 129q79 46 169 43zM515 896
l52 85q25 40 86 22q11 -4 16 -6.5t4 -4.5q-5 -6 -31 -45q-21 -30 -38 -51q-41 -52 -106 -32q-1 1 17 32z" />
    <glyph glyph-name="Ecircumflex" unicode="&#xca;" horiz-adv-x="588" 
d="M534 791q96 -5 139 -56q45 -51 28 -119q-10 -40 -53 -63q-40 -22 -74 2q13 6 24.5 33t8.5 55q-4 35 -29 56t-61 22q-55 1 -98 -31t-61 -80q-7 -28 -8 -55.5t16.5 -54t52.5 -40.5q15 -8 40 -9q29 -1 40.5 -6.5t10.5 -22.5q-1 -22 -80 -22q-105 1 -178 -63
q-72 -64 -70 -144q2 -71 64 -105t148 -19q66 11 125.5 54t101.5 109q18 32 22 41q33 64 48 72q13 7 17 -11q4 -13 -4 -34q-88 -221 -276 -280q-120 -36 -242 -4q-60 16 -94 67t-26 124q8 89 78 153q69 63 179 80q-48 32 -65 82t1 97q25 83 106 129q79 46 169 43zM623 880
q-11 11 -20 22l-19 23l-53 -40q-20 -15 -40.5 -20.5t-34.5 -2.5t-25 8.5t-17 11t-5 5.5l92 67q18 13 41 26q71 41 123 -25l57 -72q1 -1 -7 -7q-38 -26 -73 -9q-13 5 -19 13z" />
    <glyph glyph-name="Edieresis" unicode="&#xcb;" horiz-adv-x="575" 
d="M534 791q96 -5 139 -56q45 -51 28 -119q-10 -40 -53 -63q-40 -22 -74 2q13 6 24.5 33t8.5 55q-4 35 -29 56t-61 22q-55 1 -98 -31t-61 -80q-7 -28 -8 -55.5t16.5 -54t52.5 -40.5q15 -8 40 -9q29 -1 40.5 -6.5t10.5 -22.5q-1 -22 -80 -22q-105 1 -178 -63
q-72 -64 -70 -144q2 -71 64 -105t148 -19q66 11 125.5 54t101.5 109q18 32 22 41q33 64 48 72q13 7 17 -11q4 -13 -4 -34q-88 -221 -276 -280q-120 -36 -242 -4q-60 16 -94 67t-26 124q8 89 78 153q69 63 179 80q-48 32 -65 82t1 97q25 83 106 129q79 46 169 43zM733 929
q-4 -24 -23.5 -40t-43.5 -16q-27 0 -42 15.5t-11 41.5q4 24 22.5 39.5t44.5 16.5t41.5 -15.5t11.5 -41.5zM507 986q26 1 41.5 -15.5t11.5 -41.5q-4 -24 -23 -40t-43 -16q-27 0 -42.5 15.5t-11.5 41.5q4 24 23 39.5t44 16.5z" />
    <glyph glyph-name="Igrave" unicode="&#xcc;" horiz-adv-x="698" 
d="M772 666l-190 -489q-31 -79 -92 -124.5t-144 -51.5q-76 -6 -119 43q-43 50 -42 120q3 70 48 123q31 37 87 45q56 9 87 -21q-44 -20 -80 -65t-42 -95q-4 -35 9 -61.5t39 -30.5q59 -10 103 57q28 45 51 101l52 133q22 55 41 108l43 113q22 51 38 85q24 50 40 71
q-87 4 -153.5 -32t-91.5 -99q-16 -33 -6.5 -69.5t40.5 -51.5q-41 -16 -76 -10t-52 27.5t-22.5 51.5t11.5 63q26 57 86 98q110 75 253 75q82 1 97 -22q14 -21 -15 -92zM737 984q4 -5 22 -37q48 -77 48 -79q-67 -20 -107 31l-13 17l-56 79q-1 1 4 5q30 17 65 9q23 -4 37 -25z
" />
    <glyph glyph-name="Iacute" unicode="&#xcd;" horiz-adv-x="697" 
d="M772 666l-190 -489q-31 -79 -92 -124.5t-144 -51.5q-76 -6 -119 43q-43 50 -42 120q3 70 48 123q31 37 87 45q56 9 87 -21q-44 -20 -80 -65t-42 -95q-4 -35 9 -61.5t39 -30.5q59 -10 103 57q28 45 51 101l52 133q22 55 41 108l43 113q22 51 38 85q24 50 40 71
q-87 4 -153.5 -32t-91.5 -99q-16 -33 -6.5 -69.5t40.5 -51.5q-41 -16 -76 -10t-52 27.5t-22.5 51.5t11.5 63q26 57 86 98q110 75 253 75q82 1 97 -22q14 -21 -15 -92zM757 896l52 85q25 40 86 22q11 -4 16 -6.5t4 -4.5q-5 -6 -31 -45q-21 -30 -38 -51q-41 -52 -106 -32
q-1 1 17 32z" />
    <glyph glyph-name="Icircumflex" unicode="&#xce;" horiz-adv-x="697" 
d="M772 666l-190 -489q-31 -79 -92 -124.5t-144 -51.5q-76 -6 -119 43q-43 50 -42 120q3 70 48 123q31 37 87 45q56 9 87 -21q-44 -20 -80 -65t-42 -95q-4 -35 9 -61.5t39 -30.5q59 -10 103 57q28 45 51 101l52 133q22 55 41 108l43 113q22 51 38 85q24 50 40 71
q-87 4 -153.5 -32t-91.5 -99q-16 -33 -6.5 -69.5t40.5 -51.5q-41 -16 -76 -10t-52 27.5t-22.5 51.5t11.5 63q26 57 86 98q110 75 253 75q82 1 97 -22q14 -21 -15 -92zM824 880q-11 11 -20 22l-19 23l-53 -40q-20 -15 -40.5 -20.5t-34.5 -2.5t-25 8.5t-17 11t-5 5.5l92 67
q18 13 41 26q71 41 123 -25l57 -72q1 -1 -7 -7q-38 -26 -73 -9q-13 5 -19 13z" />
    <glyph glyph-name="Idieresis" unicode="&#xcf;" horiz-adv-x="696" 
d="M772 666l-190 -489q-31 -79 -92 -124.5t-144 -51.5q-76 -6 -119 43q-43 50 -42 120q3 70 48 123q31 37 87 45q56 9 87 -21q-44 -20 -80 -65t-42 -95q-4 -35 9 -61.5t39 -30.5q59 -10 103 57q28 45 51 101l52 133q22 55 41 108l43 113q22 51 38 85q24 50 40 71
q-87 4 -153.5 -32t-91.5 -99q-16 -33 -6.5 -69.5t40.5 -51.5q-41 -16 -76 -10t-52 27.5t-22.5 51.5t11.5 63q26 57 86 98q110 75 253 75q82 1 97 -22q14 -21 -15 -92zM900 929q-4 -24 -23.5 -40t-43.5 -16q-27 0 -42 15.5t-11 41.5q4 24 22.5 39.5t44.5 16.5t41.5 -15.5
t11.5 -41.5zM674 986q26 1 41.5 -15.5t11.5 -41.5q-4 -24 -23 -40t-43 -16q-27 0 -42.5 15.5t-11.5 41.5q4 24 23 39.5t44 16.5z" />
    <glyph glyph-name="Ntilde" unicode="&#xd1;" horiz-adv-x="866" 
d="M569 681l-29 -77q46 50 57 61q23 23 57 51q65 56 132 56q59 0 90 -34q49 -55 -1 -185l-129 -330q-1 -1 -7 -18l-17 -45q-7 -21 -9 -46q-1 -24 11 -36q19 -15 53 -10.5t59 23.5q27 21 50 48q27 33 38 42t20 1q14 -13 1 -33q-96 -160 -254 -149q-41 2 -65 28t-26 66
q-1 47 38 146l21 54l120 306q20 56 -13 77q-43 22 -98 -22q-54 -43 -150 -153q-29 -33 -33 -38l-145 -380q-22 -58 -13 -82q-67 -7 -89 32.5t7 105.5l163 410l68 173q-123 -4 -187 -85q-47 -60 -34 -116q7 -33 37 -49q-84 -32 -125 14q-43 47 -11 115q26 57 86 98
q112 76 253 76q57 0 75 -21t-1 -74zM609 967q67 33 159 -12q34 -17 71.5 -15.5t59.5 21.5q10 5 17 12q17 -26 1 -58t-50 -44.5t-68.5 -8.5t-64.5 19q-111 55 -172 2q-5 -5 -7.5 -4t-1.5 8q2 29 28 58q13 15 28 22z" />
    <glyph glyph-name="Ograve" unicode="&#xd2;" horiz-adv-x="698" 
d="M673 282q89 13 153 74q22 20 32 25t20 -1q4 -2 4 -8t-4.5 -16t-12.5 -19q-85 -96 -222 -113q-67 -115 -168 -181q-100 -64 -209 -33q-49 14 -82.5 53.5t-46 90t-9.5 107t22 105.5q24 59 71 105q47 47 84 33q5 77 41 146q38 71 103 115q67 44 140 40q79 -5 117 -62.5
t37 -154.5q0 -77 -22 -161q-21 -83 -48 -145zM589 737q-70 10 -128 -72q-57 -81 -59 -179q1 -76 43 -128.5t112 -70.5q37 69 70 173q32 103 28 171q-6 99 -66 106zM527 233q-85 15 -147 74q-60 61 -71 143q-72 -101 -86 -220t45 -152q15 -8 36.5 -9t49.5 7.5t56.5 26.5
t59.5 51.5t57 78.5zM640 984q4 -5 22 -37q48 -77 48 -79q-67 -20 -107 31l-13 17l-56 79q0 1 4 5q30 17 65 9q23 -4 37 -25z" />
    <glyph glyph-name="Oacute" unicode="&#xd3;" horiz-adv-x="658" 
d="M635 282q89 13 153 74q22 20 32 25t20 -1q4 -2 4 -8t-4.5 -16t-12.5 -19q-85 -96 -222 -113q-67 -115 -168 -181q-100 -64 -209 -33q-49 14 -82.5 53.5t-46 90t-9.5 107t22 105.5q24 59 71 105q47 47 84 33q5 77 41 146q38 71 103 115q67 44 140 40q79 -5 117 -62.5
t37 -154.5q0 -77 -22 -161q-21 -83 -48 -145zM551 737q-70 10 -128 -72q-57 -81 -59 -179q1 -76 43 -128.5t112 -70.5q37 69 70 173q32 103 28 171q-6 99 -66 106zM489 233q-85 15 -147 74q-60 61 -71 143q-72 -101 -86 -220t45 -152q15 -8 36.5 -9t49.5 7.5t56.5 26.5
t59.5 51.5t57 78.5zM542 896l52 85q25 40 86 22q11 -4 16 -6.5t4 -4.5q-5 -6 -31 -45q-21 -30 -38 -51q-41 -52 -106 -32q-1 1 17 32z" />
    <glyph glyph-name="Ocircumflex" unicode="&#xd4;" horiz-adv-x="658" 
d="M635 282q89 13 153 74q22 20 32 25t20 -1q4 -2 4 -8t-4.5 -16t-12.5 -19q-85 -96 -222 -113q-67 -115 -168 -181q-100 -64 -209 -33q-49 14 -82.5 53.5t-46 90t-9.5 107t22 105.5q24 59 71 105q47 47 84 33q5 77 41 146q38 71 103 115q67 44 140 40q79 -5 117 -62.5
t37 -154.5q0 -77 -22 -161q-21 -83 -48 -145zM551 737q-70 10 -128 -72q-57 -81 -59 -179q1 -76 43 -128.5t112 -70.5q37 69 70 173q32 103 28 171q-6 99 -66 106zM489 233q-85 15 -147 74q-60 61 -71 143q-72 -101 -86 -220t45 -152q15 -8 36.5 -9t49.5 7.5t56.5 26.5
t59.5 51.5t57 78.5zM644 880q-11 11 -20 22l-19 23l-53 -40q-20 -15 -40.5 -20.5t-34.5 -2.5t-25 8.5t-17 11t-5 5.5l92 67q18 13 41 26q71 41 123 -25l57 -72q1 -1 -7 -7q-38 -26 -73 -9q-13 5 -19 13z" />
    <glyph glyph-name="Otilde" unicode="&#xd5;" horiz-adv-x="658" 
d="M635 282q89 13 153 74q22 20 32 25t20 -1q4 -2 4 -8t-4.5 -16t-12.5 -19q-85 -96 -222 -113q-67 -115 -168 -181q-100 -64 -209 -33q-49 14 -82.5 53.5t-46 90t-9.5 107t22 105.5q24 59 71 105q47 47 84 33q5 77 41 146q38 71 103 115q67 44 140 40q79 -5 117 -62.5
t37 -154.5q0 -77 -22 -161q-21 -83 -48 -145zM551 737q-70 10 -128 -72q-57 -81 -59 -179q1 -76 43 -128.5t112 -70.5q37 69 70 173q32 103 28 171q-6 99 -66 106zM489 233q-85 15 -147 74q-60 61 -71 143q-72 -101 -86 -220t45 -152q15 -8 36.5 -9t49.5 7.5t56.5 26.5
t59.5 51.5t57 78.5zM469 967q67 33 159 -12q34 -17 71.5 -15.5t59.5 21.5q10 5 17 12q17 -26 1 -58t-50 -44.5t-68.5 -8.5t-64.5 19q-111 55 -172 2q-5 -5 -7.5 -4t-1.5 8q2 29 28 58q13 15 28 22z" />
    <glyph glyph-name="Odieresis" unicode="&#xd6;" horiz-adv-x="658" 
d="M635 282q89 13 153 74q22 20 32 25t20 -1q4 -2 4 -8t-4.5 -16t-12.5 -19q-85 -96 -222 -113q-67 -115 -168 -181q-100 -64 -209 -33q-49 14 -82.5 53.5t-46 90t-9.5 107t22 105.5q24 59 71 105q47 47 84 33q5 77 41 146q38 71 103 115q67 44 140 40q79 -5 117 -62.5
t37 -154.5q0 -77 -22 -161q-21 -83 -48 -145zM551 737q-70 10 -128 -72q-57 -81 -59 -179q1 -76 43 -128.5t112 -70.5q37 69 70 173q32 103 28 171q-6 99 -66 106zM489 233q-85 15 -147 74q-60 61 -71 143q-72 -101 -86 -220t45 -152q15 -8 36.5 -9t49.5 7.5t56.5 26.5
t59.5 51.5t57 78.5zM754 929q-4 -24 -23.5 -40t-43.5 -16q-27 0 -42 15.5t-11 41.5q4 24 22.5 39.5t44.5 16.5t41.5 -15.5t11.5 -41.5zM528 986q26 1 41.5 -15.5t11.5 -41.5q-4 -24 -23 -40t-43 -16q-27 0 -42.5 15.5t-11.5 41.5q4 24 23 39.5t44 16.5z" />
    <glyph glyph-name="multiply" unicode="&#xd7;" horiz-adv-x="530" 
d="M412 212l-124 91l-86 -68q-40 -28 -71.5 -22.5t-33.5 37.5l127 100l-19 14q-26 19 -36 42t-3.5 40.5t24.5 23.5l96 -71l55 43q29 25 64 20q36 -4 45 -30l-101 -80l44 -32q31 -21 35 -57q6 -36 -16 -51z" />
    <glyph glyph-name="Oslash" unicode="&#xd8;" horiz-adv-x="658" 
d="M840 380q4 -2 4 -8t-4.5 -16t-12.5 -19q-85 -96 -222 -113q-66 -112 -163 -177t-201 -41q-28 -39 -43.5 -53.5t-36.5 -18.5q-12 -2 -19.5 -1t-11.5 2.5t-4 2.5l51 97q-66 45 -83.5 148t18.5 183q24 59 71 105q47 47 84 33q5 77 41 146q38 71 103 115q67 44 140 40
q26 -2 47 -9q22 46 66 63q13 6 23 4.5t15.5 -4.5t6.5 -5q0 -2 -6 -14q-8 -23 -44 -86q46 -53 46 -166q0 -77 -22 -161q-21 -83 -48 -145q89 13 153 74q22 20 32 25t20 -1zM374 564q-10 -41 -10 -85q1 -35 16 -71l181 327q-1 1 -5 1t-5 1q-51 7 -106 -46t-71 -127zM271 450
q-63 -88 -83 -198q-19 -108 21 -157l121 224q-48 54 -59 131zM377 245l-100 -176q54 3 110.5 44.5t101.5 119.5q-54 9 -98 36zM519 287q37 69 70 173q32 103 28 171q-1 22 -5 37l-184 -332q38 -36 91 -49z" />
    <glyph glyph-name="Ugrave" unicode="&#xd9;" horiz-adv-x="893" 
d="M577 624l-165 -424q-41 -108 19 -126q50 -18 109.5 31t108.5 131t89 183l100 257q26 68 18 105q2 2 15.5 2.5t32 -3.5t32.5 -20.5t15 -48t-19 -86.5l-118 -302l-21 -51q-14 -31 -24 -59q-45 -112 -16 -133q20 -16 53 -11.5t58 24.5q28 22 51 47q27 32 38.5 41t20.5 3
q14 -13 1 -33q-45 -75 -110.5 -114t-142.5 -35q-43 2 -70 34t-22 77q-66 -90 -172 -110q-62 -12 -104.5 13t-56.5 87q-7 31 3 81q10 51 21 81q6 19 37 93l26 63l99 253q13 38 18 54q-55 -3 -102 -24t-73.5 -52t-38.5 -64.5t-2 -64.5t40 -49q-38 -16 -72.5 -10t-53 27.5
t-25 52t10.5 63.5q39 85 142 131q101 46 210 44q99 0 40 -158zM739 984q4 -5 22 -37q48 -77 48 -79q-67 -20 -107 31l-13 17l-56 79q-1 1 4 5q30 17 65 9q23 -4 37 -25z" />
    <glyph glyph-name="Uacute" unicode="&#xda;" horiz-adv-x="893" 
d="M577 624l-165 -424q-41 -108 19 -126q50 -18 109.5 31t108.5 131t89 183l100 257q26 68 18 105q2 2 15.5 2.5t32 -3.5t32.5 -20.5t15 -48t-19 -86.5l-118 -302l-21 -51q-14 -31 -24 -59q-45 -112 -16 -133q20 -16 53 -11.5t58 24.5q28 22 51 47q27 32 38.5 41t20.5 3
q14 -13 1 -33q-45 -75 -110.5 -114t-142.5 -35q-43 2 -70 34t-22 77q-66 -90 -172 -110q-62 -12 -104.5 13t-56.5 87q-7 31 3 81q10 51 21 81q6 19 37 93l26 63l99 253q13 38 18 54q-55 -3 -102 -24t-73.5 -52t-38.5 -64.5t-2 -64.5t40 -49q-38 -16 -72.5 -10t-53 27.5
t-25 52t10.5 63.5q39 85 142 131q101 46 210 44q99 0 40 -158zM714 896l52 85q25 40 86 22q11 -4 16 -6.5t4 -4.5q-5 -6 -31 -45q-21 -30 -38 -51q-41 -52 -106 -32q-1 1 17 32z" />
    <glyph glyph-name="Ucircumflex" unicode="&#xdb;" horiz-adv-x="893" 
d="M577 624l-165 -424q-41 -108 19 -126q50 -18 109.5 31t108.5 131t89 183l100 257q26 68 18 105q2 2 15.5 2.5t32 -3.5t32.5 -20.5t15 -48t-19 -86.5l-118 -302l-21 -51q-14 -31 -24 -59q-45 -112 -16 -133q20 -16 53 -11.5t58 24.5q28 22 51 47q27 32 38.5 41t20.5 3
q14 -13 1 -33q-45 -75 -110.5 -114t-142.5 -35q-43 2 -70 34t-22 77q-66 -90 -172 -110q-62 -12 -104.5 13t-56.5 87q-7 31 3 81q10 51 21 81q6 19 37 93l26 63l99 253q13 38 18 54q-55 -3 -102 -24t-73.5 -52t-38.5 -64.5t-2 -64.5t40 -49q-38 -16 -72.5 -10t-53 27.5
t-25 52t10.5 63.5q39 85 142 131q101 46 210 44q99 0 40 -158zM802 880q-11 11 -20 22l-19 23l-53 -40q-20 -15 -40.5 -20.5t-34.5 -2.5t-25 8.5t-17 11t-5 5.5l92 67q18 13 41 26q71 41 123 -25l57 -72q1 -1 -7 -7q-38 -26 -73 -9q-13 5 -19 13z" />
    <glyph glyph-name="Udieresis" unicode="&#xdc;" horiz-adv-x="893" 
d="M577 624l-165 -424q-41 -108 19 -126q50 -18 109.5 31t108.5 131t89 183l100 257q26 68 18 105q2 2 15.5 2.5t32 -3.5t32.5 -20.5t15 -48t-19 -86.5l-118 -302l-21 -51q-14 -31 -24 -59q-45 -112 -16 -133q20 -16 53 -11.5t58 24.5q28 22 51 47q27 32 38.5 41t20.5 3
q14 -13 1 -33q-45 -75 -110.5 -114t-142.5 -35q-43 2 -70 34t-22 77q-66 -90 -172 -110q-62 -12 -104.5 13t-56.5 87q-7 31 3 81q10 51 21 81q6 19 37 93l26 63l99 253q13 38 18 54q-55 -3 -102 -24t-73.5 -52t-38.5 -64.5t-2 -64.5t40 -49q-38 -16 -72.5 -10t-53 27.5
t-25 52t10.5 63.5q39 85 142 131q101 46 210 44q99 0 40 -158zM912 929q-4 -24 -23.5 -40t-43.5 -16q-27 0 -42 15.5t-11 41.5q4 24 22.5 39.5t44.5 16.5t41.5 -15.5t11.5 -41.5zM686 986q26 1 41.5 -15.5t11.5 -41.5q-4 -24 -23 -40t-43 -16q-27 0 -42.5 15.5t-11.5 41.5
q4 24 23 39.5t44 16.5z" />
    <glyph glyph-name="Yacute" unicode="&#xdd;" horiz-adv-x="912" 
d="M630 37l39 9l21 62q16 50 27 75q-30 -32 -80.5 -54.5t-100.5 -24.5q-46 -2 -80 26t-45 79q-7 15 -2 49q13 74 28 115q15 42 22 58l22 52l17 42l57 146q12 34 17 53q-115 -5 -180 -80q-49 -58 -39 -112q8 -35 40 -50q-77 -32 -122 12q-45 45 -15 112q26 57 86 98
q109 74 252 76q14 0 22 -2q50 -4 58.5 -40.5t-21.5 -112.5l-122 -318q-8 -21 -9 -34q-23 -77 12 -100q34 -22 88 6q52 29 97 77q41 45 59 86l126 329q28 73 21 105l30 2q68 -5 64 -78q-2 -33 -19 -79l-209 -552q56 7 109 48t83 96q10 11 26.5 3t7.5 -26q-38 -68 -106 -121
t-140 -60q-31 -83 -85 -155q-42 -57 -104 -84q-61 -27 -112 -15q-54 12 -67 67q-13 56 18 99q38 58 101 83q21 9 54 20q19 6 54 13zM649 -13l-28 -6q-17 -3 -33 -8q-65 -19 -91 -47q-52 -47 -28 -93q14 -20 38 -14.5t47.5 23t39.5 39.5q37 51 55 106zM794 896l52 85
q25 40 86 22q11 -4 16 -6.5t4 -4.5q-5 -6 -31 -45q-21 -30 -38 -51q-41 -52 -106 -32q-1 1 17 32z" />
    <glyph glyph-name="germandbls" unicode="&#xdf;" horiz-adv-x="620" 
d="M201 592q51 102 120.5 156t139.5 57q110 5 163 -72q52 -76 12 -170q-20 -44 -54 -76.5t-59 -45t-47 -17.5l-13 -2q47 -17 77 -62t34 -100t-12 -110t-66.5 -95t-120.5 -50q-64 -9 -107 26q-40 34 -42 70q-3 59 34 81q11 5 23 -18q1 -2 2 -3q33 -64 104 -49q40 9 64 47
q45 74 7 156q-31 48 -83 65q-25 19 -12 47q13 29 54 39q71 20 112 89q24 42 22.5 82t-23.5 61.5t-56 26.5t-76 -22q-75 -48 -132 -207l-44 -115l-53 -139q-27 -80 -40 -120q-21 -67 -31 -120q-8 -1 -18 -1q-29 0 -44 7q-56 27 -14 131l46 123q104 270 133 330z" />
    <glyph glyph-name="agrave" unicode="&#xe0;" horiz-adv-x="519" 
d="M473 26q-58 -34 -113 -22q-25 5 -40.5 25.5t-13.5 46.5q-78 -84 -189 -75q-32 3 -58 24t-34 55q-14 61 8.5 132.5t78.5 136.5q46 55 115 78q70 23 114 1q23 -11 20 -28q-2 -4 -24 -5q-76 -14 -134 -88q-50 -65 -69 -143q-18 -79 20 -99q34 -15 80 14q46 30 82 82
q25 36 40 71q18 38 16 49q-27 1 -36 17q-9 11 -0.5 28t28.5 25q33 14 59.5 4.5t38.5 -39.5q17 -42 -23 -121q-12 -22 -17 -35q-6 -15 -13 -44q-5 -26 7 -36q24 -26 80 18q30 23 66 68q19 25 33 13q14 -11 1 -32q-47 -78 -123 -121zM341 634q4 -5 22 -37q48 -77 48 -79
q-67 -20 -107 31l-13 17l-56 79q-1 1 4 5q30 17 65 9q23 -4 37 -25z" />
    <glyph glyph-name="aacute" unicode="&#xe1;" horiz-adv-x="519" 
d="M473 26q-58 -34 -113 -22q-25 5 -40.5 25.5t-13.5 46.5q-78 -84 -189 -75q-32 3 -58 24t-34 55q-14 61 8.5 132.5t78.5 136.5q46 55 115 78q70 23 114 1q23 -11 20 -28q-2 -4 -24 -5q-76 -14 -134 -88q-50 -65 -69 -143q-18 -79 20 -99q34 -15 80 14q46 30 82 82
q25 36 40 71q18 38 16 49q-27 1 -36 17q-9 11 -0.5 28t28.5 25q33 14 59.5 4.5t38.5 -39.5q17 -42 -23 -121q-12 -22 -17 -35q-6 -15 -13 -44q-5 -26 7 -36q24 -26 80 18q30 23 66 68q19 25 33 13q14 -11 1 -32q-47 -78 -123 -121zM303 546l52 85q25 40 86 22q11 -4 16 -6.5
t4 -4.5q-5 -6 -31 -45q-21 -30 -38 -51q-41 -52 -106 -32q-1 1 17 32z" />
    <glyph glyph-name="acircumflex" unicode="&#xe2;" horiz-adv-x="519" 
d="M473 26q-58 -34 -113 -22q-25 5 -40.5 25.5t-13.5 46.5q-78 -84 -189 -75q-32 3 -58 24t-34 55q-14 61 8.5 132.5t78.5 136.5q46 55 115 78q70 23 114 1q23 -11 20 -28q-2 -4 -24 -5q-76 -14 -134 -88q-50 -65 -69 -143q-18 -79 20 -99q34 -15 80 14q46 30 82 82
q25 36 40 71q18 38 16 49q-27 1 -36 17q-9 11 -0.5 28t28.5 25q33 14 59.5 4.5t38.5 -39.5q17 -42 -23 -121q-12 -22 -17 -35q-6 -15 -13 -44q-5 -26 7 -36q24 -26 80 18q30 23 66 68q19 25 33 13q14 -11 1 -32q-47 -78 -123 -121zM416 530q-11 11 -20 22l-19 23l-53 -40
q-20 -15 -40.5 -20.5t-34.5 -2.5t-25 8.5t-17 11t-5 5.5l92 67q18 13 41 26q71 41 123 -25l57 -72q1 -1 -7 -7q-38 -26 -73 -9q-13 5 -19 13z" />
    <glyph glyph-name="atilde" unicode="&#xe3;" horiz-adv-x="519" 
d="M473 26q-58 -34 -113 -22q-25 5 -40.5 25.5t-13.5 46.5q-78 -84 -189 -75q-32 3 -58 24t-34 55q-14 61 8.5 132.5t78.5 136.5q46 55 115 78q70 23 114 1q23 -11 20 -28q-2 -4 -24 -5q-76 -14 -134 -88q-50 -65 -69 -143q-18 -79 20 -99q34 -15 80 14q46 30 82 82
q25 36 40 71q18 38 16 49q-27 1 -36 17q-9 11 -0.5 28t28.5 25q33 14 59.5 4.5t38.5 -39.5q17 -42 -23 -121q-12 -22 -17 -35q-6 -15 -13 -44q-5 -26 7 -36q24 -26 80 18q30 23 66 68q19 25 33 13q14 -11 1 -32q-47 -78 -123 -121zM233 617q67 33 159 -12q34 -17 71.5 -15.5
t59.5 21.5q10 5 17 12q17 -26 1 -58t-50 -44.5t-68.5 -8.5t-64.5 19q-111 55 -172 2q-5 -5 -7.5 -4t-1.5 8q2 29 28 58q12 13 28 22z" />
    <glyph glyph-name="adieresis" unicode="&#xe4;" horiz-adv-x="519" 
d="M473 26q-58 -34 -113 -22q-25 5 -40.5 25.5t-13.5 46.5q-78 -84 -189 -75q-32 3 -58 24t-34 55q-14 61 8.5 132.5t78.5 136.5q46 55 115 78q70 23 114 1q23 -11 20 -28q-2 -4 -24 -5q-76 -14 -134 -88q-50 -65 -69 -143q-18 -79 20 -99q34 -15 80 14q46 30 82 82
q25 36 40 71q18 38 16 49q-27 1 -36 17q-9 11 -0.5 28t28.5 25q33 14 59.5 4.5t38.5 -39.5q17 -42 -23 -121q-12 -22 -17 -35q-6 -15 -13 -44q-5 -26 7 -36q24 -26 80 18q30 23 66 68q19 25 33 13q14 -11 1 -32q-47 -78 -123 -121zM537 579q-4 -24 -23.5 -40t-43.5 -16
q-27 0 -42 15.5t-11 41.5q4 24 22.5 39.5t44.5 16.5t41.5 -15.5t11.5 -41.5zM311 636q26 1 41.5 -15.5t11.5 -41.5q-4 -24 -23 -40t-43 -16q-27 0 -42.5 15.5t-11.5 41.5q4 24 23 39.5t44 16.5z" />
    <glyph glyph-name="aring" unicode="&#xe5;" horiz-adv-x="519" 
d="M473 26q-58 -34 -113 -22q-25 5 -40.5 25.5t-13.5 46.5q-78 -84 -189 -75q-32 3 -58 24t-34 55q-14 61 8.5 132.5t78.5 136.5q46 55 115 78q70 23 114 1q23 -11 20 -28q-2 -4 -24 -5q-76 -14 -134 -88q-50 -65 -69 -143q-18 -79 20 -99q34 -15 80 14q46 30 82 82
q25 36 40 71q18 38 16 49q-27 1 -36 17q-9 11 -0.5 28t28.5 25q33 14 59.5 4.5t38.5 -39.5q17 -42 -23 -121q-12 -22 -17 -35q-6 -15 -13 -44q-5 -26 7 -36q24 -26 80 18q30 23 66 68q19 25 33 13q14 -11 1 -32q-47 -78 -123 -121zM391 616q-37 0 -45 -38q-3 -14 7 -25.5
t25 -11.5q39 0 45 37q6 38 -32 38zM394 665q43 -1 68 -24.5t18 -63.5q-4 -39 -33.5 -61.5t-71.5 -22.5q-43 0 -68 24.5t-19 64.5q5 37 35 60t71 23z" />
    <glyph glyph-name="ae" unicode="&#xe6;" horiz-adv-x="759" 
d="M364 351q37 19 70 -1q78 88 174 94q50 3 88.5 -14.5t52.5 -54.5q19 -51 -13 -108q-31 -53 -91 -81q-39 -19 -98 -27q-55 -7 -92 1q-11 -34 7 -65q13 -23 46 -34q50 -15 119 1q123 30 209 156q10 14 26 4q18 -10 4 -35q-43 -67 -74 -95q-134 -121 -307 -104q-57 8 -94 37
q-39 30 -47 83q-54 -66 -115 -88q-65 -23 -112 -19q-32 3 -58 24t-34 55q-14 61 8.5 132.5t78.5 136.5q46 55 115 78q70 23 114 1q23 -11 20 -28q-2 -4 -24 -5q-76 -14 -134 -88q-50 -65 -69 -143q-18 -79 20 -99q34 -15 80 14q46 30 82 82q25 36 40 71q18 38 16 49
q-27 1 -36 17q-9 11 -0.5 28t28.5 25zM465 203q120 0 175 76q34 46 22 86q-6 20 -22 24q-46 12 -99 -48q-29 -36 -49 -73q-22 -42 -27 -65z" />
    <glyph glyph-name="ccedilla" unicode="&#xe7;" horiz-adv-x="431" 
d="M135 98q13 -26 48 -36q55 -16 123 0q121 31 205 156q10 12 25 4q19 -12 4 -35q-124 -198 -335 -201l-15 -31q42 -6 60 -37q18 -40 2 -71q-17 -33 -56 -47q-39 -16 -78 -5q-27 7 -39.5 26.5t-4.5 40.5q22 -26 65 -19q26 6 39 24.5t1 37.5q-5 8 -30 11t-28 10q-2 5 1 15
q6 15 14 29q10 19 10 20q-46 7 -81 35q-46 37 -47 107q0 70 33 136q34 66 97 119q63 51 135 56q47 3 83.5 -14.5t50.5 -55.5q10 -28 2.5 -59t-27.5 -50q-23 -27 -52 -27.5t-44 23.5q14 12 26 35t14 41q3 39 -23 47q-29 10 -73 -28q-52 -40 -91 -126q-37 -85 -14 -131z" />
    <glyph glyph-name="egrave" unicode="&#xe8;" horiz-adv-x="433" 
d="M17 136q-1 62 34 133q36 70 98 120t133 55q50 3 88.5 -14.5t52.5 -54.5q19 -51 -13 -108q-31 -53 -91 -81q-39 -19 -98 -27q-55 -7 -92 1q-11 -34 7 -65q13 -23 46 -34q50 -15 119 1q123 30 209 156q10 14 26 4q18 -10 4 -35q-43 -67 -74 -95q-134 -121 -307 -104
q-57 8 -94 37q-48 37 -48 111zM139 203q120 0 175 76q34 46 22 86q-6 20 -22 24q-46 12 -99 -48q-29 -36 -49 -73q-22 -42 -27 -65zM274 633q4 -5 22 -37q48 -77 48 -79q-67 -20 -107 31l-13 17l-56 79l4 5q30 17 65 9q23 -4 37 -25z" />
    <glyph glyph-name="eacute" unicode="&#xe9;" horiz-adv-x="433" 
d="M17 136q-1 62 34 133q36 70 98 120t133 55q50 3 88.5 -14.5t52.5 -54.5q19 -51 -13 -108q-31 -53 -91 -81q-39 -19 -98 -27q-55 -7 -92 1q-11 -34 7 -65q13 -23 46 -34q50 -15 119 1q123 30 209 156q10 14 26 4q18 -10 4 -35q-43 -67 -74 -95q-134 -121 -307 -104
q-57 8 -94 37q-48 37 -48 111zM139 203q120 0 175 76q34 46 22 86q-6 20 -22 24q-46 12 -99 -48q-29 -36 -49 -73q-22 -42 -27 -65zM280 547l52 85q25 40 86 22q11 -4 16 -6.5t4 -4.5q-5 -6 -31 -45q-21 -30 -38 -51q-41 -52 -106 -32q-1 1 17 32z" />
    <glyph glyph-name="ecircumflex" unicode="&#xea;" horiz-adv-x="433" 
d="M17 136q-1 62 34 133q36 70 98 120t133 55q50 3 88.5 -14.5t52.5 -54.5q19 -51 -13 -108q-31 -53 -91 -81q-39 -19 -98 -27q-55 -7 -92 1q-11 -34 7 -65q13 -23 46 -34q50 -15 119 1q123 30 209 156q10 14 26 4q18 -10 4 -35q-43 -67 -74 -95q-134 -121 -307 -104
q-57 8 -94 37q-48 37 -48 111zM139 203q120 0 175 76q34 46 22 86q-6 20 -22 24q-46 12 -99 -48q-29 -36 -49 -73q-22 -42 -27 -65zM384 532q-11 11 -20 22l-19 23l-53 -40q-20 -15 -40.5 -20.5t-34.5 -2.5t-25 8.5t-17 11t-5 5.5l92 67q18 13 41 26q71 41 123 -25l57 -72
q1 -1 -7 -7q-38 -26 -73 -9q-13 5 -19 13z" />
    <glyph glyph-name="edieresis" unicode="&#xeb;" horiz-adv-x="433" 
d="M17 136q-1 62 34 133q36 70 98 120t133 55q50 3 88.5 -14.5t52.5 -54.5q19 -51 -13 -108q-31 -53 -91 -81q-39 -19 -98 -27q-55 -7 -92 1q-11 -34 7 -65q13 -23 46 -34q50 -15 119 1q123 30 209 156q10 14 26 4q18 -10 4 -35q-43 -67 -74 -95q-134 -121 -307 -104
q-57 8 -94 37q-48 37 -48 111zM139 203q120 0 175 76q34 46 22 86q-6 20 -22 24q-46 12 -99 -48q-29 -36 -49 -73q-22 -42 -27 -65zM489 580q-4 -24 -23.5 -40t-43.5 -16q-27 0 -42 15.5t-11 41.5q4 24 22.5 39.5t44.5 16.5t41.5 -15.5t11.5 -41.5zM263 637q26 1 41.5 -15.5
t11.5 -41.5q-4 -24 -23 -40t-43 -16q-27 0 -42.5 15.5t-11.5 41.5q4 24 23 39.5t44 16.5z" />
    <glyph glyph-name="igrave" unicode="&#xec;" horiz-adv-x="257" 
d="M178 258l-17 -35q-82 -160 9 -152q8 0 16 2q34 7 89 62l28 32q17 25 34 14q12 -12 1 -33q-54 -91 -141 -131q-30 -16 -66.5 -19.5t-70.5 12.5t-47 52q-15 26 6 101q9 26 14 39q12 29 15 34l16 34l19 41q16 35 16 36q24 61 17 86q35 10 64 -11q28 -19 28 -51q1 -25 -7 -53
q-9 -31 -23 -60zM160 633q4 -5 22 -37q48 -77 48 -79q-67 -20 -107 31l-13 17l-56 79l4 5q30 17 65 9q23 -4 37 -25z" />
    <glyph glyph-name="iacute" unicode="&#xed;" horiz-adv-x="257" 
d="M178 258l-17 -35q-82 -160 9 -152q8 0 16 2q34 7 89 62l28 32q17 25 34 14q12 -12 1 -33q-54 -91 -141 -131q-30 -16 -66.5 -19.5t-70.5 12.5t-47 52q-15 26 6 101q9 26 14 39q12 29 15 34l16 34l19 41q16 35 16 36q24 61 17 86q35 10 64 -11q28 -19 28 -51q1 -25 -7 -53
q-9 -31 -23 -60zM173 547l52 85q25 40 86 22q11 -4 16 -6.5t4 -4.5q-5 -6 -31 -45q-21 -30 -38 -51q-41 -52 -106 -32q-1 1 17 32z" />
    <glyph glyph-name="icircumflex" unicode="&#xee;" horiz-adv-x="259" 
d="M178 258l-17 -35q-82 -160 9 -152q8 0 16 2q34 7 89 62l28 32q17 25 34 14q12 -12 1 -33q-54 -91 -141 -131q-30 -16 -66.5 -19.5t-70.5 12.5t-47 52q-15 26 6 101q9 26 14 39q12 29 15 34l16 34l19 41q16 35 16 36q24 61 17 86q35 10 64 -11q28 -19 28 -51q1 -25 -7 -53
q-9 -31 -23 -60zM251 532q-11 11 -20 22l-19 23l-53 -40q-20 -15 -40.5 -20.5t-34.5 -2.5t-25 8.5t-17 11t-5 5.5l92 67q18 13 41 26q71 41 123 -25l57 -72q1 -1 -7 -7q-38 -26 -73 -9q-13 5 -19 13z" />
    <glyph glyph-name="idieresis" unicode="&#xef;" horiz-adv-x="257" 
d="M178 258l-17 -35q-82 -160 9 -152q8 0 16 2q34 7 89 62l28 32q17 25 34 14q12 -12 1 -33q-54 -91 -141 -131q-30 -16 -66.5 -19.5t-70.5 12.5t-47 52q-15 26 6 101q9 26 14 39q12 29 15 34l16 34l19 41q16 35 16 36q24 61 17 86q35 10 64 -11q28 -19 28 -51q1 -25 -7 -53
q-9 -31 -23 -60zM340 580q-4 -24 -23.5 -40t-43.5 -16q-27 0 -42 15.5t-11 41.5q4 24 22.5 39.5t44.5 16.5t41.5 -15.5t11.5 -41.5zM114 637q26 1 41.5 -15.5t11.5 -41.5q-4 -24 -23 -40t-43 -16q-27 0 -42.5 15.5t-11.5 41.5q4 24 23 39.5t44 16.5z" />
    <glyph glyph-name="ntilde" unicode="&#xf1;" horiz-adv-x="521" 
d="M398 136q-12 -42 3 -56q20 -25 71 0q47 28 93 87q19 24 35 14q12 -12 1 -33q-39 -64 -95 -103t-116 -44q-78 -7 -99 59q-10 30 0 73q18 80 69 175q4 8 1.5 11.5t-10.5 2.5q-18 0 -44 -20q-39 -30 -80 -74t-78 -108t-37 -120q-78 -1 -100 63q-20 59 37 174l13 25
q23 43 31 61q10 20 13 34q12 51 5 67q59 14 84 -21q21 -28 0 -83q-14 -32 -22 -48q-34 -64 -29 -72l17 26q47 68 116 126q70 58 115 74q43 16 69 -5q26 -24 31.5 -42t-5.5 -45q-7 -17 -42 -91q-29 -60 -47 -107zM203 618q67 33 159 -12q34 -17 71.5 -15.5t59.5 21.5
q10 5 17 12q17 -26 1 -58t-50 -44.5t-68.5 -8.5t-64.5 19q-111 55 -172 2q-5 -5 -7.5 -4t-1.5 8q2 29 28 58q12 13 28 22z" />
    <glyph glyph-name="ograve" unicode="&#xf2;" horiz-adv-x="489" 
d="M345 403l-13 -2q-12 -2 -17 -4q-53 -15 -101 -75q-47 -59 -70 -126q-19 -54 -14 -95.5t32 -50.5q49 -16 106 42q58 61 77 134q14 47 1 63q-6 8 -15 1q-6 -4 -14.5 0.5t-12 16t5.5 28.5q15 23 43.5 33t61.5 -10q26 -23 27 -26q31 -14 69 -8q64 10 106 36q13 9 26 -3
q15 -15 -9 -38q-19 -17 -78 -35t-103 -9q3 -31 -10 -73t-32 -73q-32 -59 -98 -98q-67 -39 -139 -38q-73 0 -118 48q-19 19 -24 47q-15 59 6.5 131.5t73.5 135.5q42 51 105 74t106 2q25 -10 22 -28zM350 635q4 -5 22 -37q48 -77 48 -79q-67 -20 -107 31l-13 17l-56 79l4 5
q30 17 65 9q23 -4 37 -25z" />
    <glyph glyph-name="oacute" unicode="&#xf3;" horiz-adv-x="489" 
d="M345 403l-13 -2q-12 -2 -17 -4q-53 -15 -101 -75q-47 -59 -70 -126q-19 -54 -14 -95.5t32 -50.5q49 -16 106 42q58 61 77 134q14 47 1 63q-6 8 -15 1q-6 -4 -14.5 0.5t-12 16t5.5 28.5q15 23 43.5 33t61.5 -10q26 -23 27 -26q31 -14 69 -8q64 10 106 36q13 9 26 -3
q15 -15 -9 -38q-19 -17 -78 -35t-103 -9q3 -31 -10 -73t-32 -73q-32 -59 -98 -98q-67 -39 -139 -38q-73 0 -118 48q-19 19 -24 47q-15 59 6.5 131.5t73.5 135.5q42 51 105 74t106 2q25 -10 22 -28zM290 547l52 85q25 40 86 22q11 -4 16 -6.5t4 -4.5q-5 -6 -31 -45
q-21 -30 -38 -51q-41 -52 -106 -32q-1 1 17 32z" />
    <glyph glyph-name="ocircumflex" unicode="&#xf4;" horiz-adv-x="489" 
d="M345 403l-13 -2q-12 -2 -17 -4q-53 -15 -101 -75q-47 -59 -70 -126q-19 -54 -14 -95.5t32 -50.5q49 -16 106 42q58 61 77 134q14 47 1 63q-6 8 -15 1q-6 -4 -14.5 0.5t-12 16t5.5 28.5q15 23 43.5 33t61.5 -10q26 -23 27 -26q31 -14 69 -8q64 10 106 36q13 9 26 -3
q15 -15 -9 -38q-19 -17 -78 -35t-103 -9q3 -31 -10 -73t-32 -73q-32 -59 -98 -98q-67 -39 -139 -38q-73 0 -118 48q-19 19 -24 47q-15 59 6.5 131.5t73.5 135.5q42 51 105 74t106 2q25 -10 22 -28zM399 531q-11 11 -20 22l-19 23l-53 -40q-20 -15 -40.5 -20.5t-34.5 -2.5
t-25 8.5t-17 11t-5 5.5l92 67q18 13 41 26q71 41 123 -25l57 -72q1 -1 -7 -7q-38 -26 -73 -9q-13 5 -19 13z" />
    <glyph glyph-name="otilde" unicode="&#xf5;" horiz-adv-x="489" 
d="M345 403l-13 -2q-12 -2 -17 -4q-53 -15 -101 -75q-47 -59 -70 -126q-19 -54 -14 -95.5t32 -50.5q49 -16 106 42q58 61 77 134q14 47 1 63q-6 8 -15 1q-6 -4 -14.5 0.5t-12 16t5.5 28.5q15 23 43.5 33t61.5 -10q26 -23 27 -26q31 -14 69 -8q64 10 106 36q13 9 26 -3
q15 -15 -9 -38q-19 -17 -78 -35t-103 -9q3 -31 -10 -73t-32 -73q-32 -59 -98 -98q-67 -39 -139 -38q-73 0 -118 48q-19 19 -24 47q-15 59 6.5 131.5t73.5 135.5q42 51 105 74t106 2q25 -10 22 -28zM225 618q67 33 159 -12q34 -17 71.5 -15.5t59.5 21.5q10 5 17 12
q17 -26 1 -58t-50 -44.5t-68.5 -8.5t-64.5 19q-111 55 -172 2q-5 -5 -7.5 -4t-1.5 8q2 29 28 58q12 13 28 22z" />
    <glyph glyph-name="odieresis" unicode="&#xf6;" horiz-adv-x="489" 
d="M345 403l-13 -2q-12 -2 -17 -4q-53 -15 -101 -75q-47 -59 -70 -126q-19 -54 -14 -95.5t32 -50.5q49 -16 106 42q58 61 77 134q14 47 1 63q-6 8 -15 1q-6 -4 -14.5 0.5t-12 16t5.5 28.5q15 23 43.5 33t61.5 -10q26 -23 27 -26q31 -14 69 -8q64 10 106 36q13 9 26 -3
q15 -15 -9 -38q-19 -17 -78 -35t-103 -9q3 -31 -10 -73t-32 -73q-32 -59 -98 -98q-67 -39 -139 -38q-73 0 -118 48q-19 19 -24 47q-15 59 6.5 131.5t73.5 135.5q42 51 105 74t106 2q25 -10 22 -28zM497 580q-4 -24 -23.5 -40t-43.5 -16q-27 0 -42 15.5t-11 41.5
q4 24 22.5 39.5t44.5 16.5t41.5 -15.5t11.5 -41.5zM271 637q26 1 41.5 -15.5t11.5 -41.5q-4 -24 -23 -40t-43 -16q-27 0 -42.5 15.5t-11.5 41.5q4 24 23 39.5t44 16.5z" />
    <glyph glyph-name="divide" unicode="&#xf7;" horiz-adv-x="730" 
d="M560 175l-413 -3q-21 0 -39 -5l-4 -2q-2 2 -6 20q-6 31 18 51.5t62 21.5l424 3q27 0 42 7q17 -36 -5.5 -64t-78.5 -29zM243 12q0 30 21 51q20 21 50 21q28 0 45 -18q18 -18 17.5 -44.5t-20.5 -49.5q-20 -20 -53 -20q-26 0 -43 17t-17 43zM338 399q0 30 21 51q19 21 50 21
q29 0 45 -18q18 -18 17.5 -44.5t-20.5 -49.5q-20 -20 -53 -20q-26 0 -43 17t-17 43z" />
    <glyph glyph-name="oslash" unicode="&#xf8;" horiz-adv-x="498" 
d="M303 435l11 24q17 37 46 57q31 21 56 5q-8 -23 -65 -158q35 17 64 -8q26 -23 27 -26q31 -14 69 -8q64 10 106 36q13 9 26 -3q15 -15 -9 -38q-19 -17 -78 -35t-103 -9q3 -31 -10 -73t-32 -73q-30 -58 -95 -96q-66 -39 -131 -40q-23 -44 -57 -54q-9 -4 -19 -5t-16 0t-7 2
l-2 1l30 66q-69 25 -82 85q-15 59 6.5 131.5t73.5 135.5q39 46 93 69q55 24 98 14zM320 293l-105 -240q36 15 70.5 55.5t53.5 88.5q7 18 10 39t1.5 35t-8.5 13q-16 5 -22 9zM141 62l136 315q-44 -30 -79.5 -80t-53.5 -104q-32 -92 -3 -131z" />
    <glyph glyph-name="ugrave" unicode="&#xf9;" 
d="M406 134q-12 -39 5 -54q11 -12 26 -13.5t31 7t31 19t30.5 26.5t24.5 26.5t18 21.5q19 25 34 14q14 -13 1 -33q-55 -92 -144 -130q-25 -11 -52.5 -15t-55.5 0t-46 27t-18 63q-38 -48 -88.5 -73.5t-100.5 -21.5q-68 5 -89 64q-13 57 12 124q13 39 27 66q41 80 46 95
q24 60 18 86q54 13 81 -24q26 -37 2 -89q-65 -143 -79 -182q-18 -70 29 -72q115 -8 237 282q23 56 15 86q56 14 82 -29q26 -41 2 -94q-71 -153 -79 -177zM306 634q4 -5 22 -37q48 -77 48 -79q-67 -20 -107 31l-13 17l-56 79q0 1 4 5q30 17 65 9q23 -4 37 -25z" />
    <glyph glyph-name="uacute" unicode="&#xfa;" 
d="M406 134q-12 -39 5 -54q11 -12 26 -13.5t31 7t31 19t30.5 26.5t24.5 26.5t18 21.5q19 25 34 14q14 -13 1 -33q-55 -92 -144 -130q-25 -11 -52.5 -15t-55.5 0t-46 27t-18 63q-38 -48 -88.5 -73.5t-100.5 -21.5q-68 5 -89 64q-13 57 12 124q13 39 27 66q41 80 46 95
q24 60 18 86q54 13 81 -24q26 -37 2 -89q-65 -143 -79 -182q-18 -70 29 -72q115 -8 237 282q23 56 15 86q56 14 82 -29q26 -41 2 -94q-71 -153 -79 -177zM302 546l52 85q25 40 86 22q11 -4 16 -6.5t4 -4.5q-5 -6 -31 -45q-21 -30 -38 -51q-41 -52 -106 -32q-1 1 17 32z" />
    <glyph glyph-name="ucircumflex" unicode="&#xfb;" 
d="M406 134q-12 -39 5 -54q11 -12 26 -13.5t31 7t31 19t30.5 26.5t24.5 26.5t18 21.5q19 25 34 14q14 -13 1 -33q-55 -92 -144 -130q-25 -11 -52.5 -15t-55.5 0t-46 27t-18 63q-38 -48 -88.5 -73.5t-100.5 -21.5q-68 5 -89 64q-13 57 12 124q13 39 27 66q41 80 46 95
q24 60 18 86q54 13 81 -24q26 -37 2 -89q-65 -143 -79 -182q-18 -70 29 -72q115 -8 237 282q23 56 15 86q56 14 82 -29q26 -41 2 -94q-71 -153 -79 -177zM362 530q-11 11 -20 22l-19 23l-53 -40q-20 -15 -40.5 -20.5t-34.5 -2.5t-25 8.5t-17 11t-5 5.5l92 67q18 13 41 26
q71 41 123 -25l57 -72q1 -1 -7 -7q-38 -26 -73 -9q-13 5 -19 13z" />
    <glyph glyph-name="udieresis" unicode="&#xfc;" 
d="M406 134q-12 -39 5 -54q11 -12 26 -13.5t31 7t31 19t30.5 26.5t24.5 26.5t18 21.5q19 25 34 14q14 -13 1 -33q-55 -92 -144 -130q-25 -11 -52.5 -15t-55.5 0t-46 27t-18 63q-38 -48 -88.5 -73.5t-100.5 -21.5q-68 5 -89 64q-13 57 12 124q13 39 27 66q41 80 46 95
q24 60 18 86q54 13 81 -24q26 -37 2 -89q-65 -143 -79 -182q-18 -70 29 -72q115 -8 237 282q23 56 15 86q56 14 82 -29q26 -41 2 -94q-71 -153 -79 -177zM495 579q-4 -24 -23.5 -40t-43.5 -16q-27 0 -42 15.5t-11 41.5q4 24 22.5 39.5t44.5 16.5t41.5 -15.5t11.5 -41.5z
M269 636q26 1 41.5 -15.5t11.5 -41.5q-4 -24 -23 -40t-43 -16q-27 0 -42.5 15.5t-11.5 41.5q4 24 23 39.5t44 16.5z" />
    <glyph glyph-name="yacute" unicode="&#xfd;" horiz-adv-x="496" 
d="M489 310l-90 -231l-12 -34l56 33q21 14 60 50q38 35 61 76q4 13 23 4q19 -10 11 -27q-50 -86 -123 -136q-45 -29 -109 -60l-28 -79q-48 -125 -74 -165q-48 -77 -124 -117q-73 -36 -139 -13q-36 13 -51.5 41t-13 58t17.5 60q14 29 47 71q5 6 66 55l43 27l45 25
q38 19 56 29q53 27 59 31l19 55q19 54 25 69q-50 -66 -125 -107q-74 -40 -129 -14q-32 15 -45 51q-9 16 -6 42q6 49 25 94q16 38 22 50q19 35 46 97q24 61 17 87q56 15 82 -23q25 -35 2 -91l-76 -166q-6 -14 -7 -24q-10 -47 22 -52q53 -8 121 66q69 74 111 165q11 22 22 64
q11 41 6 61q52 12 83 -19q34 -34 4 -103zM228 -114l24 59q-98 -49 -162 -96q-46 -33 -69 -73.5t-19.5 -68.5t25.5 -34q60 -24 114 49q42 54 67 115zM285 549l52 85q25 40 86 22q11 -4 16 -6.5t4 -4.5q-5 -6 -31 -45q-21 -30 -38 -51q-41 -52 -106 -32q-1 1 17 32z" />
    <glyph glyph-name="ydieresis" unicode="&#xff;" horiz-adv-x="496" 
d="M489 310l-90 -231l-12 -34l56 33q21 14 60 50q38 35 61 76q4 13 23 4q19 -10 11 -27q-50 -86 -123 -136q-45 -29 -109 -60l-28 -79q-48 -125 -74 -165q-48 -77 -124 -117q-73 -36 -139 -13q-36 13 -51.5 41t-13 58t17.5 60q14 29 47 71q5 6 66 55l43 27l45 25
q38 19 56 29q53 27 59 31l19 55q19 54 25 69q-50 -66 -125 -107q-74 -40 -129 -14q-32 15 -45 51q-9 16 -6 42q6 49 25 94q16 38 22 50q19 35 46 97q24 61 17 87q56 15 82 -23q25 -35 2 -91l-76 -166q-6 -14 -7 -24q-10 -47 22 -52q53 -8 121 66q69 74 111 165q11 22 22 64
q11 41 6 61q52 12 83 -19q34 -34 4 -103zM228 -114l24 59q-98 -49 -162 -96q-46 -33 -69 -73.5t-19.5 -68.5t25.5 -34q60 -24 114 49q42 54 67 115zM496 582q-4 -24 -23.5 -40t-43.5 -16q-27 0 -42 15.5t-11 41.5q4 24 22.5 39.5t44.5 16.5t41.5 -15.5t11.5 -41.5zM270 639
q26 1 41.5 -15.5t11.5 -41.5q-4 -24 -23 -40t-43 -16q-27 0 -42.5 15.5t-11.5 41.5q4 24 23 39.5t44 16.5z" />
    <glyph glyph-name="Amacron" unicode="&#x100;" horiz-adv-x="776" 
d="M867 891l-229 -3q-25 0 -43 -7q-15 38 3.5 59t64.5 22l246 3q32 0 42 7q15 -39 -5 -59.5t-79 -21.5zM482 364q123 0 149 1q101 297 103 304q6 23 -0.5 37t-22.5 14q-25 1 -46 -20q-19 -19 -59 -92q-23 -41 -85 -164zM349 311q-78 -1 -131 -24t-87 -80q-32 -52 -28 -101
t41 -56q53 -12 118 104zM736 364q73 0 84 1q3 -21 -9.5 -31.5t-36.5 -15.5q-34 -2 -39 -2h-14q-41 -131 -79 -256l-8 -25q-1 -3 -9 -16q-10 -18 -54 -18q-53 0 -54 25q20 68 65 195q3 9 32 91q-42 0 -80 -1h-78l-9 -19l-20 -43l-21 -41q-12 -26 -25 -46l-27 -40
q-22 -32 -32 -41q-54 -51 -75 -61q-52 -23 -94 -24q-95 -2 -129 69q-35 72 23 178q54 90 168 112q92 17 161 13l150 275q32 57 69.5 92t67.5 42q25 7 66 5q46 -1 75 -44q30 -40 16 -91q-43 -156 -84 -283z" />
    <glyph glyph-name="amacron" unicode="&#x101;" horiz-adv-x="519" 
d="M463 531l-229 -3q-25 0 -43 -7q-15 38 3.5 59t64.5 22l246 3q32 0 42 7q15 -39 -5 -59.5t-79 -21.5zM473 26q-58 -34 -113 -22q-25 5 -40.5 25.5t-13.5 46.5q-78 -84 -189 -75q-32 3 -58 24t-34 55q-14 61 8.5 132.5t78.5 136.5q46 55 115 78q70 23 114 1q23 -11 20 -28
q-2 -4 -24 -5q-76 -14 -134 -88q-50 -65 -69 -143q-18 -79 20 -99q34 -15 80 14q46 30 82 82q25 36 40 71q18 38 16 49q-27 1 -36 17q-9 11 -0.5 28t28.5 25q33 14 59.5 4.5t38.5 -39.5q17 -42 -23 -121q-12 -22 -17 -35q-6 -15 -13 -44q-5 -26 7 -36q24 -26 80 18
q30 23 66 68q19 25 33 13q14 -11 1 -32q-47 -78 -123 -121z" />
    <glyph glyph-name="Abreve" unicode="&#x102;" horiz-adv-x="777" 
d="M482 364q123 0 149 1q101 297 103 304q6 23 -0.5 37t-22.5 14q-25 1 -46 -20q-19 -19 -59 -92q-23 -41 -85 -164zM349 311q-78 -1 -131 -24t-87 -80q-32 -52 -28 -101t41 -56q53 -12 118 104zM736 364q73 0 84 1q3 -21 -9.5 -31.5t-36.5 -15.5q-34 -2 -39 -2h-14
q-41 -131 -79 -256l-8 -25q-1 -3 -9 -16q-10 -18 -54 -18q-53 0 -54 25q20 68 65 195q3 9 32 91q-42 0 -80 -1h-78l-9 -19l-20 -43l-21 -41q-12 -26 -25 -46l-27 -40q-22 -32 -32 -41q-54 -51 -75 -61q-52 -23 -94 -24q-95 -2 -129 69q-35 72 23 178q54 90 168 112
q92 17 161 13l150 275q32 57 69.5 92t67.5 42q25 7 66 5q46 -1 75 -44q30 -40 16 -91q-43 -156 -84 -283zM708 1026q-4 -26 14 -47t55 -21q82 0 114 68q47 -30 23 -75q-24 -46 -93 -62q-32 -8 -61 -7q-60 2 -91 37q-31 37 -4 79q7 11 17.5 18.5t17.5 9t8 0.5z" />
    <glyph glyph-name="abreve" unicode="&#x103;" horiz-adv-x="519" 
d="M473 26q-58 -34 -113 -22q-25 5 -40.5 25.5t-13.5 46.5q-78 -84 -189 -75q-32 3 -58 24t-34 55q-14 61 8.5 132.5t78.5 136.5q46 55 115 78q70 23 114 1q23 -11 20 -28q-2 -4 -24 -5q-76 -14 -134 -88q-50 -65 -69 -143q-18 -79 20 -99q34 -15 80 14q46 30 82 82
q25 36 40 71q18 38 16 49q-27 1 -36 17q-9 11 -0.5 28t28.5 25q33 14 59.5 4.5t38.5 -39.5q17 -42 -23 -121q-12 -22 -17 -35q-6 -15 -13 -44q-5 -26 7 -36q24 -26 80 18q30 23 66 68q19 25 33 13q14 -11 1 -32q-47 -78 -123 -121zM315 676q-4 -26 14 -47t55 -21
q82 0 114 68q47 -30 23 -75q-24 -46 -93 -62q-33 -8 -61 -7q-60 2 -91 37q-31 37 -4 79q7 11 17.5 18.5t17.5 9t8 0.5z" />
    <glyph glyph-name="Aogonek" unicode="&#x104;" horiz-adv-x="777" 
d="M521 444l-39 -80q123 0 149 1q101 297 103 304q6 23 -0.5 37t-22.5 14q-19 1 -38 -14q-17 -13 -28 -30l-31 -54l-8 -14q-23 -41 -85 -164zM262 154l87 157q-78 -1 -131 -24t-87 -80q-32 -52 -28 -101t41 -56q53 -12 118 104zM736 364q73 0 84 1q2 -11 -2 -19.5t-9 -12.5
t-15 -10q-8 -3 -40 -7h-33q-41 -131 -79 -256q-2 -5 -5 -16t-5 -15.5t-6.5 -10.5t-10.5 -9q-79 -75 -51 -126q17 -24 44 -19.5t46 28.5q19 -36 -19 -68q-36 -31 -86 -26q-35 2 -56 29q-24 29 -19 62t28 63t57 52q-42 17 -42 22q15 49 28 87l37 108q3 9 32 91q-42 0 -80 -1
h-78q-62 -130 -94 -178q-91 -132 -209 -137q-95 -2 -129 69q-35 72 23 178q54 90 168 112q92 17 161 13l150 275q35 62 71 94q37 32 66 40q25 7 66 5q46 -1 75 -44q30 -40 16 -91q-43 -156 -84 -283z" />
    <glyph glyph-name="aogonek" unicode="&#x105;" horiz-adv-x="519" 
d="M399 -202q-35 2 -56 29q-23 27 -21 59t17.5 59.5t42.5 54.5q-9 1 -22 4q-25 5 -40.5 25.5t-13.5 46.5q-78 -84 -189 -75q-32 3 -58 24t-34 55q-14 61 8.5 132.5t78.5 136.5q46 55 115 78q70 23 114 1q23 -11 20 -28q-2 -4 -24 -5q-76 -14 -134 -88q-50 -65 -69 -143
q-18 -79 20 -99q34 -15 80 14q46 30 82 82q25 36 40 71q18 38 16 49q-27 1 -36 17q-9 11 -0.5 28t28.5 25q33 14 59.5 4.5t38.5 -39.5q17 -42 -23 -121q-12 -22 -17 -35q-6 -15 -13 -44q-5 -26 7 -36q24 -26 80 18q30 23 66 68q19 25 33 13q14 -11 1 -32q-35 -60 -92 -101
l-19 -18q-9 -8 -44 -43q-51 -60 -27 -102q17 -24 44 -19.5t46 28.5q19 -36 -19 -68q-36 -31 -86 -26z" />
    <glyph glyph-name="Cacute" unicode="&#x106;" horiz-adv-x="514" 
d="M482 719q-37 17 -84.5 -12t-92.5 -91q-90 -124 -130 -248q-19 -63 -25 -106q-7 -47 1 -100q9 -50 40 -72q54 -32 136 -4q83 29 167 90q83 60 130 124q15 22 27 12q14 -13 -11 -58l-7 -11q-52 -78 -140 -142q-87 -63 -187 -91q-98 -26 -180 13q-51 25 -75 81
q-43 103 2 254q44 150 155 285q54 66 127 107q72 41 143 36q47 -4 78.5 -27.5t42.5 -58.5t10 -73.5t-14 -76.5q-10 -24 -27 -34q-29 -47 -70 -55q-40 -7 -65 34q55 46 73 124q19 79 -24 100zM420 896l52 85q25 40 86 22q11 -4 16 -6.5t4 -4.5q-5 -6 -31 -45q-21 -30 -38 -51
q-41 -52 -106 -32q-1 1 17 32z" />
    <glyph glyph-name="cacute" unicode="&#x107;" horiz-adv-x="431" 
d="M135 98q13 -26 48 -36q55 -16 123 0q121 31 205 156q10 12 25 4q16 -10 3 -32q-59 -104 -157 -159q-97 -55 -223 -43q-55 4 -94 37q-46 37 -47 107q0 70 33 136q34 66 97 119q63 51 135 56q47 3 83.5 -14.5t50.5 -55.5q10 -28 2.5 -59t-27.5 -50q-23 -27 -52 -27.5
t-44 23.5q14 12 26 35t14 41q3 39 -23 47q-40 13 -95 -46q-45 -48 -75 -124q-30 -75 -8 -115zM254 547l52 85q25 40 86 22q11 -4 16 -6.5t4 -4.5q-5 -6 -31 -45q-21 -30 -38 -51q-41 -52 -106 -32q-1 1 17 32z" />
    <glyph glyph-name="Ccircumflex" unicode="&#x108;" horiz-adv-x="515" 
d="M482 719q-37 17 -84.5 -12t-92.5 -91q-90 -124 -130 -248q-19 -63 -25 -106q-7 -47 1 -100q9 -50 40 -72q54 -32 136 -4q83 29 167 90q83 60 130 124q15 22 27 12q14 -13 -11 -58l-7 -11q-52 -78 -140 -142q-87 -63 -187 -91q-98 -26 -180 13q-51 25 -75 81
q-43 103 2 254q44 150 155 285q54 66 127 107q72 41 143 36q47 -4 78.5 -27.5t42.5 -58.5t10 -73.5t-14 -76.5q-10 -24 -27 -34q-29 -47 -70 -55q-40 -7 -65 34q55 46 73 124q19 79 -24 100zM559 880q-11 11 -20 22l-19 23l-53 -40q-20 -15 -40.5 -20.5t-34.5 -2.5t-25 8.5
t-17 11t-5 5.5l92 67q18 13 41 26q71 41 123 -25l57 -72q1 -1 -7 -7q-38 -26 -73 -9q-13 5 -19 13z" />
    <glyph glyph-name="ccircumflex" unicode="&#x109;" horiz-adv-x="431" 
d="M135 98q13 -26 48 -36q55 -16 123 0q121 31 205 156q10 12 25 4q16 -10 3 -32q-59 -104 -157 -159q-97 -55 -223 -43q-55 4 -94 37q-46 37 -47 107q0 70 33 136q34 66 97 119q63 51 135 56q47 3 83.5 -14.5t50.5 -55.5q10 -28 2.5 -59t-27.5 -50q-23 -27 -52 -27.5
t-44 23.5q14 12 26 35t14 41q3 39 -23 47q-40 13 -95 -46q-45 -48 -75 -124q-30 -75 -8 -115zM362 531q-11 11 -20 22l-19 23l-53 -40q-20 -15 -40.5 -20.5t-34.5 -2.5t-25 8.5t-17 11t-5 5.5l92 67q18 13 41 26q71 41 123 -25l57 -72q1 -1 -7 -7q-38 -26 -73 -9
q-13 5 -19 13z" />
    <glyph glyph-name="Cdotaccent" unicode="&#x10a;" horiz-adv-x="530" 
d="M499 719q-37 17 -84.5 -12t-92.5 -91q-90 -124 -130 -248q-19 -63 -25 -106q-7 -47 1 -100q9 -50 40 -72q54 -32 136 -4q83 29 167 90q83 60 130 124q15 22 27 12q14 -13 -11 -58l-7 -11q-52 -78 -140 -142q-87 -63 -187 -91q-98 -26 -180 13q-51 25 -75 81
q-43 103 2 254q44 150 155 285q54 66 127 107q72 41 143 36q47 -4 78.5 -27.5t42.5 -58.5t10 -73.5t-14 -76.5q-10 -24 -27 -34q-29 -47 -70 -55q-40 -7 -65 34q55 46 73 124q19 79 -24 100zM530 872q-26 0 -41 15.5t-11 40.5q6 35 43 49.5t62 -10.5q24 -24 3 -61t-56 -34z
" />
    <glyph glyph-name="cdotaccent" unicode="&#x10b;" horiz-adv-x="431" 
d="M135 98q13 -26 48 -36q55 -16 123 0q121 31 205 156q10 12 25 4q16 -10 3 -32q-59 -104 -157 -159q-97 -55 -223 -43q-55 4 -94 37q-46 37 -47 107q0 70 33 136q34 66 97 119q63 51 135 56q47 3 83.5 -14.5t50.5 -55.5q10 -28 2.5 -59t-27.5 -50q-23 -27 -52 -27.5
t-44 23.5q14 12 26 35t14 41q3 39 -23 47q-40 13 -95 -46q-45 -48 -75 -124q-30 -75 -8 -115zM351 523q-26 0 -41 15.5t-11 40.5q6 35 43 49.5t62 -10.5q24 -24 3 -61t-56 -34z" />
    <glyph glyph-name="Ccaron" unicode="&#x10c;" horiz-adv-x="515" 
d="M482 719q-37 17 -84.5 -12t-92.5 -91q-90 -124 -130 -248q-19 -63 -25 -106q-7 -47 1 -100q9 -50 40 -72q54 -32 136 -4q83 29 167 90q83 60 130 124q15 22 27 12q14 -13 -11 -58l-7 -11q-52 -78 -140 -142q-87 -63 -187 -91q-98 -26 -180 13q-51 25 -75 81
q-43 103 2 254q44 150 155 285q54 66 127 107q72 41 143 36q47 -4 78.5 -27.5t42.5 -58.5t10 -73.5t-14 -76.5q-10 -24 -27 -34q-29 -47 -70 -55q-40 -7 -65 34q55 46 73 124q19 79 -24 100zM452 977l20 -23l19 -22l53 40q20 15 40 20.5t34 2.5t25 -9t17 -11t5 -6l-92 -67
q-34 -22 -40 -25q-71 -41 -123 24l-58 73q-2 2 6 6q38 26 73 11q13 -5 21 -14z" />
    <glyph glyph-name="ccaron" unicode="&#x10d;" horiz-adv-x="431" 
d="M135 98q13 -26 48 -36q55 -16 123 0q121 31 205 156q10 12 25 4q16 -10 3 -32q-59 -104 -157 -159q-97 -55 -223 -43q-55 4 -94 37q-46 37 -47 107q0 70 33 136q34 66 97 119q63 51 135 56q47 3 83.5 -14.5t50.5 -55.5q10 -28 2.5 -59t-27.5 -50q-23 -27 -52 -27.5
t-44 23.5q14 12 26 35t14 41q3 39 -23 47q-40 13 -95 -46q-45 -48 -75 -124q-30 -75 -8 -115zM286 628l20 -23l19 -22l53 40q20 15 40 20.5t34 2.5t25 -9t17 -11t5 -6l-92 -67q-34 -22 -40 -25q-71 -40 -123 24l-58 73q-2 1 6 6q38 26 73 11q13 -5 21 -14z" />
    <glyph glyph-name="Dcaron" unicode="&#x10e;" horiz-adv-x="889" 
d="M592 648q-26 -16 -72 -144q-10 -32 -36 -99q-22 -61 -39 -106l-36 -89q-38 -95 -76 -139q63 -24 137 -12q75 12 125 46q89 60 143 162.5t57 202.5q3 106 -50 175.5t-162 73.5q-84 5 -168 -39q-83 -44 -126 -116q-30 -51 -35.5 -99t3 -73.5t21.5 -41.5l7 -9
q-86 -38 -125 19q-24 39 -16 98t45 123q48 85 153 148q105 65 255 57q81 -4 143 -32t98.5 -72t54.5 -101t16 -120.5t-22 -129.5q-41 -133 -138 -225q-98 -92 -226 -108q-133 -18 -246 36q-42 -34 -90 -39q-37 -3 -57.5 11t-14.5 42q4 20 18.5 33.5t32.5 18.5t36.5 6.5t30 1
t12.5 -1.5q14 12 39 73q33 81 70 179q54 140 64 165q68 162 174 125zM645 972l20 -23l19 -22l53 40q20 15 40 20.5t34 2.5t25 -9t17 -11t5 -6l-92 -67q-34 -22 -40 -25q-70 -40 -123 24l-58 73q-1 1 6 6q38 26 73 11q13 -5 21 -14z" />
    <glyph glyph-name="dcaron" unicode="&#x10f;" horiz-adv-x="683" 
d="M705 714q18 42 77 37q9 0 15 -1.5t8.5 -2.5t1.5 -3l-41 -88q-11 -25 -21 -37.5t-32 -23.5q-23 -12 -56 -9q0 5 48 128zM507 721q4 19 -4 42q66 7 91 -29t0 -104l-83 -233l-89 -246q-11 -35 -11 -50q0 -16 7 -24q21 -26 70 -1q49 29 92 87q23 29 38 18q14 -12 -2 -37
q-47 -77 -112.5 -116t-139.5 -28q-28 4 -43.5 25.5t-12.5 50.5q-49 -54 -128 -72q-79 -17 -120 13q-76 49 -28 206q26 91 99 159q81 76 179 52q62 -13 79 -70l38 102l39 105q7 18 26 80q13 43 15 70zM316 374q-54 7 -106 -54q-51 -60 -74 -129q-32 -92 5 -124q35 -27 91 10
q62 39 93 123l13 32q1 4 11 31q5 13 6 30q11 72 -39 81z" />
    <glyph glyph-name="Dcroat" unicode="&#x110;" horiz-adv-x="889" 
d="M592 648q-26 -16 -72 -144l-83 -224h54q25 1 55 1q33 0 43 7q12 -44 -27.5 -61.5t-152.5 -17.5q-41 -99 -76 -138q63 -24 137 -12q75 12 125 46q89 60 143 162.5t57 202.5q3 106 -50 175.5t-162 73.5q-84 5 -168 -39q-83 -44 -126 -116q-30 -51 -35.5 -99t3 -73.5
t21.5 -41.5l7 -9q-78 -34 -118 13q-19 22 -24 57t6.5 76.5t34.5 85t63 83.5t89.5 70.5t117.5 47t143 12.5q81 -4 143 -32t98.5 -72t54.5 -101t16 -120.5t-22 -129.5q-41 -133 -138 -225q-98 -92 -226 -108q-133 -18 -246 36q-55 -43 -110 -40q-62 5 -52 54q6 31 37 46
q18 9 37 11.5t36.5 1.5t18.5 -1h1q12 12 50 102q-7 0 -38 0.5t-43 0.5q-40 2 -70 -7l-4 -2q-18 65 71 76q22 3 112 3l95 244q68 162 174 125z" />
    <glyph glyph-name="dslash" unicode="&#x111;" horiz-adv-x="541" 
d="M316 374q-54 7 -106 -54q-51 -60 -74 -129q-32 -92 5 -124q35 -27 91 10q62 39 93 123l13 34l11 29q5 13 6 30q11 72 -39 81zM645 547q-22 0 -40 -1h-41l-142 -395q-11 -35 -11 -50q0 -16 7 -24q21 -26 70 -1q49 29 92 87q23 29 38 18q24 -22 -32 -80q-54 -54 -100 -78
q-60 -31 -122 -23q-28 4 -43.5 25.5t-12.5 50.5q-50 -54 -128 -72q-79 -17 -120 13q-77 52 -28 206q20 67 71 130q50 61 117 79q53 15 103 -4q53 -18 66 -64l65 181q-6 0 -33 0.5t-40 0.5q-73 0 -82 -11q-18 69 76 79q22 3 104 3q27 77 28 104q4 19 -4 42q66 7 91 -29
t0 -104l-5 -12q20 0 40 -1h48q53 0 65 9q9 -34 -15 -56t-82 -23z" />
    <glyph glyph-name="Emacron" unicode="&#x112;" horiz-adv-x="576" 
d="M678 891l-229 -3q-25 0 -43 -7q-15 38 3.5 59t64.5 22l246 3q32 0 42 7q15 -39 -5 -59.5t-79 -21.5zM534 791q96 -5 139 -56q45 -51 28 -119q-10 -40 -53 -63q-40 -22 -74 2q13 6 24.5 33t8.5 55q-4 35 -29 56t-61 22q-55 1 -98 -31t-61 -80q-7 -28 -8 -55.5t16.5 -54
t52.5 -40.5q15 -8 40 -9q29 -1 40.5 -6.5t10.5 -22.5q-1 -22 -80 -22q-105 1 -178 -63q-72 -64 -70 -144q2 -71 64 -105t148 -19q66 11 125.5 54t101.5 109q18 32 22 41q33 64 48 72q13 7 17 -11q4 -13 -4 -34q-88 -221 -276 -280q-120 -36 -242 -4q-60 16 -94 67t-26 124
q8 89 78 153q69 63 179 80q-48 32 -65 82t1 97q25 83 106 129q79 46 169 43z" />
    </font>
</defs>
</svg>
