<?xml version="1.0" encoding="UTF-8"?>
<svg xmlns="http://www.w3.org/2000/svg" xmlns:xlink="http://www.w3.org/1999/xlink" width="160px" height="94px" viewBox="0 0 159 94" version="1.1">
<g id="surface1">
<path style=" stroke:none;fill-rule:nonzero;fill:rgb(0%,0%,0%);fill-opacity:1;" d="M 124.117188 6.867188 C 125.605469 8.253906 128.097656 11.046875 129.675781 13.105469 C 131.53125 15.511719 133.066406 17.976562 134.539062 20.941406 C 137.136719 26.214844 138.421875 31.085938 138.730469 36.824219 C 138.886719 39.914062 138.375 44.613281 137.554688 47.4375 C 137.371094 48.074219 137.183594 48.746094 137.152344 48.917969 C 137.046875 49.511719 136.117188 51.742188 135.28125 53.492188 C 131.980469 60.308594 126.625 65.757812 119.984375 69.09375 C 114.378906 71.90625 109.179688 73.011719 102.660156 72.824219 C 98.0625 72.683594 94.082031 71.949219 89.640625 70.421875 C 84.75 68.738281 81.28125 66.941406 74.390625 62.542969 C 63.863281 55.816406 53.351562 51.867188 43.289062 50.871094 C 40.949219 50.636719 35.765625 50.683594 33.519531 50.949219 C 31.597656 51.164062 28.394531 51.726562 27.945312 51.914062 C 27.652344 52.039062 27.683594 52.023438 26.9375 52.179688 C 25.980469 52.367188 22.386719 53.601562 20.714844 54.316406 C 16.070312 56.300781 11.71875 59.109375 7.742188 62.683594 C 6.132812 64.132812 4.179688 66.285156 4.878906 65.835938 C 6.101562 65.054688 9.492188 63.039062 10.683594 62.402344 C 15.996094 59.546875 22.296875 57.613281 28.71875 56.878906 C 31.707031 56.535156 38.304688 56.394531 40.792969 56.628906 C 46.554688 57.160156 51.773438 59.0625 57.578125 62.726562 C 60.566406 64.601562 62.75 66.242188 71.0625 72.808594 C 81.019531 80.660156 87.71875 84.402344 95.757812 86.601562 C 100.648438 87.945312 104.625 88.398438 110.433594 88.273438 C 118.175781 88.101562 124.179688 86.652344 130.742188 83.324219 C 135.015625 81.15625 138.515625 78.597656 142.0625 75.058594 C 145.589844 71.511719 148.101562 68.003906 150.25 63.585938 C 152.1875 59.605469 153.269531 56.269531 154.074219 51.804688 C 154.445312 49.714844 154.492188 49.183594 154.492188 45.097656 C 154.507812 40.335938 154.398438 39.226562 153.5625 35.875 C 150.761719 24.5 141.859375 14.621094 128.5 8.035156 C 126.953125 7.285156 123.097656 5.617188 122.878906 5.617188 C 122.816406 5.617188 123.390625 6.179688 124.117188 6.867188 Z M 124.117188 6.867188 "/>
<path style=" stroke:none;fill-rule:nonzero;fill:rgb(0%,0%,0%);fill-opacity:1;" d="M 109.96875 23.59375 C 114.703125 29.789062 117.925781 36.78125 118.683594 42.523438 C 118.914062 44.285156 118.777344 47.78125 118.421875 49.152344 C 116.765625 55.628906 110.277344 60.011719 100.230469 61.433594 C 97.550781 61.808594 91.359375 61.808594 88.558594 61.417969 C 86.699219 61.167969 82.503906 60.355469 81.871094 60.125 C 81.21875 59.90625 81.992188 60.417969 83.527344 61.230469 C 88.078125 63.648438 93.558594 65.523438 98.699219 66.429688 C 100.785156 66.785156 101.53125 66.847656 104.425781 66.847656 C 108.03125 66.863281 109.179688 66.722656 111.964844 66.003906 C 118.902344 64.195312 125.496094 59.0625 128.160156 53.367188 C 128.839844 51.914062 129.503906 50.199219 129.503906 49.886719 C 129.503906 49.746094 129.628906 49.199219 129.769531 48.652344 C 130.15625 47.203125 130.109375 43.753906 129.691406 41.867188 C 128.808594 37.933594 126.84375 34.5 123.625 31.210938 C 121.144531 28.695312 118.558594 26.761719 115.046875 24.824219 C 113.21875 23.828125 109.257812 22 108.898438 22 C 108.824219 22 109.300781 22.71875 109.96875 23.59375 Z M 109.96875 23.59375 "/>
<path style=" stroke:none;fill-rule:nonzero;fill:rgb(0%,0%,0%);fill-opacity:1;" d="M 31.042969 62.277344 C 29.015625 62.496094 26.117188 63.007812 24.089844 63.507812 C 22.203125 63.976562 17.835938 65.382812 17.945312 65.492188 C 17.976562 65.523438 18.796875 65.414062 19.757812 65.242188 C 22.820312 64.710938 25.265625 64.523438 29.261719 64.539062 C 33.363281 64.539062 35.4375 64.695312 39.554688 65.320312 C 45.132812 66.179688 51.464844 67.816406 55.984375 69.59375 C 56.867188 69.921875 57.609375 70.1875 57.640625 70.15625 C 57.734375 70.046875 55.597656 68.410156 53.984375 67.332031 C 50.363281 64.945312 46.277344 63.382812 41.492188 62.558594 C 39.355469 62.183594 33.335938 62.027344 31.042969 62.277344 Z M 31.042969 62.277344 "/>
</g>
</svg>
