<?xml version="1.0" standalone="no"?><svg xmlns="http://www.w3.org/2000/svg" viewBox="0 0 1440 320"><path fill="#D9D9D2" fill-opacity="1" d="M0,32L21.8,58.7C43.6,85,87,139,131,160C174.5,181,218,171,262,186.7C305.5,203,349,245,393,250.7C436.4,256,480,224,524,218.7C567.3,213,611,235,655,245.3C698.2,256,742,256,785,240C829.1,224,873,192,916,202.7C960,213,1004,267,1047,272C1090.9,277,1135,235,1178,208C1221.8,181,1265,171,1309,144C1352.7,117,1396,75,1418,53.3L1440,32L1440,320L1418.2,320C1396.4,320,1353,320,1309,320C1265.5,320,1222,320,1178,320C1134.5,320,1091,320,1047,320C1003.6,320,960,320,916,320C872.7,320,829,320,785,320C741.8,320,698,320,655,320C610.9,320,567,320,524,320C480,320,436,320,393,320C349.1,320,305,320,262,320C218.2,320,175,320,131,320C87.3,320,44,320,22,320L0,320Z"></path></svg>