<?xml version="1.0" standalone="no"?><svg xmlns="http://www.w3.org/2000/svg" viewBox="0 0 1440 320"><path fill="#D9D9D2" fill-opacity="1" d="M0,128L40,112C80,96,160,64,240,90.7C320,117,400,203,480,213.3C560,224,640,160,720,149.3C800,139,880,181,960,197.3C1040,213,1120,203,1200,192C1280,181,1360,171,1400,165.3L1440,160L1440,320L1400,320C1360,320,1280,320,1200,320C1120,320,1040,320,960,320C880,320,800,320,720,320C640,320,560,320,480,320C400,320,320,320,240,320C160,320,80,320,40,320L0,320Z"></path></svg>