<?xml version="1.0" encoding="UTF-8"?>
<svg xmlns="http://www.w3.org/2000/svg" xmlns:xlink="http://www.w3.org/1999/xlink" width="120px" height="199px" viewBox="0 0 120 199" version="1.1">
<g id="surface1">
<path style=" stroke:none;fill-rule:nonzero;fill:#102B4C;fill-opacity:1;" d="M 47.347656 0.886719 C 44.949219 1.976562 43.929688 4.011719 44.582031 6.410156 C 45.105469 8.308594 47.398438 9.820312 49.304688 9.507812 L 50.292969 9.351562 L 50.84375 11.667969 C 52.121094 17.0625 52.515625 24.796875 51.78125 29.824219 C 51.3125 33.183594 49.75 37.769531 49.09375 37.769531 C 48.964844 37.769531 48.707031 37.613281 48.46875 37.429688 C 48.105469 37.167969 48.078125 36.882812 48.3125 35.421875 C 48.808594 32.089844 47.972656 25.03125 46.539062 20.65625 L 45.886719 18.675781 L 46.566406 18.128906 C 47.503906 17.375 47.425781 15.707031 46.410156 15.132812 C 44.398438 14.011719 42.546875 16.539062 44.324219 18.023438 C 45.339844 18.882812 45.46875 19.195312 46.410156 22.738281 C 47.398438 26.4375 47.894531 31.4375 47.632812 34.695312 C 47.425781 36.988281 47.425781 36.988281 46.695312 36.988281 C 46.304688 36.988281 45.625 37.0625 45.183594 37.144531 C 44.425781 37.296875 44.347656 37.222656 43.277344 35.398438 C 41.007812 31.515625 39.941406 27.035156 40.304688 22.765625 C 40.484375 20.578125 40.484375 20.550781 41.347656 20.214844 C 43.515625 19.300781 43.09375 16.566406 40.824219 16.566406 C 39.105469 16.566406 38.324219 18.234375 39.367188 19.589844 C 39.835938 20.160156 39.859375 20.421875 39.625 22.035156 C 38.972656 26.332031 40.382812 32.167969 43.042969 36.363281 C 43.617188 37.296875 43.75 37.691406 43.539062 37.953125 C 43.042969 38.523438 42.625 38.339844 41.113281 36.960938 C 38.632812 34.695312 37.25 32.324219 36 28.105469 C 35.164062 25.316406 34.695312 22.035156 34.695312 18.9375 L 34.695312 17.191406 L 35.476562 17.191406 C 38.558594 17.191406 40.460938 14.144531 39.078125 11.460938 C 38.292969 9.949219 37.121094 9.324219 35.324219 9.453125 C 32.921875 9.613281 31.667969 11.171875 31.878906 13.753906 C 31.984375 15.003906 32.140625 15.316406 32.921875 16.019531 L 33.835938 16.851562 L 33.992188 19.820312 C 34.304688 25.632812 35.6875 30.867188 37.722656 34.042969 C 38.242188 34.851562 39.3125 36.203125 40.121094 37.039062 C 40.90625 37.871094 41.476562 38.546875 41.375 38.546875 C 40.929688 38.546875 38.007812 37.167969 36.941406 36.464844 C 35.324219 35.371094 32.894531 32.664062 31.929688 30.839844 C 30.15625 27.53125 29.21875 23.234375 29.21875 18.441406 C 29.21875 15.964844 29.242188 15.8125 29.867188 15.316406 C 30.234375 15.03125 30.523438 14.535156 30.523438 14.171875 C 30.523438 13.363281 29.660156 12.503906 28.878906 12.503906 C 27.496094 12.503906 26.792969 14.507812 27.886719 15.394531 C 28.382812 15.785156 28.433594 16.121094 28.433594 18.15625 C 28.433594 21.332031 29.292969 26.386719 30.261719 28.808594 C 31.382812 31.59375 32.113281 32.742188 33.992188 34.746094 C 34.878906 35.683594 35.53125 36.464844 35.453125 36.464844 C 34.984375 36.464844 31.984375 33.9375 30.859375 32.609375 C 28.410156 29.746094 27.105469 27.117188 25.929688 22.765625 C 25.355469 20.605469 25.226562 19.457031 25.121094 15.550781 L 24.964844 10.9375 L 25.773438 10.9375 C 27.441406 10.9375 28.25 8.984375 27.050781 7.867188 C 26.292969 7.164062 25.199219 7.136719 24.546875 7.789062 C 24 8.335938 24 8.285156 24.390625 16.410156 C 24.808594 24.875 27.707031 31.386719 33 35.632812 C 34.433594 36.777344 33.835938 36.671875 31.667969 35.398438 C 26.714844 32.429688 22.800781 27.894531 20.476562 22.398438 C 19.695312 20.578125 18.261719 15.835938 18.261719 15.132812 C 18.261719 14.847656 18.625 14.5625 19.25 14.351562 C 21.15625 13.671875 22.175781 12.242188 22.175781 10.210938 C 22.175781 7.839844 20.292969 5.992188 17.867188 5.992188 C 15.625 5.992188 13.878906 7.527344 13.644531 9.714844 C 13.382812 11.902344 14.191406 13.257812 16.460938 14.402344 C 17.558594 14.976562 17.609375 15.003906 18.027344 17.035156 C 18.757812 20.394531 20.476562 24.507812 22.382812 27.480469 C 23.816406 29.695312 27.707031 33.601562 29.972656 35.136719 C 32.21875 36.671875 36 38.394531 38.398438 39.019531 C 41.558594 39.828125 41.765625 40.164062 39 39.980469 C 35.269531 39.722656 30.3125 38.886719 27.941406 38.160156 C 20.972656 35.945312 15.757812 31.675781 13.773438 26.464844 C 13.332031 25.34375 13.332031 25.160156 13.667969 24.773438 C 15.050781 23.257812 14.007812 20.839844 11.972656 20.839844 C 11.242188 20.839844 9.914062 22.21875 9.914062 23 C 9.914062 23.859375 10.824219 24.953125 11.765625 25.1875 C 12.417969 25.367188 12.675781 25.707031 13.410156 27.296875 C 14.476562 29.640625 15.417969 30.945312 17.375 32.871094 C 18.914062 34.355469 21.3125 36.203125 21.730469 36.203125 C 21.859375 36.203125 22.277344 36.414062 22.644531 36.671875 C 25.644531 38.730469 34.25 40.632812 40.515625 40.632812 C 41.765625 40.632812 42.546875 40.789062 43.226562 41.15625 C 43.773438 41.441406 44.347656 41.675781 44.53125 41.675781 C 45.027344 41.675781 44.949219 42.222656 44.324219 43.109375 C 43.539062 44.28125 42.417969 46.519531 41.558594 48.707031 C 38.867188 55.453125 37.617188 63.371094 37.90625 72.148438 C 38.058594 76.550781 39.027344 85.695312 39.675781 88.535156 C 39.808594 89.160156 40.148438 90.980469 40.433594 92.570312 C 40.695312 94.160156 41.269531 96.921875 41.714844 98.71875 C 42.132812 100.515625 42.78125 103.25 43.148438 104.839844 C 43.515625 106.402344 46.070312 116.613281 48.808594 127.5 C 54.992188 152.117188 55.042969 152.324219 55.042969 152.84375 C 55.015625 153.105469 54.707031 152.453125 54.285156 151.464844 C 52.25 146.382812 48.496094 138.804688 45.964844 134.664062 C 45.652344 134.167969 45.207031 133.386719 44.972656 132.96875 C 43.121094 129.660156 38.609375 123.671875 34.75 119.375 C 32.84375 117.238281 32.84375 117.238281 33.105469 116.246094 C 33.261719 115.703125 33.652344 114.839844 33.992188 114.347656 C 34.332031 113.851562 34.957031 112.546875 35.398438 111.480469 C 37.355469 106.742188 37.199219 100.933594 34.984375 96.398438 C 34.355469 95.074219 34.277344 94.785156 34.589844 94.523438 C 35.085938 94.132812 35.058594 92.859375 34.539062 92.363281 C 33.914062 91.710938 32.6875 91.839844 32.21875 92.570312 C 31.667969 93.40625 31.957031 94.5 32.765625 94.707031 C 33.652344 94.941406 34.332031 95.984375 35.292969 98.640625 C 36.050781 100.777344 36.105469 101.191406 36.132812 104.320312 C 36.132812 107.210938 36.050781 107.964844 35.503906 109.527344 C 34.929688 111.222656 33.757812 113.828125 33.574219 113.828125 C 33.523438 113.828125 33.625 112.914062 33.808594 111.792969 C 34.984375 104.761719 33.417969 98.484375 29.425781 94.238281 C 28.878906 93.640625 28.722656 93.300781 28.878906 92.882812 C 29.398438 91.347656 28.566406 90.121094 27.027344 90.121094 C 25.722656 90.121094 25.042969 90.746094 25.042969 91.945312 C 25.042969 93.222656 26.007812 94.109375 27.339844 93.980469 C 28.070312 93.925781 28.382812 94.082031 29.269531 94.941406 C 30.601562 96.296875 31.984375 98.773438 32.792969 101.269531 C 33.285156 102.808594 33.441406 104.03125 33.546875 106.535156 C 33.625 108.695312 33.574219 109.605469 33.417969 109.269531 C 33.285156 108.980469 33.15625 108.460938 33.132812 108.09375 C 33.105469 107.078125 31.75 103.902344 30.675781 102.285156 C 29.453125 100.4375 26.582031 97.546875 24.652344 96.242188 C 23.609375 95.515625 23.242188 95.125 23.375 94.839844 C 23.476562 94.605469 23.609375 94.109375 23.6875 93.691406 C 24.078125 91.398438 21.132812 89.578125 19.042969 90.828125 C 18.15625 91.347656 17.738281 92.179688 17.738281 93.378906 C 17.738281 95.773438 19.617188 96.949219 22.070312 96.0625 C 22.878906 95.773438 23.035156 95.828125 24.183594 96.632812 C 27.132812 98.691406 29.792969 101.582031 31.148438 104.1875 C 32.058594 105.933594 32.867188 108.929688 32.867188 110.542969 C 32.867188 111.871094 32.453125 111.6875 32.269531 110.308594 C 31.90625 107.785156 29.53125 103.925781 26.714844 101.375 C 25.773438 100.492188 25.070312 99.683594 25.148438 99.527344 C 25.382812 99.160156 25.042969 98.484375 24.46875 98.171875 C 23.765625 97.78125 22.695312 98.507812 22.695312 99.367188 C 22.695312 100.074219 23.347656 100.542969 24.367188 100.542969 C 25.199219 100.542969 28.226562 103.460938 29.609375 105.621094 C 30.707031 107.339844 32.058594 110.933594 32.085938 112.105469 C 32.085938 112.707031 31.878906 112.417969 31.042969 110.777344 C 29.425781 107.550781 25.800781 103.980469 21.207031 101.089844 C 20.085938 100.386719 19.824219 100.097656 19.824219 99.527344 C 19.824219 98.667969 19.382812 98.199219 18.625 98.199219 C 17.292969 98.199219 16.722656 99.917969 17.792969 100.644531 C 18.105469 100.882812 18.601562 100.984375 18.964844 100.90625 C 19.644531 100.722656 20.609375 101.269531 23.375 103.328125 C 27.914062 106.6875 31.695312 111.585938 31.226562 113.488281 C 31.148438 113.902344 31.09375 113.902344 30.914062 113.4375 C 30.808594 113.148438 30.285156 112.394531 29.765625 111.742188 C 27.441406 108.773438 23.84375 106.0625 19.121094 103.640625 C 16.984375 102.574219 16.433594 102.183594 16.433594 101.742188 C 16.433594 100.828125 15.234375 99.316406 14.269531 99.007812 C 12.441406 98.40625 10.175781 99.96875 10.175781 101.84375 C 10.175781 103.535156 12.367188 105.257812 14.007812 104.867188 C 14.398438 104.761719 15.078125 104.265625 15.546875 103.796875 L 16.382812 102.910156 L 18.285156 103.851562 C 23.058594 106.167969 27.914062 109.996094 30 113.097656 C 31.539062 115.414062 31.277344 116.613281 29.582031 114.839844 C 27.886719 113.070312 24.546875 110.988281 21.46875 109.8125 C 19.851562 109.214844 19.617188 109.007812 19.460938 108.355469 C 19.199219 107 17.191406 106.976562 17.007812 108.328125 C 16.851562 109.292969 17.609375 109.867188 18.992188 109.839844 C 21.027344 109.8125 26.476562 112.652344 29.007812 115.050781 L 29.949219 115.960938 L 29.425781 116.847656 C 28.929688 117.679688 28.824219 117.734375 27.941406 117.574219 C 24.050781 116.925781 22.433594 116.273438 20.164062 114.425781 C 18.523438 113.121094 18.261719 112.8125 18.441406 112.394531 C 18.941406 111.0625 17.453125 109.917969 16.433594 110.828125 C 15.496094 111.6875 15.914062 113.046875 17.113281 113.046875 C 17.425781 113.046875 18.132812 113.460938 18.675781 113.980469 C 21.132812 116.246094 24.390625 117.8125 27.367188 118.148438 C 29.21875 118.359375 29.476562 118.855469 27.992188 119.269531 C 24.707031 120.179688 19.773438 118.75 15.46875 115.597656 L 14.140625 114.632812 L 14.632812 113.671875 C 15.757812 111.457031 13.824219 109.269531 11.347656 109.945312 C 10.175781 110.285156 9.652344 111.0625 9.652344 112.472656 C 9.652344 113.410156 9.78125 113.746094 10.484375 114.398438 C 11.164062 115.023438 11.503906 115.15625 12.390625 115.101562 C 13.332031 115.050781 13.773438 115.230469 15.675781 116.480469 C 19.75 119.191406 22.851562 120.234375 26.324219 120.023438 C 27.78125 119.949219 27.859375 119.972656 27.46875 120.414062 C 26.84375 121.09375 23.921875 121.898438 22.121094 121.898438 C 19.199219 121.898438 15.546875 120.441406 12.390625 118.070312 C 11.6875 117.523438 11.035156 116.796875 10.957031 116.457031 C 10.644531 115.050781 9.078125 115.101562 8.921875 116.507812 C 8.84375 117.238281 9.574219 117.835938 10.25 117.574219 C 10.460938 117.5 11.375 117.992188 12.367188 118.75 C 14.140625 120.105469 17.113281 121.640625 18.914062 122.132812 C 19.484375 122.292969 20.84375 122.421875 21.914062 122.449219 L 23.867188 122.472656 L 22.433594 122.839844 C 21.496094 123.097656 20.375 123.175781 19.175781 123.074219 C 15.417969 122.757812 12.46875 121.589844 8.816406 118.929688 C 6.886719 117.5 6.808594 117.445312 6.964844 116.5625 C 7.148438 115.492188 6.730469 114.867188 5.84375 114.867188 C 4.433594 114.867188 4.226562 116.691406 5.609375 117.210938 C 5.949219 117.339844 6.285156 117.574219 6.390625 117.734375 C 6.730469 118.28125 10.304688 120.78125 11.867188 121.5625 C 15.285156 123.28125 16.566406 123.59375 20.058594 123.59375 L 23.269531 123.59375 L 21.105469 124.324219 C 19.042969 125 18.675781 125.027344 15.390625 124.921875 C 11.714844 124.816406 9.441406 124.296875 6.859375 122.96875 C 5.84375 122.449219 5.765625 122.367188 6 121.742188 C 6.367188 120.808594 5.894531 119.191406 5.035156 118.539062 C 3.78125 117.550781 1.515625 117.914062 0.730469 119.242188 C -0.105469 120.648438 0.0273438 121.71875 1.148438 122.839844 C 1.878906 123.566406 2.21875 123.722656 3.183594 123.722656 C 3.808594 123.722656 4.589844 123.542969 4.90625 123.308594 C 5.292969 123.046875 5.609375 122.992188 5.816406 123.152344 C 6.417969 123.59375 10.304688 125 11.792969 125.285156 C 13.539062 125.625 17.007812 125.703125 19.042969 125.417969 C 21.105469 125.15625 24.367188 123.828125 26.53125 122.421875 C 28.824219 120.910156 28.644531 121.378906 25.90625 124.0625 C 22.644531 127.242188 20.058594 128.855469 16.800781 129.714844 C 14.53125 130.285156 12.914062 130.367188 10.984375 129.949219 C 9.914062 129.742188 9.574219 129.507812 9.15625 128.777344 C 8.738281 128.101562 8.453125 127.890625 7.878906 127.890625 C 7.09375 127.890625 6.261719 128.570312 6.261719 129.21875 C 6.261719 129.429688 6.441406 129.871094 6.675781 130.183594 C 7.09375 130.808594 8.292969 130.964844 8.792969 130.46875 C 9 130.261719 9.441406 130.261719 10.433594 130.496094 C 12.707031 131.042969 16.460938 130.703125 18.675781 129.765625 C 22.175781 128.308594 25.957031 125.390625 28.433594 122.292969 C 29.164062 121.378906 30.3125 120.234375 31.015625 119.714844 L 32.292969 118.800781 L 33.835938 120.414062 C 37.355469 124.140625 39.964844 127.605469 43.984375 133.882812 C 45.730469 136.644531 50.007812 144.824219 51.707031 148.730469 C 52.539062 150.601562 54.027344 154.226562 54.523438 155.632812 C 54.78125 156.335938 55.382812 157.871094 55.824219 159.019531 C 57.261719 162.714844 59.269531 168.863281 60.15625 172.300781 C 60.46875 173.578125 61.175781 176.285156 61.695312 178.292969 C 62.21875 180.300781 62.792969 182.644531 63 183.503906 C 63.183594 184.363281 63.730469 186.472656 64.175781 188.191406 C 64.617188 189.910156 65.242188 192.878906 65.582031 194.78125 C 65.921875 196.707031 66.3125 198.375 66.441406 198.507812 C 66.574219 198.632812 67.042969 198.816406 67.515625 198.898438 C 68.292969 199.050781 68.347656 199 68.347656 198.375 C 68.347656 198.007812 68.113281 196.992188 67.800781 196.132812 C 67.042969 193.921875 66.574219 192.148438 64.304688 182.382812 C 63.941406 180.765625 63.523438 179.179688 63.390625 178.839844 C 62.972656 177.71875 61.589844 169.929688 60.941406 164.878906 C 57.285156 136.980469 61.773438 111.714844 73.539062 94.054688 C 75.914062 90.515625 76.015625 90.355469 77.921875 88.171875 L 79.722656 86.085938 L 81.941406 86.085938 C 83.660156 86.085938 84.390625 86.214844 85.332031 86.660156 C 87.441406 87.671875 91.75 88.796875 94.566406 89.082031 C 101.347656 89.757812 108.207031 87.855469 113.53125 83.792969 C 114.441406 83.089844 114.523438 83.0625 115.09375 83.453125 C 117.367188 85.042969 120.027344 81.996094 117.992188 80.09375 C 116.558594 78.792969 114.261719 79.703125 114.261719 81.578125 C 114.261719 82.335938 114.050781 82.570312 112.773438 83.480469 C 108 86.839844 102.730469 88.5625 97.304688 88.5625 C 94.644531 88.5625 90.261719 87.777344 87.886719 86.894531 L 86.242188 86.269531 L 91.199219 86.164062 C 95.375 86.035156 96.574219 85.902344 99 85.328125 C 103.695312 84.183594 106.695312 82.855469 109.800781 80.535156 C 111.574219 79.183594 115.042969 75.511719 115.042969 74.964844 C 115.042969 74.808594 115.410156 74.808594 115.90625 74.910156 C 117.441406 75.277344 118.25 75.066406 119.164062 74.105469 C 120.367188 72.800781 120.339844 71.394531 119.113281 70.171875 C 116.84375 67.90625 113.242188 70.117188 114.261719 73.167969 C 114.441406 73.714844 114.496094 74.417969 114.390625 74.726562 C 114.132812 75.617188 109.90625 79.757812 108.183594 80.851562 C 103.773438 83.636719 97.460938 85.488281 92.816406 85.410156 L 91.433594 85.382812 L 93.132812 85.019531 C 95.191406 84.574219 98.035156 83.246094 100.460938 81.632812 C 104.058594 79.210938 108.261719 74 110.714844 68.945312 L 111.417969 67.460938 L 112.851562 67.617188 C 114.050781 67.773438 114.523438 67.695312 115.589844 67.199219 C 116.632812 66.707031 117 66.339844 117.523438 65.273438 C 118.332031 63.632812 118.332031 62.957031 117.523438 61.3125 C 115.957031 58.214844 112.042969 58.007812 109.984375 60.921875 C 108.859375 62.460938 108.886719 64.152344 110.058594 65.796875 L 110.894531 66.992188 L 109.695312 69.390625 C 106.984375 74.675781 102.652344 79.625 98.632812 81.996094 C 96.234375 83.402344 92.765625 84.574219 90.390625 84.785156 L 88.566406 84.9375 L 90.652344 84.132812 C 94.515625 82.675781 96.886719 81.109375 99.78125 78.089844 C 102.234375 75.5625 102.730469 74.910156 104.035156 72.75 C 104.867188 71.34375 105.105469 71.109375 105.78125 71.109375 C 106.722656 71.109375 107.035156 70.898438 107.453125 70.144531 C 108.390625 68.375 105.992188 66.601562 104.582031 68.007812 C 104.113281 68.480469 104.058594 68.789062 104.164062 69.78125 C 104.269531 70.742188 104.164062 71.1875 103.617188 72.148438 C 102.914062 73.347656 100.695312 76.265625 99.261719 77.828125 C 98.085938 79.15625 95.058594 81.34375 93 82.359375 C 90.964844 83.378906 87.46875 84.46875 87.261719 84.132812 C 87.183594 84.027344 87.441406 83.84375 87.835938 83.742188 C 90.441406 83.089844 95.503906 78.375 98.007812 74.234375 C 99.390625 71.992188 101.714844 67.671875 102.523438 65.847656 C 103.332031 64.078125 103.515625 63.839844 104.113281 63.816406 C 106.015625 63.789062 106.957031 61.339844 105.496094 60.195312 C 104.582031 59.464844 103.695312 59.519531 102.914062 60.296875 C 102.234375 60.953125 102.027344 62.332031 102.523438 62.644531 C 103.042969 62.980469 102.730469 63.972656 100.984375 67.488281 C 98.949219 71.550781 98.324219 72.617188 96.234375 75.484375 C 93 79.886719 89.347656 82.828125 86.347656 83.480469 L 85.433594 83.6875 L 86.867188 82.519531 C 90.625 79.417969 93.886719 74.597656 96.992188 67.460938 C 97.589844 66.082031 99 61.835938 99.390625 60.246094 C 99.652344 59.257812 99.78125 59.128906 100.75 58.839844 C 102.367188 58.421875 103.042969 57.851562 103.722656 56.390625 C 104.476562 54.777344 104.476562 54.464844 103.800781 52.875 C 103.042969 51.15625 101.660156 50.242188 99.757812 50.21875 C 97.929688 50.191406 96.730469 50.972656 95.816406 52.71875 C 95.292969 53.734375 95.191406 54.230469 95.324219 55.0625 C 95.582031 56.652344 96.601562 58.035156 97.957031 58.605469 L 99.105469 59.101562 L 98.765625 60.222656 C 96.730469 66.523438 95.609375 69.234375 93.3125 73.324219 C 91.09375 77.257812 88.484375 80.433594 85.90625 82.335938 C 84.367188 83.480469 84.132812 83.535156 83.765625 82.882812 C 83.558594 82.519531 83.765625 82.050781 84.707031 80.71875 C 86.140625 78.660156 87.441406 76.136719 88.433594 73.425781 C 89.324219 71.058594 90.523438 66.601562 90.523438 65.714844 C 90.523438 65.273438 90.675781 65.117188 91.148438 65.117188 C 91.984375 65.117188 93.132812 63.996094 93.132812 63.164062 C 93.132812 62.796875 92.84375 62.203125 92.453125 61.808594 C 91.929688 61.289062 91.644531 61.183594 90.964844 61.3125 C 90.496094 61.394531 89.972656 61.679688 89.816406 61.914062 C 89.398438 62.460938 89.375 63.867188 89.765625 64.257812 C 90.441406 64.9375 88.566406 71.839844 86.503906 76.109375 C 85.410156 78.375 83.347656 81.789062 83.085938 81.789062 C 83.007812 81.789062 82.515625 81.554688 81.992188 81.265625 C 81.441406 80.980469 80.867188 80.746094 80.6875 80.746094 C 80.058594 80.746094 80.113281 76.394531 80.765625 73.0625 C 81.207031 70.824219 82.90625 67.019531 84.207031 65.273438 C 84.914062 64.335938 85.09375 64.230469 86.21875 64.207031 C 87.675781 64.179688 88.226562 63.605469 88.121094 62.277344 C 88.015625 61.105469 87 60.296875 85.90625 60.535156 C 84.964844 60.742188 84.183594 61.964844 84.417969 62.878906 C 84.546875 63.398438 84.339844 63.894531 83.53125 65.066406 C 80.867188 68.972656 79.800781 72.230469 79.617188 77.152344 C 79.515625 80.355469 79.460938 80.71875 79.015625 80.824219 C 78.441406 80.980469 78.105469 80.433594 77.324219 78.140625 C 76.589844 75.976562 76.644531 70.898438 77.453125 68.113281 C 78.625 64.078125 81.050781 58.605469 81.675781 58.605469 C 81.835938 58.605469 82.304688 58.789062 82.75 59.023438 C 84.546875 59.960938 87.285156 58.8125 87.914062 56.886719 C 88.433594 55.324219 88.121094 53.734375 87.050781 52.691406 C 84.105469 49.75 79.25 52.71875 80.632812 56.652344 C 81.027344 57.695312 81 57.71875 79.773438 60.222656 C 77.140625 65.507812 75.652344 71.34375 76.042969 74.757812 C 76.226562 76.242188 76.773438 78.921875 77.113281 79.835938 C 77.425781 80.695312 75.992188 79.285156 75.027344 77.75 C 71.53125 72.28125 71.714844 65.613281 75.625 57.824219 C 77.242188 54.621094 77.375 54.4375 78.132812 54.4375 C 79.460938 54.4375 80.085938 52.484375 78.992188 51.726562 C 78.234375 51.183594 77.375 51.207031 76.824219 51.757812 C 76.484375 52.09375 76.410156 52.460938 76.539062 53.316406 C 76.667969 54.308594 76.566406 54.699219 75.496094 56.601562 C 71.867188 63.085938 71.007812 69.339844 72.914062 75.40625 C 72.992188 75.691406 72.730469 75.277344 72.285156 74.46875 C 71.269531 72.542969 70.410156 69.179688 70.25 66.421875 C 70.148438 64.703125 70.277344 63.503906 70.773438 61.054688 C 71.503906 57.433594 72.46875 54.882812 74.453125 51.183594 C 75.675781 48.941406 75.941406 48.578125 76.484375 48.65625 C 78.234375 48.839844 78.625 48.785156 79.09375 48.214844 C 79.355469 47.875 79.566406 47.328125 79.566406 46.964844 C 79.566406 46.207031 78.496094 45.0625 77.765625 45.0625 C 77.035156 45.0625 75.941406 46.105469 75.808594 46.910156 C 75.757812 47.300781 75.15625 48.527344 74.503906 49.648438 C 72.914062 52.40625 71.398438 55.894531 70.566406 58.734375 C 70.015625 60.585938 69.835938 61.808594 69.730469 64.597656 C 69.601562 68.480469 69.886719 70.457031 71.035156 73.503906 C 71.398438 74.492188 71.6875 75.277344 71.632812 75.277344 C 71.503906 75.277344 69.964844 72.773438 69.390625 71.628906 C 67.382812 67.488281 66.523438 63.816406 66.523438 59.203125 C 66.523438 55.84375 66.886719 53.058594 67.722656 50.347656 L 68.347656 48.214844 L 69.183594 48.449219 C 70.199219 48.757812 71.714844 48.421875 72.757812 47.667969 C 75.261719 45.894531 74.972656 41.832031 72.234375 40.425781 C 69.285156 38.886719 65.867188 40.894531 65.867188 44.175781 C 65.867188 45.296875 66.027344 45.765625 66.730469 46.753906 L 67.589844 47.980469 L 66.941406 50.609375 C 65.921875 54.726562 65.660156 56.886719 65.792969 60.296875 C 66.078125 67.515625 68.921875 73.867188 74.398438 79.496094 C 75.339844 80.484375 76.070312 81.265625 76.015625 81.265625 C 75.835938 81.265625 73.957031 80.144531 72.574219 79.234375 C 71.792969 78.714844 70.824219 78.0625 70.460938 77.828125 C 69.078125 76.917969 65.53125 73.53125 63.886719 71.578125 C 60.523438 67.539062 58.984375 63.789062 58.773438 59.203125 C 58.589844 55.558594 58.722656 55.0625 59.867188 54.59375 C 60.859375 54.175781 61.433594 53.160156 61.148438 52.25 C 60.625 50.53125 58.722656 49.957031 57.46875 51.207031 C 56.921875 51.757812 56.816406 52.042969 56.949219 52.925781 C 57.027344 53.578125 57.285156 54.101562 57.625 54.359375 C 58.148438 54.726562 58.175781 54.882812 58.015625 56.992188 C 57.707031 61.210938 59.007812 65.742188 61.722656 69.882812 C 64.226562 73.6875 69.914062 78.714844 74.765625 81.394531 C 76.042969 82.125 77.007812 82.910156 77.738281 83.820312 L 78.835938 85.171875 L 77.164062 87.078125 C 73.539062 91.164062 70.722656 95.488281 67.851562 101.375 C 62.714844 111.898438 59.632812 123.90625 58.695312 136.878906 C 58.226562 143.414062 58.433594 155.058594 59.113281 161.257812 C 59.324219 163.316406 59.085938 163.1875 58.589844 160.945312 C 58.382812 160.035156 57.441406 156.285156 56.53125 152.636719 C 52.25 135.964844 50.53125 129.21875 50.191406 127.761719 C 50.007812 126.902344 49.433594 124.609375 48.941406 122.683594 C 47.84375 118.539062 48.105469 119.554688 46.304688 112.132812 C 42.441406 96.347656 42.183594 95.148438 41.242188 89.601562 C 39.546875 79.652344 39 73.609375 39.234375 67.332031 C 39.574219 58.136719 41.738281 50.089844 45.601562 43.550781 C 46.382812 42.25 46.75 41.882812 47.476562 41.675781 C 48 41.546875 48.808594 41.128906 49.304688 40.765625 C 49.929688 40.296875 50.53125 40.113281 51.339844 40.113281 C 54.234375 40.113281 60.3125 38.339844 63.523438 36.570312 C 68.113281 34.019531 72.027344 29.851562 74.632812 24.667969 C 75.46875 23 75.546875 22.921875 76.433594 22.921875 C 77.660156 22.921875 78.46875 22.324219 78.652344 21.253906 C 79.09375 18.964844 76.589844 17.53125 75 19.144531 C 74.292969 19.820312 74.113281 21.253906 74.632812 22.089844 C 74.84375 22.425781 74.660156 23 73.695312 24.875 C 70.277344 31.4375 65.140625 35.8125 58.042969 38.105469 C 56.113281 38.730469 52.722656 39.4375 52.515625 39.226562 C 52.460938 39.203125 53.398438 38.652344 54.574219 38.027344 C 63.730469 33.3125 69.757812 26.4375 71.453125 18.832031 C 71.765625 17.503906 72 16.121094 72 15.757812 C 72 15.261719 72.132812 15.105469 72.601562 15.105469 C 72.914062 15.105469 73.515625 14.871094 73.929688 14.613281 C 77.269531 12.398438 74.191406 7.554688 70.773438 9.636719 C 69.132812 10.628906 69.050781 13.441406 70.617188 14.457031 C 71.269531 14.898438 71.269531 14.976562 71.140625 16.773438 C 70.773438 21.332031 68.140625 26.28125 63.78125 30.605469 C 61.75 32.636719 57.050781 36.203125 56.425781 36.203125 C 56.324219 36.203125 56.921875 35.527344 57.808594 34.695312 C 60.46875 32.195312 61.984375 29.929688 63.3125 26.4375 C 64.695312 22.84375 65.269531 19.429688 65.324219 14.691406 L 65.347656 10.496094 L 66.574219 10.054688 C 67.382812 9.769531 68.058594 9.273438 68.632812 8.542969 C 69.390625 7.632812 69.496094 7.269531 69.523438 6.015625 C 69.523438 3.308594 67.484375 1.40625 64.824219 1.617188 C 60.390625 1.976562 59.21875 7.8125 63.183594 9.84375 C 64.304688 10.417969 64.433594 10.574219 64.589844 11.667969 C 64.800781 13.046875 64.539062 18.390625 64.175781 20.839844 C 63.15625 27.21875 59.425781 33.3125 54.675781 36.363281 C 54.105469 36.726562 54.339844 36.308594 55.644531 34.71875 C 58.90625 30.660156 60.941406 25.242188 61.226562 19.742188 C 61.355469 17.164062 61.410156 16.957031 62.007812 16.695312 C 63.757812 15.890625 63.15625 13.285156 61.199219 13.285156 C 59.476562 13.285156 58.824219 15.316406 60.15625 16.539062 C 60.808594 17.140625 60.835938 17.242188 60.652344 19.066406 C 60.183594 24.066406 59.269531 27.351562 57.496094 30.761719 C 56.425781 32.820312 54.261719 35.503906 52.695312 36.726562 L 51.601562 37.585938 L 52.90625 35.789062 C 54.601562 33.417969 55.644531 30.605469 56.347656 26.332031 C 56.894531 23.183594 56.921875 22.242188 56.816406 16.878906 C 56.714844 13.464844 56.765625 10.9375 56.894531 10.9375 C 57.417969 10.9375 58.175781 9.84375 58.175781 9.117188 C 58.175781 8.128906 57.15625 7.035156 56.269531 7.035156 C 55.25 7.035156 54.261719 7.96875 54.261719 8.960938 C 54.261719 9.871094 54.886719 10.9375 55.410156 10.9375 C 55.644531 10.9375 55.800781 11.511719 55.90625 12.6875 C 56.164062 15.421875 56.113281 22.816406 55.824219 25.265625 C 55.277344 29.695312 53.714844 33.808594 51.707031 36.203125 C 50.792969 37.273438 50.375 37.144531 50.972656 35.972656 C 51.207031 35.527344 51.730469 33.914062 52.09375 32.375 C 52.773438 29.746094 52.824219 29.199219 52.800781 23.964844 C 52.800781 18.390625 52.589844 16.460938 51.234375 9.949219 C 51.078125 9.21875 51.183594 8.960938 51.859375 8.257812 C 54.132812 5.910156 53.53125 2.527344 50.609375 1.042969 C 49.042969 0.261719 48.707031 0.234375 47.347656 0.886719 Z M 47.347656 0.886719 "/>
</g>
</svg>
