<?xml version="1.0" standalone="no"?>
<!DOCTYPE svg PUBLIC "-//W3C//DTD SVG 20010904//EN"
 "http://www.w3.org/TR/2001/REC-SVG-20010904/DTD/svg10.dtd">
<svg version="1.0" xmlns="http://www.w3.org/2000/svg"
 width="736.000000pt" height="942.000000pt" viewBox="0 0 736.000000 942.000000"
 preserveAspectRatio="xMidYMid meet">

<g transform="translate(0.000000,942.000000) scale(0.100000,-0.100000)"
fill="#A4AFC6" stroke="none">
<path d="M7355 4710 c0 -2593 1 -3654 2 -2357 2 1296 2 3418 0 4715 -1 1296
-2 235 -2 -2358z"/>
<path d="M2624 7655 c-32 -33 -64 -107 -64 -153 0 -20 -5 -56 -10 -80 -19 -82
23 -219 96 -309 33 -40 34 -44 36 -140 4 -152 -52 -399 -169 -748 -56 -165
-159 -388 -178 -386 -9 1 -47 199 -47 241 0 41 52 180 83 221 152 205 179 261
209 439 35 205 32 221 -55 267 -37 19 -53 21 -195 18 -182 -4 -294 -29 -406
-90 -110 -60 -138 -95 -114 -140 11 -20 9 -31 -14 -76 -34 -69 -34 -104 1
-132 47 -37 221 -218 284 -296 33 -41 67 -91 76 -113 10 -25 31 -50 59 -69 34
-23 44 -37 49 -67 4 -20 13 -70 21 -111 19 -96 28 -285 17 -336 l-9 -40 -21
45 c-42 94 -98 122 -206 102 -98 -18 -142 -46 -209 -131 -76 -97 -84 -116 -63
-159 24 -51 73 -108 118 -138 l41 -27 -50 -25 c-106 -53 -113 -76 -74 -242 22
-97 35 -132 65 -175 20 -30 43 -59 51 -66 23 -19 164 -28 180 -12 7 7 20 36
29 64 l17 50 15 -28 c8 -15 21 -35 29 -45 14 -14 14 -21 0 -62 -41 -121 -51
-189 -50 -351 0 -123 4 -170 17 -205 l17 -45 -26 30 c-14 17 -60 69 -101 117
l-75 88 20 27 c71 100 68 229 -8 298 -16 15 -25 17 -38 9 -32 -21 -43 -56 -40
-141 2 -44 0 -79 -4 -77 -3 2 -23 35 -44 72 -20 37 -69 108 -108 157 l-71 90
-6 185 c-7 198 -16 243 -65 307 -14 18 -31 33 -39 33 -37 0 -50 -234 -20 -351
9 -34 14 -63 12 -66 -7 -7 -55 59 -71 98 -7 18 -21 68 -31 110 l-16 77 52 108
c29 60 60 136 70 169 20 65 25 140 9 150 -21 13 -72 -54 -115 -150 -25 -55
-45 -109 -45 -119 0 -16 -2 -18 -12 -7 -9 8 -13 48 -12 133 l1 121 39 31 c123
97 218 218 226 286 8 66 -93 10 -172 -96 -25 -33 -55 -74 -67 -90 l-22 -29 4
80 c2 44 10 121 19 170 17 102 20 225 7 271 -13 45 -102 165 -121 162 -54 -10
-73 -206 -31 -322 11 -33 39 -93 61 -133 38 -71 40 -78 40 -166 0 -99 -4 -101
-45 -23 -43 81 -155 244 -172 250 -31 12 -46 -14 -40 -75 10 -110 76 -206 185
-269 l61 -35 1 -121 c0 -73 5 -139 14 -167 7 -25 12 -48 9 -51 -3 -2 -47 29
-99 70 -99 77 -128 88 -139 54 -13 -40 7 -83 64 -140 57 -57 108 -80 178 -80
27 0 30 -3 42 -62 26 -126 45 -161 137 -244 85 -77 157 -162 226 -263 42 -62
43 -76 1 -36 -44 42 -133 82 -219 100 -43 8 -105 21 -136 27 -32 6 -61 9 -64
5 -28 -28 93 -165 188 -213 39 -20 65 -26 122 -26 39 0 84 5 99 11 47 18 88
-7 146 -91 28 -40 96 -125 151 -188 71 -83 99 -123 100 -142 0 -15 -4 -29 -9
-33 -5 -3 -12 -19 -16 -35 -9 -43 -21 -45 -45 -5 -12 19 -54 55 -93 81 -40 26
-104 81 -144 122 -43 44 -77 71 -84 67 -18 -12 -4 -79 34 -158 47 -98 131
-180 238 -232 76 -38 81 -42 109 -100 16 -33 50 -132 75 -220 25 -88 50 -171
55 -185 5 -14 23 -72 40 -130 18 -58 46 -145 63 -195 30 -89 30 -92 28 -283
-2 -161 0 -202 15 -241 l17 -48 -43 -109 c-46 -118 -119 -397 -120 -456 0 -55
45 -186 106 -311 30 -60 54 -117 54 -127 0 -19 39 -129 71 -200 26 -56 178
-340 194 -360 6 -8 33 -76 59 -150 27 -74 72 -184 101 -245 49 -102 53 -116
58 -202 4 -77 10 -103 37 -160 18 -37 42 -78 53 -90 44 -49 122 -20 198 72 68
83 89 191 98 519 4 162 9 220 19 224 6 2 12 -2 12 -8 0 -18 78 -180 107 -222
30 -44 94 -78 148 -78 65 0 151 53 168 103 2 7 15 2 36 -15 64 -54 129 -47
200 23 53 50 71 79 85 135 12 47 12 47 73 64 34 9 78 29 97 44 41 31 100 146
117 228 8 37 22 65 48 93 20 22 52 67 71 100 l34 59 14 -34 c22 -56 51 -89
115 -136 64 -47 109 -57 125 -26 20 37 34 160 29 257 -3 55 -5 105 -5 110 0 6
2 80 5 165 2 85 0 189 -5 230 -8 69 -7 76 11 89 28 20 43 64 56 166 7 50 20
124 29 165 12 51 17 117 16 205 0 111 -3 137 -22 178 -23 51 -131 200 -224
309 l-57 66 -7 94 c-9 135 10 350 36 418 27 69 34 77 73 85 55 12 147 67 185
110 39 44 71 103 104 189 30 78 33 96 14 96 -29 0 -189 -102 -239 -154 -40
-41 -48 -46 -42 -26 12 41 52 202 63 255 6 28 22 87 36 133 14 45 37 136 50
202 14 65 30 128 36 140 6 11 34 32 62 46 113 57 199 170 214 282 9 67 -4 68
-88 4 -100 -76 -158 -114 -158 -102 0 25 90 191 139 255 107 140 175 215 191
211 52 -15 183 -27 234 -21 116 13 246 85 246 138 0 18 -4 19 -54 13 -30 -3
-96 -10 -148 -16 -51 -5 -117 -14 -147 -20 -30 -5 -56 -8 -58 -6 -2 2 36 33
84 68 48 36 112 87 142 114 97 89 138 107 266 118 87 8 248 58 289 90 43 32
65 100 63 192 -2 55 -7 68 -49 130 -25 38 -52 83 -60 99 -10 23 -24 33 -58 43
-25 8 -80 27 -123 44 -85 32 -117 32 -162 -4 -33 -25 -105 -173 -105 -213 0
-16 -7 -70 -16 -118 -13 -68 -14 -95 -5 -113 15 -34 14 -176 -1 -195 -25 -30
-158 -142 -163 -137 -3 3 4 17 16 32 26 33 27 95 2 186 -24 86 -42 89 -76 13
-35 -80 -46 -147 -35 -229 l9 -69 -34 -27 c-48 -39 -200 -216 -276 -321 -35
-48 -66 -85 -69 -83 -8 9 38 113 136 311 122 244 152 324 207 545 25 101 45
184 45 186 0 3 24 15 53 28 106 47 203 159 237 276 22 74 30 161 15 166 -5 2
-62 -52 -125 -120 -63 -68 -116 -122 -117 -121 -2 1 2 37 7 81 7 58 19 97 45
148 19 37 35 76 35 86 0 10 20 55 45 101 64 122 91 203 99 295 7 94 -10 364
-24 378 -6 6 -45 -26 -109 -91 -83 -84 -107 -116 -141 -187 -49 -102 -57 -145
-39 -218 7 -30 12 -90 10 -138 -2 -73 2 -99 28 -181 17 -53 31 -111 31 -129 0
-40 -29 -199 -39 -218 -5 -8 -15 33 -25 94 -20 119 -40 173 -81 222 -41 49
-50 31 -48 -98 1 -101 4 -115 33 -177 17 -38 45 -89 61 -115 l30 -47 -49 -198
c-28 -109 -55 -211 -61 -228 l-12 -29 -23 64 c-34 96 -71 164 -106 194 -34 28
-55 33 -66 14 -14 -22 -5 -123 15 -181 26 -76 54 -113 101 -137 21 -11 41 -24
44 -29 3 -4 -40 -100 -95 -212 -143 -289 -179 -397 -214 -644 -30 -214 -86
-469 -107 -490 -3 -3 -8 108 -11 247 -6 259 -6 258 -64 515 -4 16 3 27 31 45
46 29 56 61 56 168 0 72 -4 95 -23 131 -32 59 -51 61 -78 7 -16 -31 -24 -69
-29 -138 -4 -68 -9 -89 -15 -75 -5 11 -24 44 -43 73 l-33 53 30 47 c51 79 83
252 47 252 -27 0 -74 -72 -99 -149 l-24 -76 -19 35 c-14 27 -19 59 -20 135 -2
116 -16 161 -64 195 -25 18 -36 21 -49 13 -36 -24 -3 -173 51 -230 17 -19 57
-110 58 -135 0 -4 -24 4 -53 17 -29 13 -78 30 -107 39 -47 14 -56 14 -68 2
-13 -12 -8 -22 38 -70 78 -83 169 -121 240 -102 24 7 29 1 72 -76 43 -76 111
-272 101 -291 -2 -4 -22 15 -43 41 -55 71 -102 105 -175 131 -63 23 -115 23
-115 1 0 -24 60 -137 88 -167 43 -45 126 -84 194 -91 32 -2 63 -11 69 -19 9
-9 14 -112 17 -332 4 -280 3 -327 -13 -390 -9 -39 -20 -71 -24 -71 -3 0 -12
24 -18 53 -36 155 -188 359 -237 318 -76 -63 55 -357 193 -430 27 -15 27 -21
-9 -130 -54 -163 -61 -212 -67 -448 -4 -181 -2 -241 12 -325 18 -109 80 -318
98 -330 7 -4 1 -27 -16 -65 -64 -143 -96 -371 -63 -456 15 -40 55 -86 120
-140 26 -21 31 -34 37 -93 5 -38 8 -137 8 -221 l1 -151 -26 -19 c-32 -23 -54
-101 -54 -188 0 -48 6 -71 30 -114 17 -30 28 -56 26 -59 -11 -11 -51 14 -105
66 -49 47 -62 67 -76 114 -15 53 -15 61 0 105 48 141 21 514 -56 793 -37 131
-110 270 -142 270 -7 0 -23 18 -37 41 -14 22 -32 45 -41 50 -23 12 -100 -16
-129 -46 -19 -20 -22 -32 -18 -76 5 -48 -8 -109 -23 -109 -4 0 -12 13 -19 29
-6 16 -28 46 -48 65 -55 56 -103 47 -146 -27 -20 -35 -25 -62 -32 -167 -4 -69
-8 -162 -8 -207 -1 -89 -10 -109 -19 -41 -10 78 -86 120 -140 78 -31 -25 -61
-78 -72 -130 -4 -19 -17 -47 -29 -63 -19 -26 -21 -42 -21 -150 1 -87 6 -140
19 -187 10 -36 21 -81 23 -100 l4 -35 -25 32 c-35 42 -87 73 -123 73 -32 0
-59 -24 -86 -75 -64 -120 -69 -135 -83 -273 -7 -75 -14 -172 -14 -214 0 -60
-3 -78 -14 -78 -11 0 -15 -51 -19 -277 -8 -376 -26 -475 -105 -556 -50 -52
-89 -72 -108 -56 -19 16 -18 23 8 34 13 6 33 28 46 50 20 35 22 50 19 125 -2
50 -9 94 -17 107 -22 35 -65 48 -111 36 -22 -6 -41 -7 -44 -3 -18 29 -48 215
-52 321 -7 167 2 259 26 259 33 0 86 -45 109 -93 22 -47 38 -58 48 -34 14 39
-60 137 -119 156 -20 7 -37 19 -37 27 0 8 20 63 44 122 24 59 69 169 100 244
83 204 131 299 174 349 87 99 252 313 249 322 -9 28 -32 10 -105 -85 -44 -57
-108 -134 -142 -173 -73 -82 -105 -143 -213 -400 -121 -291 -157 -390 -167
-468 -12 -90 -12 -280 -1 -329 17 -72 -3 -48 -41 49 -105 270 -140 443 -114
549 11 44 53 21 73 -40 11 -35 30 -45 40 -20 9 25 -35 102 -68 120 -16 8 -26
20 -24 27 32 99 70 227 94 322 71 270 138 408 264 541 63 67 87 98 79 106 -14
14 -38 -6 -129 -104 -39 -43 -88 -106 -107 -141 -48 -85 -110 -256 -147 -402
-17 -66 -45 -167 -64 -225 -51 -161 -57 -193 -59 -280 0 -44 -3 -80 -7 -80 -8
0 -117 224 -150 310 -29 75 -40 192 -20 204 10 7 70 -72 89 -116 6 -16 16 -28
21 -28 37 0 -6 108 -63 158 -44 38 -45 12 20 277 78 312 145 492 223 594 69
92 45 115 -28 27 -55 -68 -102 -168 -155 -332 -40 -124 -124 -447 -142 -546
-3 -21 -10 -38 -14 -38 -18 0 -106 227 -112 290 -3 30 0 35 17 32 11 -2 29
-14 40 -28 25 -29 45 -31 45 -4 0 29 -44 70 -75 70 -34 0 -33 12 11 184 34
135 54 191 159 441 26 61 57 135 70 165 77 185 147 324 191 380 100 126 255
362 315 477 34 65 85 163 114 218 64 120 97 213 177 490 41 146 64 244 72 320
13 119 22 142 63 175 64 49 159 150 199 211 90 138 128 342 51 271 -12 -10
-53 -38 -92 -60 -78 -45 -132 -97 -164 -157 l-22 -40 5 57 c11 105 101 351
163 443 71 103 89 122 137 140 l44 17 45 -35 c57 -44 87 -51 167 -38 105 17
191 71 157 99 -32 27 -218 36 -342 16 -29 -5 -28 -3 24 45 71 66 117 81 254
81 108 0 110 0 225 49 149 62 141 60 179 44 18 -7 54 -13 81 -13 41 0 55 5 89
35 25 21 52 35 67 35 30 0 80 23 176 82 76 46 125 113 170 230 38 101 44 137
23 145 -23 9 -155 -32 -250 -78 -59 -29 -97 -55 -136 -97 -149 -156 -206 -220
-228 -255 -20 -32 -39 -45 -119 -78 -149 -63 -169 -69 -226 -69 -30 0 -54 2
-54 5 0 3 20 33 45 68 58 78 78 143 69 220 -8 71 -25 91 -68 81 -50 -11 -83
-40 -113 -101 -25 -51 -27 -67 -25 -148 1 -49 3 -99 4 -109 3 -16 -5 -21 -41
-28 -24 -4 -55 -15 -70 -25 -71 -46 -215 -181 -267 -250 -32 -43 -62 -82 -67
-88 -12 -14 1 92 23 190 10 44 23 112 30 150 15 84 22 99 168 375 117 222 132
246 241 368 56 62 69 72 98 72 18 0 33 -2 33 -5 0 -2 -12 -16 -26 -30 -20 -20
-25 -33 -22 -67 4 -59 33 -77 139 -87 65 -6 102 -16 162 -44 107 -50 134 -54
193 -27 58 25 98 61 115 102 12 29 11 32 -19 57 -28 23 -80 117 -70 127 2 2
28 -5 56 -16 66 -25 103 -25 144 0 18 11 40 20 49 20 30 0 116 88 135 135 20
54 15 183 -10 280 -17 63 -90 215 -110 227 -34 23 -139 -2 -209 -48 -39 -25
-59 -26 -40 -2 16 20 33 107 35 172 2 62 -17 91 -51 82 -91 -25 -162 -28 -257
-11 -194 35 -216 32 -250 -42 -25 -52 -23 -93 9 -134 14 -19 37 -60 51 -90 13
-30 37 -70 52 -89 l28 -33 -47 7 c-26 4 -66 16 -90 26 -116 51 -231 49 -255
-5 -19 -41 -14 -63 26 -123 37 -54 39 -62 45 -159 6 -104 19 -146 60 -190 11
-13 26 -23 34 -23 24 0 13 -25 -35 -75 -90 -96 -121 -141 -193 -280 -103 -199
-95 -195 -103 -53 l-7 121 35 36 c44 46 76 110 115 234 35 110 38 135 15 144
-34 13 -108 -87 -149 -200 -13 -34 -27 -63 -32 -64 -5 -2 -16 16 -25 39 -9 24
-27 67 -39 95 l-23 53 32 32 c62 65 146 292 119 326 -16 21 -35 14 -76 -28
-41 -42 -85 -123 -96 -177 -4 -18 -10 -33 -13 -33 -4 0 -22 40 -41 88 -32 82
-34 96 -40 252 -6 152 -8 169 -33 220 -32 64 -111 154 -130 148 -19 -7 -14
-209 6 -266 9 -24 40 -85 71 -137 30 -52 55 -97 55 -100 0 -4 13 -37 29 -73
50 -116 49 -124 -11 -60 -61 66 -117 98 -170 98 -33 0 -38 -3 -38 -24 0 -53
129 -182 237 -237 34 -18 67 -37 72 -43 13 -16 82 -178 78 -182 -2 -2 -25 16
-51 41 -78 72 -240 141 -272 114 -41 -34 8 -128 96 -187 60 -41 148 -79 205
-89 51 -9 55 -23 55 -187 0 -137 -2 -154 -21 -186 -12 -19 -32 -62 -44 -94
l-22 -59 -43 84 c-76 150 -143 238 -174 226 -28 -11 -29 -67 -2 -152 36 -113
80 -181 144 -224 60 -40 59 -33 28 -171 -9 -36 -15 -80 -16 -97 0 -18 -4 -33
-10 -33 -5 0 -10 6 -10 13 0 36 -238 355 -277 371 -32 13 -31 -31 4 -144 55
-183 86 -229 227 -345 l37 -30 -30 -75 c-16 -41 -34 -76 -39 -78 -5 -1 -12 15
-16 36 -10 65 -158 244 -186 227 -18 -11 -6 -115 25 -213 24 -77 32 -89 93
-147 l66 -63 -18 -199 c-9 -109 -21 -233 -26 -275 -11 -93 -90 -370 -104 -365
-5 2 -37 41 -71 88 -53 74 -71 113 -143 304 -45 121 -93 252 -106 290 -14 39
-34 93 -45 122 l-20 51 50 33 c73 46 95 86 113 199 20 129 24 242 9 247 -7 3
-21 -13 -32 -35 -11 -21 -45 -72 -76 -113 -62 -80 -94 -141 -95 -176 0 -45
-17 -21 -28 41 -8 41 -12 190 -12 421 l0 357 25 -6 c63 -16 171 44 231 126 55
77 96 182 102 260 8 113 -11 143 -71 111 -80 -41 -142 -112 -209 -238 -38 -71
-46 -67 -27 15 6 25 14 115 18 201 8 175 7 172 107 281 29 31 58 74 64 94 28
85 -11 304 -54 304 -19 0 -101 -108 -129 -170 -21 -49 -21 -47 -17 -397 2
-162 -1 -213 -20 -323 -13 -71 -26 -130 -29 -130 -3 0 -23 32 -44 70 -42 77
-97 137 -134 146 -30 8 -34 4 -43 -47 -10 -55 8 -127 45 -175 15 -20 58 -59
96 -86 l67 -49 1 -135 c0 -74 -3 -134 -7 -134 -4 0 -23 37 -42 82 -53 123
-137 200 -174 159 -21 -23 -6 -82 45 -188 42 -88 82 -128 137 -139 l32 -6 0
-162 c0 -153 15 -289 41 -376 16 -51 130 -367 214 -589 60 -162 80 -199 159
-306 43 -57 65 -94 61 -104 -4 -9 -21 -59 -40 -111 -76 -219 -297 -606 -500
-874 -67 -89 -85 -123 -148 -271 -19 -44 -44 -100 -55 -125 -21 -45 -66 -153
-84 -200 -18 -47 -28 1 -28 135 0 224 22 363 88 559 l57 170 62 16 c141 38
247 118 302 227 26 53 32 93 14 93 -12 0 -201 -104 -233 -128 -19 -15 -54 -47
-77 -71 -24 -25 -45 -42 -48 -39 -15 14 37 111 86 162 30 31 71 84 92 118 l39
63 -4 100 c-5 121 -58 309 -85 303 -9 -2 -32 -47 -60 -118 -24 -63 -50 -128
-57 -145 -8 -16 -22 -59 -31 -95 -17 -64 -17 -103 1 -257 4 -29 3 -74 -1 -100
-9 -57 -14 -47 -40 72 -21 95 -31 118 -78 168 -35 36 -60 46 -72 28 -3 -5 -1
-52 5 -103 12 -104 40 -177 95 -244 19 -23 35 -51 35 -62 0 -11 -20 -81 -45
-156 -24 -75 -47 -152 -51 -171 -3 -19 -10 -35 -14 -35 -7 0 -57 148 -85 250
-7 25 -27 92 -45 149 l-33 104 31 62 c41 80 56 185 47 331 -8 130 -14 147 -45
119 -41 -37 -82 -139 -89 -222 l-6 -78 -28 80 c-15 44 -27 90 -27 102 0 12 16
54 35 94 19 41 35 83 35 95 0 64 99 294 126 294 8 0 14 -4 14 -9 0 -5 17 -20
38 -33 33 -21 49 -23 154 -23 l118 0 36 37 c45 44 41 62 -22 89 -50 22 -152
30 -216 16 -36 -7 -30 0 113 145 162 164 191 207 191 285 0 52 -11 68 -41 58
-55 -17 -174 -200 -188 -290 -3 -22 -19 -59 -34 -81 -27 -40 -88 -98 -95 -92
-2 2 3 22 11 43 19 55 19 155 -1 183 -20 29 -35 28 -66 -5 -62 -67 -77 -147
-43 -240 19 -52 19 -53 -2 -75 -29 -31 -89 -164 -104 -232 -7 -31 -15 -56 -19
-56 -4 0 -15 19 -25 43 -15 33 -19 75 -22 197 -4 144 -2 163 24 265 l28 110
40 3 c34 3 49 13 110 76 38 40 81 79 95 86 44 23 167 119 174 135 3 9 6 41 6
71 0 47 -3 56 -26 70 l-26 17 31 24 c53 42 40 111 -44 229 -25 35 -58 87 -73
116 -19 37 -35 54 -54 59 -36 9 -87 -17 -113 -57 -47 -74 -46 -74 -39 -9 4 33
8 102 9 152 2 80 6 98 27 131 104 156 237 538 313 897 41 196 45 207 97 265
28 30 54 65 58 76 5 13 35 34 73 52 99 46 246 210 247 275 1 79 -52 177 -94
177 -7 0 -25 14 -42 31 -16 17 -48 44 -71 60 -35 25 -51 29 -107 29 -36 0 -67
-4 -70 -9 -6 -9 20 -35 46 -44 23 -8 33 -53 19 -84 -10 -21 -16 -24 -39 -18
-15 3 -44 17 -65 31 -21 14 -49 29 -62 34 -18 7 -25 17 -25 35 0 26 1 27 64
29 62 2 58 26 -4 26 -41 0 -56 -5 -76 -25z m317 -26 c22 -17 52 -43 68 -58 15
-14 43 -35 62 -46 42 -25 60 -82 33 -102 -27 -20 -59 -16 -100 12 -21 14 -49
28 -63 32 -14 3 -45 14 -69 24 l-42 19 20 20 c25 25 25 56 0 98 l-20 32 36 0
c25 0 48 -9 75 -31z m-333 -89 c-28 -38 -34 -25 -13 27 14 32 18 35 26 21 7
-13 4 -25 -13 -48z m111 -5 c20 -14 88 -43 150 -65 141 -49 161 -61 161 -101
0 -71 -72 -169 -176 -239 -88 -58 -126 -64 -171 -26 -34 29 -78 106 -98 173
-18 58 -19 156 -3 186 21 40 71 97 85 97 7 0 31 -11 52 -25z m1699 -69 c97
-26 174 -29 253 -12 98 23 104 17 90 -87 -14 -102 -43 -169 -99 -233 -26 -29
-50 -54 -53 -54 -3 0 -13 16 -22 35 -21 44 -41 45 -58 3 -7 -18 -13 -34 -14
-35 -5 -8 -140 29 -155 42 -10 9 -30 41 -44 71 -14 30 -42 77 -61 105 -19 28
-35 55 -35 60 0 17 31 83 47 101 20 22 77 23 151 4z m-895 -126 c15 -33 22
-75 27 -160 3 -63 5 -117 3 -119 -4 -5 -3 -6 -42 58 -56 92 -73 148 -78 251
l-4 95 37 -40 c20 -22 46 -60 57 -85z m-393 46 c0 -51 -129 -207 -208 -251
-25 -14 -47 -25 -50 -25 -3 0 19 22 50 50 66 58 117 134 125 185 5 28 13 39
37 50 43 19 46 18 46 -9z m2564 -68 c3 -29 6 -114 6 -189 0 -167 -20 -244 -97
-377 l-25 -42 -24 32 c-39 54 -46 79 -40 138 10 99 55 301 79 353 30 66 75
137 86 137 4 0 11 -24 15 -52z m-705 -142 c0 -71 5 -106 22 -147 29 -76 24
-178 -13 -234 -14 -22 -33 -64 -43 -92 -25 -79 -66 -99 -146 -72 -66 23 -93
52 -119 130 -13 41 -23 79 -21 84 2 6 3 22 2 36 -1 22 5 28 39 39 48 16 50 29
9 52 l-30 18 22 31 c25 35 16 49 -33 49 -16 0 -28 4 -28 8 0 7 62 68 121 120
37 32 136 71 181 72 l37 0 0 -94z m581 63 c-32 -59 -96 -362 -83 -394 3 -8 0
-15 -6 -15 -7 0 -14 8 -17 18 -4 9 -13 32 -21 51 -24 53 -13 133 31 226 20 44
51 95 68 112 35 36 46 37 28 2z m-485 -194 c26 -97 31 -207 11 -257 -24 -62
-68 -109 -116 -123 -20 -7 -23 -5 -14 6 6 8 14 28 18 44 4 17 19 48 34 70 37
56 43 173 13 259 -13 37 -21 82 -20 120 l1 61 28 -60 c16 -33 36 -87 45 -120z
m-881 60 c69 -25 115 -35 156 -35 53 0 58 -2 53 -20 -4 -14 4 -25 31 -41 20
-11 36 -24 36 -27 0 -4 -18 -20 -40 -35 -22 -16 -40 -32 -40 -37 0 -6 21 -7
48 -3 90 13 87 14 84 -39 -3 -38 -1 -48 11 -48 9 0 18 9 22 19 10 33 31 44 54
29 12 -7 21 -20 21 -29 0 -9 11 -41 24 -71 13 -29 34 -87 46 -128 12 -41 31
-90 42 -108 11 -18 18 -35 15 -38 -16 -16 -76 -2 -149 34 -64 31 -104 43 -173
53 -49 6 -100 19 -113 27 l-23 15 49 51 c63 66 156 196 140 196 -7 0 -36 -33
-65 -73 -29 -40 -74 -94 -100 -120 l-47 -47 -71 0 c-65 0 -74 2 -99 29 -39 40
-53 90 -55 190 -2 82 -4 89 -41 145 -45 66 -49 97 -20 126 30 30 91 25 204
-15z m-1098 -52 c-9 -22 -24 -14 -19 10 4 15 2 19 -5 12 -6 -5 -12 -17 -14
-25 -2 -8 -10 -20 -19 -27 -9 -7 -19 -21 -22 -33 -4 -17 -2 -18 15 -9 11 6 17
17 14 25 -3 8 -2 14 3 14 5 0 12 -11 15 -25 9 -35 26 -31 21 5 -3 30 8 40 20
19 4 -5 7 -41 7 -79 1 -72 -20 -136 -48 -147 -8 -3 -12 -9 -9 -13 3 -5 -3 -8
-14 -7 -16 1 -12 8 21 40 30 29 38 44 34 60 -3 12 -6 35 -6 50 0 17 -4 26 -10
22 -6 -4 -8 -21 -4 -40 12 -66 -18 -98 -49 -52 l-16 22 0 -23 c-1 -13 3 -21 8
-17 18 11 22 -15 6 -39 -18 -26 -12 -51 8 -40 7 4 -1 -7 -18 -25 l-30 -32 -8
38 c-5 21 -7 76 -5 123 5 91 28 153 84 220 28 32 28 32 36 9 5 -12 6 -29 4
-36z m-316 1 c0 -10 -63 -84 -72 -84 -4 0 -8 18 -8 39 0 37 2 40 33 44 17 2
35 5 40 5 4 1 7 -1 7 -4z m-273 -70 l53 -26 0 -84 c0 -45 -5 -86 -10 -89 -6
-4 -8 -11 -4 -16 8 -13 -22 -142 -52 -219 -23 -61 -104 -188 -104 -164 0 7 6
17 14 23 7 6 23 46 36 89 12 42 31 93 41 113 19 38 44 228 35 265 -6 24 -109
104 -133 104 -7 0 -13 4 -13 9 0 9 21 14 69 20 8 0 38 -11 68 -25z m-207 6
c-8 -5 -22 -10 -30 -10 -21 0 -95 -52 -95 -67 0 -25 -112 -73 -192 -82 -43 -4
-95 -15 -115 -24 -20 -8 -39 -13 -42 -9 -12 12 -5 49 12 64 39 34 170 92 256
113 94 23 234 33 206 15z m1510 1 c0 -6 -4 -12 -9 -15 -4 -3 -6 -16 -4 -30 3
-16 -13 -61 -46 -130 -69 -143 -86 -140 -51 9 14 61 80 173 103 175 4 0 7 -4
7 -9z m-1395 -48 c11 -6 33 -25 49 -42 28 -30 29 -31 24 -123 -4 -66 -13 -112
-31 -158 -14 -36 -33 -90 -42 -120 -9 -30 -38 -92 -65 -137 -26 -45 -51 -91
-55 -102 -11 -35 -28 -25 -21 12 12 55 30 307 30 413 1 93 -1 104 -27 142 -15
23 -40 51 -57 63 l-30 23 40 22 c22 12 50 24 62 26 31 5 99 -6 123 -19z m1083
-51 c29 -21 138 -170 130 -178 -7 -7 -69 26 -126 68 -51 38 -121 121 -122 145
0 16 78 -7 118 -35z m-1261 -44 c57 -60 63 -127 34 -368 -7 -52 -15 -124 -19
-159 -7 -64 -7 -64 -46 -78 -51 -17 -65 -12 -99 37 -47 67 -252 280 -302 314
-24 17 -27 23 -22 59 8 57 54 119 100 134 20 7 71 17 112 22 53 6 90 18 127
39 29 17 60 31 69 31 8 1 29 -14 46 -31z m3261 -83 c33 -35 42 -52 42 -79 0
-42 -39 -151 -50 -139 -4 4 -17 37 -29 72 -20 63 -30 191 -13 191 4 0 26 -20
50 -45z m-1573 -85 c-9 -16 -12 -30 -8 -30 5 0 0 -5 -11 -11 -10 -7 -14 -14
-8 -18 6 -4 0 -34 -15 -81 -31 -92 -40 -105 -61 -88 -13 11 -14 10 -4 -8 9
-16 8 -26 -3 -40 -7 -11 -17 -15 -22 -10 -4 5 -3 11 3 13 7 2 10 12 7 23 -3
10 2 31 10 47 8 15 21 48 29 73 15 43 83 160 94 160 2 0 -2 -13 -11 -30z
m-407 -94 c35 -14 78 -34 96 -45 60 -38 151 -149 134 -166 -9 -9 -112 27 -181
62 -71 38 -132 97 -140 138 -8 43 5 45 91 11z m877 -20 c44 -9 101 -21 127
-26 27 -5 65 -20 85 -34 60 -38 107 -50 149 -36 44 15 50 9 29 -27 -34 -58
-127 -100 -183 -83 -15 4 -67 25 -117 45 -65 27 -110 39 -160 43 -79 5 -105
21 -105 64 0 38 43 82 73 75 12 -3 58 -12 102 -21z m1311 -73 c-2 -10 -12 -47
-20 -82 -17 -68 -57 -130 -123 -192 -50 -47 -83 -69 -105 -69 -14 0 -16 6 -11
33 11 62 38 103 143 214 105 111 126 128 116 96z m-2478 -102 c-6 -95 -53
-211 -112 -278 -56 -63 -171 -115 -190 -84 -8 13 47 161 90 241 22 40 55 90
74 113 39 45 118 99 133 90 5 -3 7 -38 5 -82z m1947 -38 c-85 -132 -334 -373
-385 -373 -9 0 -33 18 -54 39 l-39 39 61 75 c75 91 118 130 185 164 71 36 197
82 226 83 23 0 23 0 6 -27z m-2391 -96 c61 -82 118 -227 88 -227 -29 0 -148
113 -168 159 -14 34 -19 122 -8 134 10 9 60 -29 88 -66z m3161 47 c36 -14 65
-30 65 -34 0 -4 -11 -31 -24 -60 -23 -50 -25 -51 -36 -30 -7 12 -36 47 -66 76
-30 30 -54 59 -54 64 0 18 48 11 115 -16z m-4548 -84 c14 -28 17 -57 15 -150
-1 -63 -6 -131 -10 -150 l-8 -35 -26 45 c-58 99 -87 288 -57 367 l10 28 29
-35 c16 -19 37 -51 47 -70z m4427 65 c20 -31 20 -35 -3 -35 -10 0 -30 -9 -44
-20 -38 -30 -41 -25 -11 30 15 28 30 50 34 50 4 0 15 -11 24 -25z m-664 -10
c0 -12 -64 -132 -85 -161 -24 -32 -197 -138 -215 -132 -6 2 18 25 52 51 55 41
217 212 226 238 4 9 22 13 22 4z m915 -11 c9 -4 27 -28 40 -53 13 -26 31 -53
40 -61 29 -24 56 -89 53 -128 -3 -34 -6 -37 -31 -35 -16 1 -40 15 -60 36 -17
19 -51 44 -73 55 -51 26 -56 38 -39 94 30 99 35 105 70 92z m-196 -49 c16 -8
42 -36 59 -63 30 -48 49 -67 130 -123 23 -16 42 -36 42 -45 0 -25 -47 -98 -77
-121 -35 -25 -176 -88 -221 -98 -45 -10 -73 11 -105 79 l-27 56 14 115 c13
114 13 117 52 156 57 60 85 69 133 44z m-1604 -89 c4 -30 4 -69 0 -87 -12 -56
-117 -215 -135 -204 -4 2 -11 36 -14 75 -12 120 23 226 84 257 48 24 58 18 65
-41z m-752 -63 c65 -89 165 -303 142 -303 -17 0 -66 34 -92 63 -38 43 -92 173
-100 238 -7 63 5 63 50 2z m1202 -74 l40 -40 -29 -26 c-22 -19 -36 -23 -59
-19 -16 3 -38 6 -48 6 -11 0 -19 7 -19 17 0 24 49 103 63 103 7 0 31 -18 52
-41z m1481 -56 c-13 -55 -27 -79 -57 -97 -30 -18 -208 -70 -215 -64 -2 3 20
17 49 32 65 35 92 60 124 114 23 38 28 42 65 42 39 0 40 -1 34 -27z m-3483
-14 c24 -18 73 -109 107 -199 7 -19 18 -41 23 -47 12 -16 8 -16 -32 -2 -49 17
-106 112 -139 232 -12 44 0 49 41 16z m2418 -11 c43 -45 129 -260 109 -273 -4
-3 -28 10 -52 28 -31 24 -49 48 -66 90 -24 62 -38 137 -29 161 8 21 12 20 38
-6z m-3491 -23 c0 -3 -10 -25 -21 -48 -21 -41 -174 -207 -191 -207 -17 0 -7
23 41 93 63 93 171 195 171 162z m3845 -167 c16 -74 15 -78 -4 -115 -23 -42
-45 -73 -54 -73 -15 0 -17 103 -4 157 19 71 36 117 42 111 3 -2 12 -39 20 -80z
m-2121 13 c-7 -7 -34 21 -34 36 0 10 6 8 19 -8 11 -13 18 -26 15 -28z m12 -23
c-15 25 5 11 40 -28 73 -81 141 -192 159 -260 6 -25 6 -25 -11 -5 -16 20 -16
20 -11 -2 3 -13 2 -23 -2 -23 -14 0 -29 23 -24 36 6 17 -36 64 -57 64 -9 0 -1
-12 20 -29 19 -16 31 -33 27 -37 -4 -4 -27 13 -51 39 -42 43 -90 144 -112 232
-7 28 -6 29 11 15 11 -9 16 -10 11 -2z m1082 -21 c13 -13 27 -39 32 -58 11
-38 13 -119 4 -119 -23 0 -61 83 -70 151 -7 55 1 61 34 26z m-2266 -34 c53
-58 62 -88 63 -223 l0 -125 -25 3 c-14 2 -44 17 -67 33 -37 26 -43 28 -51 13
-5 -9 -6 -32 -1 -52 4 -20 5 -40 3 -44 -9 -14 -116 -6 -168 13 -27 10 -62 31
-78 46 -37 35 -88 112 -88 131 0 15 61 101 109 155 48 54 106 74 212 76 59 1
68 -2 91 -26z m2020 -11 c22 -22 -75 -56 -162 -56 -66 -1 -80 2 -107 24 -37
29 -40 37 -15 44 35 10 271 1 284 -12z m-1737 -77 c14 -13 25 -30 25 -38 0 -7
29 -55 65 -106 45 -66 66 -107 71 -137 7 -51 -3 -68 -54 -89 -36 -16 -140 -8
-180 14 -12 6 -32 11 -46 11 -36 0 -55 10 -50 25 3 7 0 23 -6 35 -6 11 -12 42
-12 68 -2 66 71 208 116 228 42 18 43 18 71 -11z m-917 -60 c-9 -59 -90 -261
-115 -285 -13 -13 -14 -9 -8 40 4 30 16 78 27 105 51 128 59 148 74 171 25 38
32 29 22 -31z m3107 -33 c-12 -62 -53 -152 -67 -152 -11 0 0 59 23 129 33 96
63 112 44 23z m-1561 -79 c-4 -15 -12 -33 -18 -39 -61 -63 -69 -77 -52 -89 9
-7 16 -18 16 -26 -1 -9 -7 -6 -19 8 -16 19 -20 20 -25 7 -9 -24 -6 -42 4 -19
8 19 9 19 9 -1 1 -12 9 -25 19 -29 16 -6 16 -7 -1 -16 -9 -6 -15 -13 -13 -17
2 -4 -4 -19 -15 -32 l-19 -25 -1 25 c-1 23 -2 22 -8 -5 -8 -35 -1 -41 29 -25
13 7 19 17 16 26 -3 8 -2 12 3 9 14 -8 23 12 29 59 2 23 6 43 8 45 2 2 -4 10
-14 17 -16 12 -15 15 9 36 14 13 28 30 32 38 12 31 7 -41 -8 -110 -17 -82 -34
-108 -89 -140 l-39 -22 6 75 c5 65 10 83 41 129 55 82 101 147 104 147 1 1 -1
-11 -4 -26z m340 -128 c23 -39 61 -184 55 -204 -5 -12 -94 62 -109 90 -24 44
-65 209 -61 243 2 14 88 -83 115 -129z m955 114 c43 -13 51 -23 25 -33 -8 -3
-12 -11 -8 -17 4 -8 1 -8 -12 -1 -27 15 -83 76 -63 69 10 -3 35 -11 58 -18z
m-809 1 c0 -5 -5 -10 -11 -10 -5 0 -7 5 -4 10 3 6 8 10 11 10 2 0 4 -4 4 -10z
m1200 -37 c21 -45 25 -172 7 -216 -18 -41 -44 -58 -58 -36 -12 20 -11 182 2
235 13 50 30 56 49 17z m-3515 -44 c44 -33 92 -70 108 -82 39 -30 35 -47 -10
-40 -57 8 -126 49 -161 96 -29 37 -43 87 -24 87 4 0 43 -27 87 -61z m3245 26
c22 -14 40 -30 40 -35 0 -11 -63 -14 -74 -3 -3 4 -16 8 -28 10 -26 4 -34 10
-25 19 4 4 26 -1 50 -10 57 -21 69 -20 32 4 -16 11 -38 20 -47 20 -10 0 -18 5
-18 10 0 17 29 11 70 -15z m-2467 -101 c27 -1 50 -4 53 -6 2 -3 -7 -15 -21
-28 -41 -38 -30 -64 16 -39 17 8 25 6 46 -15 17 -17 33 -24 45 -21 16 6 18 0
18 -48 0 -60 -15 -112 -51 -172 -13 -21 -33 -64 -44 -95 l-21 -55 -73 2 c-40
1 -79 7 -87 14 -42 35 -77 107 -100 208 -28 127 -30 162 -6 190 28 34 123 80
152 74 14 -4 47 -7 73 -9z m1742 -121 c-33 -101 -102 -200 -199 -285 -35 -32
-67 -58 -70 -58 -3 0 -6 13 -6 30 0 99 67 260 127 308 21 16 61 41 89 55 27
14 57 33 64 42 25 31 23 -3 -5 -92z m-1371 71 c32 -8 81 -15 110 -15 76 -1 96
-18 96 -82 0 -28 -4 -57 -8 -62 -9 -13 -135 -105 -177 -130 -16 -9 -46 -37
-65 -61 -44 -55 -93 -87 -119 -79 -22 7 -81 70 -81 86 0 6 6 25 14 42 23 51
46 159 46 216 l0 52 26 -20 c39 -31 45 -26 38 29 l-7 51 34 -6 c19 -3 60 -13
93 -21z m2094 -143 c33 -10 76 -31 96 -46 32 -24 126 -144 126 -160 0 -3 -21
-3 -47 1 -61 8 -158 59 -188 98 -29 38 -68 126 -56 126 5 0 36 -8 69 -19z
m663 -103 c-6 -17 -23 -51 -37 -75 -21 -37 -28 -42 -40 -32 -12 10 -21 6 -47
-19 -18 -18 -40 -32 -48 -32 -9 0 -16 -6 -16 -14 0 -19 25 -9 62 26 31 29 45
35 45 19 0 -9 -120 -94 -125 -89 -2 2 2 29 7 62 8 45 17 65 42 87 17 16 36 29
41 29 6 0 27 14 48 31 21 17 41 29 44 25 8 -7 -48 -56 -64 -56 -7 0 -16 -6
-20 -14 -4 -7 -15 -16 -23 -20 -8 -3 -4 -4 10 -1 13 2 31 -2 40 -9 13 -12 17
-12 28 0 7 7 12 15 12 16 -2 4 6 27 16 53 4 11 8 25 9 30 0 6 5 17 10 25 14
23 18 -6 6 -42z m-41 -32 c0 -3 -4 -8 -10 -11 -5 -3 -10 -1 -10 4 0 6 5 11 10
11 6 0 10 -2 10 -4z m-20 -37 c0 -14 -17 -10 -23 5 -4 10 -1 13 9 9 7 -3 14
-9 14 -14z m-2683 -258 c-3 -52 -12 -90 -28 -120 l-23 -45 -15 35 c-29 69 -14
164 37 222 15 16 16 16 25 1 5 -9 7 -51 4 -93z m-869 14 c47 -9 101 -23 120
-30 33 -15 131 -85 132 -96 0 -9 -27 -12 -120 -13 -103 -1 -135 13 -220 93
-68 65 -76 84 -29 71 17 -5 70 -16 117 -25z m430 -2 c11 -21 22 -51 26 -66 8
-32 -14 -120 -38 -152 -14 -19 -15 -19 -26 10 -25 64 -32 138 -20 193 14 63
32 67 58 15z m710 -193 c37 -14 40 -29 11 -56 -17 -15 -40 -20 -111 -23 -49
-1 -104 0 -123 3 -42 8 -90 45 -76 59 33 33 222 44 299 17z m1852 -121 c68
-70 160 -285 148 -345 -2 -11 -20 0 -66 42 -66 59 -118 146 -142 233 -12 46
-6 111 10 111 6 0 28 -18 50 -41z m-1735 -389 l0 -115 -48 -67 c-47 -67 -112
-126 -124 -115 -3 4 -8 51 -11 105 -5 116 5 152 120 432 10 23 13 20 36 -50
22 -63 26 -94 27 -190z m2188 128 c-6 -7 -16 -30 -23 -51 -18 -57 -60 -128
-95 -164 -34 -33 -111 -76 -157 -87 -26 -6 -26 -5 -18 24 12 42 73 131 125
182 56 54 200 136 168 96z m-2664 -173 c2 -119 -10 -216 -36 -275 l-15 -35
-11 25 c-6 14 -11 84 -11 155 -1 121 1 134 26 188 15 31 31 57 36 57 5 0 10
-52 11 -115z m173 -182 c16 -27 68 -228 68 -267 0 -16 -41 28 -66 69 -35 61
-51 112 -57 193 -6 73 -5 74 14 56 11 -10 29 -33 41 -51z m2184 -710 c22 -26
71 -91 111 -145 65 -89 72 -105 83 -170 12 -72 9 -236 -5 -271 -5 -12 -13 -16
-24 -11 -42 18 -68 15 -97 -9 -28 -25 -29 -28 -29 -120 0 -92 1 -97 29 -126
16 -17 38 -33 48 -37 15 -4 17 -9 8 -20 -10 -11 -16 -11 -41 1 -88 46 -132
120 -131 220 1 82 45 272 82 352 31 66 31 67 12 83 -11 8 -27 38 -35 65 -35
110 -65 235 -58 235 5 0 26 -21 47 -47z m-385 -395 c34 -36 49 -82 49 -152 0
-73 -13 -116 -34 -116 -31 0 -93 73 -110 129 -24 80 -21 116 10 140 34 27 58
26 85 -1z m-244 -136 c31 -41 33 -48 33 -128 0 -86 -14 -138 -43 -162 -12 -10
-24 -11 -57 -2 -33 9 -44 18 -56 45 -19 46 -18 175 1 222 36 85 71 92 122 25z
m369 -34 c28 -56 74 -191 74 -220 0 -11 -5 -15 -14 -12 -10 4 -24 -8 -39 -33
-33 -52 -46 -61 -92 -65 -46 -4 -55 -28 -14 -38 47 -13 91 11 129 68 42 64 42
63 65 -105 22 -153 25 -429 6 -503 -21 -85 -125 -280 -149 -280 -10 0 -29 172
-42 375 -15 222 -65 429 -142 578 -11 23 -23 56 -24 72 -2 17 -6 56 -10 88 -4
39 -3 57 5 57 6 0 11 -4 11 -10 0 -5 15 -26 32 -46 36 -41 90 -68 118 -59 28
9 50 66 50 129 0 31 2 56 5 56 2 0 17 -24 31 -52z m410 -83 c14 -21 16 -40 10
-108 -4 -45 -10 -85 -15 -90 -14 -14 -42 5 -62 44 -15 31 -18 50 -13 96 4 32
11 64 17 71 16 20 45 14 63 -13z m-606 -310 c45 -127 68 -241 75 -365 3 -63
11 -158 16 -210 33 -306 30 -345 -32 -459 -37 -69 -68 -93 -129 -99 l-47 -4
-6 98 c-6 108 -80 496 -146 764 -27 109 -43 204 -49 280 -5 63 -7 117 -5 119
2 3 16 -2 31 -11 43 -25 90 -30 123 -13 30 16 59 61 59 93 0 43 17 29 48 -40
19 -40 46 -109 62 -153z m-430 73 c23 -25 26 -76 9 -178 -14 -87 -31 -112 -72
-108 -66 6 -86 124 -40 229 35 79 66 96 103 57z m90 -207 c0 -13 12 -68 26
-122 l25 -97 -25 -41 c-29 -45 -50 -59 -121 -81 -59 -19 -70 -47 -16 -42 47 4
110 33 144 67 15 15 29 26 31 24 4 -4 58 -263 95 -463 25 -130 27 -272 5 -345
-10 -36 -30 -67 -62 -101 -89 -92 -148 -77 -212 54 -48 99 -59 159 -70 411
-11 234 -23 338 -55 462 -17 66 -25 120 -24 177 l0 81 19 -42 c21 -48 44 -63
95 -63 26 0 43 7 59 25 24 25 46 93 46 138 0 13 3 27 7 31 10 10 32 -41 33
-73z m-346 -372 c23 -18 26 -27 26 -82 0 -85 -7 -104 -45 -127 -45 -28 -51
-26 -69 20 -20 50 -21 130 -2 175 18 42 49 46 90 14z m1236 -119 c0 -119 -7
-142 -31 -98 -12 22 -7 187 6 208 18 29 25 -1 25 -110z m-1129 -2 c6 -10 13
-90 16 -176 l6 -158 -33 -28 c-30 -24 -40 -27 -100 -25 -78 2 -103 -7 -75 -28
25 -18 133 -17 169 2 15 8 32 15 36 15 4 0 10 -28 14 -62 8 -73 30 -157 55
-208 14 -28 15 -39 6 -57 -58 -110 -186 -125 -259 -30 -29 38 -79 145 -112
241 -28 82 -30 157 -10 353 16 149 30 191 40 126 8 -45 39 -101 61 -109 25
-10 64 5 102 39 30 28 36 42 40 84 6 54 22 62 44 21z m-575 -1042 c16 -12 20
-29 22 -98 4 -79 2 -86 -23 -116 -15 -18 -33 -32 -41 -32 -27 0 -58 88 -58
169 -1 72 0 75 24 82 39 11 55 10 76 -5z"/>
<path d="M3045 6960 c3 -5 10 -10 16 -10 5 0 9 5 9 10 0 6 -7 10 -16 10 -8 0
-12 -4 -9 -10z"/>
<path d="M3036 6914 c-9 -24 -2 -26 12 -4 7 11 8 20 3 20 -5 0 -12 -7 -15 -16z"/>
<path d="M2997 6897 c-11 -29 -9 -43 4 -30 6 6 9 19 7 29 -3 18 -4 18 -11 1z"/>
<path d="M3050 6880 c0 -5 4 -10 9 -10 6 0 13 5 16 10 3 6 -1 10 -9 10 -9 0
-16 -4 -16 -10z"/>
<path d="M2995 6827 c-4 -10 -5 -21 -1 -24 10 -10 18 4 13 24 -4 17 -4 17 -12
0z"/>
<path d="M3883 6593 c-7 -15 -11 -28 -9 -31 6 -6 28 38 24 48 -2 5 -9 -3 -15
-17z"/>
<path d="M3851 6509 c-7 -19 -8 -36 -2 -42 5 -5 11 7 15 28 9 48 2 55 -13 14z"/>
<path d="M2780 5740 c0 -5 5 -10 11 -10 5 0 7 5 4 10 -3 6 -8 10 -11 10 -2 0
-4 -4 -4 -10z"/>
<path d="M3390 5682 c0 -4 4 -12 10 -18 5 -5 13 -27 18 -49 5 -25 14 -41 25
-43 22 -4 22 16 0 41 -17 19 -17 20 0 14 23 -9 22 -4 -12 32 -29 31 -41 38
-41 23z"/>
<path d="M3440 5551 c0 -5 7 -14 15 -21 12 -10 15 -10 15 3 0 8 -7 17 -15 21
-8 3 -15 2 -15 -3z"/>
<path d="M3483 5525 c-14 -31 -7 -32 19 -2 l20 22 -5 -22 c-3 -13 -1 -23 3
-23 5 0 16 -7 24 -16 15 -14 16 -14 16 0 0 9 -4 16 -8 16 -5 0 -14 11 -20 25
-15 32 -34 32 -49 0z"/>
<path d="M3080 5279 c0 -5 5 -7 10 -4 6 3 10 8 10 11 0 2 -4 4 -10 4 -5 0 -10
-5 -10 -11z"/>
<path d="M4400 5366 c0 -2 7 -9 15 -16 9 -7 15 -8 15 -2 0 5 -7 12 -15 16 -8
3 -15 4 -15 2z"/>
<path d="M5045 4830 c3 -5 13 -10 21 -10 8 0 12 5 9 10 -3 6 -13 10 -21 10 -8
0 -12 -4 -9 -10z"/>
<path d="M5020 4812 c0 -12 19 -26 26 -19 2 2 -2 10 -11 17 -9 8 -15 8 -15 2z"/>
<path d="M4227 1937 c-23 -43 -64 -66 -127 -74 -54 -6 -85 -28 -55 -39 28 -11
115 4 151 27 35 21 84 83 84 106 0 26 -36 12 -53 -20z"/>
</g>
</svg>
