<?xml version="1.0" standalone="no"?>
<!DOCTYPE svg PUBLIC "-//W3C//DTD SVG 20010904//EN"
 "http://www.w3.org/TR/2001/REC-SVG-20010904/DTD/svg10.dtd">
<svg version="1.0" xmlns="http://www.w3.org/2000/svg"
 width="340.00pt" height="25.00pt" viewBox="0 0 126.17 16.56"
 preserveAspectRatio="xMidYMid meet">

<path
    fill="#102B4C"
    d="M3.62,14.25l0,.17a.7.7,0,0,1-.24.48.85.85,0,0,1-.55.24H2.74a1,1,0,0,1-.61-.46,1.59,1.59,0,0,1-.25-.86l0-.21a3.18,3.18,0,0,1,1.26-1.86c1.8-1.47,4.29-2,6.74-2.11q1.11-.07,2.22-.07C18,9.55,23.85,11,29.75,12.38s11.8,2.86,17.79,2.86a33.3,33.3,0,0,0,4.8-.34,14,14,0,0,0,5.63-2A6.33,6.33,0,0,0,61,8.15c0-.11,0-.21,0-.32A3.85,3.85,0,0,0,60.6,6a2.42,2.42,0,0,0-1.49-1.22,2.25,2.25,0,0,0-.58-.07,2.89,2.89,0,0,0-1.63.56,5.33,5.33,0,0,0-1.2,1.19h0a8.46,8.46,0,0,0-1.65,4.94,6.14,6.14,0,0,0,1.53,4.2,7.76,7.76,0,0,0,5.26,2.25l.72,0a12.33,12.33,0,0,0,8.35-3.48,12.07,12.07,0,0,0,3.9-8.16V6a5.77,5.77,0,0,0-.72-2.81,3.34,3.34,0,0,0-.94-1.06,2.36,2.36,0,0,0-1.37-.44h-.25a2.8,2.8,0,0,0-2,1.29,6.84,6.84,0,0,0-.94,2.16A16.39,16.39,0,0,0,67,9.28a9.88,9.88,0,0,0,.38,2.79,7.59,7.59,0,0,0,1.8,3.12,5.86,5.86,0,0,0,3.14,1.74,5.54,5.54,0,0,0,1,.09,7.06,7.06,0,0,0,4.19-1.56,14.78,14.78,0,0,0,3.15-3.36A6.18,6.18,0,0,0,82,8.85V8.76a3.11,3.11,0,0,0-.59-1.81,2.29,2.29,0,0,0-1.66-1h-.17a2.45,2.45,0,0,0-1.43.5,3.47,3.47,0,0,0-1,1.11,4.32,4.32,0,0,0-.55,2.13A5.84,5.84,0,0,0,77.72,13a6.81,6.81,0,0,0,2.68,2.29,10.63,10.63,0,0,0,4.54.89,29.17,29.17,0,0,0,4.16-.37C99.25,14.31,109.32,12,119.44,12q1.12,0,2.24,0a10,10,0,0,1,2.14.25,3.3,3.3,0,0,1,1.65.91,2.2,2.2,0,0,1,.57,1.52,2.81,2.81,0,0,1-.61,1.74,1.9,1.9,0,0,1-1.48.75h-.22l-.06.5.1-.49a2.07,2.07,0,0,1-1-.49.76.76,0,0,1-.25-.54.71.71,0,0,1,.11-.37.5.5,0,0,0-.85-.53,1.71,1.71,0,0,0-.26.9,1.75,1.75,0,0,0,.55,1.25,3.05,3.05,0,0,0,1.54.76h0l.34,0a2.9,2.9,0,0,0,2.25-1.12,3.79,3.79,0,0,0,.83-2.37,3.2,3.2,0,0,0-.83-2.2,4.28,4.28,0,0,0-2.13-1.2,10.93,10.93,0,0,0-2.36-.29q-1.14,0-2.28,0c-10.28,0-20.39,2.28-30.49,3.74a28.43,28.43,0,0,1-4,.36,9.66,9.66,0,0,1-4.12-.8,5.82,5.82,0,0,1-2.28-2,4.84,4.84,0,0,1-.92-2.7A3.31,3.31,0,0,1,78,8.06a2.5,2.5,0,0,1,.69-.79A1.45,1.45,0,0,1,79.58,7h.09a1.3,1.3,0,0,1,.93.57A2.12,2.12,0,0,1,81,8.76v.06a5.27,5.27,0,0,1-1.17,2.71,13.79,13.79,0,0,1-2.93,3.13A6.07,6.07,0,0,1,73.31,16a4.54,4.54,0,0,1-.82-.07,4.86,4.86,0,0,1-2.6-1.45,6.61,6.61,0,0,1-1.56-2.71A8.9,8.9,0,0,1,68,9.28a15.4,15.4,0,0,1,.57-3.88,5.88,5.88,0,0,1,.79-1.84,1.8,1.8,0,0,1,1.29-.87h.15a1.35,1.35,0,0,1,.8.26,2.77,2.77,0,0,1,.9,1.27A5,5,0,0,1,72.82,6v.18a11.08,11.08,0,0,1-3.58,7.47,11.34,11.34,0,0,1-7.66,3.21l-.65,0a6.78,6.78,0,0,1-4.59-1.92,5.14,5.14,0,0,1-1.27-3.53A7.47,7.47,0,0,1,56.51,7a4.28,4.28,0,0,1,1-1,1.9,1.9,0,0,1,1.06-.39,1.23,1.23,0,0,1,.32,0,1.42,1.42,0,0,1,.87.73,2.85,2.85,0,0,1,.33,1.35v.24a5.33,5.33,0,0,1-2.64,4,13.12,13.12,0,0,1-5.22,1.87,32.34,32.34,0,0,1-4.65.32c-5.83,0-11.67-1.41-17.56-2.83S18.15,8.55,12.11,8.55q-1.14,0-2.28.07A12.7,12.7,0,0,0,2.52,11,4.13,4.13,0,0,0,.9,13.44a2.35,2.35,0,0,0,0,.36,2.59,2.59,0,0,0,.42,1.41,2,2,0,0,0,1.22.88,1.58,1.58,0,0,0,.35,0,1.83,1.83,0,0,0,1.24-.51,1.68,1.68,0,0,0,.56-1.21,1.36,1.36,0,0,0-.14-.61.5.5,0,1,0-.9.44Z"
    transform="translate(-0.88 -1.69)"
  />
</svg>
