<svg width="683" height="683" viewBox="0 0 683 683" fill="none" xmlns="http://www.w3.org/2000/svg">
<g clip-path="url(#clip0_207_16)">
<path fill="#102B4C" d="M52.4 1.86683C28 7.86683 6.53332 29.8668 1.46665 54.4002C-0.400016 63.6002 -0.53335 150.8 1.33332 157.6C3.46665 165.2 10.6667 173.6 18.6667 178L26 182L69.7333 182.4L113.333 182.934V399.067C113.333 536.534 113.867 618.667 114.667 624.534C118.667 651.867 142 676.134 169.2 681.334C179.6 683.334 618.8 683.2 628.267 681.2C653.467 676 676 653.467 681.2 628.267C683.333 618 683.067 598.934 680.667 591.867C677.733 583.467 671.867 576.8 663.733 572.8L656.8 569.334H613.067H569.333L569.067 312.267L568.667 55.3335L565.6 47.4668C557.467 25.8668 544 12.1335 523.333 3.86683L515.333 0.666826L287.333 0.40016C108 0.266826 57.8667 0.533493 52.4 1.86683ZM85.7333 27.0668C95.6 31.6002 104.533 40.0002 108.933 49.2002L112.667 56.6668L113.067 107.6L113.467 158.667H71.6C32.2667 158.667 29.4667 158.534 26.5333 156.134L23.3333 153.6L22.9333 108.533C22.5333 66.4002 22.8 62.9335 25.3333 54.5335C29.7333 40.0002 42.6667 27.7335 57.8667 23.8668C65.0667 22.0002 77.8667 23.4668 85.7333 27.0668ZM520.267 27.7335C530.933 32.9335 538.667 41.2002 542.933 51.8668L546 59.3335V314V568.667L398.667 569.334C258.133 570 251.067 570.134 246.667 572.534C233.333 579.6 229.2 587.467 227.867 608.4C226.933 621.734 226.267 625.467 222.933 632.4C218.267 642.4 209.867 650.934 200 655.734C193.867 658.8 190.933 659.334 182 659.334C172.533 659.334 170.133 658.8 162.4 654.934C151.733 649.734 144 641.467 139.733 630.8L136.667 623.334L136 338.667C135.333 78.0002 135.2 53.6002 133.067 48.5335C129.733 40.0002 125.333 31.7335 121.733 26.9335L118.533 22.6668L314.933 22.9335L511.333 23.3335L520.267 27.7335ZM656 594.667C659.733 598.4 660.4 602.667 659.733 615.2C659.2 623.2 658 628.134 655.467 633.6C651.333 642.267 641.333 652.134 632.4 656.4L626 659.334L428.933 659.734L232 660L236.4 654.267C245.067 642.934 250.533 624.8 250.667 607.6C250.667 599.734 251.067 598.134 254 595.334L257.2 592H455.333C650.667 592 653.333 592 656 594.667Z"/>
<path fill="#102B4C" d="M195.692 312.595C184.036 314.874 173.681 325.554 171.467 337.601C170.1 345.025 171.793 355.379 175.765 363.649C181.822 376.413 196.604 389.762 213.796 398.098C217.182 399.726 220.438 401.093 221.024 401.093C222.912 401.093 234.178 395.232 240.886 390.804C259.51 378.431 269.669 363.258 270.906 345.871C272.144 329.656 261.008 315.199 245.249 312.464C238.281 311.227 229.62 313.637 223.564 318.455L221.024 320.474L218.484 318.455C215.163 315.786 209.758 313.376 205.395 312.53C201.488 311.813 199.73 311.813 195.692 312.595ZM208.456 325.293C210.93 326.465 212.754 328.028 214.903 330.828C219.526 336.885 222.522 336.885 227.145 330.828C234.243 321.581 245.705 320.8 254.04 328.94C261.268 336.038 261.854 347.304 255.733 359.612C253.324 364.365 251.696 366.579 246.812 371.463C240.886 377.389 232.094 383.836 224.801 387.483L221.024 389.372L217.247 387.483C210.93 384.292 201.488 377.65 196.474 372.831C187.031 363.91 182.408 354.532 182.342 344.113C182.277 337.275 183.645 333.433 187.682 329.265C193.608 323.079 200.967 321.712 208.456 325.293Z"/>
<path fill="#102B4C" d="M295.525 334.989C290.772 338.016 289.476 348.058 293.019 353.561L295.093 357H401.467H507.841L509.915 353.561C512.68 349.296 512.68 343.243 510.002 338.153L507.928 334.301L402.591 334.026C344.348 333.889 296.476 334.301 295.525 334.989Z"/>
<path fill="#102B4C" d="M273.56 382.901C269.566 388.684 270.327 397.158 275.271 400.386C278.504 402.538 506.496 402.538 509.729 400.386C514.673 397.158 515.434 388.684 511.44 382.901L508.683 379H392.5H276.317L273.56 382.901Z"/>
<path fill="#102B4C" d="M177.982 424.959C170.649 427.892 168.649 437.625 174.116 442.959L177.316 446.292H341.449H505.582L508.782 442.959C513.049 438.825 513.049 432.959 508.916 428.025L505.716 424.292L343.182 424.025C253.316 423.892 179.449 424.292 177.982 424.959Z"/>
<path fill="#102B4C" d="M177.982 468.959C170.649 471.892 168.649 481.625 174.116 486.959L177.316 490.292H341.449H505.582L508.782 486.959C513.049 482.825 513.049 476.959 508.916 472.025L505.716 468.292L343.182 468.025C253.316 467.892 179.449 468.292 177.982 468.959Z"/>
<path fill="#102B4C" d="M174.59 515.867C168.99 521.6 170.056 530 176.99 533.2C179.256 534.267 215.79 534.667 302.856 534.667H425.523L428.723 531.333C433.256 526.933 433.256 519.733 428.723 515.333L425.523 512H302.056H178.456L174.59 515.867Z"/>
<path fill="#102B4C" d="M341.274 83.3334C335.541 88.9334 336.741 92.6668 349.274 109.333C355.541 117.6 360.607 124.8 360.474 125.2C360.474 125.6 356.607 127.867 351.807 130.133L343.141 134.267L336.074 130.533C299.541 110.8 254.607 130.8 243.941 171.6C234.741 206.667 259.274 243.467 295.941 249.733C308.207 251.867 322.207 249.6 334.074 243.733L343.274 239.2L352.341 243.6C376.607 255.733 404.874 251.333 424.741 232.4C451.007 207.333 450.874 165.333 424.207 140.4C419.274 135.867 412.607 131.2 408.207 129.333C404.074 127.467 400.607 125.6 400.607 125.2C400.607 124.8 405.674 117.6 411.941 109.333C424.474 92.6668 425.674 88.9334 419.941 83.3334L416.741 80.0001H380.607H344.474L341.274 83.3334ZM386.341 108C383.674 111.6 381.007 114.667 380.607 114.667C380.207 114.667 377.541 111.6 374.874 108L369.941 101.333H380.607H391.274L386.341 108ZM322.074 147.333C324.607 148.667 326.741 149.867 327.007 150C327.274 150.267 325.941 153.467 324.074 157.2C314.341 176.267 314.341 197.067 323.941 216.133C325.807 219.733 327.007 223.2 326.741 223.867C326.341 224.4 322.607 226 318.474 227.333C292.741 235.467 265.807 217.067 263.541 189.733C262.074 170.533 273.674 153.067 292.607 146.133C300.074 143.467 315.674 144.133 322.074 147.333ZM400.607 149.467C409.674 154.267 413.807 158.533 419.007 168.533C421.941 174.267 422.474 177.067 422.607 186.667C422.607 197.2 422.207 198.667 417.807 206.667C407.674 225.067 386.874 233.6 367.674 227.2C364.207 226 360.741 224.667 360.207 224.133C359.674 223.6 361.141 219.067 363.407 214.133C371.807 196.267 371.807 177.067 363.407 159.067C361.007 154.267 359.674 149.733 360.207 149.2C360.741 148.667 363.941 147.333 367.274 146.133C376.741 142.667 390.474 144 400.607 149.467ZM345.541 170.933C348.874 177.2 348.741 196.267 345.407 202.533L343.007 207.2L341.007 202.533C337.674 195.067 337.274 182.667 339.941 174.133C341.274 170 342.474 166.667 342.741 166.667C343.007 166.667 344.207 168.667 345.541 170.933Z"/>
</g>
<defs>
<clipPath id="clip0_207_16">
<rect width="682.667" height="682.667" fill="#102B4C"/>
</clipPath>
</defs>
</svg>
