<?xml version="1.0" encoding="UTF-8"?>
<svg xmlns="http://www.w3.org/2000/svg" xmlns:xlink="http://www.w3.org/1999/xlink" width="340px" height="140px" viewBox="0 0 339 140" version="1.1">
<g id="surface1">
<path style=" stroke:none;fill-rule:nonzero;fill:rgb(0%,0%,0%);fill-opacity:1;" d="M 160.097656 33.863281 C 157.050781 35 155.332031 37.304688 155.03125 40.734375 L 154.835938 42.664062 L 152.316406 42.664062 C 149.207031 42.664062 146.722656 43.699219 145.664062 45.398438 C 144.175781 47.734375 145.398438 51.398438 148.34375 53.667969 L 149.472656 54.496094 L 148.445312 53.164062 C 146.523438 50.667969 145.863281 48.5625 146.523438 46.867188 C 146.957031 45.761719 149.007812 44.867188 151.09375 44.867188 C 154.601562 44.902344 156.820312 46.566406 158.277344 50.230469 C 158.9375 51.9375 159.039062 52.765625 159.039062 57 C 159.039062 62.070312 158.574219 64.695312 157.21875 67.398438 C 156.289062 69.195312 154.601562 71.035156 153.378906 71.53125 C 152.085938 72.097656 148.976562 72.128906 147.152344 71.632812 C 144.570312 70.902344 139.835938 68.433594 138.050781 66.867188 C 135.101562 64.300781 132.125 61.632812 129.609375 59.335938 C 116.960938 47.667969 106.832031 43.335938 92.199219 43.335938 C 83.988281 43.335938 77.566406 44.460938 71.640625 47 C 64.355469 50.097656 61.378906 52.46875 49.824219 64.167969 C 38.003906 76.164062 35.554688 77.929688 27.90625 80.167969 C 24.695312 81.101562 18.507812 81.800781 16.054688 81.5 C 10.394531 80.761719 6.6875 78.699219 4.765625 75.269531 C 3.90625 73.671875 3.808594 73.199219 3.808594 70.496094 C 3.808594 67.835938 3.941406 67.234375 4.867188 65.269531 C 8.707031 57 17.214844 49.898438 25.722656 47.835938 C 28.800781 47.0625 32.707031 47.261719 34.59375 48.234375 C 37.476562 49.765625 38.800781 52.035156 39 55.863281 C 39.261719 60.496094 37.675781 64.5 34.265625 67.871094 C 32.808594 69.335938 31.648438 70.132812 30.324219 70.628906 C 26.582031 72.03125 23.140625 71.863281 22.015625 70.230469 C 21.351562 69.261719 21.386719 66.800781 22.148438 65.136719 C 23.472656 62.234375 27.3125 60.066406 30.589844 60.429688 C 31.515625 60.539062 32.574219 60.703125 32.941406 60.800781 C 33.304688 60.933594 33.074219 60.734375 32.445312 60.429688 C 30.855469 59.632812 27.046875 59.632812 25.558594 60.429688 C 22.414062 62.136719 20.492188 65.070312 20.425781 68.234375 C 20.359375 71.367188 22.347656 73 26.1875 73 C 31.75 73 36.746094 69.667969 39.496094 64.132812 C 43.335938 56.402344 41.648438 48.664062 35.523438 45.597656 C 33.335938 44.539062 33.171875 44.503906 29.132812 44.539062 C 25.523438 44.539062 24.664062 44.636719 22.414062 45.433594 C 13.242188 48.628906 5.066406 55.832031 1.820312 63.601562 C 0.363281 67.066406 -0.132812 69.636719 0.164062 72.128906 C 0.398438 74.234375 1.257812 76.902344 2.019531 77.832031 C 4.371094 80.695312 5.527344 81.699219 8.042969 82.933594 C 11.785156 84.765625 13.671875 85.164062 18.539062 85.128906 C 24.960938 85.0625 30.027344 83.902344 35.222656 81.300781 C 40.753906 78.535156 43.601562 76.03125 56.113281 62.964844 C 62.105469 56.667969 65.78125 53.769531 70.679688 51.363281 C 75.945312 48.796875 76.109375 48.796875 72.632812 51.429688 C 68.164062 54.835938 64.65625 59.667969 62.800781 64.9375 C 61.839844 67.628906 61.773438 68.136719 61.742188 72.503906 C 61.742188 76.769531 61.839844 77.398438 62.667969 79.835938 C 64.589844 85.371094 68.628906 89.902344 73.957031 92.53125 L 76.96875 93.996094 L 44.261719 93.996094 C 13.273438 93.996094 11.554688 94.03125 11.652344 94.566406 C 11.753906 95.132812 15.0625 95.164062 73.992188 95.332031 L 136.230469 95.496094 L 137.882812 96.398438 C 141.394531 98.261719 147.085938 99.761719 152.914062 100.335938 C 157.085938 100.734375 181.914062 100.734375 186.085938 100.335938 C 191.914062 99.761719 197.605469 98.261719 201.117188 96.398438 L 202.769531 95.496094 L 265.007812 95.332031 C 323.9375 95.164062 327.246094 95.132812 327.347656 94.566406 C 327.445312 94.03125 325.726562 93.996094 294.738281 93.996094 L 262.03125 93.996094 L 265.042969 92.53125 C 270.371094 89.902344 274.410156 85.371094 276.332031 79.835938 C 277.160156 77.398438 277.257812 76.769531 277.226562 72.503906 C 277.226562 68.167969 277.160156 67.628906 276.199219 64.9375 C 274.34375 59.566406 270.503906 54.398438 265.96875 51.132812 C 263.683594 49.5 263.421875 49.167969 264.613281 49.632812 C 271.761719 52.367188 277.160156 56.535156 286.230469 66.402344 C 294.671875 75.5 298.246094 78.535156 303.875 81.335938 C 308.972656 83.902344 314.070312 85.0625 320.460938 85.128906 C 325.292969 85.164062 327.179688 84.765625 330.890625 83 C 335.390625 80.828125 338.039062 77.332031 338.734375 72.667969 C 340.191406 62.832031 329.796875 50.03125 316.652344 45.464844 C 314.335938 44.636719 313.507812 44.539062 309.867188 44.539062 C 305.828125 44.503906 305.664062 44.539062 303.511719 45.597656 C 298.644531 48 296.527344 53.03125 297.785156 59.136719 C 299.109375 65.601562 303.511719 70.902344 308.839844 72.46875 C 311.355469 73.199219 314.699219 73.164062 316.15625 72.371094 C 318.972656 70.871094 319.46875 67.53125 317.382812 64.265625 C 315.957031 62.039062 315.429688 61.566406 313.046875 60.460938 C 311.421875 59.734375 310.792969 59.601562 309.203125 59.765625 C 308.179688 59.832031 306.886719 60.164062 306.359375 60.496094 C 305.828125 60.800781 305.695312 60.933594 306.058594 60.835938 C 310.332031 59.433594 314.898438 61.300781 316.6875 65.167969 C 318.078125 68.101562 317.648438 70.199219 315.527344 71.136719 C 312.78125 72.402344 308.046875 71.070312 304.933594 68.167969 C 301.558594 65.003906 299.738281 60.539062 300 55.863281 C 300.300781 50.46875 302.980469 47.734375 308.3125 47.402344 C 317.582031 46.832031 329.332031 54.96875 334.101562 65.234375 C 335.058594 67.234375 335.160156 67.835938 335.160156 70.496094 C 335.191406 73.03125 335.058594 73.738281 334.398438 74.996094 C 332.511719 78.601562 328.9375 80.597656 322.910156 81.5 C 320.757812 81.832031 314.203125 81.070312 310.960938 80.132812 C 303.542969 77.996094 299.96875 75.371094 289.539062 64.5625 C 279.410156 54.03125 276.296875 51.429688 269.910156 48.199219 C 263.617188 45.035156 257.859375 43.699219 249.25 43.433594 C 238.824219 43.105469 232.167969 44.429688 224.390625 48.367188 C 219.125 51.035156 215.25 54 205.054688 63.261719 C 199.558594 68.203125 197.078125 69.835938 192.773438 71.300781 C 190.390625 72.097656 187.210938 72.203125 185.621094 71.53125 C 184.398438 71.035156 182.710938 69.195312 181.78125 67.398438 C 180.425781 64.695312 179.960938 62.070312 179.960938 57 C 179.960938 52.765625 180.0625 51.9375 180.722656 50.230469 C 182.179688 46.566406 184.398438 44.902344 187.90625 44.867188 C 189.992188 44.867188 192.042969 45.761719 192.476562 46.867188 C 193.136719 48.5625 192.476562 50.667969 190.554688 53.164062 L 189.527344 54.496094 L 190.65625 53.667969 C 193.601562 51.398438 194.824219 47.734375 193.335938 45.398438 C 192.277344 43.699219 189.792969 42.664062 186.683594 42.664062 L 184.164062 42.664062 L 183.96875 40.667969 C 183.601562 36.464844 180.257812 33.335938 176.1875 33.335938 C 174.632812 33.335938 172.3125 34.46875 171.488281 35.628906 C 170.957031 36.398438 170.59375 36.566406 169.5 36.566406 C 168.40625 36.566406 168.042969 36.398438 167.515625 35.628906 C 166.089844 33.632812 162.8125 32.835938 160.097656 33.863281 Z M 165.097656 35 C 165.660156 35.332031 166.289062 35.9375 166.488281 36.269531 C 166.785156 36.832031 166.652344 37.0625 165.726562 37.800781 C 164.402344 38.804688 163.210938 41.097656 163.210938 42.632812 C 163.210938 44 164.136719 45.632812 165.0625 45.863281 C 167.613281 46.535156 169.003906 45.066406 169.003906 41.738281 C 169.003906 40.5 168.871094 38.9375 168.738281 38.230469 C 168.472656 36.996094 168.472656 36.996094 169.53125 36.996094 C 170.460938 36.996094 170.558594 37.097656 170.359375 37.734375 C 169.863281 39.5 169.765625 42.597656 170.164062 43.800781 C 170.691406 45.464844 171.320312 46.003906 172.8125 46.003906 C 174.464844 46.003906 175.789062 44.539062 175.789062 42.730469 C 175.789062 41.097656 174.632812 38.835938 173.273438 37.800781 C 172.347656 37.0625 172.214844 36.832031 172.511719 36.269531 C 173.570312 34.261719 177.179688 33.699219 179.628906 35.164062 C 181.152344 36.070312 182.410156 38.199219 182.410156 39.863281 C 182.378906 42.199219 181.78125 43.601562 180.09375 45.199219 C 178.238281 46.933594 176.847656 49.566406 175.921875 52.996094 C 175.128906 56.03125 175.128906 63.03125 175.921875 65.964844 C 177.542969 71.929688 180.789062 75.566406 185.390625 76.53125 L 187.210938 76.933594 L 183.074219 78.964844 C 180.789062 80.066406 176.816406 81.699219 174.234375 82.535156 L 169.5 84.101562 L 164.800781 82.535156 C 162.183594 81.699219 158.210938 80.066406 155.925781 78.964844 L 151.789062 76.933594 L 153.609375 76.53125 C 158.277344 75.566406 161.652344 71.699219 163.109375 65.765625 C 163.839844 62.699219 163.839844 56.269531 163.078125 53.195312 C 162.28125 49.863281 160.726562 46.933594 158.875 45.167969 C 156.554688 42.960938 155.960938 40.171875 157.285156 37.4375 C 158.609375 34.667969 162.546875 33.433594 165.097656 35 Z M 167.382812 38.871094 C 167.679688 40.03125 167.316406 43.269531 166.820312 43.867188 C 166.289062 44.539062 165.957031 44.460938 165.328125 43.5 C 164.699219 42.53125 164.929688 40.632812 165.859375 39.070312 C 166.652344 37.765625 167.082031 37.734375 167.382812 38.871094 Z M 173.207031 39.199219 C 174.167969 40.867188 174.300781 42.730469 173.539062 43.667969 C 172.910156 44.429688 172.8125 44.460938 172.3125 43.964844 C 171.320312 42.960938 171.253906 37.765625 172.246094 38.097656 C 172.445312 38.164062 172.910156 38.671875 173.207031 39.199219 Z M 98.222656 46.867188 C 99.914062 47.097656 99.976562 47.128906 101.433594 49.335938 C 103.222656 52.035156 105.308594 56.171875 106.433594 59.238281 C 107.394531 61.796875 111.167969 69.128906 112.589844 71.234375 C 113.121094 71.996094 113.550781 72.703125 113.550781 72.832031 C 113.550781 73.164062 118.417969 79.601562 120.472656 82 C 123.382812 85.371094 128.382812 90.234375 130.898438 92.132812 L 133.183594 93.832031 L 121.363281 93.929688 C 114.84375 93.964844 104.28125 93.964844 97.894531 93.929688 L 86.238281 93.832031 L 87.761719 92.9375 C 90.476562 91.335938 92.265625 88.097656 91.867188 85.535156 C 91.402344 82.46875 88.886719 80.035156 86.703125 80.5 C 85.378906 80.796875 85.246094 81.234375 86.539062 81.070312 C 88.691406 80.796875 90.609375 83.398438 90.277344 86.199219 C 89.949219 89.230469 86.4375 92 82.929688 92 C 77.597656 92 70.945312 87.46875 68.195312 82 C 66.046875 77.699219 65.648438 71.765625 67.171875 66.96875 C 70.050781 57.902344 79.054688 50.4375 90.875 47.328125 C 93.359375 46.667969 95.476562 46.535156 98.222656 46.867188 Z M 247.429688 47.164062 C 257.363281 49.5 266.398438 55.765625 270.109375 62.964844 C 272.625 67.835938 273.386719 73.164062 272.292969 77.929688 C 270.539062 85.4375 262.957031 92 256.070312 92 C 252.5625 92 249.050781 89.230469 248.722656 86.199219 C 248.390625 83.398438 250.308594 80.796875 252.460938 81.070312 C 253.6875 81.203125 253.6875 80.828125 252.429688 80.53125 C 251.898438 80.398438 251.039062 80.566406 250.144531 80.929688 C 248.984375 81.46875 248.554688 81.933594 247.859375 83.367188 C 247.363281 84.335938 246.96875 85.601562 246.96875 86.132812 C 247.03125 88.667969 248.789062 91.503906 251.238281 92.9375 L 252.761719 93.832031 L 241.105469 93.929688 C 234.71875 93.964844 224.15625 93.964844 217.636719 93.929688 L 205.816406 93.832031 L 208.101562 92.097656 C 211.972656 89.199219 218 82.933594 222.039062 77.664062 C 226.042969 72.402344 230.347656 64.796875 232.566406 59.171875 C 233.855469 55.832031 235.84375 51.96875 237.597656 49.300781 C 238.921875 47.296875 239.21875 47.03125 240.3125 46.898438 C 243.09375 46.601562 245.410156 46.699219 247.429688 47.164062 Z M 108.652344 49.203125 C 114.910156 51.429688 120.601562 55.265625 130.4375 63.835938 C 133.382812 66.402344 136.925781 69.4375 138.316406 70.597656 C 144.96875 76.097656 154.171875 81.300781 161.71875 83.871094 C 163.738281 84.535156 165.429688 85.164062 165.527344 85.230469 C 166.023438 85.769531 158.078125 84.929688 155.230469 84.203125 C 149.339844 82.636719 141.757812 78.734375 135.402344 73.96875 C 133.84375 72.800781 132.191406 71.566406 131.757812 71.269531 C 131.296875 70.96875 130.535156 70.363281 130.070312 69.933594 C 129.574219 69.503906 127.953125 68.101562 126.429688 66.835938 C 124.941406 65.535156 122.125 63.066406 120.207031 61.332031 C 114.675781 56.335938 111.632812 53.636719 108.320312 50.902344 C 106.632812 49.5 105.472656 48.332031 105.738281 48.332031 C 106.003906 48.332031 107.328125 48.730469 108.652344 49.203125 Z M 231.835938 49.898438 C 229.355469 51.9375 223.660156 56.898438 218.792969 61.332031 C 212.503906 67.066406 207.175781 71.464844 202.769531 74.566406 C 192.839844 81.601562 184.828125 84.863281 176.785156 85.195312 L 172.976562 85.371094 L 176.949219 84.003906 C 185.554688 81.070312 194.394531 75.898438 202.273438 69.195312 C 204.558594 67.265625 208.730469 63.734375 211.542969 61.300781 C 219.523438 54.496094 223.761719 51.730469 229.753906 49.433594 C 233.691406 47.933594 234.15625 48.035156 231.835938 49.898438 Z M 109.746094 54.703125 C 112.09375 56.734375 115.175781 59.402344 116.53125 60.671875 C 117.886719 61.894531 119.777344 63.570312 120.734375 64.367188 C 121.664062 65.167969 123.550781 66.800781 124.875 67.96875 C 140.464844 81.632812 153.609375 87.964844 164.699219 87.167969 C 168.835938 86.871094 170.164062 86.871094 174.300781 87.167969 C 183.304688 87.796875 195.023438 83.167969 205.949219 74.632812 C 209.589844 71.796875 214.390625 67.871094 216.011719 66.371094 C 222.566406 60.398438 233.226562 51.199219 235.378906 49.667969 L 236.539062 48.871094 L 235.214844 50.503906 C 233.0625 53.164062 232.367188 54.230469 229.421875 59.171875 C 226.042969 64.863281 223.429688 68.402344 219.222656 73 C 215.648438 76.902344 209.625 82.4375 206.082031 85.03125 C 200.453125 89.132812 193.898438 91.601562 185.324219 92.835938 C 180.722656 93.5 164.929688 93.796875 158.742188 93.332031 C 141.425781 92.03125 132.554688 87.167969 118.121094 71.167969 C 115.539062 68.300781 112.460938 64 109.746094 59.5 C 106.601562 54.199219 105.539062 52.632812 103.820312 50.503906 L 102.460938 48.871094 L 103.953125 49.929688 C 104.777344 50.503906 107.359375 52.664062 109.746094 54.703125 Z M 109.746094 54.703125 "/>
<path style=" stroke:none;fill-rule:nonzero;fill:rgb(0%,0%,0%);fill-opacity:1;" d="M 167.679688 53.769531 C 165.195312 55.167969 164.203125 58.300781 164.203125 64.5625 C 164.203125 70.695312 165.558594 75.335938 168.042969 77.664062 L 169.269531 78.832031 L 168.574219 77.597656 C 166.882812 74.597656 166.421875 72.203125 166.253906 65.632812 C 166.089844 58.167969 166.453125 56.269531 168.339844 54.804688 L 169.46875 53.933594 L 170.425781 54.628906 C 172.3125 55.964844 172.644531 57.199219 172.746094 63.667969 C 172.875 70.332031 172.480469 73.066406 170.824219 76.636719 L 169.796875 78.832031 L 170.957031 77.664062 C 173.339844 75.371094 174.433594 71.964844 174.699219 65.996094 C 174.929688 61.199219 174.464844 57.804688 173.375 55.832031 C 172.644531 54.5625 170.527344 52.996094 169.5 52.996094 C 169.234375 52.996094 168.40625 53.335938 167.679688 53.769531 Z M 167.679688 53.769531 "/>
</g>
</svg>
