<?xml version="1.0" standalone="no"?><svg xmlns="http://www.w3.org/2000/svg" viewBox="0 0 1440 320"><path fill="#d7ad89" fill-opacity="1" d="M0,256L13.3,250.7C26.7,245,53,235,80,224C106.7,213,133,203,160,208C186.7,213,213,235,240,256C266.7,277,293,299,320,272C346.7,245,373,171,400,154.7C426.7,139,453,181,480,218.7C506.7,256,533,288,560,277.3C586.7,267,613,213,640,186.7C666.7,160,693,160,720,170.7C746.7,181,773,203,800,192C826.7,181,853,139,880,149.3C906.7,160,933,224,960,240C986.7,256,1013,224,1040,208C1066.7,192,1093,192,1120,186.7C1146.7,181,1173,171,1200,192C1226.7,213,1253,267,1280,288C1306.7,309,1333,299,1360,277.3C1386.7,256,1413,224,1427,208L1440,192L1440,320L1426.7,320C1413.3,320,1387,320,1360,320C1333.3,320,1307,320,1280,320C1253.3,320,1227,320,1200,320C1173.3,320,1147,320,1120,320C1093.3,320,1067,320,1040,320C1013.3,320,987,320,960,320C933.3,320,907,320,880,320C853.3,320,827,320,800,320C773.3,320,747,320,720,320C693.3,320,667,320,640,320C613.3,320,587,320,560,320C533.3,320,507,320,480,320C453.3,320,427,320,400,320C373.3,320,347,320,320,320C293.3,320,267,320,240,320C213.3,320,187,320,160,320C133.3,320,107,320,80,320C53.3,320,27,320,13,320L0,320Z"></path></svg>